G04*
G04 #@! TF.GenerationSoftware,Altium Limited,Altium Designer,24.2.2 (26)*
G04*
G04 Layer_Color=32896*
%FSLAX43Y43*%
%MOMM*%
G71*
G04*
G04 #@! TF.SameCoordinates,FB4AC1D3-029A-4C58-91C8-636A0C7E52CF*
G04*
G04*
G04 #@! TF.FilePolarity,Positive*
G04*
G01*
G75*
%ADD10C,0.600*%
%ADD11C,0.200*%
%ADD13C,0.254*%
G36*
X34421Y8635D02*
X34445Y8631D01*
X34466Y8624D01*
X34483Y8617D01*
X34497Y8610D01*
X34508Y8603D01*
X34514Y8599D01*
X34517Y8597D01*
X34534Y8580D01*
X34548Y8562D01*
X34561Y8541D01*
X34570Y8521D01*
X34577Y8503D01*
X34582Y8489D01*
X34584Y8483D01*
Y8479D01*
X34586Y8476D01*
Y8475D01*
X34594Y8494D01*
X34603Y8511D01*
X34611Y8525D01*
X34620Y8537D01*
X34627Y8546D01*
X34632Y8552D01*
X34637Y8556D01*
X34638Y8558D01*
X34658Y8572D01*
X34678Y8583D01*
X34697Y8590D01*
X34716Y8596D01*
X34731Y8599D01*
X34744Y8601D01*
X34752D01*
X34754D01*
X34755D01*
X34771D01*
X34785Y8599D01*
X34811Y8592D01*
X34834Y8582D01*
X34854Y8572D01*
X34871Y8561D01*
X34882Y8551D01*
X34889Y8544D01*
X34892Y8542D01*
Y8541D01*
X34910Y8515D01*
X34924Y8489D01*
X34934Y8460D01*
X34941Y8432D01*
X34945Y8407D01*
X34947Y8397D01*
Y8387D01*
X34948Y8380D01*
Y7922D01*
X34176D01*
Y8346D01*
X34177Y8362D01*
X34179Y8379D01*
X34181Y8397D01*
X34183Y8414D01*
X34184Y8428D01*
Y8434D01*
X34186Y8438D01*
Y8441D01*
X34190Y8462D01*
X34193Y8480D01*
X34197Y8496D01*
X34201Y8508D01*
X34205Y8518D01*
X34208Y8525D01*
X34211Y8530D01*
Y8531D01*
X34222Y8548D01*
X34235Y8563D01*
X34248Y8577D01*
X34260Y8589D01*
X34270Y8597D01*
X34279Y8603D01*
X34286Y8607D01*
X34287Y8608D01*
X34305Y8618D01*
X34324Y8625D01*
X34342Y8630D01*
X34359Y8634D01*
X34373Y8635D01*
X34384Y8637D01*
X34391D01*
X34394D01*
X34421Y8635D01*
D02*
G37*
G36*
X34467Y7799D02*
X34486Y7798D01*
X34520Y7789D01*
X34551Y7778D01*
X34576Y7764D01*
X34596Y7750D01*
X34604Y7744D01*
X34611Y7739D01*
X34617Y7734D01*
X34621Y7730D01*
X34623Y7729D01*
X34624Y7727D01*
X34637Y7713D01*
X34648Y7699D01*
X34656Y7684D01*
X34665Y7668D01*
X34678Y7637D01*
X34686Y7606D01*
X34690Y7581D01*
X34693Y7570D01*
Y7560D01*
X34694Y7551D01*
Y7540D01*
X34693Y7515D01*
X34692Y7503D01*
X34690Y7493D01*
X34689Y7484D01*
X34687Y7476D01*
X34686Y7472D01*
Y7471D01*
X34679Y7445D01*
X34675Y7433D01*
X34670Y7422D01*
X34666Y7413D01*
X34663Y7405D01*
X34662Y7400D01*
X34661Y7399D01*
X34776Y7417D01*
Y7764D01*
X34948D01*
Y7254D01*
X34532Y7186D01*
X34506Y7368D01*
X34515Y7378D01*
X34524Y7386D01*
X34531Y7395D01*
X34537Y7402D01*
X34541Y7407D01*
X34544Y7412D01*
X34546Y7414D01*
Y7416D01*
X34552Y7427D01*
X34555Y7438D01*
X34561Y7457D01*
Y7465D01*
X34562Y7471D01*
Y7476D01*
X34561Y7493D01*
X34556Y7510D01*
X34552Y7523D01*
X34546Y7534D01*
X34539Y7544D01*
X34535Y7550D01*
X34531Y7554D01*
X34530Y7555D01*
X34515Y7565D01*
X34500Y7572D01*
X34483Y7578D01*
X34466Y7581D01*
X34452Y7584D01*
X34439Y7585D01*
X34431D01*
X34429D01*
X34428D01*
X34404Y7584D01*
X34384Y7581D01*
X34367Y7575D01*
X34353Y7571D01*
X34342Y7565D01*
X34335Y7560D01*
X34329Y7557D01*
X34328Y7555D01*
X34317Y7544D01*
X34308Y7531D01*
X34303Y7519D01*
X34298Y7507D01*
X34296Y7496D01*
X34294Y7488D01*
Y7481D01*
X34296Y7467D01*
X34298Y7453D01*
X34303Y7440D01*
X34308Y7430D01*
X34312Y7422D01*
X34317Y7416D01*
X34319Y7412D01*
X34321Y7410D01*
X34332Y7400D01*
X34345Y7393D01*
X34358Y7386D01*
X34370Y7382D01*
X34382Y7379D01*
X34391Y7376D01*
X34397Y7375D01*
X34400D01*
X34376Y7158D01*
X34356Y7164D01*
X34338Y7171D01*
X34322Y7176D01*
X34310Y7183D01*
X34298Y7187D01*
X34291Y7192D01*
X34286Y7195D01*
X34284Y7196D01*
X34259Y7216D01*
X34248Y7226D01*
X34239Y7235D01*
X34231Y7245D01*
X34225Y7252D01*
X34221Y7257D01*
X34219Y7258D01*
X34201Y7289D01*
X34194Y7304D01*
X34188Y7320D01*
X34183Y7333D01*
X34180Y7343D01*
X34179Y7348D01*
X34177Y7351D01*
X34173Y7372D01*
X34169Y7395D01*
X34166Y7417D01*
X34164Y7437D01*
Y7455D01*
X34163Y7469D01*
Y7482D01*
X34164Y7520D01*
X34169Y7554D01*
X34174Y7585D01*
X34181Y7610D01*
X34187Y7630D01*
X34190Y7639D01*
X34193Y7644D01*
X34195Y7650D01*
X34197Y7654D01*
X34198Y7656D01*
Y7657D01*
X34214Y7681D01*
X34231Y7702D01*
X34248Y7720D01*
X34264Y7736D01*
X34280Y7747D01*
X34293Y7756D01*
X34301Y7761D01*
X34303Y7763D01*
X34304D01*
X34329Y7775D01*
X34356Y7785D01*
X34380Y7791D01*
X34401Y7796D01*
X34421Y7799D01*
X34435Y7801D01*
X34441D01*
X34445D01*
X34446D01*
X34448D01*
X34467Y7799D01*
D02*
G37*
G36*
X34647Y6849D02*
X34850D01*
Y6679D01*
X34647D01*
Y6477D01*
X34476D01*
Y6679D01*
X34274D01*
Y6849D01*
X34476D01*
Y7052D01*
X34647D01*
Y6849D01*
D02*
G37*
G36*
X32008Y8635D02*
X32032Y8631D01*
X32053Y8624D01*
X32070Y8617D01*
X32084Y8610D01*
X32095Y8603D01*
X32101Y8599D01*
X32104Y8597D01*
X32121Y8580D01*
X32135Y8562D01*
X32148Y8541D01*
X32157Y8521D01*
X32164Y8503D01*
X32169Y8489D01*
X32172Y8483D01*
Y8479D01*
X32173Y8476D01*
Y8475D01*
X32181Y8494D01*
X32190Y8511D01*
X32198Y8525D01*
X32207Y8537D01*
X32214Y8546D01*
X32219Y8552D01*
X32224Y8556D01*
X32225Y8558D01*
X32245Y8572D01*
X32265Y8583D01*
X32284Y8590D01*
X32303Y8596D01*
X32318Y8599D01*
X32331Y8601D01*
X32339D01*
X32341D01*
X32342D01*
X32358D01*
X32372Y8599D01*
X32398Y8592D01*
X32421Y8582D01*
X32441Y8572D01*
X32458Y8561D01*
X32469Y8551D01*
X32476Y8544D01*
X32479Y8542D01*
Y8541D01*
X32497Y8515D01*
X32511Y8489D01*
X32521Y8460D01*
X32528Y8432D01*
X32532Y8407D01*
X32534Y8397D01*
Y8387D01*
X32535Y8380D01*
Y7922D01*
X31763D01*
Y8346D01*
X31764Y8362D01*
X31766Y8379D01*
X31768Y8397D01*
X31770Y8414D01*
X31771Y8428D01*
Y8434D01*
X31773Y8438D01*
Y8441D01*
X31777Y8462D01*
X31780Y8480D01*
X31784Y8496D01*
X31788Y8508D01*
X31792Y8518D01*
X31795Y8525D01*
X31798Y8530D01*
Y8531D01*
X31809Y8548D01*
X31822Y8563D01*
X31835Y8577D01*
X31847Y8589D01*
X31857Y8597D01*
X31866Y8603D01*
X31873Y8607D01*
X31874Y8608D01*
X31892Y8618D01*
X31911Y8625D01*
X31929Y8630D01*
X31946Y8634D01*
X31960Y8635D01*
X31971Y8637D01*
X31978D01*
X31981D01*
X32008Y8635D01*
D02*
G37*
G36*
X32055Y7799D02*
X32073Y7798D01*
X32107Y7789D01*
X32138Y7778D01*
X32163Y7764D01*
X32183Y7750D01*
X32191Y7744D01*
X32198Y7739D01*
X32204Y7734D01*
X32208Y7730D01*
X32210Y7729D01*
X32211Y7727D01*
X32224Y7713D01*
X32235Y7699D01*
X32243Y7684D01*
X32252Y7668D01*
X32265Y7637D01*
X32273Y7606D01*
X32277Y7581D01*
X32280Y7570D01*
Y7560D01*
X32281Y7551D01*
Y7540D01*
X32280Y7515D01*
X32279Y7503D01*
X32277Y7493D01*
X32276Y7484D01*
X32274Y7476D01*
X32273Y7472D01*
Y7471D01*
X32266Y7445D01*
X32262Y7433D01*
X32257Y7422D01*
X32253Y7413D01*
X32250Y7405D01*
X32249Y7400D01*
X32248Y7399D01*
X32363Y7417D01*
Y7764D01*
X32535D01*
Y7254D01*
X32119Y7186D01*
X32093Y7368D01*
X32102Y7378D01*
X32111Y7386D01*
X32118Y7395D01*
X32124Y7402D01*
X32128Y7407D01*
X32131Y7412D01*
X32133Y7414D01*
Y7416D01*
X32139Y7427D01*
X32142Y7438D01*
X32148Y7457D01*
Y7465D01*
X32149Y7471D01*
Y7476D01*
X32148Y7493D01*
X32143Y7510D01*
X32139Y7523D01*
X32133Y7534D01*
X32126Y7544D01*
X32122Y7550D01*
X32118Y7554D01*
X32117Y7555D01*
X32102Y7565D01*
X32087Y7572D01*
X32070Y7578D01*
X32053Y7581D01*
X32039Y7584D01*
X32026Y7585D01*
X32018D01*
X32016D01*
X32015D01*
X31991Y7584D01*
X31971Y7581D01*
X31954Y7575D01*
X31940Y7571D01*
X31929Y7565D01*
X31922Y7560D01*
X31916Y7557D01*
X31915Y7555D01*
X31904Y7544D01*
X31895Y7531D01*
X31890Y7519D01*
X31885Y7507D01*
X31883Y7496D01*
X31881Y7488D01*
Y7481D01*
X31883Y7467D01*
X31885Y7453D01*
X31890Y7440D01*
X31895Y7430D01*
X31899Y7422D01*
X31904Y7416D01*
X31906Y7412D01*
X31908Y7410D01*
X31919Y7400D01*
X31932Y7393D01*
X31945Y7386D01*
X31957Y7382D01*
X31969Y7379D01*
X31978Y7376D01*
X31984Y7375D01*
X31987D01*
X31963Y7158D01*
X31943Y7164D01*
X31925Y7171D01*
X31909Y7176D01*
X31897Y7183D01*
X31885Y7187D01*
X31878Y7192D01*
X31873Y7195D01*
X31871Y7196D01*
X31846Y7216D01*
X31835Y7226D01*
X31826Y7235D01*
X31818Y7245D01*
X31812Y7252D01*
X31808Y7257D01*
X31806Y7258D01*
X31788Y7289D01*
X31781Y7304D01*
X31775Y7320D01*
X31770Y7333D01*
X31767Y7343D01*
X31766Y7348D01*
X31764Y7351D01*
X31760Y7372D01*
X31756Y7395D01*
X31753Y7417D01*
X31751Y7437D01*
Y7455D01*
X31750Y7469D01*
Y7482D01*
X31751Y7520D01*
X31756Y7554D01*
X31761Y7585D01*
X31768Y7610D01*
X31774Y7630D01*
X31777Y7639D01*
X31780Y7644D01*
X31782Y7650D01*
X31784Y7654D01*
X31785Y7656D01*
Y7657D01*
X31801Y7681D01*
X31818Y7702D01*
X31835Y7720D01*
X31851Y7736D01*
X31867Y7747D01*
X31880Y7756D01*
X31888Y7761D01*
X31890Y7763D01*
X31891D01*
X31916Y7775D01*
X31943Y7785D01*
X31967Y7791D01*
X31988Y7796D01*
X32008Y7799D01*
X32022Y7801D01*
X32028D01*
X32032D01*
X32033D01*
X32035D01*
X32055Y7799D01*
D02*
G37*
G36*
X32234Y6849D02*
X32437D01*
Y6679D01*
X32234D01*
Y6477D01*
X32063D01*
Y6679D01*
X31861D01*
Y6849D01*
X32063D01*
Y7052D01*
X32234D01*
Y6849D01*
D02*
G37*
G36*
X29468Y8635D02*
X29492Y8631D01*
X29513Y8624D01*
X29530Y8617D01*
X29544Y8610D01*
X29555Y8603D01*
X29561Y8599D01*
X29564Y8597D01*
X29581Y8580D01*
X29595Y8562D01*
X29608Y8541D01*
X29617Y8521D01*
X29624Y8503D01*
X29629Y8489D01*
X29632Y8483D01*
Y8479D01*
X29633Y8476D01*
Y8475D01*
X29641Y8494D01*
X29650Y8511D01*
X29658Y8525D01*
X29667Y8537D01*
X29674Y8546D01*
X29679Y8552D01*
X29684Y8556D01*
X29685Y8558D01*
X29705Y8572D01*
X29725Y8583D01*
X29744Y8590D01*
X29763Y8596D01*
X29778Y8599D01*
X29791Y8601D01*
X29799D01*
X29801D01*
X29802D01*
X29818D01*
X29832Y8599D01*
X29858Y8592D01*
X29881Y8582D01*
X29901Y8572D01*
X29918Y8561D01*
X29929Y8551D01*
X29936Y8544D01*
X29939Y8542D01*
Y8541D01*
X29957Y8515D01*
X29971Y8489D01*
X29981Y8460D01*
X29988Y8432D01*
X29992Y8407D01*
X29994Y8397D01*
Y8387D01*
X29995Y8380D01*
Y7922D01*
X29223D01*
Y8346D01*
X29224Y8362D01*
X29226Y8379D01*
X29228Y8397D01*
X29230Y8414D01*
X29231Y8428D01*
Y8434D01*
X29233Y8438D01*
Y8441D01*
X29237Y8462D01*
X29240Y8480D01*
X29244Y8496D01*
X29248Y8508D01*
X29252Y8518D01*
X29255Y8525D01*
X29258Y8530D01*
Y8531D01*
X29269Y8548D01*
X29282Y8563D01*
X29295Y8577D01*
X29307Y8589D01*
X29317Y8597D01*
X29326Y8603D01*
X29333Y8607D01*
X29334Y8608D01*
X29352Y8618D01*
X29371Y8625D01*
X29389Y8630D01*
X29406Y8634D01*
X29420Y8635D01*
X29431Y8637D01*
X29438D01*
X29441D01*
X29468Y8635D01*
D02*
G37*
G36*
X29514Y7799D02*
X29533Y7798D01*
X29567Y7789D01*
X29598Y7778D01*
X29623Y7764D01*
X29643Y7750D01*
X29651Y7744D01*
X29658Y7739D01*
X29664Y7734D01*
X29668Y7730D01*
X29670Y7729D01*
X29671Y7727D01*
X29684Y7713D01*
X29695Y7699D01*
X29703Y7684D01*
X29712Y7668D01*
X29725Y7637D01*
X29733Y7606D01*
X29737Y7581D01*
X29740Y7570D01*
Y7560D01*
X29741Y7551D01*
Y7540D01*
X29740Y7515D01*
X29739Y7503D01*
X29737Y7493D01*
X29736Y7484D01*
X29734Y7476D01*
X29733Y7472D01*
Y7471D01*
X29726Y7445D01*
X29722Y7433D01*
X29717Y7422D01*
X29713Y7413D01*
X29710Y7405D01*
X29709Y7400D01*
X29708Y7399D01*
X29823Y7417D01*
Y7764D01*
X29995D01*
Y7254D01*
X29579Y7186D01*
X29553Y7368D01*
X29562Y7378D01*
X29571Y7386D01*
X29578Y7395D01*
X29584Y7402D01*
X29588Y7407D01*
X29591Y7412D01*
X29593Y7414D01*
Y7416D01*
X29599Y7427D01*
X29602Y7438D01*
X29608Y7457D01*
Y7465D01*
X29609Y7471D01*
Y7476D01*
X29608Y7493D01*
X29603Y7510D01*
X29599Y7523D01*
X29593Y7534D01*
X29586Y7544D01*
X29582Y7550D01*
X29578Y7554D01*
X29577Y7555D01*
X29562Y7565D01*
X29547Y7572D01*
X29530Y7578D01*
X29513Y7581D01*
X29499Y7584D01*
X29486Y7585D01*
X29478D01*
X29476D01*
X29475D01*
X29451Y7584D01*
X29431Y7581D01*
X29414Y7575D01*
X29400Y7571D01*
X29389Y7565D01*
X29382Y7560D01*
X29376Y7557D01*
X29375Y7555D01*
X29364Y7544D01*
X29355Y7531D01*
X29350Y7519D01*
X29345Y7507D01*
X29343Y7496D01*
X29341Y7488D01*
Y7481D01*
X29343Y7467D01*
X29345Y7453D01*
X29350Y7440D01*
X29355Y7430D01*
X29359Y7422D01*
X29364Y7416D01*
X29366Y7412D01*
X29368Y7410D01*
X29379Y7400D01*
X29392Y7393D01*
X29405Y7386D01*
X29417Y7382D01*
X29428Y7379D01*
X29438Y7376D01*
X29444Y7375D01*
X29447D01*
X29423Y7158D01*
X29403Y7164D01*
X29385Y7171D01*
X29369Y7176D01*
X29357Y7183D01*
X29345Y7187D01*
X29338Y7192D01*
X29333Y7195D01*
X29331Y7196D01*
X29306Y7216D01*
X29295Y7226D01*
X29286Y7235D01*
X29278Y7245D01*
X29272Y7252D01*
X29268Y7257D01*
X29266Y7258D01*
X29248Y7289D01*
X29241Y7304D01*
X29235Y7320D01*
X29230Y7333D01*
X29227Y7343D01*
X29226Y7348D01*
X29224Y7351D01*
X29220Y7372D01*
X29216Y7395D01*
X29213Y7417D01*
X29211Y7437D01*
Y7455D01*
X29210Y7469D01*
Y7482D01*
X29211Y7520D01*
X29216Y7554D01*
X29221Y7585D01*
X29228Y7610D01*
X29234Y7630D01*
X29237Y7639D01*
X29240Y7644D01*
X29242Y7650D01*
X29244Y7654D01*
X29245Y7656D01*
Y7657D01*
X29261Y7681D01*
X29278Y7702D01*
X29295Y7720D01*
X29312Y7736D01*
X29327Y7747D01*
X29340Y7756D01*
X29348Y7761D01*
X29350Y7763D01*
X29351D01*
X29376Y7775D01*
X29403Y7785D01*
X29427Y7791D01*
X29448Y7796D01*
X29468Y7799D01*
X29482Y7801D01*
X29488D01*
X29492D01*
X29493D01*
X29495D01*
X29514Y7799D01*
D02*
G37*
G36*
X29694Y6849D02*
X29897D01*
Y6679D01*
X29694D01*
Y6477D01*
X29523D01*
Y6679D01*
X29321D01*
Y6849D01*
X29523D01*
Y7052D01*
X29694D01*
Y6849D01*
D02*
G37*
G36*
X26829Y8752D02*
X26852Y8749D01*
X26870Y8744D01*
X26887Y8738D01*
X26901Y8733D01*
X26912Y8727D01*
X26918Y8724D01*
X26921Y8723D01*
X26939Y8710D01*
X26956Y8694D01*
X26970Y8678D01*
X26983Y8662D01*
X26993Y8647D01*
X27000Y8635D01*
X27004Y8627D01*
X27005Y8625D01*
Y8624D01*
X27012Y8610D01*
X27018Y8594D01*
X27031Y8561D01*
X27043Y8522D01*
X27053Y8486D01*
X27058Y8469D01*
X27062Y8452D01*
X27066Y8436D01*
X27069Y8424D01*
X27072Y8414D01*
X27073Y8405D01*
X27074Y8400D01*
Y8398D01*
X27079Y8377D01*
X27084Y8360D01*
X27089Y8346D01*
X27093Y8336D01*
X27097Y8328D01*
X27100Y8324D01*
X27103Y8321D01*
Y8319D01*
X27108Y8314D01*
X27114Y8310D01*
X27125Y8305D01*
X27134Y8303D01*
X27135D01*
X27136D01*
X27145Y8304D01*
X27153Y8305D01*
X27167Y8312D01*
X27176Y8319D01*
X27177Y8321D01*
X27179Y8322D01*
X27184Y8331D01*
X27190Y8341D01*
X27194Y8362D01*
X27196Y8372D01*
X27197Y8379D01*
Y8386D01*
X27196Y8404D01*
X27193Y8420D01*
X27190Y8434D01*
X27186Y8445D01*
X27180Y8453D01*
X27177Y8459D01*
X27175Y8463D01*
X27173Y8465D01*
X27163Y8475D01*
X27151Y8483D01*
X27138Y8489D01*
X27127Y8494D01*
X27115Y8499D01*
X27105Y8501D01*
X27100Y8503D01*
X27097D01*
X27110Y8728D01*
X27131Y8724D01*
X27152Y8720D01*
X27170Y8714D01*
X27187Y8707D01*
X27203Y8700D01*
X27218Y8692D01*
X27231Y8685D01*
X27242Y8676D01*
X27261Y8661D01*
X27275Y8648D01*
X27282Y8638D01*
X27285Y8637D01*
Y8635D01*
X27294Y8620D01*
X27303Y8603D01*
X27317Y8568D01*
X27327Y8530D01*
X27334Y8493D01*
X27337Y8476D01*
X27338Y8460D01*
X27339Y8446D01*
Y8434D01*
X27341Y8424D01*
Y8410D01*
X27339Y8367D01*
X27337Y8329D01*
X27331Y8297D01*
X27328Y8281D01*
X27325Y8269D01*
X27323Y8257D01*
X27320Y8248D01*
X27317Y8239D01*
X27314Y8232D01*
X27313Y8226D01*
X27311Y8222D01*
X27310Y8221D01*
Y8219D01*
X27297Y8195D01*
X27285Y8174D01*
X27270Y8156D01*
X27258Y8142D01*
X27245Y8131D01*
X27235Y8122D01*
X27230Y8116D01*
X27227Y8115D01*
X27207Y8104D01*
X27187Y8095D01*
X27167Y8090D01*
X27151Y8085D01*
X27136Y8083D01*
X27124Y8081D01*
X27117D01*
X27115D01*
X27114D01*
X27097Y8083D01*
X27082Y8084D01*
X27053Y8091D01*
X27028Y8102D01*
X27007Y8115D01*
X26988Y8126D01*
X26976Y8138D01*
X26969Y8145D01*
X26967Y8147D01*
X26966D01*
X26955Y8162D01*
X26945Y8177D01*
X26926Y8211D01*
X26911Y8248D01*
X26897Y8286D01*
X26891Y8303D01*
X26887Y8318D01*
X26883Y8334D01*
X26879Y8346D01*
X26877Y8356D01*
X26874Y8365D01*
X26873Y8370D01*
Y8372D01*
X26869Y8389D01*
X26864Y8404D01*
X26862Y8418D01*
X26857Y8431D01*
X26849Y8452D01*
X26842Y8469D01*
X26836Y8480D01*
X26832Y8489D01*
X26829Y8493D01*
X26828Y8494D01*
X26819Y8503D01*
X26809Y8510D01*
X26801Y8514D01*
X26793Y8518D01*
X26785Y8520D01*
X26780Y8521D01*
X26776D01*
X26774D01*
X26763Y8520D01*
X26752Y8517D01*
X26742Y8513D01*
X26733Y8507D01*
X26728Y8501D01*
X26722Y8497D01*
X26719Y8494D01*
X26718Y8493D01*
X26711Y8482D01*
X26705Y8469D01*
X26701Y8456D01*
X26698Y8444D01*
X26697Y8431D01*
X26695Y8422D01*
Y8414D01*
X26697Y8390D01*
X26702Y8369D01*
X26709Y8350D01*
X26719Y8335D01*
X26728Y8324D01*
X26735Y8315D01*
X26740Y8310D01*
X26742Y8308D01*
X26753Y8301D01*
X26767Y8294D01*
X26795Y8286D01*
X26807Y8281D01*
X26816Y8280D01*
X26824Y8279D01*
X26826D01*
X26811Y8052D01*
X26790Y8054D01*
X26769Y8059D01*
X26732Y8069D01*
X26698Y8083D01*
X26670Y8098D01*
X26659Y8105D01*
X26647Y8112D01*
X26639Y8119D01*
X26632Y8125D01*
X26626Y8129D01*
X26622Y8133D01*
X26619Y8135D01*
X26618Y8136D01*
X26605Y8152D01*
X26594Y8170D01*
X26582Y8190D01*
X26574Y8211D01*
X26561Y8256D01*
X26553Y8301D01*
X26549Y8324D01*
X26547Y8343D01*
X26546Y8362D01*
X26544Y8377D01*
X26543Y8391D01*
Y8410D01*
X26544Y8451D01*
X26547Y8486D01*
X26553Y8518D01*
X26559Y8545D01*
X26561Y8556D01*
X26564Y8566D01*
X26567Y8576D01*
X26570Y8583D01*
X26571Y8589D01*
X26573Y8593D01*
X26574Y8594D01*
Y8596D01*
X26588Y8623D01*
X26602Y8645D01*
X26618Y8665D01*
X26633Y8682D01*
X26647Y8694D01*
X26659Y8704D01*
X26666Y8710D01*
X26668Y8711D01*
X26692Y8725D01*
X26716Y8735D01*
X26740Y8744D01*
X26761Y8748D01*
X26780Y8751D01*
X26794Y8754D01*
X26800D01*
X26804D01*
X26805D01*
X26807D01*
X26829Y8752D01*
D02*
G37*
G36*
X26730Y7554D02*
X26883D01*
Y7925D01*
X27041D01*
Y7554D01*
X27163D01*
Y7954D01*
X27328D01*
Y7314D01*
X26556D01*
Y7966D01*
X26730D01*
Y7554D01*
D02*
G37*
G36*
X26778Y7121D02*
X26785Y7117D01*
X26793Y7113D01*
X26809Y7102D01*
X26815Y7096D01*
X26821Y7092D01*
X26825Y7089D01*
X26826Y7087D01*
X26838Y7079D01*
X26846Y7070D01*
X26853Y7065D01*
X26859Y7059D01*
X26863Y7055D01*
X26866Y7052D01*
X26867Y7049D01*
X26873Y7041D01*
X26877Y7031D01*
X26887Y7011D01*
X26890Y7001D01*
X26893Y6994D01*
X26895Y6989D01*
Y6987D01*
X26901Y7006D01*
X26905Y7023D01*
X26911Y7037D01*
X26915Y7049D01*
X26919Y7058D01*
X26924Y7065D01*
X26925Y7069D01*
X26926Y7070D01*
X26938Y7087D01*
X26950Y7103D01*
X26963Y7116D01*
X26974Y7127D01*
X26986Y7135D01*
X26994Y7142D01*
X27000Y7145D01*
X27001Y7147D01*
X27019Y7156D01*
X27039Y7164D01*
X27058Y7168D01*
X27074Y7172D01*
X27090Y7173D01*
X27101Y7175D01*
X27110D01*
X27113D01*
X27139Y7173D01*
X27163Y7169D01*
X27184Y7164D01*
X27203Y7156D01*
X27218Y7149D01*
X27230Y7144D01*
X27235Y7140D01*
X27238Y7138D01*
X27256Y7124D01*
X27270Y7109D01*
X27283Y7093D01*
X27293Y7078D01*
X27300Y7065D01*
X27304Y7054D01*
X27307Y7047D01*
X27308Y7044D01*
X27316Y7020D01*
X27320Y6993D01*
X27324Y6965D01*
X27325Y6938D01*
X27327Y6913D01*
X27328Y6903D01*
Y6477D01*
X26556D01*
Y6717D01*
X26869D01*
Y6736D01*
X26867Y6749D01*
X26866Y6760D01*
X26863Y6770D01*
X26860Y6779D01*
X26856Y6786D01*
X26853Y6791D01*
X26852Y6794D01*
X26850Y6796D01*
X26843Y6803D01*
X26835Y6811D01*
X26815Y6825D01*
X26807Y6831D01*
X26798Y6835D01*
X26793Y6838D01*
X26791Y6839D01*
X26556Y6968D01*
Y7238D01*
X26778Y7121D01*
D02*
G37*
G36*
X24464Y8670D02*
X24499Y8663D01*
X24529Y8652D01*
X24554Y8641D01*
X24574Y8630D01*
X24588Y8618D01*
X24592Y8614D01*
X24596Y8611D01*
X24599Y8610D01*
Y8608D01*
X24610Y8596D01*
X24620Y8582D01*
X24634Y8551D01*
X24646Y8518D01*
X24654Y8487D01*
X24658Y8459D01*
X24660Y8446D01*
Y8435D01*
X24661Y8427D01*
Y8018D01*
X23889D01*
Y8257D01*
X24176D01*
Y8387D01*
X24178Y8414D01*
X24179Y8438D01*
X24182Y8460D01*
X24186Y8482D01*
X24192Y8501D01*
X24197Y8520D01*
X24203Y8535D01*
X24209Y8549D01*
X24214Y8562D01*
X24220Y8573D01*
X24226Y8582D01*
X24231Y8590D01*
X24235Y8596D01*
X24238Y8600D01*
X24241Y8601D01*
Y8603D01*
X24254Y8616D01*
X24268Y8627D01*
X24282Y8635D01*
X24298Y8644D01*
X24329Y8656D01*
X24358Y8665D01*
X24383Y8669D01*
X24395Y8672D01*
X24405D01*
X24413Y8673D01*
X24419D01*
X24423D01*
X24424D01*
X24446D01*
X24464Y8670D01*
D02*
G37*
G36*
X24079Y7537D02*
X24661D01*
Y7299D01*
X23889D01*
Y7911D01*
X24079D01*
Y7537D01*
D02*
G37*
G36*
X24162Y7178D02*
X24185Y7175D01*
X24203Y7169D01*
X24220Y7164D01*
X24234Y7158D01*
X24245Y7152D01*
X24251Y7149D01*
X24254Y7148D01*
X24272Y7135D01*
X24289Y7120D01*
X24303Y7103D01*
X24316Y7087D01*
X24326Y7072D01*
X24333Y7061D01*
X24337Y7052D01*
X24338Y7051D01*
Y7049D01*
X24345Y7035D01*
X24351Y7020D01*
X24364Y6986D01*
X24376Y6948D01*
X24386Y6911D01*
X24391Y6894D01*
X24395Y6877D01*
X24399Y6862D01*
X24402Y6849D01*
X24405Y6839D01*
X24406Y6831D01*
X24407Y6825D01*
Y6824D01*
X24412Y6803D01*
X24417Y6786D01*
X24422Y6772D01*
X24426Y6762D01*
X24430Y6753D01*
X24433Y6749D01*
X24436Y6746D01*
Y6745D01*
X24441Y6739D01*
X24447Y6735D01*
X24458Y6731D01*
X24467Y6728D01*
X24468D01*
X24469D01*
X24478Y6729D01*
X24486Y6731D01*
X24500Y6738D01*
X24509Y6745D01*
X24510Y6746D01*
X24512Y6748D01*
X24517Y6756D01*
X24523Y6766D01*
X24527Y6787D01*
X24529Y6797D01*
X24530Y6804D01*
Y6811D01*
X24529Y6829D01*
X24526Y6845D01*
X24523Y6859D01*
X24519Y6870D01*
X24513Y6879D01*
X24510Y6884D01*
X24508Y6889D01*
X24506Y6890D01*
X24496Y6900D01*
X24484Y6908D01*
X24471Y6914D01*
X24460Y6920D01*
X24448Y6924D01*
X24438Y6927D01*
X24433Y6928D01*
X24430D01*
X24443Y7154D01*
X24464Y7149D01*
X24485Y7145D01*
X24503Y7140D01*
X24520Y7133D01*
X24536Y7125D01*
X24551Y7117D01*
X24564Y7110D01*
X24575Y7101D01*
X24594Y7086D01*
X24608Y7073D01*
X24615Y7063D01*
X24618Y7062D01*
Y7061D01*
X24627Y7045D01*
X24636Y7028D01*
X24650Y6993D01*
X24660Y6955D01*
X24667Y6918D01*
X24670Y6901D01*
X24671Y6886D01*
X24672Y6872D01*
Y6859D01*
X24674Y6849D01*
Y6835D01*
X24672Y6793D01*
X24670Y6755D01*
X24664Y6722D01*
X24661Y6707D01*
X24658Y6694D01*
X24656Y6683D01*
X24653Y6673D01*
X24650Y6664D01*
X24647Y6657D01*
X24646Y6652D01*
X24644Y6648D01*
X24643Y6646D01*
Y6645D01*
X24630Y6621D01*
X24618Y6600D01*
X24603Y6581D01*
X24591Y6567D01*
X24578Y6556D01*
X24568Y6547D01*
X24563Y6542D01*
X24560Y6540D01*
X24540Y6529D01*
X24520Y6521D01*
X24500Y6515D01*
X24484Y6511D01*
X24469Y6508D01*
X24457Y6507D01*
X24450D01*
X24448D01*
X24447D01*
X24430Y6508D01*
X24415Y6509D01*
X24386Y6516D01*
X24361Y6528D01*
X24340Y6540D01*
X24321Y6552D01*
X24309Y6563D01*
X24302Y6570D01*
X24300Y6573D01*
X24299D01*
X24288Y6587D01*
X24278Y6602D01*
X24259Y6636D01*
X24244Y6673D01*
X24230Y6711D01*
X24224Y6728D01*
X24220Y6743D01*
X24216Y6759D01*
X24212Y6772D01*
X24210Y6781D01*
X24207Y6790D01*
X24206Y6796D01*
Y6797D01*
X24202Y6814D01*
X24197Y6829D01*
X24195Y6844D01*
X24190Y6856D01*
X24182Y6877D01*
X24175Y6894D01*
X24169Y6906D01*
X24165Y6914D01*
X24162Y6918D01*
X24161Y6920D01*
X24152Y6928D01*
X24142Y6935D01*
X24134Y6939D01*
X24126Y6944D01*
X24118Y6945D01*
X24113Y6946D01*
X24109D01*
X24107D01*
X24096Y6945D01*
X24085Y6942D01*
X24075Y6938D01*
X24066Y6932D01*
X24061Y6927D01*
X24055Y6922D01*
X24052Y6920D01*
X24051Y6918D01*
X24044Y6907D01*
X24038Y6894D01*
X24034Y6882D01*
X24031Y6869D01*
X24030Y6856D01*
X24028Y6848D01*
Y6839D01*
X24030Y6815D01*
X24035Y6794D01*
X24042Y6776D01*
X24052Y6760D01*
X24061Y6749D01*
X24068Y6741D01*
X24073Y6735D01*
X24075Y6734D01*
X24086Y6727D01*
X24100Y6719D01*
X24128Y6711D01*
X24140Y6707D01*
X24149Y6705D01*
X24157Y6704D01*
X24159D01*
X24144Y6477D01*
X24123Y6480D01*
X24102Y6484D01*
X24065Y6494D01*
X24031Y6508D01*
X24003Y6524D01*
X23992Y6531D01*
X23980Y6538D01*
X23972Y6545D01*
X23965Y6550D01*
X23959Y6555D01*
X23955Y6559D01*
X23952Y6560D01*
X23951Y6562D01*
X23938Y6577D01*
X23927Y6595D01*
X23915Y6615D01*
X23907Y6636D01*
X23894Y6681D01*
X23886Y6727D01*
X23882Y6749D01*
X23880Y6769D01*
X23879Y6787D01*
X23877Y6803D01*
X23876Y6817D01*
Y6835D01*
X23877Y6876D01*
X23880Y6911D01*
X23886Y6944D01*
X23892Y6970D01*
X23894Y6982D01*
X23897Y6992D01*
X23900Y7001D01*
X23903Y7008D01*
X23904Y7014D01*
X23906Y7018D01*
X23907Y7020D01*
Y7021D01*
X23921Y7048D01*
X23935Y7070D01*
X23951Y7090D01*
X23966Y7107D01*
X23980Y7120D01*
X23992Y7130D01*
X23999Y7135D01*
X24001Y7137D01*
X24025Y7151D01*
X24049Y7161D01*
X24073Y7169D01*
X24094Y7173D01*
X24113Y7176D01*
X24127Y7179D01*
X24133D01*
X24137D01*
X24138D01*
X24140D01*
X24162Y7178D01*
D02*
G37*
G36*
X22559Y8730D02*
X22594Y8723D01*
X22624Y8711D01*
X22649Y8700D01*
X22669Y8689D01*
X22683Y8678D01*
X22687Y8673D01*
X22691Y8670D01*
X22694Y8669D01*
Y8668D01*
X22705Y8655D01*
X22715Y8641D01*
X22729Y8610D01*
X22741Y8577D01*
X22749Y8546D01*
X22753Y8518D01*
X22755Y8506D01*
Y8494D01*
X22756Y8486D01*
Y8077D01*
X21984D01*
Y8317D01*
X22271D01*
Y8446D01*
X22273Y8473D01*
X22274Y8497D01*
X22277Y8520D01*
X22281Y8541D01*
X22287Y8561D01*
X22292Y8579D01*
X22298Y8594D01*
X22304Y8608D01*
X22309Y8621D01*
X22315Y8632D01*
X22321Y8641D01*
X22326Y8649D01*
X22330Y8655D01*
X22333Y8659D01*
X22336Y8661D01*
Y8662D01*
X22349Y8675D01*
X22363Y8686D01*
X22377Y8694D01*
X22392Y8703D01*
X22424Y8716D01*
X22453Y8724D01*
X22478Y8728D01*
X22490Y8731D01*
X22500D01*
X22508Y8733D01*
X22514D01*
X22518D01*
X22519D01*
X22541D01*
X22559Y8730D01*
D02*
G37*
G36*
X22756Y7244D02*
X22566D01*
Y7488D01*
X21984D01*
Y7726D01*
X22566D01*
Y7970D01*
X22756D01*
Y7244D01*
D02*
G37*
G36*
X22257Y7178D02*
X22280Y7175D01*
X22298Y7169D01*
X22315Y7164D01*
X22329Y7158D01*
X22340Y7152D01*
X22346Y7149D01*
X22349Y7148D01*
X22367Y7135D01*
X22384Y7120D01*
X22398Y7103D01*
X22411Y7087D01*
X22421Y7072D01*
X22428Y7061D01*
X22432Y7052D01*
X22433Y7051D01*
Y7049D01*
X22440Y7035D01*
X22446Y7020D01*
X22459Y6986D01*
X22471Y6948D01*
X22481Y6911D01*
X22486Y6894D01*
X22490Y6877D01*
X22494Y6862D01*
X22497Y6849D01*
X22500Y6839D01*
X22501Y6831D01*
X22502Y6825D01*
Y6824D01*
X22507Y6803D01*
X22512Y6786D01*
X22517Y6772D01*
X22521Y6762D01*
X22525Y6753D01*
X22528Y6749D01*
X22531Y6746D01*
Y6745D01*
X22536Y6739D01*
X22542Y6735D01*
X22553Y6731D01*
X22562Y6728D01*
X22563D01*
X22564D01*
X22573Y6729D01*
X22581Y6731D01*
X22596Y6738D01*
X22604Y6745D01*
X22605Y6746D01*
X22607Y6748D01*
X22612Y6756D01*
X22618Y6766D01*
X22622Y6787D01*
X22624Y6797D01*
X22625Y6804D01*
Y6811D01*
X22624Y6829D01*
X22621Y6845D01*
X22618Y6859D01*
X22614Y6870D01*
X22608Y6879D01*
X22605Y6884D01*
X22603Y6889D01*
X22601Y6890D01*
X22591Y6900D01*
X22579Y6908D01*
X22566Y6914D01*
X22555Y6920D01*
X22543Y6924D01*
X22533Y6927D01*
X22528Y6928D01*
X22525D01*
X22538Y7154D01*
X22559Y7149D01*
X22580Y7145D01*
X22598Y7140D01*
X22615Y7133D01*
X22631Y7125D01*
X22646Y7117D01*
X22659Y7110D01*
X22670Y7101D01*
X22689Y7086D01*
X22703Y7073D01*
X22710Y7063D01*
X22712Y7062D01*
Y7061D01*
X22722Y7045D01*
X22731Y7028D01*
X22745Y6993D01*
X22755Y6955D01*
X22762Y6918D01*
X22765Y6901D01*
X22766Y6886D01*
X22767Y6872D01*
Y6859D01*
X22769Y6849D01*
Y6835D01*
X22767Y6793D01*
X22765Y6755D01*
X22759Y6722D01*
X22756Y6707D01*
X22753Y6694D01*
X22751Y6683D01*
X22748Y6673D01*
X22745Y6664D01*
X22742Y6657D01*
X22741Y6652D01*
X22739Y6648D01*
X22738Y6646D01*
Y6645D01*
X22725Y6621D01*
X22712Y6600D01*
X22698Y6581D01*
X22686Y6567D01*
X22673Y6556D01*
X22663Y6547D01*
X22658Y6542D01*
X22655Y6540D01*
X22635Y6529D01*
X22615Y6521D01*
X22596Y6515D01*
X22579Y6511D01*
X22564Y6508D01*
X22552Y6507D01*
X22545D01*
X22543D01*
X22542D01*
X22525Y6508D01*
X22510Y6509D01*
X22481Y6516D01*
X22456Y6528D01*
X22435Y6540D01*
X22416Y6552D01*
X22404Y6563D01*
X22397Y6570D01*
X22395Y6573D01*
X22394D01*
X22383Y6587D01*
X22373Y6602D01*
X22354Y6636D01*
X22339Y6673D01*
X22325Y6711D01*
X22319Y6728D01*
X22315Y6743D01*
X22311Y6759D01*
X22307Y6772D01*
X22305Y6781D01*
X22302Y6790D01*
X22301Y6796D01*
Y6797D01*
X22297Y6814D01*
X22292Y6829D01*
X22290Y6844D01*
X22285Y6856D01*
X22277Y6877D01*
X22270Y6894D01*
X22264Y6906D01*
X22260Y6914D01*
X22257Y6918D01*
X22256Y6920D01*
X22247Y6928D01*
X22237Y6935D01*
X22229Y6939D01*
X22221Y6944D01*
X22213Y6945D01*
X22208Y6946D01*
X22204D01*
X22202D01*
X22191Y6945D01*
X22180Y6942D01*
X22170Y6938D01*
X22161Y6932D01*
X22156Y6927D01*
X22150Y6922D01*
X22147Y6920D01*
X22146Y6918D01*
X22139Y6907D01*
X22133Y6894D01*
X22129Y6882D01*
X22126Y6869D01*
X22125Y6856D01*
X22123Y6848D01*
Y6839D01*
X22125Y6815D01*
X22130Y6794D01*
X22137Y6776D01*
X22147Y6760D01*
X22156Y6749D01*
X22163Y6741D01*
X22168Y6735D01*
X22170Y6734D01*
X22181Y6727D01*
X22195Y6719D01*
X22223Y6711D01*
X22235Y6707D01*
X22244Y6705D01*
X22252Y6704D01*
X22254D01*
X22239Y6477D01*
X22218Y6480D01*
X22197Y6484D01*
X22160Y6494D01*
X22126Y6508D01*
X22098Y6524D01*
X22087Y6531D01*
X22075Y6538D01*
X22067Y6545D01*
X22060Y6550D01*
X22054Y6555D01*
X22050Y6559D01*
X22047Y6560D01*
X22046Y6562D01*
X22033Y6577D01*
X22022Y6595D01*
X22010Y6615D01*
X22002Y6636D01*
X21989Y6681D01*
X21981Y6727D01*
X21977Y6749D01*
X21975Y6769D01*
X21974Y6787D01*
X21972Y6803D01*
X21971Y6817D01*
Y6835D01*
X21972Y6876D01*
X21975Y6911D01*
X21981Y6944D01*
X21987Y6970D01*
X21989Y6982D01*
X21992Y6992D01*
X21995Y7001D01*
X21998Y7008D01*
X21999Y7014D01*
X22001Y7018D01*
X22002Y7020D01*
Y7021D01*
X22016Y7048D01*
X22030Y7070D01*
X22046Y7090D01*
X22061Y7107D01*
X22075Y7120D01*
X22087Y7130D01*
X22094Y7135D01*
X22096Y7137D01*
X22120Y7151D01*
X22144Y7161D01*
X22168Y7169D01*
X22190Y7173D01*
X22208Y7176D01*
X22222Y7179D01*
X22228D01*
X22232D01*
X22233D01*
X22235D01*
X22257Y7178D01*
D02*
G37*
G36*
X20924Y8382D02*
X20931Y8377D01*
X20938Y8373D01*
X20955Y8362D01*
X20960Y8356D01*
X20966Y8352D01*
X20970Y8349D01*
X20972Y8348D01*
X20983Y8339D01*
X20991Y8331D01*
X20998Y8325D01*
X21004Y8319D01*
X21008Y8315D01*
X21011Y8312D01*
X21013Y8310D01*
X21018Y8301D01*
X21022Y8291D01*
X21032Y8272D01*
X21035Y8262D01*
X21038Y8255D01*
X21041Y8249D01*
Y8248D01*
X21046Y8266D01*
X21051Y8283D01*
X21056Y8297D01*
X21060Y8310D01*
X21065Y8318D01*
X21069Y8325D01*
X21070Y8329D01*
X21072Y8331D01*
X21083Y8348D01*
X21096Y8363D01*
X21108Y8376D01*
X21120Y8387D01*
X21131Y8396D01*
X21139Y8403D01*
X21145Y8405D01*
X21146Y8407D01*
X21165Y8417D01*
X21185Y8424D01*
X21203Y8428D01*
X21220Y8432D01*
X21235Y8434D01*
X21247Y8435D01*
X21255D01*
X21258D01*
X21285Y8434D01*
X21309Y8429D01*
X21330Y8424D01*
X21348Y8417D01*
X21364Y8410D01*
X21375Y8404D01*
X21380Y8400D01*
X21383Y8398D01*
X21402Y8384D01*
X21416Y8369D01*
X21428Y8353D01*
X21438Y8338D01*
X21445Y8325D01*
X21450Y8314D01*
X21452Y8307D01*
X21454Y8304D01*
X21461Y8280D01*
X21465Y8253D01*
X21469Y8225D01*
X21471Y8198D01*
X21472Y8173D01*
X21474Y8163D01*
Y7737D01*
X20701D01*
Y7977D01*
X21014D01*
Y7997D01*
X21013Y8009D01*
X21011Y8021D01*
X21008Y8030D01*
X21006Y8039D01*
X21001Y8046D01*
X20998Y8052D01*
X20997Y8054D01*
X20996Y8056D01*
X20989Y8063D01*
X20980Y8071D01*
X20960Y8085D01*
X20952Y8091D01*
X20943Y8095D01*
X20938Y8098D01*
X20936Y8100D01*
X20701Y8228D01*
Y8499D01*
X20924Y8382D01*
D02*
G37*
G36*
X21474Y7324D02*
X20701D01*
Y7564D01*
X21474D01*
Y7324D01*
D02*
G37*
G36*
X21118Y7187D02*
X21145Y7186D01*
X21170Y7183D01*
X21193Y7179D01*
X21211Y7175D01*
X21225Y7172D01*
X21231Y7171D01*
X21235D01*
X21237Y7169D01*
X21238D01*
X21263Y7161D01*
X21287Y7152D01*
X21309Y7142D01*
X21327Y7133D01*
X21342Y7123D01*
X21352Y7116D01*
X21359Y7110D01*
X21362Y7109D01*
X21380Y7092D01*
X21397Y7075D01*
X21411Y7056D01*
X21423Y7039D01*
X21433Y7024D01*
X21438Y7013D01*
X21442Y7004D01*
X21444Y7003D01*
Y7001D01*
X21454Y6976D01*
X21461Y6948D01*
X21466Y6920D01*
X21469Y6891D01*
X21472Y6867D01*
Y6858D01*
X21474Y6848D01*
Y6477D01*
X20701D01*
Y6831D01*
X20702Y6856D01*
X20704Y6880D01*
X20707Y6906D01*
X20711Y6927D01*
X20715Y6946D01*
X20718Y6962D01*
X20719Y6968D01*
Y6972D01*
X20721Y6973D01*
Y6975D01*
X20728Y6996D01*
X20738Y7016D01*
X20748Y7032D01*
X20757Y7049D01*
X20767Y7062D01*
X20776Y7072D01*
X20781Y7078D01*
X20783Y7080D01*
X20801Y7099D01*
X20821Y7114D01*
X20839Y7128D01*
X20857Y7140D01*
X20873Y7148D01*
X20886Y7154D01*
X20894Y7158D01*
X20896Y7159D01*
X20897D01*
X20925Y7169D01*
X20956Y7176D01*
X20989Y7182D01*
X21018Y7185D01*
X21046Y7187D01*
X21058D01*
X21069Y7189D01*
X21077D01*
X21083D01*
X21087D01*
X21089D01*
X21118Y7187D01*
D02*
G37*
G36*
X19353Y58676D02*
X19380Y58674D01*
X19405Y58671D01*
X19428Y58667D01*
X19446Y58663D01*
X19460Y58660D01*
X19466Y58659D01*
X19470D01*
X19471Y58657D01*
X19473D01*
X19498Y58649D01*
X19522Y58640D01*
X19543Y58631D01*
X19562Y58621D01*
X19577Y58611D01*
X19587Y58604D01*
X19594Y58598D01*
X19597Y58597D01*
X19615Y58580D01*
X19632Y58563D01*
X19646Y58545D01*
X19657Y58528D01*
X19667Y58512D01*
X19673Y58501D01*
X19677Y58492D01*
X19679Y58491D01*
Y58490D01*
X19688Y58464D01*
X19696Y58436D01*
X19701Y58408D01*
X19704Y58380D01*
X19707Y58356D01*
Y58346D01*
X19708Y58336D01*
Y57965D01*
X18936D01*
Y58319D01*
X18937Y58344D01*
X18939Y58368D01*
X18941Y58394D01*
X18946Y58415D01*
X18950Y58435D01*
X18953Y58450D01*
X18954Y58456D01*
Y58460D01*
X18955Y58461D01*
Y58463D01*
X18962Y58484D01*
X18972Y58504D01*
X18982Y58521D01*
X18992Y58538D01*
X19002Y58550D01*
X19010Y58560D01*
X19016Y58566D01*
X19017Y58569D01*
X19036Y58587D01*
X19056Y58602D01*
X19074Y58616D01*
X19092Y58628D01*
X19108Y58636D01*
X19120Y58642D01*
X19129Y58646D01*
X19130Y58647D01*
X19132D01*
X19160Y58657D01*
X19191Y58664D01*
X19223Y58670D01*
X19253Y58673D01*
X19281Y58676D01*
X19292D01*
X19304Y58677D01*
X19312D01*
X19318D01*
X19322D01*
X19323D01*
X19353Y58676D01*
D02*
G37*
G36*
X19708Y57579D02*
X19280D01*
X19708Y57286D01*
Y57064D01*
X18936D01*
Y57289D01*
X19361D01*
X18936Y57579D01*
Y57804D01*
X19708D01*
Y57579D01*
D02*
G37*
G36*
X19377Y56553D02*
X19216D01*
Y56713D01*
X19143D01*
X19133Y56696D01*
X19125Y56680D01*
X19118Y56665D01*
X19113Y56653D01*
X19109Y56643D01*
X19106Y56636D01*
X19103Y56630D01*
Y56629D01*
X19096Y56602D01*
X19095Y56589D01*
X19094Y56577D01*
X19092Y56567D01*
Y56553D01*
X19095Y56523D01*
X19101Y56496D01*
X19109Y56474D01*
X19119Y56455D01*
X19129Y56440D01*
X19137Y56429D01*
X19143Y56423D01*
X19146Y56420D01*
X19157Y56412D01*
X19168Y56405D01*
X19196Y56393D01*
X19226Y56385D01*
X19256Y56379D01*
X19282Y56376D01*
X19294Y56375D01*
X19305D01*
X19313Y56374D01*
X19319D01*
X19323D01*
X19325D01*
X19346D01*
X19366Y56375D01*
X19384Y56378D01*
X19401Y56381D01*
X19416Y56385D01*
X19430Y56388D01*
X19454Y56398D01*
X19473Y56406D01*
X19487Y56413D01*
X19494Y56419D01*
X19497Y56420D01*
X19515Y56438D01*
X19529Y56460D01*
X19539Y56481D01*
X19545Y56501D01*
X19549Y56519D01*
X19550Y56533D01*
X19552Y56539D01*
Y56546D01*
X19550Y56565D01*
X19548Y56582D01*
X19545Y56596D01*
X19540Y56609D01*
X19535Y56619D01*
X19532Y56627D01*
X19529Y56632D01*
X19528Y56633D01*
X19518Y56644D01*
X19508Y56656D01*
X19497Y56664D01*
X19487Y56671D01*
X19477Y56675D01*
X19469Y56680D01*
X19463Y56682D01*
X19462D01*
X19502Y56912D01*
X19529Y56904D01*
X19553Y56894D01*
X19574Y56883D01*
X19591Y56873D01*
X19605Y56863D01*
X19617Y56856D01*
X19622Y56850D01*
X19625Y56849D01*
X19642Y56832D01*
X19657Y56815D01*
X19670Y56797D01*
X19680Y56780D01*
X19687Y56766D01*
X19693Y56754D01*
X19696Y56746D01*
X19697Y56744D01*
Y56743D01*
X19701Y56730D01*
X19705Y56716D01*
X19711Y56687D01*
X19715Y56654D01*
X19718Y56623D01*
X19719Y56595D01*
X19721Y56584D01*
Y56551D01*
X19719Y56503D01*
X19718Y56482D01*
X19715Y56461D01*
X19712Y56443D01*
X19708Y56426D01*
X19705Y56409D01*
X19703Y56395D01*
X19698Y56382D01*
X19696Y56371D01*
X19691Y56361D01*
X19688Y56353D01*
X19687Y56347D01*
X19684Y56343D01*
X19683Y56340D01*
Y56338D01*
X19663Y56303D01*
X19641Y56272D01*
X19617Y56247D01*
X19594Y56224D01*
X19573Y56207D01*
X19556Y56196D01*
X19549Y56192D01*
X19545Y56189D01*
X19542Y56186D01*
X19540D01*
X19504Y56169D01*
X19467Y56157D01*
X19430Y56147D01*
X19397Y56141D01*
X19381Y56138D01*
X19367Y56137D01*
X19354Y56135D01*
X19343D01*
X19335Y56134D01*
X19328D01*
X19323D01*
X19322D01*
X19278Y56135D01*
X19237Y56141D01*
X19201Y56148D01*
X19184Y56152D01*
X19170Y56158D01*
X19156Y56162D01*
X19143Y56166D01*
X19133Y56169D01*
X19125Y56173D01*
X19118Y56176D01*
X19112Y56179D01*
X19109Y56181D01*
X19108D01*
X19075Y56200D01*
X19047Y56221D01*
X19023Y56244D01*
X19005Y56265D01*
X18989Y56285D01*
X18978Y56300D01*
X18975Y56306D01*
X18972Y56310D01*
X18970Y56313D01*
Y56314D01*
X18954Y56350D01*
X18943Y56386D01*
X18934Y56424D01*
X18929Y56460D01*
X18927Y56477D01*
X18926Y56492D01*
X18924Y56505D01*
Y56517D01*
X18923Y56527D01*
Y56540D01*
X18924Y56581D01*
X18927Y56618D01*
X18931Y56651D01*
X18936Y56680D01*
X18939Y56691D01*
X18940Y56702D01*
X18943Y56711D01*
X18944Y56719D01*
X18946Y56725D01*
X18947Y56729D01*
X18948Y56732D01*
Y56733D01*
X18960Y56764D01*
X18975Y56797D01*
X18992Y56829D01*
X19008Y56859D01*
X19023Y56884D01*
X19030Y56895D01*
X19036Y56904D01*
X19040Y56912D01*
X19044Y56918D01*
X19046Y56921D01*
X19047Y56922D01*
X19377D01*
Y56553D01*
D02*
G37*
G36*
X21975Y58676D02*
X21999Y58671D01*
X22020Y58664D01*
X22037Y58657D01*
X22051Y58650D01*
X22062Y58643D01*
X22068Y58639D01*
X22071Y58638D01*
X22088Y58621D01*
X22102Y58602D01*
X22115Y58581D01*
X22124Y58562D01*
X22131Y58543D01*
X22136Y58529D01*
X22139Y58523D01*
Y58519D01*
X22140Y58516D01*
Y58515D01*
X22148Y58535D01*
X22157Y58552D01*
X22165Y58566D01*
X22174Y58577D01*
X22181Y58587D01*
X22186Y58593D01*
X22191Y58597D01*
X22192Y58598D01*
X22212Y58612D01*
X22232Y58624D01*
X22251Y58631D01*
X22270Y58636D01*
X22285Y58639D01*
X22298Y58642D01*
X22306D01*
X22308D01*
X22309D01*
X22325D01*
X22339Y58639D01*
X22365Y58632D01*
X22388Y58622D01*
X22408Y58612D01*
X22425Y58601D01*
X22436Y58591D01*
X22443Y58584D01*
X22446Y58583D01*
Y58581D01*
X22464Y58556D01*
X22478Y58529D01*
X22488Y58501D01*
X22495Y58473D01*
X22499Y58447D01*
X22501Y58437D01*
Y58428D01*
X22502Y58421D01*
Y57962D01*
X21730D01*
Y58387D01*
X21731Y58402D01*
X21733Y58419D01*
X21735Y58437D01*
X21737Y58454D01*
X21738Y58468D01*
Y58474D01*
X21740Y58478D01*
Y58481D01*
X21744Y58502D01*
X21747Y58521D01*
X21751Y58536D01*
X21755Y58549D01*
X21759Y58559D01*
X21762Y58566D01*
X21765Y58570D01*
Y58571D01*
X21776Y58588D01*
X21789Y58604D01*
X21802Y58618D01*
X21814Y58629D01*
X21824Y58638D01*
X21833Y58643D01*
X21840Y58647D01*
X21841Y58649D01*
X21859Y58659D01*
X21878Y58666D01*
X21896Y58670D01*
X21913Y58674D01*
X21927Y58676D01*
X21938Y58677D01*
X21945D01*
X21948D01*
X21975Y58676D01*
D02*
G37*
G36*
X22021Y57840D02*
X22040Y57838D01*
X22074Y57830D01*
X22105Y57819D01*
X22130Y57804D01*
X22150Y57790D01*
X22158Y57785D01*
X22165Y57779D01*
X22171Y57775D01*
X22175Y57771D01*
X22177Y57769D01*
X22178Y57768D01*
X22191Y57754D01*
X22202Y57740D01*
X22210Y57724D01*
X22219Y57709D01*
X22232Y57678D01*
X22240Y57647D01*
X22244Y57621D01*
X22247Y57610D01*
Y57600D01*
X22248Y57592D01*
Y57580D01*
X22247Y57555D01*
X22246Y57544D01*
X22244Y57534D01*
X22243Y57524D01*
X22241Y57517D01*
X22240Y57513D01*
Y57511D01*
X22233Y57486D01*
X22229Y57473D01*
X22224Y57462D01*
X22220Y57453D01*
X22217Y57445D01*
X22216Y57441D01*
X22215Y57439D01*
X22330Y57458D01*
Y57804D01*
X22502D01*
Y57294D01*
X22086Y57227D01*
X22060Y57408D01*
X22069Y57418D01*
X22078Y57427D01*
X22085Y57435D01*
X22091Y57442D01*
X22095Y57448D01*
X22098Y57452D01*
X22100Y57455D01*
Y57456D01*
X22106Y57468D01*
X22109Y57479D01*
X22115Y57497D01*
Y57506D01*
X22116Y57511D01*
Y57517D01*
X22115Y57534D01*
X22110Y57551D01*
X22106Y57563D01*
X22100Y57575D01*
X22093Y57585D01*
X22089Y57590D01*
X22085Y57594D01*
X22084Y57596D01*
X22069Y57606D01*
X22054Y57613D01*
X22037Y57618D01*
X22020Y57621D01*
X22006Y57624D01*
X21993Y57625D01*
X21985D01*
X21983D01*
X21982D01*
X21958Y57624D01*
X21938Y57621D01*
X21921Y57616D01*
X21907Y57611D01*
X21896Y57606D01*
X21889Y57600D01*
X21883Y57597D01*
X21882Y57596D01*
X21871Y57585D01*
X21862Y57572D01*
X21857Y57559D01*
X21852Y57548D01*
X21850Y57537D01*
X21848Y57528D01*
Y57521D01*
X21850Y57507D01*
X21852Y57493D01*
X21857Y57480D01*
X21862Y57470D01*
X21866Y57462D01*
X21871Y57456D01*
X21873Y57452D01*
X21875Y57451D01*
X21886Y57441D01*
X21899Y57434D01*
X21912Y57427D01*
X21924Y57422D01*
X21935Y57420D01*
X21945Y57417D01*
X21951Y57415D01*
X21954D01*
X21930Y57198D01*
X21910Y57204D01*
X21892Y57211D01*
X21876Y57217D01*
X21864Y57224D01*
X21852Y57228D01*
X21845Y57232D01*
X21840Y57235D01*
X21838Y57236D01*
X21813Y57256D01*
X21802Y57266D01*
X21793Y57276D01*
X21785Y57286D01*
X21779Y57293D01*
X21775Y57297D01*
X21773Y57298D01*
X21755Y57329D01*
X21748Y57345D01*
X21742Y57360D01*
X21737Y57373D01*
X21734Y57383D01*
X21733Y57389D01*
X21731Y57391D01*
X21727Y57413D01*
X21723Y57435D01*
X21720Y57458D01*
X21718Y57477D01*
Y57496D01*
X21717Y57510D01*
Y57523D01*
X21718Y57561D01*
X21723Y57594D01*
X21728Y57625D01*
X21735Y57651D01*
X21741Y57671D01*
X21744Y57679D01*
X21747Y57685D01*
X21749Y57690D01*
X21751Y57695D01*
X21752Y57696D01*
Y57697D01*
X21768Y57721D01*
X21785Y57742D01*
X21802Y57761D01*
X21819Y57776D01*
X21834Y57788D01*
X21847Y57796D01*
X21855Y57802D01*
X21857Y57803D01*
X21858D01*
X21883Y57816D01*
X21910Y57826D01*
X21934Y57831D01*
X21955Y57837D01*
X21975Y57840D01*
X21989Y57841D01*
X21995D01*
X21999D01*
X22000D01*
X22002D01*
X22021Y57840D01*
D02*
G37*
G36*
X22201Y56890D02*
X22404D01*
Y56719D01*
X22201D01*
Y56517D01*
X22030D01*
Y56719D01*
X21828D01*
Y56890D01*
X22030D01*
Y57093D01*
X22201D01*
Y56890D01*
D02*
G37*
G36*
X24248Y58626D02*
X24272Y58622D01*
X24293Y58615D01*
X24310Y58608D01*
X24324Y58601D01*
X24336Y58594D01*
X24341Y58590D01*
X24344Y58588D01*
X24361Y58571D01*
X24375Y58553D01*
X24388Y58532D01*
X24398Y58512D01*
X24405Y58494D01*
X24409Y58480D01*
X24412Y58474D01*
Y58470D01*
X24413Y58467D01*
Y58466D01*
X24422Y58485D01*
X24430Y58502D01*
X24439Y58516D01*
X24447Y58528D01*
X24454Y58538D01*
X24460Y58543D01*
X24464Y58547D01*
X24465Y58549D01*
X24485Y58563D01*
X24505Y58574D01*
X24525Y58581D01*
X24543Y58587D01*
X24558Y58590D01*
X24571Y58593D01*
X24580D01*
X24581D01*
X24582D01*
X24598D01*
X24612Y58590D01*
X24639Y58583D01*
X24661Y58573D01*
X24681Y58563D01*
X24698Y58552D01*
X24709Y58542D01*
X24716Y58535D01*
X24719Y58533D01*
Y58532D01*
X24737Y58507D01*
X24752Y58480D01*
X24761Y58452D01*
X24768Y58423D01*
X24773Y58398D01*
X24774Y58388D01*
Y58378D01*
X24776Y58371D01*
Y57913D01*
X24003D01*
Y58337D01*
X24004Y58353D01*
X24006Y58370D01*
X24009Y58388D01*
X24010Y58405D01*
X24011Y58419D01*
Y58425D01*
X24013Y58429D01*
Y58432D01*
X24017Y58453D01*
X24020Y58471D01*
X24024Y58487D01*
X24028Y58499D01*
X24033Y58509D01*
X24035Y58516D01*
X24038Y58521D01*
Y58522D01*
X24050Y58539D01*
X24062Y58554D01*
X24075Y58569D01*
X24088Y58580D01*
X24097Y58588D01*
X24106Y58594D01*
X24113Y58598D01*
X24114Y58600D01*
X24133Y58609D01*
X24151Y58616D01*
X24169Y58621D01*
X24186Y58625D01*
X24200Y58626D01*
X24212Y58628D01*
X24219D01*
X24222D01*
X24248Y58626D01*
D02*
G37*
G36*
X24788Y57468D02*
X24761Y57453D01*
X24737Y57438D01*
X24716Y57422D01*
X24699Y57407D01*
X24684Y57393D01*
X24673Y57382D01*
X24667Y57375D01*
X24664Y57373D01*
Y57372D01*
X24646Y57348D01*
X24630Y57320D01*
X24616Y57291D01*
X24604Y57265D01*
X24594Y57241D01*
X24589Y57229D01*
X24585Y57221D01*
X24584Y57212D01*
X24581Y57207D01*
X24580Y57204D01*
Y57203D01*
X24405D01*
X24413Y57229D01*
X24420Y57253D01*
X24429Y57273D01*
X24436Y57291D01*
X24441Y57305D01*
X24446Y57317D01*
X24448Y57322D01*
X24450Y57325D01*
X24460Y57344D01*
X24471Y57362D01*
X24482Y57380D01*
X24492Y57396D01*
X24502Y57408D01*
X24509Y57420D01*
X24515Y57425D01*
X24516Y57428D01*
X24003D01*
Y57645D01*
X24788D01*
Y57468D01*
D02*
G37*
G36*
X27443Y58436D02*
Y58174D01*
X26670Y57885D01*
Y58129D01*
X26797Y58167D01*
Y58437D01*
X26670Y58476D01*
Y58726D01*
X27443Y58436D01*
D02*
G37*
G36*
X27455Y57517D02*
X27428Y57503D01*
X27404Y57487D01*
X27383Y57472D01*
X27366Y57456D01*
X27351Y57442D01*
X27340Y57431D01*
X27334Y57424D01*
X27331Y57422D01*
Y57421D01*
X27313Y57397D01*
X27297Y57369D01*
X27283Y57341D01*
X27271Y57314D01*
X27261Y57290D01*
X27256Y57279D01*
X27252Y57270D01*
X27251Y57262D01*
X27248Y57256D01*
X27247Y57253D01*
Y57252D01*
X27072D01*
X27080Y57279D01*
X27087Y57303D01*
X27096Y57322D01*
X27103Y57341D01*
X27108Y57355D01*
X27113Y57366D01*
X27115Y57372D01*
X27117Y57375D01*
X27127Y57393D01*
X27138Y57411D01*
X27149Y57430D01*
X27159Y57445D01*
X27169Y57458D01*
X27176Y57469D01*
X27182Y57475D01*
X27183Y57477D01*
X26670D01*
Y57695D01*
X27455D01*
Y57517D01*
D02*
G37*
G36*
X30110Y58387D02*
Y58125D01*
X29337Y57836D01*
Y58079D01*
X29464Y58117D01*
Y58388D01*
X29337Y58426D01*
Y58677D01*
X30110Y58387D01*
D02*
G37*
G36*
X29512Y57451D02*
X29530Y57472D01*
X29546Y57487D01*
X29550Y57493D01*
X29554Y57497D01*
X29556Y57500D01*
X29557Y57501D01*
X29565Y57511D01*
X29575Y57524D01*
X29585Y57539D01*
X29595Y57554D01*
X29605Y57568D01*
X29613Y57579D01*
X29619Y57586D01*
X29620Y57589D01*
X29634Y57609D01*
X29649Y57627D01*
X29663Y57644D01*
X29675Y57659D01*
X29688Y57672D01*
X29699Y57685D01*
X29720Y57706D01*
X29737Y57721D01*
X29750Y57731D01*
X29758Y57738D01*
X29761Y57740D01*
X29785Y57754D01*
X29809Y57764D01*
X29833Y57772D01*
X29853Y57776D01*
X29871Y57779D01*
X29885Y57782D01*
X29890D01*
X29894D01*
X29895D01*
X29897D01*
X29921Y57781D01*
X29943Y57776D01*
X29964Y57771D01*
X29981Y57764D01*
X29997Y57757D01*
X30007Y57751D01*
X30014Y57747D01*
X30016Y57745D01*
X30035Y57731D01*
X30052Y57714D01*
X30064Y57697D01*
X30076Y57682D01*
X30084Y57668D01*
X30091Y57655D01*
X30094Y57648D01*
X30095Y57647D01*
Y57645D01*
X30104Y57620D01*
X30111Y57592D01*
X30115Y57562D01*
X30119Y57534D01*
X30121Y57508D01*
Y57497D01*
X30122Y57487D01*
Y57469D01*
X30121Y57431D01*
X30118Y57397D01*
X30114Y57367D01*
X30108Y57344D01*
X30102Y57324D01*
X30098Y57310D01*
X30095Y57301D01*
X30094Y57300D01*
Y57298D01*
X30083Y57276D01*
X30070Y57258D01*
X30057Y57241D01*
X30045Y57228D01*
X30033Y57217D01*
X30025Y57208D01*
X30019Y57204D01*
X30016Y57203D01*
X29995Y57191D01*
X29973Y57181D01*
X29950Y57174D01*
X29928Y57167D01*
X29907Y57163D01*
X29891Y57160D01*
X29884Y57159D01*
X29880Y57157D01*
X29877D01*
X29876D01*
X29859Y57373D01*
X29881Y57377D01*
X29899Y57382D01*
X29915Y57387D01*
X29928Y57393D01*
X29938Y57398D01*
X29945Y57403D01*
X29947Y57406D01*
X29949Y57407D01*
X29957Y57418D01*
X29964Y57430D01*
X29969Y57441D01*
X29973Y57451D01*
X29974Y57461D01*
X29976Y57468D01*
Y57475D01*
X29974Y57489D01*
X29971Y57501D01*
X29967Y57513D01*
X29963Y57523D01*
X29959Y57531D01*
X29954Y57537D01*
X29952Y57539D01*
X29950Y57541D01*
X29940Y57549D01*
X29930Y57556D01*
X29921Y57561D01*
X29911Y57565D01*
X29902Y57566D01*
X29895Y57568D01*
X29891D01*
X29890D01*
X29877Y57566D01*
X29866Y57563D01*
X29853Y57559D01*
X29843Y57555D01*
X29833Y57549D01*
X29826Y57545D01*
X29822Y57542D01*
X29821Y57541D01*
X29813Y57535D01*
X29805Y57528D01*
X29788Y57511D01*
X29771Y57490D01*
X29753Y57470D01*
X29737Y57451D01*
X29725Y57435D01*
X29720Y57428D01*
X29716Y57424D01*
X29715Y57421D01*
X29713Y57420D01*
X29692Y57391D01*
X29673Y57366D01*
X29653Y57342D01*
X29634Y57321D01*
X29616Y57301D01*
X29601Y57284D01*
X29585Y57269D01*
X29571Y57256D01*
X29558Y57245D01*
X29547Y57234D01*
X29537Y57227D01*
X29530Y57219D01*
X29523Y57214D01*
X29519Y57211D01*
X29516Y57210D01*
X29515Y57208D01*
X29484Y57190D01*
X29451Y57174D01*
X29422Y57163D01*
X29395Y57155D01*
X29371Y57148D01*
X29361Y57146D01*
X29353Y57145D01*
X29347Y57143D01*
X29341Y57142D01*
X29338D01*
X29337D01*
Y57788D01*
X29512D01*
Y57451D01*
D02*
G37*
G36*
X32122Y58676D02*
X32146Y58671D01*
X32167Y58664D01*
X32184Y58657D01*
X32198Y58650D01*
X32210Y58643D01*
X32215Y58639D01*
X32218Y58638D01*
X32235Y58621D01*
X32249Y58602D01*
X32262Y58581D01*
X32272Y58562D01*
X32279Y58543D01*
X32283Y58529D01*
X32286Y58523D01*
Y58519D01*
X32287Y58516D01*
Y58515D01*
X32296Y58535D01*
X32304Y58552D01*
X32313Y58566D01*
X32321Y58577D01*
X32328Y58587D01*
X32334Y58593D01*
X32338Y58597D01*
X32339Y58598D01*
X32359Y58612D01*
X32379Y58624D01*
X32399Y58631D01*
X32417Y58636D01*
X32432Y58639D01*
X32445Y58642D01*
X32454D01*
X32455D01*
X32456D01*
X32472D01*
X32486Y58639D01*
X32513Y58632D01*
X32535Y58622D01*
X32555Y58612D01*
X32572Y58601D01*
X32583Y58591D01*
X32590Y58584D01*
X32593Y58583D01*
Y58581D01*
X32611Y58556D01*
X32626Y58529D01*
X32635Y58501D01*
X32642Y58473D01*
X32647Y58447D01*
X32648Y58437D01*
Y58428D01*
X32650Y58421D01*
Y57962D01*
X31877D01*
Y58387D01*
X31878Y58402D01*
X31880Y58419D01*
X31883Y58437D01*
X31884Y58454D01*
X31885Y58468D01*
Y58474D01*
X31887Y58478D01*
Y58481D01*
X31891Y58502D01*
X31894Y58521D01*
X31898Y58536D01*
X31902Y58549D01*
X31907Y58559D01*
X31909Y58566D01*
X31912Y58570D01*
Y58571D01*
X31924Y58588D01*
X31936Y58604D01*
X31949Y58618D01*
X31962Y58629D01*
X31971Y58638D01*
X31980Y58643D01*
X31987Y58647D01*
X31988Y58649D01*
X32007Y58659D01*
X32025Y58666D01*
X32043Y58670D01*
X32060Y58674D01*
X32074Y58676D01*
X32086Y58677D01*
X32093D01*
X32096D01*
X32122Y58676D01*
D02*
G37*
G36*
X32052Y57500D02*
X32070Y57521D01*
X32086Y57537D01*
X32090Y57542D01*
X32094Y57547D01*
X32096Y57549D01*
X32097Y57551D01*
X32105Y57561D01*
X32115Y57573D01*
X32125Y57589D01*
X32135Y57603D01*
X32145Y57617D01*
X32153Y57628D01*
X32159Y57635D01*
X32160Y57638D01*
X32174Y57658D01*
X32189Y57676D01*
X32203Y57693D01*
X32215Y57709D01*
X32228Y57721D01*
X32239Y57734D01*
X32260Y57755D01*
X32277Y57771D01*
X32290Y57781D01*
X32299Y57788D01*
X32301Y57789D01*
X32325Y57803D01*
X32349Y57813D01*
X32373Y57821D01*
X32393Y57826D01*
X32411Y57828D01*
X32425Y57831D01*
X32430D01*
X32434D01*
X32435D01*
X32437D01*
X32461Y57830D01*
X32483Y57826D01*
X32504Y57820D01*
X32521Y57813D01*
X32537Y57806D01*
X32547Y57800D01*
X32554Y57796D01*
X32556Y57795D01*
X32575Y57781D01*
X32592Y57764D01*
X32604Y57747D01*
X32616Y57731D01*
X32624Y57717D01*
X32631Y57704D01*
X32634Y57697D01*
X32635Y57696D01*
Y57695D01*
X32644Y57669D01*
X32651Y57641D01*
X32655Y57611D01*
X32659Y57583D01*
X32661Y57558D01*
Y57547D01*
X32662Y57537D01*
Y57518D01*
X32661Y57480D01*
X32658Y57446D01*
X32654Y57417D01*
X32648Y57393D01*
X32642Y57373D01*
X32638Y57359D01*
X32635Y57351D01*
X32634Y57349D01*
Y57348D01*
X32623Y57325D01*
X32610Y57307D01*
X32597Y57290D01*
X32585Y57277D01*
X32573Y57266D01*
X32565Y57258D01*
X32559Y57253D01*
X32556Y57252D01*
X32535Y57241D01*
X32513Y57231D01*
X32490Y57224D01*
X32468Y57217D01*
X32447Y57212D01*
X32431Y57210D01*
X32424Y57208D01*
X32420Y57207D01*
X32417D01*
X32416D01*
X32399Y57422D01*
X32421Y57427D01*
X32439Y57431D01*
X32455Y57437D01*
X32468Y57442D01*
X32478Y57448D01*
X32485Y57452D01*
X32487Y57455D01*
X32489Y57456D01*
X32497Y57468D01*
X32504Y57479D01*
X32509Y57490D01*
X32513Y57500D01*
X32514Y57510D01*
X32516Y57517D01*
Y57524D01*
X32514Y57538D01*
X32511Y57551D01*
X32507Y57562D01*
X32503Y57572D01*
X32499Y57580D01*
X32494Y57586D01*
X32492Y57589D01*
X32490Y57590D01*
X32480Y57599D01*
X32470Y57606D01*
X32461Y57610D01*
X32451Y57614D01*
X32442Y57616D01*
X32435Y57617D01*
X32431D01*
X32430D01*
X32417Y57616D01*
X32406Y57613D01*
X32393Y57609D01*
X32383Y57604D01*
X32373Y57599D01*
X32366Y57594D01*
X32362Y57592D01*
X32361Y57590D01*
X32353Y57585D01*
X32345Y57578D01*
X32328Y57561D01*
X32311Y57539D01*
X32293Y57520D01*
X32277Y57500D01*
X32265Y57484D01*
X32260Y57477D01*
X32256Y57473D01*
X32255Y57470D01*
X32253Y57469D01*
X32232Y57441D01*
X32213Y57415D01*
X32193Y57391D01*
X32174Y57370D01*
X32156Y57351D01*
X32141Y57334D01*
X32125Y57318D01*
X32111Y57305D01*
X32098Y57294D01*
X32087Y57283D01*
X32077Y57276D01*
X32070Y57269D01*
X32063Y57263D01*
X32059Y57260D01*
X32056Y57259D01*
X32055Y57258D01*
X32024Y57239D01*
X31991Y57224D01*
X31962Y57212D01*
X31935Y57204D01*
X31911Y57197D01*
X31901Y57195D01*
X31892Y57194D01*
X31887Y57193D01*
X31881Y57191D01*
X31878D01*
X31877D01*
Y57837D01*
X32052D01*
Y57500D01*
D02*
G37*
G36*
X34720Y58676D02*
X34747Y58674D01*
X34772Y58671D01*
X34795Y58667D01*
X34813Y58663D01*
X34827Y58660D01*
X34833Y58659D01*
X34837D01*
X34838Y58657D01*
X34840D01*
X34865Y58649D01*
X34889Y58640D01*
X34910Y58631D01*
X34929Y58621D01*
X34944Y58611D01*
X34954Y58604D01*
X34961Y58598D01*
X34964Y58597D01*
X34982Y58580D01*
X34999Y58563D01*
X35013Y58545D01*
X35024Y58528D01*
X35034Y58512D01*
X35040Y58501D01*
X35044Y58492D01*
X35046Y58491D01*
Y58490D01*
X35055Y58464D01*
X35063Y58436D01*
X35068Y58408D01*
X35071Y58380D01*
X35074Y58356D01*
Y58346D01*
X35075Y58336D01*
Y57965D01*
X34303D01*
Y58319D01*
X34304Y58344D01*
X34306Y58368D01*
X34308Y58394D01*
X34313Y58415D01*
X34317Y58435D01*
X34320Y58450D01*
X34321Y58456D01*
Y58460D01*
X34322Y58461D01*
Y58463D01*
X34329Y58484D01*
X34339Y58504D01*
X34349Y58521D01*
X34359Y58538D01*
X34369Y58550D01*
X34377Y58560D01*
X34383Y58566D01*
X34384Y58569D01*
X34403Y58587D01*
X34423Y58602D01*
X34441Y58616D01*
X34459Y58628D01*
X34475Y58636D01*
X34487Y58642D01*
X34496Y58646D01*
X34497Y58647D01*
X34499D01*
X34527Y58657D01*
X34558Y58664D01*
X34590Y58670D01*
X34620Y58673D01*
X34648Y58676D01*
X34659D01*
X34671Y58677D01*
X34679D01*
X34685D01*
X34689D01*
X34690D01*
X34720Y58676D01*
D02*
G37*
G36*
X35075Y57579D02*
X34647D01*
X35075Y57286D01*
Y57064D01*
X34303D01*
Y57289D01*
X34728D01*
X34303Y57579D01*
Y57804D01*
X35075D01*
Y57579D01*
D02*
G37*
G36*
X34744Y56553D02*
X34583D01*
Y56713D01*
X34510D01*
X34500Y56696D01*
X34492Y56680D01*
X34485Y56665D01*
X34480Y56653D01*
X34476Y56643D01*
X34473Y56636D01*
X34470Y56630D01*
Y56629D01*
X34463Y56602D01*
X34462Y56589D01*
X34461Y56577D01*
X34459Y56567D01*
Y56553D01*
X34462Y56523D01*
X34468Y56496D01*
X34476Y56474D01*
X34486Y56455D01*
X34496Y56440D01*
X34504Y56429D01*
X34510Y56423D01*
X34513Y56420D01*
X34524Y56412D01*
X34535Y56405D01*
X34563Y56393D01*
X34593Y56385D01*
X34623Y56379D01*
X34649Y56376D01*
X34661Y56375D01*
X34672D01*
X34680Y56374D01*
X34686D01*
X34690D01*
X34692D01*
X34713D01*
X34733Y56375D01*
X34751Y56378D01*
X34768Y56381D01*
X34783Y56385D01*
X34797Y56388D01*
X34821Y56398D01*
X34840Y56406D01*
X34854Y56413D01*
X34861Y56419D01*
X34864Y56420D01*
X34882Y56438D01*
X34896Y56460D01*
X34906Y56481D01*
X34912Y56501D01*
X34916Y56519D01*
X34917Y56533D01*
X34919Y56539D01*
Y56546D01*
X34917Y56565D01*
X34915Y56582D01*
X34912Y56596D01*
X34907Y56609D01*
X34902Y56619D01*
X34899Y56627D01*
X34896Y56632D01*
X34895Y56633D01*
X34885Y56644D01*
X34875Y56656D01*
X34864Y56664D01*
X34854Y56671D01*
X34844Y56675D01*
X34836Y56680D01*
X34830Y56682D01*
X34829D01*
X34869Y56912D01*
X34896Y56904D01*
X34920Y56894D01*
X34941Y56883D01*
X34958Y56873D01*
X34972Y56863D01*
X34984Y56856D01*
X34989Y56850D01*
X34992Y56849D01*
X35009Y56832D01*
X35024Y56815D01*
X35037Y56797D01*
X35047Y56780D01*
X35054Y56766D01*
X35060Y56754D01*
X35063Y56746D01*
X35064Y56744D01*
Y56743D01*
X35068Y56730D01*
X35072Y56716D01*
X35078Y56687D01*
X35082Y56654D01*
X35085Y56623D01*
X35086Y56595D01*
X35088Y56584D01*
Y56551D01*
X35086Y56503D01*
X35085Y56482D01*
X35082Y56461D01*
X35079Y56443D01*
X35075Y56426D01*
X35072Y56409D01*
X35070Y56395D01*
X35065Y56382D01*
X35063Y56371D01*
X35058Y56361D01*
X35055Y56353D01*
X35054Y56347D01*
X35051Y56343D01*
X35050Y56340D01*
Y56338D01*
X35030Y56303D01*
X35008Y56272D01*
X34984Y56247D01*
X34961Y56224D01*
X34940Y56207D01*
X34923Y56196D01*
X34916Y56192D01*
X34912Y56189D01*
X34909Y56186D01*
X34907D01*
X34871Y56169D01*
X34834Y56157D01*
X34797Y56147D01*
X34764Y56141D01*
X34748Y56138D01*
X34734Y56137D01*
X34721Y56135D01*
X34710D01*
X34702Y56134D01*
X34695D01*
X34690D01*
X34689D01*
X34645Y56135D01*
X34604Y56141D01*
X34568Y56148D01*
X34551Y56152D01*
X34537Y56158D01*
X34523Y56162D01*
X34510Y56166D01*
X34500Y56169D01*
X34492Y56173D01*
X34485Y56176D01*
X34479Y56179D01*
X34476Y56181D01*
X34475D01*
X34442Y56200D01*
X34414Y56221D01*
X34390Y56244D01*
X34372Y56265D01*
X34356Y56285D01*
X34345Y56300D01*
X34342Y56306D01*
X34339Y56310D01*
X34337Y56313D01*
Y56314D01*
X34321Y56350D01*
X34310Y56386D01*
X34301Y56424D01*
X34296Y56460D01*
X34294Y56477D01*
X34293Y56492D01*
X34291Y56505D01*
Y56517D01*
X34290Y56527D01*
Y56540D01*
X34291Y56581D01*
X34294Y56618D01*
X34298Y56651D01*
X34303Y56680D01*
X34306Y56691D01*
X34307Y56702D01*
X34310Y56711D01*
X34311Y56719D01*
X34313Y56725D01*
X34314Y56729D01*
X34315Y56732D01*
Y56733D01*
X34327Y56764D01*
X34342Y56797D01*
X34359Y56829D01*
X34375Y56859D01*
X34390Y56884D01*
X34397Y56895D01*
X34403Y56904D01*
X34407Y56912D01*
X34411Y56918D01*
X34413Y56921D01*
X34414Y56922D01*
X34744D01*
Y56553D01*
D02*
G37*
G36*
X37160Y58468D02*
X37133Y58461D01*
X37111Y58453D01*
X37091Y58444D01*
X37075Y58436D01*
X37063Y58429D01*
X37054Y58422D01*
X37049Y58418D01*
X37047Y58416D01*
X37034Y58402D01*
X37025Y58385D01*
X37019Y58368D01*
X37013Y58351D01*
X37010Y58336D01*
X37009Y58323D01*
Y58312D01*
X37010Y58287D01*
X37016Y58265D01*
X37023Y58246D01*
X37033Y58230D01*
X37041Y58219D01*
X37049Y58209D01*
X37054Y58203D01*
X37056Y58202D01*
X37065Y58195D01*
X37077Y58189D01*
X37103Y58179D01*
X37133Y58174D01*
X37161Y58168D01*
X37188Y58165D01*
X37201D01*
X37211Y58164D01*
X37219D01*
X37226D01*
X37230D01*
X37232D01*
X37268Y58165D01*
X37299Y58170D01*
X37325Y58174D01*
X37346Y58181D01*
X37361Y58187D01*
X37374Y58191D01*
X37380Y58195D01*
X37383Y58196D01*
X37394Y58205D01*
X37405Y58213D01*
X37421Y58233D01*
X37433Y58254D01*
X37440Y58274D01*
X37446Y58292D01*
X37447Y58308D01*
X37449Y58312D01*
Y58333D01*
X37446Y58346D01*
X37445Y58357D01*
X37442Y58367D01*
X37439Y58374D01*
X37436Y58381D01*
X37435Y58384D01*
X37433Y58385D01*
X37421Y58405D01*
X37407Y58421D01*
X37401Y58426D01*
X37395Y58432D01*
X37392Y58433D01*
X37391Y58435D01*
X37384Y58439D01*
X37377Y58443D01*
X37360Y58452D01*
X37353Y58454D01*
X37346Y58457D01*
X37342Y58459D01*
X37340D01*
X37387Y58670D01*
X37409Y58662D01*
X37431Y58653D01*
X37449Y58643D01*
X37467Y58633D01*
X37484Y58624D01*
X37498Y58612D01*
X37512Y58602D01*
X37524Y58593D01*
X37535Y58583D01*
X37543Y58574D01*
X37552Y58566D01*
X37557Y58559D01*
X37563Y58553D01*
X37566Y58549D01*
X37569Y58546D01*
Y58545D01*
X37579Y58528D01*
X37588Y58511D01*
X37603Y58474D01*
X37614Y58436D01*
X37621Y58398D01*
X37624Y58381D01*
X37625Y58366D01*
X37626Y58351D01*
Y58339D01*
X37628Y58329D01*
Y58315D01*
X37626Y58281D01*
X37624Y58249D01*
X37618Y58219D01*
X37612Y58191D01*
X37604Y58165D01*
X37595Y58141D01*
X37586Y58119D01*
X37577Y58101D01*
X37567Y58082D01*
X37557Y58068D01*
X37549Y58055D01*
X37540Y58044D01*
X37535Y58037D01*
X37529Y58030D01*
X37526Y58027D01*
X37525Y58026D01*
X37505Y58007D01*
X37483Y57992D01*
X37460Y57979D01*
X37436Y57967D01*
X37411Y57957D01*
X37387Y57950D01*
X37363Y57943D01*
X37339Y57937D01*
X37316Y57933D01*
X37297Y57930D01*
X37278Y57927D01*
X37261Y57926D01*
X37249D01*
X37239Y57924D01*
X37233D01*
X37230D01*
X37180Y57927D01*
X37156Y57930D01*
X37133Y57933D01*
X37112Y57938D01*
X37092Y57943D01*
X37074Y57948D01*
X37058Y57954D01*
X37043Y57958D01*
X37030Y57964D01*
X37019Y57969D01*
X37010Y57974D01*
X37003Y57976D01*
X36998Y57979D01*
X36995Y57982D01*
X36994D01*
X36961Y58005D01*
X36934Y58027D01*
X36913Y58051D01*
X36895Y58072D01*
X36882Y58091D01*
X36872Y58106D01*
X36869Y58112D01*
X36867Y58116D01*
X36865Y58117D01*
Y58119D01*
X36854Y58151D01*
X36846Y58185D01*
X36838Y58220D01*
X36834Y58253D01*
X36833Y58268D01*
X36831Y58282D01*
Y58294D01*
X36830Y58305D01*
Y58326D01*
X36831Y58363D01*
X36834Y58397D01*
X36840Y58426D01*
X36846Y58450D01*
X36850Y58470D01*
X36855Y58485D01*
X36857Y58490D01*
X36858Y58494D01*
X36860Y58495D01*
Y58497D01*
X36872Y58521D01*
X36886Y58543D01*
X36900Y58562D01*
X36915Y58578D01*
X36929Y58591D01*
X36939Y58601D01*
X36946Y58608D01*
X36948Y58609D01*
X36972Y58626D01*
X36996Y58639D01*
X37020Y58652D01*
X37044Y58660D01*
X37064Y58669D01*
X37081Y58673D01*
X37087Y58674D01*
X37091Y58676D01*
X37094Y58677D01*
X37095D01*
X37160Y58468D01*
D02*
G37*
G36*
Y57628D02*
X37133Y57621D01*
X37111Y57613D01*
X37091Y57604D01*
X37075Y57596D01*
X37063Y57589D01*
X37054Y57582D01*
X37049Y57578D01*
X37047Y57576D01*
X37034Y57562D01*
X37025Y57545D01*
X37019Y57528D01*
X37013Y57511D01*
X37010Y57496D01*
X37009Y57483D01*
Y57472D01*
X37010Y57446D01*
X37016Y57425D01*
X37023Y57406D01*
X37033Y57390D01*
X37041Y57379D01*
X37049Y57369D01*
X37054Y57363D01*
X37056Y57362D01*
X37065Y57355D01*
X37077Y57349D01*
X37103Y57339D01*
X37133Y57334D01*
X37161Y57328D01*
X37188Y57325D01*
X37201D01*
X37211Y57324D01*
X37219D01*
X37226D01*
X37230D01*
X37232D01*
X37268Y57325D01*
X37299Y57329D01*
X37325Y57334D01*
X37346Y57341D01*
X37361Y57346D01*
X37374Y57351D01*
X37380Y57355D01*
X37383Y57356D01*
X37394Y57365D01*
X37405Y57373D01*
X37421Y57393D01*
X37433Y57414D01*
X37440Y57434D01*
X37446Y57452D01*
X37447Y57468D01*
X37449Y57472D01*
Y57493D01*
X37446Y57506D01*
X37445Y57517D01*
X37442Y57527D01*
X37439Y57534D01*
X37436Y57541D01*
X37435Y57544D01*
X37433Y57545D01*
X37421Y57565D01*
X37407Y57580D01*
X37401Y57586D01*
X37395Y57592D01*
X37392Y57593D01*
X37391Y57594D01*
X37384Y57599D01*
X37377Y57603D01*
X37360Y57611D01*
X37353Y57614D01*
X37346Y57617D01*
X37342Y57618D01*
X37340D01*
X37387Y57830D01*
X37409Y57821D01*
X37431Y57813D01*
X37449Y57803D01*
X37467Y57793D01*
X37484Y57783D01*
X37498Y57772D01*
X37512Y57762D01*
X37524Y57752D01*
X37535Y57742D01*
X37543Y57734D01*
X37552Y57726D01*
X37557Y57718D01*
X37563Y57713D01*
X37566Y57709D01*
X37569Y57706D01*
Y57704D01*
X37579Y57687D01*
X37588Y57671D01*
X37603Y57634D01*
X37614Y57596D01*
X37621Y57558D01*
X37624Y57541D01*
X37625Y57525D01*
X37626Y57511D01*
Y57499D01*
X37628Y57489D01*
Y57475D01*
X37626Y57441D01*
X37624Y57408D01*
X37618Y57379D01*
X37612Y57351D01*
X37604Y57325D01*
X37595Y57301D01*
X37586Y57279D01*
X37577Y57260D01*
X37567Y57242D01*
X37557Y57228D01*
X37549Y57215D01*
X37540Y57204D01*
X37535Y57197D01*
X37529Y57190D01*
X37526Y57187D01*
X37525Y57186D01*
X37505Y57167D01*
X37483Y57152D01*
X37460Y57139D01*
X37436Y57126D01*
X37411Y57117D01*
X37387Y57110D01*
X37363Y57102D01*
X37339Y57097D01*
X37316Y57093D01*
X37297Y57090D01*
X37278Y57087D01*
X37261Y57086D01*
X37249D01*
X37239Y57084D01*
X37233D01*
X37230D01*
X37180Y57087D01*
X37156Y57090D01*
X37133Y57093D01*
X37112Y57098D01*
X37092Y57102D01*
X37074Y57108D01*
X37058Y57114D01*
X37043Y57118D01*
X37030Y57124D01*
X37019Y57129D01*
X37010Y57133D01*
X37003Y57136D01*
X36998Y57139D01*
X36995Y57142D01*
X36994D01*
X36961Y57164D01*
X36934Y57187D01*
X36913Y57211D01*
X36895Y57232D01*
X36882Y57250D01*
X36872Y57266D01*
X36869Y57272D01*
X36867Y57276D01*
X36865Y57277D01*
Y57279D01*
X36854Y57311D01*
X36846Y57345D01*
X36838Y57380D01*
X36834Y57413D01*
X36833Y57428D01*
X36831Y57442D01*
Y57453D01*
X36830Y57465D01*
Y57486D01*
X36831Y57523D01*
X36834Y57556D01*
X36840Y57586D01*
X36846Y57610D01*
X36850Y57630D01*
X36855Y57645D01*
X36857Y57649D01*
X36858Y57654D01*
X36860Y57655D01*
Y57656D01*
X36872Y57680D01*
X36886Y57703D01*
X36900Y57721D01*
X36915Y57738D01*
X36929Y57751D01*
X36939Y57761D01*
X36946Y57768D01*
X36948Y57769D01*
X36972Y57786D01*
X36996Y57799D01*
X37020Y57812D01*
X37044Y57820D01*
X37064Y57828D01*
X37081Y57833D01*
X37087Y57834D01*
X37091Y57835D01*
X37094Y57837D01*
X37095D01*
X37160Y57628D01*
D02*
G37*
G36*
X37615Y56791D02*
X37058Y56619D01*
X37615Y56446D01*
Y56196D01*
X36843Y56488D01*
Y56746D01*
X37615Y57033D01*
Y56791D01*
D02*
G37*
%LPC*%
G36*
X34725Y8367D02*
X34721D01*
X34720D01*
X34707Y8366D01*
X34696Y8365D01*
X34686Y8360D01*
X34678Y8356D01*
X34672Y8352D01*
X34668Y8349D01*
X34665Y8346D01*
X34663Y8345D01*
X34658Y8335D01*
X34654Y8324D01*
X34648Y8298D01*
X34647Y8286D01*
X34645Y8276D01*
Y8163D01*
X34792D01*
Y8269D01*
X34790Y8287D01*
X34789Y8304D01*
X34786Y8317D01*
X34782Y8327D01*
X34778Y8335D01*
X34775Y8341D01*
X34773Y8343D01*
X34772Y8345D01*
X34765Y8352D01*
X34756Y8358D01*
X34748Y8362D01*
X34740Y8365D01*
X34731Y8366D01*
X34725Y8367D01*
D02*
G37*
G36*
X34428Y8397D02*
X34424D01*
X34422D01*
X34410Y8396D01*
X34398Y8393D01*
X34387Y8389D01*
X34379Y8384D01*
X34372Y8380D01*
X34367Y8376D01*
X34365Y8373D01*
X34363Y8372D01*
X34356Y8360D01*
X34350Y8348D01*
X34348Y8334D01*
X34345Y8318D01*
X34343Y8305D01*
X34342Y8294D01*
Y8163D01*
X34499D01*
Y8283D01*
X34497Y8305D01*
X34496Y8324D01*
X34491Y8339D01*
X34489Y8350D01*
X34484Y8360D01*
X34480Y8367D01*
X34479Y8370D01*
X34477Y8372D01*
X34469Y8380D01*
X34460Y8386D01*
X34451Y8391D01*
X34442Y8394D01*
X34434Y8396D01*
X34428Y8397D01*
D02*
G37*
G36*
X32312Y8367D02*
X32308D01*
X32307D01*
X32294Y8366D01*
X32283Y8365D01*
X32273Y8360D01*
X32265Y8356D01*
X32259Y8352D01*
X32255Y8349D01*
X32252Y8346D01*
X32250Y8345D01*
X32245Y8335D01*
X32241Y8324D01*
X32235Y8298D01*
X32234Y8286D01*
X32232Y8276D01*
Y8163D01*
X32379D01*
Y8269D01*
X32377Y8287D01*
X32376Y8304D01*
X32373Y8317D01*
X32369Y8327D01*
X32365Y8335D01*
X32362Y8341D01*
X32360Y8343D01*
X32359Y8345D01*
X32352Y8352D01*
X32343Y8358D01*
X32335Y8362D01*
X32327Y8365D01*
X32318Y8366D01*
X32312Y8367D01*
D02*
G37*
G36*
X32015Y8397D02*
X32011D01*
X32009D01*
X31997Y8396D01*
X31985Y8393D01*
X31974Y8389D01*
X31966Y8384D01*
X31959Y8380D01*
X31954Y8376D01*
X31952Y8373D01*
X31950Y8372D01*
X31943Y8360D01*
X31937Y8348D01*
X31935Y8334D01*
X31932Y8318D01*
X31930Y8305D01*
X31929Y8294D01*
Y8163D01*
X32086D01*
Y8283D01*
X32084Y8305D01*
X32083Y8324D01*
X32078Y8339D01*
X32076Y8350D01*
X32071Y8360D01*
X32067Y8367D01*
X32066Y8370D01*
X32064Y8372D01*
X32056Y8380D01*
X32047Y8386D01*
X32038Y8391D01*
X32029Y8394D01*
X32021Y8396D01*
X32015Y8397D01*
D02*
G37*
G36*
X29772Y8367D02*
X29768D01*
X29767D01*
X29754Y8366D01*
X29743Y8365D01*
X29733Y8360D01*
X29725Y8356D01*
X29719Y8352D01*
X29715Y8349D01*
X29712Y8346D01*
X29710Y8345D01*
X29705Y8335D01*
X29701Y8324D01*
X29695Y8298D01*
X29694Y8286D01*
X29692Y8276D01*
Y8163D01*
X29839D01*
Y8269D01*
X29837Y8287D01*
X29836Y8304D01*
X29833Y8317D01*
X29829Y8327D01*
X29825Y8335D01*
X29822Y8341D01*
X29820Y8343D01*
X29819Y8345D01*
X29812Y8352D01*
X29803Y8358D01*
X29795Y8362D01*
X29787Y8365D01*
X29778Y8366D01*
X29772Y8367D01*
D02*
G37*
G36*
X29475Y8397D02*
X29471D01*
X29469D01*
X29457Y8396D01*
X29445Y8393D01*
X29434Y8389D01*
X29426Y8384D01*
X29419Y8380D01*
X29414Y8376D01*
X29412Y8373D01*
X29410Y8372D01*
X29403Y8360D01*
X29397Y8348D01*
X29395Y8334D01*
X29392Y8318D01*
X29390Y8305D01*
X29389Y8294D01*
Y8163D01*
X29546D01*
Y8283D01*
X29544Y8305D01*
X29543Y8324D01*
X29538Y8339D01*
X29536Y8350D01*
X29531Y8360D01*
X29527Y8367D01*
X29526Y8370D01*
X29524Y8372D01*
X29516Y8380D01*
X29507Y8386D01*
X29498Y8391D01*
X29489Y8394D01*
X29481Y8396D01*
X29475Y8397D01*
D02*
G37*
G36*
X27100Y6935D02*
X27096D01*
X27094D01*
X27084D01*
X27076Y6932D01*
X27062Y6928D01*
X27056Y6925D01*
X27053Y6922D01*
X27050Y6921D01*
X27049Y6920D01*
X27042Y6914D01*
X27036Y6907D01*
X27029Y6894D01*
X27028Y6889D01*
X27027Y6884D01*
X27025Y6882D01*
Y6880D01*
X27022Y6865D01*
X27019Y6851D01*
X27018Y6839D01*
X27017Y6831D01*
X27015Y6825D01*
Y6717D01*
X27172D01*
Y6821D01*
X27170Y6844D01*
X27169Y6863D01*
X27165Y6879D01*
X27162Y6891D01*
X27158Y6900D01*
X27153Y6907D01*
X27152Y6910D01*
X27151Y6911D01*
X27142Y6920D01*
X27134Y6925D01*
X27124Y6930D01*
X27115Y6932D01*
X27107Y6934D01*
X27100Y6935D01*
D02*
G37*
G36*
X24423Y8441D02*
X24419D01*
X24417D01*
X24403Y8439D01*
X24392Y8436D01*
X24381Y8432D01*
X24372Y8427D01*
X24365Y8421D01*
X24360Y8417D01*
X24357Y8414D01*
X24355Y8413D01*
X24348Y8400D01*
X24343Y8386D01*
X24338Y8369D01*
X24336Y8353D01*
X24334Y8339D01*
X24333Y8327D01*
Y8257D01*
X24505D01*
Y8325D01*
X24503Y8348D01*
X24500Y8367D01*
X24496Y8383D01*
X24492Y8396D01*
X24488Y8404D01*
X24484Y8411D01*
X24481Y8414D01*
X24479Y8415D01*
X24469Y8424D01*
X24460Y8429D01*
X24448Y8435D01*
X24438Y8438D01*
X24430Y8439D01*
X24423Y8441D01*
D02*
G37*
G36*
X22518Y8500D02*
X22514D01*
X22512D01*
X22498Y8498D01*
X22487Y8496D01*
X22476Y8491D01*
X22467Y8486D01*
X22460Y8480D01*
X22455Y8476D01*
X22452Y8473D01*
X22450Y8472D01*
X22443Y8459D01*
X22438Y8445D01*
X22433Y8428D01*
X22431Y8413D01*
X22429Y8398D01*
X22428Y8386D01*
Y8317D01*
X22600D01*
Y8384D01*
X22598Y8407D01*
X22596Y8427D01*
X22591Y8442D01*
X22587Y8455D01*
X22583Y8463D01*
X22579Y8470D01*
X22576Y8473D01*
X22574Y8475D01*
X22564Y8483D01*
X22555Y8489D01*
X22543Y8494D01*
X22533Y8497D01*
X22525Y8498D01*
X22518Y8500D01*
D02*
G37*
G36*
X21245Y8195D02*
X21241D01*
X21240D01*
X21230D01*
X21221Y8193D01*
X21207Y8188D01*
X21201Y8186D01*
X21199Y8183D01*
X21196Y8181D01*
X21194Y8180D01*
X21187Y8174D01*
X21182Y8167D01*
X21175Y8155D01*
X21173Y8149D01*
X21172Y8145D01*
X21170Y8142D01*
Y8140D01*
X21168Y8125D01*
X21165Y8111D01*
X21163Y8100D01*
X21162Y8091D01*
X21161Y8085D01*
Y7977D01*
X21317D01*
Y8081D01*
X21316Y8104D01*
X21314Y8124D01*
X21310Y8139D01*
X21307Y8152D01*
X21303Y8160D01*
X21299Y8167D01*
X21297Y8170D01*
X21296Y8171D01*
X21287Y8180D01*
X21279Y8186D01*
X21269Y8190D01*
X21261Y8193D01*
X21252Y8194D01*
X21245Y8195D01*
D02*
G37*
G36*
X21104Y6949D02*
X21096D01*
X21090D01*
X21086D01*
X21084D01*
X21052Y6948D01*
X21025Y6946D01*
X21001Y6944D01*
X20983Y6941D01*
X20969Y6937D01*
X20959Y6934D01*
X20952Y6932D01*
X20951Y6931D01*
X20936Y6924D01*
X20924Y6915D01*
X20914Y6907D01*
X20907Y6898D01*
X20900Y6891D01*
X20896Y6886D01*
X20894Y6882D01*
X20893Y6880D01*
X20887Y6866D01*
X20884Y6851D01*
X20881Y6832D01*
X20879Y6815D01*
Y6798D01*
X20877Y6786D01*
Y6715D01*
X21299D01*
Y6774D01*
X21297Y6807D01*
X21292Y6835D01*
X21285Y6858D01*
X21276Y6876D01*
X21266Y6890D01*
X21259Y6900D01*
X21254Y6907D01*
X21252Y6908D01*
X21242Y6915D01*
X21232Y6922D01*
X21207Y6932D01*
X21179Y6939D01*
X21152Y6944D01*
X21125Y6948D01*
X21114D01*
X21104Y6949D01*
D02*
G37*
G36*
X19339Y58437D02*
X19330D01*
X19325D01*
X19321D01*
X19319D01*
X19287Y58436D01*
X19260Y58435D01*
X19236Y58432D01*
X19218Y58429D01*
X19204Y58425D01*
X19194Y58422D01*
X19187Y58421D01*
X19185Y58419D01*
X19171Y58412D01*
X19158Y58404D01*
X19149Y58395D01*
X19142Y58387D01*
X19134Y58380D01*
X19130Y58374D01*
X19129Y58370D01*
X19127Y58368D01*
X19122Y58354D01*
X19119Y58339D01*
X19116Y58320D01*
X19113Y58304D01*
Y58287D01*
X19112Y58274D01*
Y58203D01*
X19533D01*
Y58263D01*
X19532Y58295D01*
X19526Y58323D01*
X19519Y58346D01*
X19511Y58364D01*
X19501Y58378D01*
X19494Y58388D01*
X19488Y58395D01*
X19487Y58397D01*
X19477Y58404D01*
X19467Y58411D01*
X19442Y58421D01*
X19414Y58428D01*
X19387Y58432D01*
X19360Y58436D01*
X19349D01*
X19339Y58437D01*
D02*
G37*
G36*
X22279Y58408D02*
X22275D01*
X22274D01*
X22261Y58406D01*
X22250Y58405D01*
X22240Y58401D01*
X22232Y58397D01*
X22226Y58392D01*
X22222Y58390D01*
X22219Y58387D01*
X22217Y58385D01*
X22212Y58375D01*
X22208Y58364D01*
X22202Y58339D01*
X22201Y58326D01*
X22199Y58316D01*
Y58203D01*
X22346D01*
Y58309D01*
X22344Y58327D01*
X22343Y58344D01*
X22340Y58357D01*
X22336Y58367D01*
X22332Y58375D01*
X22329Y58381D01*
X22327Y58384D01*
X22326Y58385D01*
X22319Y58392D01*
X22310Y58398D01*
X22302Y58402D01*
X22294Y58405D01*
X22285Y58406D01*
X22279Y58408D01*
D02*
G37*
G36*
X21982Y58437D02*
X21978D01*
X21976D01*
X21964Y58436D01*
X21952Y58433D01*
X21941Y58429D01*
X21933Y58425D01*
X21926Y58421D01*
X21921Y58416D01*
X21919Y58413D01*
X21917Y58412D01*
X21910Y58401D01*
X21904Y58388D01*
X21902Y58374D01*
X21899Y58359D01*
X21897Y58346D01*
X21896Y58335D01*
Y58203D01*
X22053D01*
Y58323D01*
X22051Y58346D01*
X22050Y58364D01*
X22045Y58380D01*
X22043Y58391D01*
X22038Y58401D01*
X22034Y58408D01*
X22033Y58411D01*
X22031Y58412D01*
X22023Y58421D01*
X22014Y58426D01*
X22005Y58432D01*
X21996Y58435D01*
X21988Y58436D01*
X21982Y58437D01*
D02*
G37*
G36*
X24553Y58359D02*
X24549D01*
X24547D01*
X24534Y58357D01*
X24523Y58356D01*
X24513Y58351D01*
X24505Y58347D01*
X24499Y58343D01*
X24495Y58340D01*
X24492Y58337D01*
X24491Y58336D01*
X24485Y58326D01*
X24481Y58315D01*
X24475Y58289D01*
X24474Y58277D01*
X24472Y58267D01*
Y58154D01*
X24619D01*
Y58260D01*
X24618Y58278D01*
X24616Y58295D01*
X24613Y58308D01*
X24609Y58318D01*
X24605Y58326D01*
X24602Y58332D01*
X24601Y58335D01*
X24599Y58336D01*
X24592Y58343D01*
X24584Y58349D01*
X24575Y58353D01*
X24567Y58356D01*
X24558Y58357D01*
X24553Y58359D01*
D02*
G37*
G36*
X24255Y58388D02*
X24251D01*
X24250D01*
X24237Y58387D01*
X24226Y58384D01*
X24214Y58380D01*
X24206Y58375D01*
X24199Y58371D01*
X24195Y58367D01*
X24192Y58364D01*
X24190Y58363D01*
X24183Y58351D01*
X24178Y58339D01*
X24175Y58325D01*
X24172Y58309D01*
X24171Y58296D01*
X24169Y58285D01*
Y58154D01*
X24326D01*
Y58274D01*
X24324Y58296D01*
X24323Y58315D01*
X24319Y58330D01*
X24316Y58342D01*
X24312Y58351D01*
X24308Y58359D01*
X24306Y58361D01*
X24305Y58363D01*
X24296Y58371D01*
X24288Y58377D01*
X24278Y58382D01*
X24269Y58385D01*
X24261Y58387D01*
X24255Y58388D01*
D02*
G37*
G36*
X26965Y58387D02*
Y58218D01*
X27241Y58302D01*
X26965Y58387D01*
D02*
G37*
G36*
X29632Y58337D02*
Y58168D01*
X29908Y58253D01*
X29632Y58337D01*
D02*
G37*
G36*
X32427Y58408D02*
X32423D01*
X32421D01*
X32408Y58406D01*
X32397Y58405D01*
X32387Y58401D01*
X32379Y58397D01*
X32373Y58392D01*
X32369Y58390D01*
X32366Y58387D01*
X32365Y58385D01*
X32359Y58375D01*
X32355Y58364D01*
X32349Y58339D01*
X32348Y58326D01*
X32346Y58316D01*
Y58203D01*
X32493D01*
Y58309D01*
X32492Y58327D01*
X32490Y58344D01*
X32487Y58357D01*
X32483Y58367D01*
X32479Y58375D01*
X32476Y58381D01*
X32475Y58384D01*
X32473Y58385D01*
X32466Y58392D01*
X32458Y58398D01*
X32449Y58402D01*
X32441Y58405D01*
X32432Y58406D01*
X32427Y58408D01*
D02*
G37*
G36*
X32129Y58437D02*
X32125D01*
X32124D01*
X32111Y58436D01*
X32100Y58433D01*
X32088Y58429D01*
X32080Y58425D01*
X32073Y58421D01*
X32069Y58416D01*
X32066Y58413D01*
X32064Y58412D01*
X32057Y58401D01*
X32052Y58388D01*
X32049Y58374D01*
X32046Y58359D01*
X32045Y58346D01*
X32043Y58335D01*
Y58203D01*
X32200D01*
Y58323D01*
X32198Y58346D01*
X32197Y58364D01*
X32193Y58380D01*
X32190Y58391D01*
X32186Y58401D01*
X32181Y58408D01*
X32180Y58411D01*
X32179Y58412D01*
X32170Y58421D01*
X32162Y58426D01*
X32152Y58432D01*
X32143Y58435D01*
X32135Y58436D01*
X32129Y58437D01*
D02*
G37*
G36*
X34706Y58437D02*
X34697D01*
X34692D01*
X34688D01*
X34686D01*
X34654Y58436D01*
X34627Y58435D01*
X34603Y58432D01*
X34585Y58429D01*
X34571Y58425D01*
X34561Y58422D01*
X34554Y58421D01*
X34552Y58419D01*
X34538Y58412D01*
X34525Y58404D01*
X34516Y58395D01*
X34508Y58387D01*
X34501Y58380D01*
X34497Y58374D01*
X34496Y58370D01*
X34494Y58368D01*
X34489Y58354D01*
X34486Y58339D01*
X34483Y58320D01*
X34480Y58304D01*
Y58287D01*
X34479Y58274D01*
Y58203D01*
X34900D01*
Y58263D01*
X34899Y58295D01*
X34893Y58323D01*
X34886Y58346D01*
X34878Y58364D01*
X34868Y58378D01*
X34861Y58388D01*
X34855Y58395D01*
X34854Y58397D01*
X34844Y58404D01*
X34834Y58411D01*
X34809Y58421D01*
X34781Y58428D01*
X34754Y58432D01*
X34727Y58436D01*
X34716D01*
X34706Y58437D01*
D02*
G37*
%LPD*%
D10*
X17905Y24607D02*
G03*
X17905Y24607I-1J0D01*
G01*
Y40355D02*
G03*
X17905Y40355I-1J0D01*
G01*
Y8605D02*
G03*
X17905Y8605I-1J0D01*
G01*
D11*
X18185Y37268D02*
Y39818D01*
X38700D01*
X18190Y37268D02*
X38700D01*
Y39818D01*
X18185Y25268D02*
Y27818D01*
X38700D01*
X18190Y25268D02*
X38700D01*
Y27818D01*
X18185Y53016D02*
Y55566D01*
X38700D01*
X18190Y53016D02*
X38700D01*
Y55566D01*
X18185Y41016D02*
Y43566D01*
X38700D01*
X18190Y41016D02*
X38700D01*
Y43566D01*
Y9266D02*
Y11816D01*
X18190Y9266D02*
X38700D01*
X18185Y11816D02*
X38700D01*
X18185Y9266D02*
Y11816D01*
X38700Y21266D02*
Y23816D01*
X18190Y21266D02*
X38700D01*
X18185Y23816D02*
X38700D01*
X18185Y21266D02*
Y23816D01*
D13*
X40259Y10033D02*
X39243Y10711D01*
X40259D02*
X39243Y10033D01*
Y11049D02*
Y11388D01*
Y11218D01*
X40259D01*
X40090Y11049D01*
Y11895D02*
X40259Y12065D01*
Y12403D01*
X40090Y12573D01*
X39920D01*
X39751Y12403D01*
X39582Y12573D01*
X39412D01*
X39243Y12403D01*
Y12065D01*
X39412Y11895D01*
X39582D01*
X39751Y12065D01*
X39920Y11895D01*
X40090D01*
X39751Y12065D02*
Y12403D01*
X40386Y25781D02*
X39370Y26459D01*
X40386D02*
X39370Y25781D01*
Y26797D02*
Y27136D01*
Y26966D01*
X40386D01*
X40217Y26797D01*
X40386Y27643D02*
Y28321D01*
X40217D01*
X39539Y27643D01*
X39370D01*
X40524Y41845D02*
X39508Y42523D01*
X40524D02*
X39508Y41845D01*
Y42861D02*
Y43200D01*
Y43030D01*
X40524D01*
X40355Y42861D01*
X40524Y44385D02*
X40355Y44046D01*
X40016Y43707D01*
X39677D01*
X39508Y43877D01*
Y44215D01*
X39677Y44385D01*
X39847D01*
X40016Y44215D01*
Y43707D01*
M02*
