M48
;Layer_Color=9474304
;FILE_FORMAT=4:3
METRIC,LZ
;TYPE=PLATED
T01F00S00C0.300
T02F00S00C0.800
T03F00S00C1.000
T04F00S00C1.200
T05F00S00C1.400
T06F00S00C2.600
T07F00S00C3.200
%
T01
X00105Y000875
Y0014
X001Y002
Y00225
Y0025
Y00275
Y003
Y00325
Y0035
Y00375
X00075Y003
Y00275
Y002
X0014Y000525
X001925Y000325
X002325
X002725
X00305
X0041569Y0025708
X0042545Y0025781
X0043117Y00251
X0042291Y0027432
X0041243Y0027864
X0059309Y0023622
X0051816Y0048387
X0055753Y0068199
X001Y005
X00075
Y00475
Y0045
X001
Y00475
Y004
X00275Y01025
X00325
X00375
X00325Y011
X00275
X0025Y01125
X00225
Y011
X0025Y0115
X002
X003Y01125
X0035
X00375Y0115
X00325
X004Y01125
Y011
X0045Y01125
X00425Y0115
Y01025
X0045
T02
X0004286Y0024511
X0007786
Y0039497
X0004286
Y0051943
X0007786
T03
X0014Y0010879
Y0013379
Y0015879
Y0018379
Y0026881
Y0029381
Y0031881
Y0034381
X0020828Y0032004
X0023368
X0025908
X0028448
X0030988
X0033523Y0031999
X0036068Y0032004
X0038608
X003724Y0026543
X00347
X003216
X002962
X002708
X0024545Y0026538
X0022Y0026543
X001946
Y0022541
X0022
X0024545Y0022536
X002708Y0022541
X002962
X003216
X00347
X003724
Y0010541
X00347
X003216
X002962
X002708
X0024545Y0010536
X0022Y0010541
X001946
Y0038543
X0022
X0024545Y0038538
X002708Y0038543
X002962
X003216
X00347
X003724
X0047023Y0004572
X0049523
X0052023
X0054523
X0057023
X0059523
X005588Y0060198
X005334
X00508
X004826
X004572
X004318
X004064
Y0062738
X004318
X004572
X004826
X00508
X005334
X005588
X00381
Y0060198
X003556
X003302
X003048
X002794
X00254
X002286
Y0062738
X002032
X001778
Y0060198
X002032
X001946Y0054291
X0022
X0024545Y0054286
X002708Y0054291
X002962
X003216
X00347
X003724
X003556Y0062738
X003302
X003048
X002794
X00254
X001016Y0062743
X000762
X000508
Y0060203
X000762
X001016
X0014Y0050129
Y0047629
Y0045129
Y0042629
X001946Y0042291
X0022
X0024545Y0042286
X002708Y0042291
X002962
X003216
X00347
X003724
X00381Y0093218
Y0095758
X003556
X003302
Y0093218
X003048
X002794
Y0095758
X0030466Y0095745
X00254Y0095758
X002286
X002032
X001778
Y0093218
X002032
X002286
X00254
X003556
X0013335Y0100203
X0005548Y0099461
Y0101961
X0005588Y0107442
Y0109942
X0013335Y0116294
X0050335
X0056134Y0116205
X0058674
X0061214
Y0113665
Y0111125
Y0108585
Y0106045
Y0103505
X0058674
Y0106045
Y0108585
Y0111125
Y0113665
X0056134
Y0111125
Y0108585
Y0106045
Y0103505
X005588Y0095758
X005334
X00508
Y0093218
X004826
X004572
Y0095758
X004318
X004064
Y0093218
X004318
X004826Y0095758
X0050335Y0100203
X005334Y0093218
Y0090678
Y0088138
X005588
Y0085598
X005334
X005588Y0090678
Y0093218
X0062075Y0091059
X0064615
X006716Y0091064
Y0098303
X0064615Y0098298
X0062075
X0067056Y0103124
X0067061Y0105659
X0067056Y0108204
Y0110744
T04
X0061127Y0060367
X0063627
X0066127
X0066595Y0075057
X0064095
X0061595
X0061508Y0083735
X0064008
X0066508
T05
X005389Y00132
Y00182
Y0028772
Y0033772
X006639
Y0028772
Y00182
Y00132
X006639Y0044531
Y0049531
X005389
Y0044531
T06
X00185Y0007002
X0042
T07
X0004Y0004
X0066
Y0068
X0004Y0068
Y0116
X0066
M30
