G04*
G04 #@! TF.GenerationSoftware,Altium Limited,Altium Designer,24.2.2 (26)*
G04*
G04 Layer_Physical_Order=2*
G04 Layer_Color=16711680*
%FSLAX43Y43*%
%MOMM*%
G71*
G04*
G04 #@! TF.SameCoordinates,FB4AC1D3-029A-4C58-91C8-636A0C7E52CF*
G04*
G04*
G04 #@! TF.FilePolarity,Positive*
G04*
G01*
G75*
%ADD10C,0.600*%
%ADD13C,0.254*%
%ADD20C,1.700*%
%ADD32C,0.800*%
%ADD33C,1.900*%
%ADD34R,1.900X1.900*%
%ADD35C,1.600*%
%ADD36R,1.600X1.600*%
%ADD37R,1.900X1.900*%
%ADD38C,4.200*%
%ADD39R,1.600X1.600*%
%ADD40C,2.200*%
%ADD41R,2.200X2.200*%
%ADD42C,6.000*%
%ADD43C,0.600*%
%ADD44C,0.254*%
%ADD45C,1.400*%
G36*
X62966Y117755D02*
D01*
X62756Y117344D01*
X62586Y116820D01*
X62545Y116559D01*
X62415Y116552D01*
X62379Y116687D01*
X62214Y116973D01*
X61982Y117205D01*
X61764Y117331D01*
Y116205D01*
X60664D01*
Y117331D01*
X60446Y117205D01*
X60214Y116973D01*
X60133Y116832D01*
X59986D01*
X59834Y117095D01*
X59564Y117365D01*
X59564Y117365D01*
X59234Y117556D01*
X58865Y117655D01*
X58483D01*
X58114Y117556D01*
X57784Y117365D01*
X57514Y117095D01*
X57467Y117015D01*
X57340D01*
X57294Y117095D01*
X57024Y117365D01*
X56694Y117556D01*
X56325Y117655D01*
X55943D01*
X55574Y117556D01*
X55244Y117365D01*
X54974Y117095D01*
X54829Y116844D01*
X52959D01*
X52714Y116796D01*
X52507Y116657D01*
X51892Y116042D01*
X51830Y116077D01*
X51785Y116115D01*
Y116485D01*
X51686Y116854D01*
X51495Y117184D01*
X51225Y117454D01*
X50895Y117645D01*
X50526Y117744D01*
X50144D01*
X49775Y117645D01*
X49445Y117454D01*
X49175Y117184D01*
X48984Y116854D01*
X48885Y116485D01*
Y116103D01*
X48984Y115734D01*
X49175Y115404D01*
X49445Y115134D01*
X49775Y114943D01*
X50144Y114844D01*
X50514D01*
X50552Y114799D01*
X50587Y114737D01*
X43927Y108077D01*
X24761D01*
X24516Y108029D01*
X24309Y107890D01*
X15479Y99060D01*
X14732D01*
X14097Y98171D01*
X12637Y96711D01*
Y66993D01*
X12573Y66929D01*
Y65532D01*
X10983Y63942D01*
X10720Y64094D01*
X10351Y64193D01*
X9969D01*
X9600Y64094D01*
X9270Y63903D01*
X9000Y63633D01*
X8848Y63370D01*
X8701D01*
X8620Y63511D01*
X8387Y63743D01*
X8170Y63869D01*
Y62743D01*
X7070D01*
Y63869D01*
X6852Y63743D01*
X6620Y63511D01*
X6539Y63370D01*
X6392D01*
X6240Y63633D01*
X5970Y63903D01*
X5640Y64094D01*
X5271Y64193D01*
X5022D01*
X4754Y64461D01*
X4793Y64582D01*
X4820Y64586D01*
X5344Y64756D01*
X5834Y65007D01*
X6280Y65330D01*
X6670Y65720D01*
X6993Y66166D01*
X7244Y66656D01*
X7414Y67180D01*
X7500Y67725D01*
Y68275D01*
X7414Y68820D01*
X7244Y69344D01*
X6993Y69834D01*
X6670Y70280D01*
X6280Y70670D01*
X5834Y70993D01*
X5344Y71244D01*
X4820Y71414D01*
X4275Y71500D01*
X4193D01*
Y99697D01*
X4395Y99899D01*
X4509Y99833D01*
X4448Y99606D01*
Y99316D01*
X4523Y99036D01*
X4668Y98786D01*
X4873Y98581D01*
X5123Y98436D01*
X5148Y98429D01*
Y99461D01*
X5548D01*
Y99861D01*
X6580D01*
X6573Y99886D01*
X6428Y100136D01*
X6223Y100341D01*
X5973Y100486D01*
X5794Y100534D01*
X5810Y100661D01*
X6848D01*
Y102352D01*
X16447Y111951D01*
X16256Y117094D01*
X18796Y119634D01*
X61087D01*
X62966Y117755D01*
D02*
G37*
G36*
X15367Y118110D02*
Y112268D01*
X11811Y108712D01*
X5988D01*
X5985Y108715D01*
X6043Y108842D01*
X6688D01*
Y109542D01*
X5588D01*
X4488D01*
Y108842D01*
X5133D01*
X5191Y108715D01*
X5188Y108712D01*
X4572D01*
X3683Y107823D01*
Y71493D01*
X3180Y71414D01*
X2656Y71244D01*
X2166Y70993D01*
X1720Y70670D01*
X1330Y70280D01*
X1007Y69834D01*
X756Y69344D01*
X586Y68820D01*
X500Y68275D01*
Y67725D01*
X586Y67180D01*
X756Y66656D01*
X1007Y66166D01*
X1330Y65720D01*
X1720Y65330D01*
X2166Y65007D01*
X2656Y64756D01*
X3180Y64586D01*
X3683Y64507D01*
Y63132D01*
X3630Y62934D01*
Y62552D01*
X3683Y62354D01*
Y60592D01*
X3630Y60394D01*
Y60012D01*
X3683Y59814D01*
Y58928D01*
X4826Y57785D01*
X5207Y57404D01*
X6350Y56261D01*
Y22606D01*
X4699Y20955D01*
X1651D01*
X255Y22351D01*
Y107850D01*
X3212Y112581D01*
X3725Y112500D01*
X4275D01*
X4820Y112586D01*
X5344Y112756D01*
X5834Y113007D01*
X6280Y113330D01*
X6670Y113720D01*
X6993Y114166D01*
X7244Y114656D01*
X7414Y115180D01*
X7500Y115725D01*
Y116275D01*
X7414Y116820D01*
X7244Y117344D01*
X6993Y117834D01*
X6726Y118203D01*
X7620Y119634D01*
X13843D01*
X15367Y118110D01*
D02*
G37*
G36*
X62506Y115687D02*
X62586Y115180D01*
X62756Y114656D01*
X63007Y114166D01*
X63330Y113720D01*
X63720Y113330D01*
X64166Y113007D01*
X64656Y112756D01*
X65180Y112586D01*
X65532Y112531D01*
Y105156D01*
X65875Y104813D01*
X65901Y104769D01*
X66171Y104499D01*
X66215Y104473D01*
X66389Y104299D01*
X66373Y104173D01*
X66288Y104124D01*
D01*
X66056Y103892D01*
X65930Y103674D01*
X67056D01*
X68182D01*
X68059Y103886D01*
X68076Y103953D01*
X68101Y104013D01*
X68834D01*
X69215Y103505D01*
Y73152D01*
X67818Y71755D01*
X64008D01*
X62484Y70231D01*
Y66294D01*
X64770Y64008D01*
X66802D01*
X69088Y61722D01*
Y10144D01*
X68851Y9877D01*
X66504Y7464D01*
X66275Y7500D01*
X65725D01*
X65180Y7414D01*
X64656Y7244D01*
X64166Y6993D01*
X63720Y6670D01*
X63330Y6280D01*
X63007Y5834D01*
X62756Y5344D01*
X62586Y4820D01*
X62500Y4275D01*
Y3725D01*
X62551Y3400D01*
X59986Y762D01*
X10922D01*
X7500Y4184D01*
Y4275D01*
X7414Y4820D01*
X7244Y5344D01*
X6993Y5834D01*
X6670Y6280D01*
X6280Y6670D01*
X5969Y6896D01*
Y21504D01*
X6710Y22246D01*
X6821Y22411D01*
X6860Y22606D01*
Y23701D01*
X6987Y23754D01*
X7110Y23631D01*
X7361Y23486D01*
X7385Y23479D01*
Y24511D01*
Y25543D01*
X7361Y25536D01*
X7110Y25391D01*
X6987Y25268D01*
X6860Y25321D01*
Y38687D01*
X6987Y38740D01*
X7110Y38617D01*
X7361Y38472D01*
X7385Y38465D01*
Y39497D01*
Y40529D01*
X7361Y40522D01*
X7110Y40377D01*
X6987Y40254D01*
X6860Y40307D01*
Y51133D01*
X6987Y51186D01*
X7110Y51063D01*
X7361Y50918D01*
X7385Y50911D01*
Y51943D01*
Y52975D01*
X7361Y52968D01*
X7110Y52823D01*
X6987Y52700D01*
X6860Y52753D01*
Y53234D01*
X8485Y54858D01*
X9658D01*
X11366Y53150D01*
Y8953D01*
X15748Y4572D01*
X17572D01*
X17742Y4502D01*
X18244Y4402D01*
X18756D01*
X19258Y4502D01*
X19428Y4572D01*
X41072D01*
X41242Y4502D01*
X41744Y4402D01*
X42256D01*
X42758Y4502D01*
X42928Y4572D01*
X45723D01*
Y3272D01*
X48323D01*
Y3805D01*
X48446Y3838D01*
X48483Y3774D01*
X48725Y3532D01*
X49021Y3361D01*
X49352Y3272D01*
X49694D01*
X50025Y3361D01*
X50321Y3532D01*
X50563Y3774D01*
X50701Y4012D01*
X50845D01*
X50983Y3774D01*
X51225Y3532D01*
X51521Y3361D01*
X51852Y3272D01*
X52194D01*
X52525Y3361D01*
X52821Y3532D01*
X53063Y3774D01*
X53201Y4012D01*
X53345D01*
X53483Y3774D01*
X53725Y3532D01*
X54021Y3361D01*
X54352Y3272D01*
X54694D01*
X55025Y3361D01*
X55321Y3532D01*
X55563Y3774D01*
X55734Y4070D01*
X55811Y4355D01*
X55942D01*
X55998Y4147D01*
X56143Y3897D01*
X56348Y3692D01*
X56598Y3547D01*
X56623Y3540D01*
Y4572D01*
Y5645D01*
X56578Y5723D01*
X57856Y7001D01*
X57995Y7208D01*
X58043Y7453D01*
Y7751D01*
X61087Y10795D01*
Y55994D01*
X64205Y59112D01*
Y59112D01*
X64209Y59144D01*
X64456Y59287D01*
X64707Y59538D01*
X64885Y59846D01*
X64915Y59957D01*
X65046D01*
X65055Y59923D01*
X65207Y59661D01*
X65421Y59447D01*
X65627Y59328D01*
Y60367D01*
Y61406D01*
X65421Y61287D01*
X65207Y61073D01*
X65055Y60811D01*
X65046Y60777D01*
X64915D01*
X64885Y60888D01*
X64707Y61196D01*
X64456Y61447D01*
X64148Y61625D01*
X63805Y61717D01*
X63449D01*
X63106Y61625D01*
X62798Y61447D01*
X62547Y61196D01*
X62441Y61012D01*
X62304Y61029D01*
X62207Y61196D01*
X61956Y61447D01*
X61752Y61565D01*
X59948Y63369D01*
Y66167D01*
X59900Y66412D01*
X59761Y66619D01*
X59182Y67198D01*
Y72136D01*
X59702Y72640D01*
X62230D01*
X62475Y72688D01*
X62682Y72827D01*
X63317Y73462D01*
X63456Y73669D01*
X63468Y73732D01*
X63609Y73790D01*
X63917Y73707D01*
X64273D01*
X64616Y73799D01*
X64924Y73977D01*
X65175Y74228D01*
X65353Y74536D01*
X65383Y74647D01*
X65514D01*
X65523Y74613D01*
X65675Y74351D01*
X65889Y74137D01*
X66095Y74018D01*
Y75057D01*
Y76096D01*
X65889Y75977D01*
X65675Y75763D01*
X65523Y75501D01*
X65514Y75467D01*
X65383D01*
X65353Y75578D01*
X65175Y75886D01*
X64924Y76137D01*
X64616Y76315D01*
X64273Y76407D01*
X63917D01*
X63631Y76330D01*
X63504Y76409D01*
Y82368D01*
X63605Y82445D01*
X63830Y82385D01*
X64186D01*
X64529Y82477D01*
X64837Y82655D01*
X65088Y82906D01*
X65266Y83214D01*
X65296Y83325D01*
X65427D01*
X65436Y83291D01*
X65588Y83029D01*
X65802Y82815D01*
X66008Y82696D01*
Y83735D01*
Y84774D01*
X65802Y84655D01*
X65588Y84441D01*
X65436Y84179D01*
X65427Y84145D01*
X65296D01*
X65266Y84256D01*
X65088Y84564D01*
X64837Y84815D01*
X64529Y84993D01*
X64186Y85085D01*
X63830D01*
X63487Y84993D01*
X63289Y84879D01*
X63179Y84942D01*
Y85665D01*
X61091Y87753D01*
Y89609D01*
X63525D01*
Y89932D01*
X63642Y89981D01*
X63724Y89899D01*
X64055Y89708D01*
X64424Y89609D01*
X64805D01*
X65174Y89708D01*
X65505Y89899D01*
X65775Y90169D01*
X65931Y90439D01*
X66076Y90440D01*
X66159Y90297D01*
X66392Y90064D01*
X66610Y89938D01*
Y91064D01*
Y92190D01*
X66392Y92064D01*
X66159Y91832D01*
X66074Y91684D01*
X65928D01*
X65775Y91949D01*
X65505Y92219D01*
X65174Y92410D01*
X64805Y92509D01*
X64424D01*
X64055Y92410D01*
X63724Y92219D01*
X63642Y92137D01*
X63525Y92186D01*
Y92509D01*
X61091D01*
Y96411D01*
X61529Y96848D01*
X63525D01*
Y97171D01*
X63642Y97220D01*
X63724Y97138D01*
X64055Y96947D01*
X64424Y96848D01*
X64805D01*
X65174Y96947D01*
X65505Y97138D01*
X65775Y97408D01*
X65931Y97678D01*
X66076Y97679D01*
X66159Y97536D01*
X66392Y97303D01*
X66610Y97177D01*
Y98303D01*
Y99429D01*
X66392Y99303D01*
X66159Y99071D01*
X66074Y98923D01*
X65928D01*
X65775Y99188D01*
X65505Y99458D01*
X65174Y99649D01*
X64805Y99748D01*
X64424D01*
X64055Y99649D01*
X63724Y99458D01*
X63642Y99376D01*
X63525Y99425D01*
Y99748D01*
X60625D01*
Y97752D01*
X60057Y97184D01*
X58237Y99004D01*
X58030Y99143D01*
X57785Y99191D01*
X51271D01*
X51218Y99318D01*
X51335Y99435D01*
X51461Y99653D01*
X50335D01*
X49209D01*
X49335Y99435D01*
X49452Y99318D01*
X49399Y99191D01*
X21096D01*
X20851Y99143D01*
X20728Y99060D01*
X20120D01*
X20071Y99177D01*
X26935Y106041D01*
X47498D01*
X47743Y106089D01*
X47950Y106228D01*
X52208Y110486D01*
X54829D01*
X54974Y110235D01*
X55244Y109965D01*
X55324Y109919D01*
Y109791D01*
X55244Y109745D01*
X54974Y109475D01*
X54783Y109145D01*
X54684Y108776D01*
Y108394D01*
X54783Y108025D01*
X54974Y107695D01*
X55244Y107425D01*
X55324Y107379D01*
Y107252D01*
X55244Y107205D01*
X54974Y106935D01*
X54783Y106605D01*
X54684Y106236D01*
Y105854D01*
X54783Y105485D01*
X54974Y105155D01*
X55244Y104885D01*
X55324Y104839D01*
Y104712D01*
X55244Y104665D01*
X54974Y104395D01*
X54783Y104065D01*
X54684Y103696D01*
Y103314D01*
X54783Y102945D01*
X54974Y102615D01*
X55244Y102345D01*
X55574Y102154D01*
X55943Y102055D01*
X56325D01*
X56694Y102154D01*
X57024Y102345D01*
X57294Y102615D01*
X57340Y102695D01*
X57467D01*
X57514Y102615D01*
X57784Y102345D01*
X58114Y102154D01*
X58483Y102055D01*
X58865D01*
X59234Y102154D01*
X59436Y102271D01*
D01*
X59564Y102345D01*
X59834Y102615D01*
X59841Y102627D01*
X59964Y102594D01*
Y102255D01*
X60664D01*
Y103505D01*
X61214D01*
Y104055D01*
X62464D01*
Y104755D01*
X61720D01*
X61696Y104880D01*
X61982Y105045D01*
X62214Y105277D01*
X62340Y105495D01*
X61214D01*
Y106595D01*
X62340D01*
X62214Y106813D01*
X61982Y107045D01*
X61696Y107210D01*
X61549Y107249D01*
Y107381D01*
X61696Y107420D01*
X61982Y107585D01*
X62214Y107817D01*
X62340Y108035D01*
X61214D01*
Y109135D01*
X62340D01*
X62214Y109353D01*
X61982Y109585D01*
X61696Y109750D01*
X61549Y109789D01*
Y109921D01*
X61696Y109960D01*
X61982Y110125D01*
X62214Y110357D01*
X62340Y110575D01*
X61214D01*
Y111675D01*
X62340D01*
X62214Y111893D01*
X61982Y112125D01*
X61696Y112290D01*
X61549Y112329D01*
Y112461D01*
X61696Y112500D01*
X61982Y112665D01*
X62214Y112897D01*
X62340Y113115D01*
X61214D01*
Y114215D01*
X62340D01*
X62214Y114433D01*
X61982Y114665D01*
X61696Y114830D01*
X61549Y114869D01*
Y115001D01*
X61696Y115040D01*
X61982Y115205D01*
X62214Y115437D01*
X62376Y115717D01*
X62388Y115720D01*
X62506Y115687D01*
D02*
G37*
G36*
X22550Y53165D02*
X22768Y53291D01*
X23000Y53523D01*
X23083Y53667D01*
X23229Y53666D01*
X23385Y53396D01*
X23655Y53126D01*
X23985Y52935D01*
X24216Y52873D01*
X24257Y52832D01*
X33401D01*
X36322Y49911D01*
X36322Y43424D01*
X36080Y43181D01*
X35928Y42918D01*
X35781D01*
X35700Y43059D01*
X35468Y43291D01*
X35250Y43417D01*
Y42291D01*
X34150D01*
Y43417D01*
X33932Y43291D01*
X33700Y43059D01*
X33535Y42773D01*
X33496Y42626D01*
X33364D01*
X33325Y42773D01*
X33160Y43059D01*
X32928Y43291D01*
X32710Y43417D01*
Y42291D01*
X31610D01*
Y43417D01*
X31392Y43291D01*
X31160Y43059D01*
X30995Y42773D01*
X30956Y42626D01*
X30824D01*
X30785Y42773D01*
X30620Y43059D01*
X30388Y43291D01*
X30170Y43417D01*
Y42291D01*
X29070D01*
Y43417D01*
X28852Y43291D01*
X28702Y43141D01*
X28575Y43193D01*
Y43942D01*
X18288D01*
X18161Y44069D01*
Y43741D01*
X18010D01*
Y40841D01*
X18161D01*
Y39193D01*
X18109Y39103D01*
X18010Y38734D01*
Y38352D01*
X18109Y37983D01*
X18300Y37653D01*
X18570Y37383D01*
X18900Y37192D01*
X19269Y37093D01*
X19651D01*
X20020Y37192D01*
X20350Y37383D01*
X20620Y37653D01*
X20772Y37916D01*
X20919D01*
X21000Y37775D01*
X21232Y37543D01*
X21450Y37417D01*
Y38543D01*
X22550D01*
Y37417D01*
X22768Y37543D01*
X23000Y37775D01*
X23083Y37919D01*
X23229Y37918D01*
X23385Y37648D01*
X23495Y37537D01*
Y36957D01*
X36195D01*
X37338Y35814D01*
Y33454D01*
X37158D01*
Y32861D01*
X37031Y32809D01*
X36836Y33004D01*
X36618Y33130D01*
Y32004D01*
Y30878D01*
X36735Y30946D01*
X36813Y30844D01*
X36068Y30099D01*
Y27413D01*
X35928Y27170D01*
X35781D01*
X35700Y27311D01*
X35468Y27543D01*
X35250Y27669D01*
Y26543D01*
X34150D01*
Y27669D01*
X33932Y27543D01*
X33700Y27311D01*
X33535Y27025D01*
X33496Y26878D01*
X33364D01*
X33325Y27025D01*
X33160Y27311D01*
X32928Y27543D01*
X32710Y27669D01*
Y26543D01*
X31610D01*
Y27669D01*
X31392Y27543D01*
X31160Y27311D01*
X30995Y27025D01*
X30956Y26878D01*
X30824D01*
X30785Y27025D01*
X30620Y27311D01*
X30388Y27543D01*
X30170Y27669D01*
Y26543D01*
X29070D01*
Y27669D01*
X28852Y27543D01*
X28620Y27311D01*
X28539Y27170D01*
X28392D01*
X28240Y27433D01*
X27970Y27703D01*
X27640Y27894D01*
X27592Y27907D01*
X26924Y28575D01*
X17145D01*
Y26670D01*
X18010Y25805D01*
Y25093D01*
X18722D01*
X19708Y24107D01*
X19659Y24007D01*
X19644Y23991D01*
X19269D01*
X18900Y23892D01*
X18570Y23701D01*
X18300Y23431D01*
X18109Y23101D01*
X18010Y22732D01*
Y22350D01*
X18109Y21981D01*
X18300Y21651D01*
X18570Y21381D01*
X18900Y21190D01*
X19269Y21091D01*
X19651D01*
X20020Y21190D01*
X20350Y21381D01*
X20620Y21651D01*
X20772Y21914D01*
X20919D01*
X21000Y21773D01*
X21232Y21541D01*
X21450Y21415D01*
Y22541D01*
X22550D01*
Y21415D01*
X22768Y21541D01*
X23000Y21773D01*
X23083Y21917D01*
X23229Y21916D01*
X23241Y21895D01*
Y21590D01*
X23622Y21209D01*
X23943D01*
X23985Y21185D01*
X24354Y21086D01*
X24736D01*
X25105Y21185D01*
X25147Y21209D01*
X26487D01*
X26520Y21190D01*
X26889Y21091D01*
X27271D01*
X27640Y21190D01*
X27673Y21209D01*
X29027D01*
X29060Y21190D01*
X29429Y21091D01*
X29811D01*
X30180Y21190D01*
X30213Y21209D01*
X31567D01*
X31600Y21190D01*
X31969Y21091D01*
X32351D01*
X32571Y21150D01*
X35941Y17780D01*
Y11290D01*
X35889Y11236D01*
X35731Y11255D01*
X35700Y11309D01*
X35468Y11541D01*
X35250Y11667D01*
Y10541D01*
X34150D01*
Y11667D01*
X33932Y11541D01*
X33700Y11309D01*
X33535Y11023D01*
X33496Y10876D01*
X33364D01*
X33325Y11023D01*
X33160Y11309D01*
X32928Y11541D01*
X32710Y11667D01*
Y10541D01*
X31610D01*
Y11667D01*
X31392Y11541D01*
X31160Y11309D01*
X30995Y11023D01*
X30956Y10876D01*
X30824D01*
X30785Y11023D01*
X30620Y11309D01*
X30388Y11541D01*
X30170Y11667D01*
Y10541D01*
X29070D01*
Y11667D01*
X28852Y11541D01*
X28620Y11309D01*
X28539Y11168D01*
X28392D01*
X28321Y11292D01*
Y11557D01*
X27432Y12446D01*
X19050D01*
X15367Y16129D01*
Y50292D01*
X17925Y52850D01*
X19234D01*
X19269Y52841D01*
X19651D01*
X19686Y52850D01*
X20398D01*
X20590Y53371D01*
X20620Y53401D01*
X20772Y53664D01*
X20919D01*
X21000Y53523D01*
X21232Y53291D01*
X21450Y53165D01*
Y54291D01*
X22550D01*
Y53165D01*
D02*
G37*
%LPC*%
G36*
X13885Y101329D02*
Y100753D01*
X14461D01*
X14335Y100971D01*
X14103Y101203D01*
X13885Y101329D01*
D02*
G37*
G36*
X12785D02*
X12567Y101203D01*
X12335Y100971D01*
X12209Y100753D01*
X12785D01*
Y101329D01*
D02*
G37*
G36*
X14461Y99653D02*
X13885D01*
Y99077D01*
X14103Y99203D01*
X14335Y99435D01*
X14461Y99653D01*
D02*
G37*
G36*
X12785D02*
X12209D01*
X12335Y99435D01*
X12567Y99203D01*
X12785Y99077D01*
Y99653D01*
D02*
G37*
G36*
X6580Y99061D02*
X5948D01*
Y98429D01*
X5973Y98436D01*
X6223Y98581D01*
X6428Y98786D01*
X6573Y99036D01*
X6580Y99061D01*
D02*
G37*
G36*
X14585Y117544D02*
X13885D01*
Y116844D01*
X14585D01*
Y117544D01*
D02*
G37*
G36*
X12785D02*
X12085D01*
Y116844D01*
X12785D01*
Y117544D01*
D02*
G37*
G36*
X14585Y115744D02*
X13885D01*
Y115044D01*
X14585D01*
Y115744D01*
D02*
G37*
G36*
X12785D02*
X12085D01*
Y115044D01*
X12785D01*
Y115744D01*
D02*
G37*
G36*
X6688Y111042D02*
X5988D01*
Y110342D01*
X6688D01*
Y111042D01*
D02*
G37*
G36*
X5188D02*
X4488D01*
Y110342D01*
X5188D01*
Y111042D01*
D02*
G37*
G36*
X4686Y52975D02*
Y52343D01*
X5317D01*
X5311Y52368D01*
X5166Y52618D01*
X4961Y52823D01*
X4710Y52968D01*
X4686Y52975D01*
D02*
G37*
G36*
X3885D02*
X3861Y52968D01*
X3610Y52823D01*
X3405Y52618D01*
X3260Y52368D01*
X3254Y52343D01*
X3885D01*
Y52975D01*
D02*
G37*
G36*
X5317Y51543D02*
X4686D01*
Y50911D01*
X4710Y50918D01*
X4961Y51063D01*
X5166Y51268D01*
X5311Y51518D01*
X5317Y51543D01*
D02*
G37*
G36*
X3885D02*
X3254D01*
X3260Y51518D01*
X3405Y51268D01*
X3610Y51063D01*
X3861Y50918D01*
X3885Y50911D01*
Y51543D01*
D02*
G37*
G36*
X4686Y40529D02*
Y39897D01*
X5317D01*
X5311Y39922D01*
X5166Y40172D01*
X4961Y40377D01*
X4710Y40522D01*
X4686Y40529D01*
D02*
G37*
G36*
X3885D02*
X3861Y40522D01*
X3610Y40377D01*
X3405Y40172D01*
X3260Y39922D01*
X3254Y39897D01*
X3885D01*
Y40529D01*
D02*
G37*
G36*
X5317Y39097D02*
X4686D01*
Y38465D01*
X4710Y38472D01*
X4961Y38617D01*
X5166Y38822D01*
X5311Y39072D01*
X5317Y39097D01*
D02*
G37*
G36*
X3885D02*
X3254D01*
X3260Y39072D01*
X3405Y38822D01*
X3610Y38617D01*
X3861Y38472D01*
X3885Y38465D01*
Y39097D01*
D02*
G37*
G36*
X4686Y25543D02*
Y24911D01*
X5317D01*
X5311Y24936D01*
X5166Y25186D01*
X4961Y25391D01*
X4710Y25536D01*
X4686Y25543D01*
D02*
G37*
G36*
X3885D02*
X3861Y25536D01*
X3610Y25391D01*
X3405Y25186D01*
X3260Y24936D01*
X3254Y24911D01*
X3885D01*
Y25543D01*
D02*
G37*
G36*
X5317Y24111D02*
X4686D01*
Y23479D01*
X4710Y23486D01*
X4961Y23631D01*
X5166Y23836D01*
X5311Y24086D01*
X5317Y24111D01*
D02*
G37*
G36*
X3885D02*
X3254D01*
X3260Y24086D01*
X3405Y23836D01*
X3610Y23631D01*
X3861Y23486D01*
X3885Y23479D01*
Y24111D01*
D02*
G37*
G36*
X62464Y102955D02*
X61764D01*
Y102255D01*
X62464D01*
Y102955D01*
D02*
G37*
G36*
X68182Y102574D02*
X67606D01*
Y101998D01*
X67824Y102124D01*
X68056Y102356D01*
X68182Y102574D01*
D02*
G37*
G36*
X66506D02*
X65930D01*
X66056Y102356D01*
X66288Y102124D01*
X66506Y101998D01*
Y102574D01*
D02*
G37*
G36*
X50885Y101329D02*
Y100753D01*
X51461D01*
X51335Y100971D01*
X51103Y101203D01*
X50885Y101329D01*
D02*
G37*
G36*
X49785Y101329D02*
X49567Y101203D01*
X49335Y100971D01*
X49209Y100753D01*
X49785D01*
Y101329D01*
D02*
G37*
G36*
X67710Y99429D02*
Y98853D01*
X68285D01*
X68160Y99071D01*
X67927Y99303D01*
X67710Y99429D01*
D02*
G37*
G36*
X68285Y97753D02*
X67710D01*
Y97177D01*
X67927Y97303D01*
X68160Y97536D01*
X68285Y97753D01*
D02*
G37*
G36*
X67710Y92190D02*
Y91614D01*
X68285D01*
X68160Y91832D01*
X67927Y92064D01*
X67710Y92190D01*
D02*
G37*
G36*
X68285Y90514D02*
X67710D01*
Y89938D01*
X67927Y90064D01*
X68160Y90297D01*
X68285Y90514D01*
D02*
G37*
G36*
X67008Y84774D02*
Y84235D01*
X67547D01*
X67428Y84441D01*
X67214Y84655D01*
X67008Y84774D01*
D02*
G37*
G36*
X67547Y83235D02*
X67008D01*
Y82696D01*
X67214Y82815D01*
X67428Y83029D01*
X67547Y83235D01*
D02*
G37*
G36*
X67095Y76096D02*
Y75557D01*
X67634D01*
X67515Y75763D01*
X67301Y75977D01*
X67095Y76096D01*
D02*
G37*
G36*
X67634Y74557D02*
X67095D01*
Y74018D01*
X67301Y74137D01*
X67515Y74351D01*
X67634Y74557D01*
D02*
G37*
G36*
X66627Y61406D02*
Y60867D01*
X67166D01*
X67047Y61073D01*
X66833Y61287D01*
X66627Y61406D01*
D02*
G37*
G36*
X67166Y59867D02*
X66627D01*
Y59328D01*
X66833Y59447D01*
X67047Y59661D01*
X67166Y59867D01*
D02*
G37*
G36*
X8186Y52975D02*
Y52343D01*
X8817D01*
X8811Y52368D01*
X8666Y52618D01*
X8461Y52823D01*
X8210Y52968D01*
X8186Y52975D01*
D02*
G37*
G36*
X8817Y51543D02*
X8186D01*
Y50911D01*
X8210Y50918D01*
X8461Y51063D01*
X8666Y51268D01*
X8811Y51518D01*
X8817Y51543D01*
D02*
G37*
G36*
X66548Y51131D02*
X66233D01*
X65924Y51070D01*
X65633Y50949D01*
X65371Y50774D01*
X65148Y50551D01*
X64973Y50289D01*
X64852Y49998D01*
X64790Y49689D01*
Y49374D01*
X64852Y49065D01*
X64973Y48773D01*
X65148Y48511D01*
X65371Y48288D01*
X65633Y48113D01*
X65924Y47993D01*
X66233Y47931D01*
X66548D01*
X66857Y47993D01*
X67148Y48113D01*
X67410Y48288D01*
X67633Y48511D01*
X67808Y48773D01*
X67929Y49065D01*
X67990Y49374D01*
Y49689D01*
X67929Y49998D01*
X67808Y50289D01*
X67633Y50551D01*
X67410Y50774D01*
X67148Y50949D01*
X66857Y51070D01*
X66548Y51131D01*
D02*
G37*
G36*
X66990Y45801D02*
Y45131D01*
X67661D01*
X67511Y45391D01*
X67250Y45652D01*
X66990Y45801D01*
D02*
G37*
G36*
X65790D02*
X65531Y45652D01*
X65270Y45391D01*
X65120Y45131D01*
X65790D01*
Y45801D01*
D02*
G37*
G36*
X67661Y43931D02*
X66990D01*
Y43261D01*
X67250Y43411D01*
X67511Y43672D01*
X67661Y43931D01*
D02*
G37*
G36*
X65790D02*
X65120D01*
X65270Y43672D01*
X65531Y43411D01*
X65790Y43261D01*
Y43931D01*
D02*
G37*
G36*
X8186Y40529D02*
Y39897D01*
X8817D01*
X8811Y39922D01*
X8666Y40172D01*
X8461Y40377D01*
X8210Y40522D01*
X8186Y40529D01*
D02*
G37*
G36*
X8817Y39097D02*
X8186D01*
Y38465D01*
X8210Y38472D01*
X8461Y38617D01*
X8666Y38822D01*
X8811Y39072D01*
X8817Y39097D01*
D02*
G37*
G36*
X66548Y35372D02*
X66233D01*
X65924Y35311D01*
X65633Y35190D01*
X65371Y35015D01*
X65148Y34792D01*
X64973Y34530D01*
X64852Y34239D01*
X64790Y33930D01*
Y33614D01*
X64852Y33305D01*
X64973Y33014D01*
X65148Y32752D01*
X65371Y32529D01*
X65633Y32354D01*
X65924Y32233D01*
X66233Y32172D01*
X66548D01*
X66857Y32233D01*
X67148Y32354D01*
X67410Y32529D01*
X67633Y32752D01*
X67808Y33014D01*
X67929Y33305D01*
X67990Y33614D01*
Y33930D01*
X67929Y34239D01*
X67808Y34530D01*
X67633Y34792D01*
X67410Y35015D01*
X67148Y35190D01*
X66857Y35311D01*
X66548Y35372D01*
D02*
G37*
G36*
X66990Y30042D02*
Y29372D01*
X67661D01*
X67511Y29632D01*
X67250Y29892D01*
X66990Y30042D01*
D02*
G37*
G36*
X65790D02*
X65531Y29892D01*
X65270Y29632D01*
X65120Y29372D01*
X65790D01*
Y30042D01*
D02*
G37*
G36*
X67661Y28172D02*
X66990D01*
Y27502D01*
X67250Y27652D01*
X67511Y27912D01*
X67661Y28172D01*
D02*
G37*
G36*
X65790D02*
X65120D01*
X65270Y27912D01*
X65531Y27652D01*
X65790Y27502D01*
Y28172D01*
D02*
G37*
G36*
X8186Y25543D02*
Y24911D01*
X8817D01*
X8811Y24936D01*
X8666Y25186D01*
X8461Y25391D01*
X8210Y25536D01*
X8186Y25543D01*
D02*
G37*
G36*
X8817Y24111D02*
X8186D01*
Y23479D01*
X8210Y23486D01*
X8461Y23631D01*
X8666Y23836D01*
X8811Y24086D01*
X8817Y24111D01*
D02*
G37*
G36*
X66548Y19800D02*
X66233D01*
X65924Y19739D01*
X65633Y19618D01*
X65371Y19443D01*
X65148Y19220D01*
X64973Y18958D01*
X64852Y18667D01*
X64790Y18358D01*
Y18042D01*
X64852Y17733D01*
X64973Y17442D01*
X65148Y17180D01*
X65371Y16957D01*
X65633Y16782D01*
X65924Y16661D01*
X66233Y16600D01*
X66548D01*
X66857Y16661D01*
X67148Y16782D01*
X67410Y16957D01*
X67633Y17180D01*
X67808Y17442D01*
X67929Y17733D01*
X67990Y18042D01*
Y18358D01*
X67929Y18667D01*
X67808Y18958D01*
X67633Y19220D01*
X67410Y19443D01*
X67148Y19618D01*
X66857Y19739D01*
X66548Y19800D01*
D02*
G37*
G36*
X66990Y14470D02*
Y13800D01*
X67661D01*
X67511Y14060D01*
X67250Y14320D01*
X66990Y14470D01*
D02*
G37*
G36*
X65790D02*
X65531Y14320D01*
X65270Y14060D01*
X65120Y13800D01*
X65790D01*
Y14470D01*
D02*
G37*
G36*
X67661Y12600D02*
X66990D01*
Y11930D01*
X67250Y12080D01*
X67511Y12340D01*
X67661Y12600D01*
D02*
G37*
G36*
X65790D02*
X65120D01*
X65270Y12340D01*
X65531Y12080D01*
X65790Y11930D01*
Y12600D01*
D02*
G37*
G36*
X59694Y5872D02*
X59352D01*
X59021Y5783D01*
X58725Y5612D01*
X58483Y5370D01*
X58312Y5074D01*
X58235Y4789D01*
X58104D01*
X58048Y4997D01*
X57903Y5247D01*
X57698Y5452D01*
X57448Y5597D01*
X57423Y5604D01*
Y4572D01*
Y3540D01*
X57448Y3547D01*
X57698Y3692D01*
X57903Y3897D01*
X58048Y4147D01*
X58104Y4355D01*
X58235D01*
X58312Y4070D01*
X58483Y3774D01*
X58725Y3532D01*
X59021Y3361D01*
X59352Y3272D01*
X59694D01*
X60025Y3361D01*
X60321Y3532D01*
X60563Y3774D01*
X60734Y4070D01*
X60823Y4401D01*
Y4743D01*
X60734Y5074D01*
X60563Y5370D01*
X60321Y5612D01*
X60025Y5783D01*
X59694Y5872D01*
D02*
G37*
G36*
X31179Y33454D02*
X30797D01*
X30428Y33355D01*
X30098Y33164D01*
X29828Y32894D01*
X29781Y32814D01*
X29654D01*
X29608Y32894D01*
X29338Y33164D01*
X29008Y33355D01*
X28639Y33454D01*
X28257D01*
X27888Y33355D01*
X27558Y33164D01*
X27288Y32894D01*
X27242Y32814D01*
X27115D01*
X27068Y32894D01*
X26798Y33164D01*
X26468Y33355D01*
X26099Y33454D01*
X25717D01*
X25348Y33355D01*
X25018Y33164D01*
X24748Y32894D01*
X24701Y32814D01*
X24574D01*
X24528Y32894D01*
X24258Y33164D01*
X23928Y33355D01*
X23559Y33454D01*
X23177D01*
X22808Y33355D01*
X22478Y33164D01*
X22208Y32894D01*
X22162Y32814D01*
X22035D01*
X21988Y32894D01*
X21718Y33164D01*
X21388Y33355D01*
X21019Y33454D01*
X20637D01*
X20268Y33355D01*
X19938Y33164D01*
X19668Y32894D01*
X19477Y32564D01*
X19378Y32195D01*
Y31813D01*
X19477Y31444D01*
X19668Y31114D01*
X19938Y30844D01*
X20268Y30653D01*
X20637Y30554D01*
X21019D01*
X21388Y30653D01*
X21718Y30844D01*
X21988Y31114D01*
X22035Y31194D01*
X22162D01*
X22208Y31114D01*
X22478Y30844D01*
X22808Y30653D01*
X23177Y30554D01*
X23559D01*
X23928Y30653D01*
X24258Y30844D01*
X24528Y31114D01*
X24574Y31194D01*
X24701D01*
X24748Y31114D01*
X25018Y30844D01*
X25348Y30653D01*
X25717Y30554D01*
X26099D01*
X26468Y30653D01*
X26798Y30844D01*
X27068Y31114D01*
X27115Y31194D01*
X27242D01*
X27288Y31114D01*
X27558Y30844D01*
X27888Y30653D01*
X28257Y30554D01*
X28639D01*
X29008Y30653D01*
X29338Y30844D01*
X29608Y31114D01*
X29654Y31194D01*
X29781D01*
X29828Y31114D01*
X30098Y30844D01*
X30428Y30653D01*
X30797Y30554D01*
X31179D01*
X31548Y30653D01*
X31878Y30844D01*
X32148Y31114D01*
X32191Y31187D01*
X32318D01*
X32363Y31109D01*
X32633Y30839D01*
X32963Y30648D01*
X33332Y30549D01*
X33714D01*
X34083Y30648D01*
X34413Y30839D01*
X34683Y31109D01*
X34839Y31379D01*
X34985Y31380D01*
X35068Y31236D01*
X35300Y31004D01*
X35518Y30878D01*
Y32004D01*
Y33130D01*
X35300Y33004D01*
X35068Y32772D01*
X34983Y32624D01*
X34836D01*
X34683Y32889D01*
X34413Y33159D01*
X34083Y33350D01*
X33714Y33449D01*
X33332D01*
X32963Y33350D01*
X32633Y33159D01*
X32363Y32889D01*
X32320Y32816D01*
X32193D01*
X32148Y32894D01*
X31878Y33164D01*
X31548Y33355D01*
X31179Y33454D01*
D02*
G37*
%LPD*%
D10*
X7634Y59695D02*
Y62235D01*
D13*
X16493Y94060D02*
G03*
X16557Y93947I245J65D01*
G01*
X16401Y94513D02*
G03*
X16493Y94060I4361J642D01*
G01*
X44518Y73855D02*
X55880Y85217D01*
Y85598D01*
X44518Y30602D02*
Y73855D01*
X42291Y28375D02*
X44518Y30602D01*
X42291Y27432D02*
Y28375D01*
X49530Y25273D02*
Y61468D01*
X42661Y23749D02*
X48006D01*
X49530Y25273D01*
X41569Y24841D02*
X42661Y23749D01*
X41569Y24841D02*
Y25708D01*
X42545Y24793D02*
Y25781D01*
Y24793D02*
X43210Y24128D01*
X47341D01*
X48274Y25061D01*
X45734Y26943D02*
Y59690D01*
X43891Y25100D02*
X45734Y26943D01*
X53890Y33772D02*
X53965D01*
X58420Y38227D01*
Y64008D01*
X57277Y65151D02*
X58420Y64008D01*
X59309Y23622D02*
Y66167D01*
X51435Y65151D02*
X57277D01*
X50800Y62738D02*
Y64516D01*
X51435Y65151D01*
X43117Y25100D02*
X43891D01*
X48521Y62477D02*
X49530Y61468D01*
X48260Y62738D02*
X48521Y62477D01*
X48274Y25061D02*
X48274Y59690D01*
X47498Y106680D02*
X51943Y111125D01*
X24761Y107438D02*
X44192D01*
X15494Y96901D02*
X25652Y107059D01*
X16476Y96486D02*
X26670Y106680D01*
X47498D01*
X45845Y107059D02*
X52451Y113665D01*
X25652Y107059D02*
X45845D01*
X44192Y107438D02*
X52959Y116205D01*
X14605Y97282D02*
X24761Y107438D01*
X51943Y111125D02*
X56134D01*
X52451Y113665D02*
X56134D01*
X22127Y7874D02*
X38044D01*
X40625Y10455D01*
Y28052D01*
X41243Y27864D02*
X41244D01*
X43688Y30308D01*
X37846Y8636D02*
X40246Y11036D01*
Y28308D01*
X40625Y28052D02*
X42926Y30353D01*
X40246Y28308D02*
X42291Y30353D01*
X43688Y30308D02*
Y55880D01*
X55753Y68199D02*
X57277D01*
X59309Y66167D01*
X23905Y8636D02*
X37846D01*
X19460Y10541D02*
X22127Y7874D01*
X23524Y25019D02*
X37719D01*
X21619Y24384D02*
X38100Y24384D01*
X23450Y25093D02*
X23524Y25019D01*
X22000Y26543D02*
X23450Y25093D01*
X19460Y26543D02*
X21619Y24384D01*
X22000Y10541D02*
X23905Y8636D01*
X14431Y58297D02*
X15328Y57400D01*
X13544Y57990D02*
X14892Y56642D01*
X15328Y57400D02*
X39755D01*
X13923Y58147D02*
X15049Y57021D01*
X39372D01*
X14892Y56642D02*
X38608D01*
X50814Y21276D02*
X53890Y18200D01*
X50814Y21276D02*
Y59690D01*
X51816Y24003D02*
Y48387D01*
X15667Y57779D02*
X39912D01*
X16463Y59139D02*
X16686Y58916D01*
X15955Y58928D02*
X16346Y58537D01*
X40069Y58158D02*
X42291Y55936D01*
X16346Y58537D02*
X40269D01*
X15447Y58718D02*
X16007Y58158D01*
X39912Y57779D02*
X41783Y55908D01*
X39372Y57021D02*
X40640Y55753D01*
X16007Y58158D02*
X40069D01*
X39755Y57400D02*
X41275Y55880D01*
X40652Y58916D02*
X43688Y55880D01*
X38608Y56642D02*
X40132Y55118D01*
X16686Y58916D02*
X40652D01*
X14939Y58507D02*
X15667Y57779D01*
X40269Y58537D02*
X42926Y55880D01*
X42616Y91313D02*
X44337D01*
X15447Y64144D02*
X42616Y91313D01*
X14939Y64172D02*
X41033Y90266D01*
X14939Y58507D02*
Y64172D01*
X41033Y91071D02*
X42672Y92710D01*
X15955Y58928D02*
Y64116D01*
X15447Y58718D02*
Y64144D01*
X42517Y90678D02*
X46242D01*
X16463Y59139D02*
Y64088D01*
X40005Y87630D01*
X40654Y90423D02*
Y92710D01*
X40005Y87630D02*
X53354D01*
X14431Y58297D02*
Y64200D01*
X15955Y64116D02*
X42517Y90678D01*
X41033Y90266D02*
Y91071D01*
X42672Y92710D02*
X43194D01*
X14431Y64200D02*
X40654Y90423D01*
X13544Y57990D02*
Y64852D01*
X33034Y84342D01*
X13923Y58147D02*
Y64390D01*
X37719Y25019D02*
X39116Y26416D01*
Y28956D01*
X41275Y31115D01*
X38100Y24384D02*
X39624Y25908D01*
Y28575D02*
X41783Y30734D01*
X39624Y25908D02*
Y28575D01*
X42291Y30353D02*
Y55936D01*
X41275Y31115D02*
Y55880D01*
X40132Y43053D02*
Y55118D01*
X22000Y42291D02*
X23524Y40767D01*
X37846D01*
X40132Y43053D01*
X19460Y42291D02*
X21492Y40259D01*
X38100Y40259D01*
X40640Y42799D01*
Y55753D01*
X41783Y30734D02*
Y55908D01*
X42926Y30353D02*
Y55880D01*
X56261Y8810D02*
Y19558D01*
X52023Y4572D02*
X56261Y8810D01*
X57404Y7453D02*
Y20828D01*
X54915Y4964D02*
X57404Y7453D01*
X58092Y74750D02*
X59563Y73279D01*
X62230D02*
X62865Y73914D01*
X59563Y73279D02*
X62230D01*
X16557Y93947D02*
X16558Y93946D01*
X16401Y96411D02*
X16476Y96486D01*
X16401Y94532D02*
X16401Y94513D01*
X16401Y94532D02*
X16401Y96411D01*
X16558Y93946D02*
X16584Y93920D01*
X51816Y24003D02*
X56261Y19558D01*
X62865Y73914D02*
Y83936D01*
X58092Y74750D02*
Y95653D01*
X60452Y96675D02*
X62075Y98298D01*
X60452Y86349D02*
Y96675D01*
Y86349D02*
X62865Y83936D01*
X58854Y77798D02*
Y96086D01*
Y77798D02*
X61595Y75057D01*
X56975Y97965D02*
X58854Y96086D01*
X56288Y97457D02*
X58092Y95653D01*
X25081Y97457D02*
X56288D01*
X57785Y98552D02*
X59817Y96520D01*
Y85426D02*
Y96520D01*
X21096Y98552D02*
X57785D01*
X59817Y85426D02*
X61508Y83735D01*
X52409Y25823D02*
X57404Y20828D01*
X52409Y40311D02*
X55894Y43796D01*
X52409Y25823D02*
Y40311D01*
X55894Y43796D02*
Y59690D01*
X35574Y86041D02*
Y92710D01*
X13923Y64390D02*
X35574Y86041D01*
X33034Y84342D02*
Y92710D01*
X46242Y90678D02*
X48274Y92710D01*
X44337Y91313D02*
X45734Y92710D01*
X53622Y49799D02*
Y59422D01*
Y49799D02*
X53890Y49531D01*
X53354Y59690D02*
X53622Y59422D01*
X22874Y95250D02*
X25081Y97457D01*
X23049Y97965D02*
X56975D01*
X20334Y95250D02*
X23049Y97965D01*
X14605Y91440D02*
X15748Y90297D01*
X20461D01*
X22874Y92710D01*
X17794Y95250D02*
X21096Y98552D01*
X14605Y91440D02*
Y97282D01*
X15494Y91948D02*
X16510Y90932D01*
X18556D01*
X15494Y91948D02*
Y96901D01*
X16584Y93920D02*
X17794Y92710D01*
X52959Y116205D02*
X56134D01*
X18556Y90932D02*
X20334Y92710D01*
D20*
X63627Y60367D02*
D03*
X66127D02*
D03*
X61127D02*
D03*
X61595Y75057D02*
D03*
X66595D02*
D03*
X64095D02*
D03*
X61508Y83735D02*
D03*
X66508D02*
D03*
X64008D02*
D03*
D32*
X37149Y54291D02*
X37240D01*
X35674Y55766D02*
X37149Y54291D01*
X4286Y51943D02*
X8108Y55766D01*
X35674D01*
D33*
X27080Y38543D02*
D03*
X19460D02*
D03*
X22000D02*
D03*
X24545Y38538D02*
D03*
X29620Y38543D02*
D03*
X32160D02*
D03*
X34700D02*
D03*
X37240D02*
D03*
X27080Y26543D02*
D03*
X22000D02*
D03*
X24545Y26538D02*
D03*
X29620Y26543D02*
D03*
X32160D02*
D03*
X34700D02*
D03*
X37240D02*
D03*
X27080Y54291D02*
D03*
X19460D02*
D03*
X22000D02*
D03*
X24545Y54286D02*
D03*
X29620Y54291D02*
D03*
X32160D02*
D03*
X34700D02*
D03*
X37240D02*
D03*
X27080Y42291D02*
D03*
X22000D02*
D03*
X24545Y42286D02*
D03*
X29620Y42291D02*
D03*
X32160D02*
D03*
X34700D02*
D03*
X37240D02*
D03*
X45720Y93218D02*
D03*
X48260D02*
D03*
X50800D02*
D03*
X55880Y95758D02*
D03*
X43180D02*
D03*
X40640D02*
D03*
X38100D02*
D03*
X45720D02*
D03*
X48260D02*
D03*
X50800D02*
D03*
X53340D02*
D03*
X38100Y93218D02*
D03*
X40640D02*
D03*
X43180D02*
D03*
X17780Y95758D02*
D03*
X20320D02*
D03*
X25400D02*
D03*
X22860D02*
D03*
X33020D02*
D03*
X27940D02*
D03*
X35560D02*
D03*
X22860Y93218D02*
D03*
X20320D02*
D03*
X17780D02*
D03*
X25400D02*
D03*
X33020D02*
D03*
X30480D02*
D03*
X27940D02*
D03*
X35560D02*
D03*
X55880Y85598D02*
D03*
Y88138D02*
D03*
X53340D02*
D03*
X55880Y90678D02*
D03*
X53340D02*
D03*
Y85598D02*
D03*
X30466Y95745D02*
D03*
X53340Y93218D02*
D03*
X55880D02*
D03*
X43180Y60198D02*
D03*
X22860Y62738D02*
D03*
X20320D02*
D03*
X17780Y60198D02*
D03*
X20320D02*
D03*
X22860D02*
D03*
X25400D02*
D03*
X27940D02*
D03*
X30480D02*
D03*
X25400Y62738D02*
D03*
X27940D02*
D03*
X30480D02*
D03*
X33020Y60198D02*
D03*
X35560D02*
D03*
X38100D02*
D03*
X33020Y62738D02*
D03*
X35560D02*
D03*
X38100D02*
D03*
X40640Y60198D02*
D03*
X45720D02*
D03*
X48260D02*
D03*
X50800D02*
D03*
X53340D02*
D03*
X55880D02*
D03*
X40640Y62738D02*
D03*
X43180D02*
D03*
X45720D02*
D03*
X48260D02*
D03*
X50800D02*
D03*
X53340D02*
D03*
X55880D02*
D03*
X7620Y62743D02*
D03*
X5080D02*
D03*
X7620Y60203D02*
D03*
X10160D02*
D03*
Y62743D02*
D03*
X5080Y60203D02*
D03*
X67061Y105659D02*
D03*
X67056Y108204D02*
D03*
Y103124D02*
D03*
X30988Y32004D02*
D03*
X36068D02*
D03*
X33523Y31999D02*
D03*
X28448Y32004D02*
D03*
X25908D02*
D03*
X23368D02*
D03*
X20828D02*
D03*
X37240Y10541D02*
D03*
X34700D02*
D03*
X32160D02*
D03*
X29620D02*
D03*
X24545Y10536D02*
D03*
X22000Y10541D02*
D03*
X27080D02*
D03*
X37240Y22541D02*
D03*
X34700D02*
D03*
X32160D02*
D03*
X29620D02*
D03*
X24545Y22536D02*
D03*
X22000Y22541D02*
D03*
X19460D02*
D03*
X27080D02*
D03*
X67160Y98303D02*
D03*
X64615Y98298D02*
D03*
X61214Y108585D02*
D03*
Y106045D02*
D03*
Y111125D02*
D03*
Y113665D02*
D03*
Y116205D02*
D03*
X58674Y108585D02*
D03*
Y106045D02*
D03*
Y103505D02*
D03*
Y111125D02*
D03*
Y113665D02*
D03*
Y116205D02*
D03*
X56134Y108585D02*
D03*
Y106045D02*
D03*
Y103505D02*
D03*
Y111125D02*
D03*
Y113665D02*
D03*
Y116205D02*
D03*
X50335Y116294D02*
D03*
Y100203D02*
D03*
X13335D02*
D03*
X64615Y91059D02*
D03*
X67160Y91064D02*
D03*
D34*
X19460Y26543D02*
D03*
Y42291D02*
D03*
X17780Y62738D02*
D03*
X38608Y32004D02*
D03*
X19460Y10541D02*
D03*
X62075Y98298D02*
D03*
Y91059D02*
D03*
D35*
X59523Y4572D02*
D03*
X54523D02*
D03*
X52023D02*
D03*
X49523D02*
D03*
X57023D02*
D03*
X14000Y26881D02*
D03*
Y29381D02*
D03*
Y31881D02*
D03*
Y15879D02*
D03*
Y13379D02*
D03*
Y10879D02*
D03*
X5588Y107442D02*
D03*
X4286Y39497D02*
D03*
X7786D02*
D03*
X4286Y51943D02*
D03*
X7786D02*
D03*
X4286Y24511D02*
D03*
X7786D02*
D03*
X14000Y47629D02*
D03*
Y45129D02*
D03*
Y42629D02*
D03*
X5548Y99461D02*
D03*
D36*
X47023Y4572D02*
D03*
D37*
X67056Y110744D02*
D03*
X61214Y103505D02*
D03*
X13335Y116294D02*
D03*
D38*
X42000Y7002D02*
D03*
X18500D02*
D03*
D39*
X14000Y34381D02*
D03*
Y18379D02*
D03*
X5588Y109942D02*
D03*
X14000Y50129D02*
D03*
X5548Y101961D02*
D03*
D40*
X66390Y49531D02*
D03*
X53890D02*
D03*
X66390Y44531D02*
D03*
X66390Y18200D02*
D03*
X53890D02*
D03*
X66390Y13200D02*
D03*
Y28772D02*
D03*
X53890Y33772D02*
D03*
X66390D02*
D03*
D41*
X53890Y44531D02*
D03*
X53890Y13200D02*
D03*
Y28772D02*
D03*
D42*
X66000Y68000D02*
D03*
X4000Y116000D02*
D03*
Y68000D02*
D03*
X66000Y116000D02*
D03*
X4000Y4000D02*
D03*
X66000D02*
D03*
D43*
X10500Y14000D02*
D03*
Y8750D02*
D03*
X14000Y5250D02*
D03*
X19250Y3250D02*
D03*
X30500D02*
D03*
X27250D02*
D03*
X23250D02*
D03*
X25000Y112500D02*
D03*
X40000D02*
D03*
X45000D02*
D03*
X42500Y115000D02*
D03*
X45000Y102500D02*
D03*
X42500D02*
D03*
X37500D02*
D03*
X32500D02*
D03*
X27500D02*
D03*
X22500Y110000D02*
D03*
X27500D02*
D03*
X32500D02*
D03*
X40000D02*
D03*
X35000Y112500D02*
D03*
X30000D02*
D03*
X22500D02*
D03*
X37500Y115000D02*
D03*
X32500D02*
D03*
X25000D02*
D03*
X20000D02*
D03*
X7500Y50000D02*
D03*
Y47500D02*
D03*
Y45000D02*
D03*
X10000D02*
D03*
Y47500D02*
D03*
Y50000D02*
D03*
Y40000D02*
D03*
Y37500D02*
D03*
Y35000D02*
D03*
Y32500D02*
D03*
Y30000D02*
D03*
X7500D02*
D03*
Y27500D02*
D03*
X10000D02*
D03*
Y25000D02*
D03*
Y22500D02*
D03*
Y20000D02*
D03*
X7500D02*
D03*
X43117Y25100D02*
D03*
X41569Y25708D02*
D03*
X42545Y25781D02*
D03*
X41243Y27864D02*
D03*
X42291Y27432D02*
D03*
X55753Y68199D02*
D03*
X59309Y23622D02*
D03*
X51816Y48387D02*
D03*
D44*
X16401Y94532D02*
D03*
D45*
X61214Y113665D02*
Y116205D01*
Y111125D02*
Y113665D01*
Y108585D02*
Y111125D01*
Y106045D02*
Y108585D01*
Y103505D02*
Y106045D01*
M02*
