G04*
G04 #@! TF.GenerationSoftware,Altium Limited,Altium Designer,24.2.2 (26)*
G04*
G04 Layer_Color=8388736*
%FSLAX43Y43*%
%MOMM*%
G71*
G04*
G04 #@! TF.SameCoordinates,826AFC0B-8DA9-4817-B3A0-D4F6A81A9B3F*
G04*
G04*
G04 #@! TF.FilePolarity,Negative*
G04*
G01*
G75*
%ADD15R,0.700X1.000*%
%ADD16R,1.500X1.500*%
G04:AMPARAMS|DCode=17|XSize=1.05mm|YSize=0.95mm|CornerRadius=0.263mm|HoleSize=0mm|Usage=FLASHONLY|Rotation=270.000|XOffset=0mm|YOffset=0mm|HoleType=Round|Shape=RoundedRectangle|*
%AMROUNDEDRECTD17*
21,1,1.050,0.425,0,0,270.0*
21,1,0.525,0.950,0,0,270.0*
1,1,0.525,-0.213,-0.263*
1,1,0.525,-0.213,0.263*
1,1,0.525,0.213,0.263*
1,1,0.525,0.213,-0.263*
%
%ADD17ROUNDEDRECTD17*%
G04:AMPARAMS|DCode=18|XSize=1.9mm|YSize=1.15mm|CornerRadius=0.313mm|HoleSize=0mm|Usage=FLASHONLY|Rotation=270.000|XOffset=0mm|YOffset=0mm|HoleType=Round|Shape=RoundedRectangle|*
%AMROUNDEDRECTD18*
21,1,1.900,0.525,0,0,270.0*
21,1,1.275,1.150,0,0,270.0*
1,1,0.625,-0.263,-0.638*
1,1,0.625,-0.263,0.638*
1,1,0.625,0.263,0.638*
1,1,0.625,0.263,-0.638*
%
%ADD18ROUNDEDRECTD18*%
G04:AMPARAMS|DCode=19|XSize=2.8mm|YSize=1.45mm|CornerRadius=0.388mm|HoleSize=0mm|Usage=FLASHONLY|Rotation=270.000|XOffset=0mm|YOffset=0mm|HoleType=Round|Shape=RoundedRectangle|*
%AMROUNDEDRECTD19*
21,1,2.800,0.675,0,0,270.0*
21,1,2.025,1.450,0,0,270.0*
1,1,0.775,-0.338,-1.013*
1,1,0.775,-0.338,1.013*
1,1,0.775,0.338,1.013*
1,1,0.775,0.338,-1.013*
%
%ADD19ROUNDEDRECTD19*%
G04:AMPARAMS|DCode=20|XSize=1.05mm|YSize=0.95mm|CornerRadius=0.263mm|HoleSize=0mm|Usage=FLASHONLY|Rotation=0.000|XOffset=0mm|YOffset=0mm|HoleType=Round|Shape=RoundedRectangle|*
%AMROUNDEDRECTD20*
21,1,1.050,0.425,0,0,0.0*
21,1,0.525,0.950,0,0,0.0*
1,1,0.525,0.263,-0.213*
1,1,0.525,-0.263,-0.213*
1,1,0.525,-0.263,0.213*
1,1,0.525,0.263,0.213*
%
%ADD20ROUNDEDRECTD20*%
G04:AMPARAMS|DCode=21|XSize=1.9mm|YSize=1.15mm|CornerRadius=0.313mm|HoleSize=0mm|Usage=FLASHONLY|Rotation=0.000|XOffset=0mm|YOffset=0mm|HoleType=Round|Shape=RoundedRectangle|*
%AMROUNDEDRECTD21*
21,1,1.900,0.525,0,0,0.0*
21,1,1.275,1.150,0,0,0.0*
1,1,0.625,0.638,-0.263*
1,1,0.625,-0.638,-0.263*
1,1,0.625,-0.638,0.263*
1,1,0.625,0.638,0.263*
%
%ADD21ROUNDEDRECTD21*%
%ADD22R,0.800X1.100*%
%ADD23R,1.500X1.250*%
%ADD24R,1.250X1.500*%
%ADD25C,1.624*%
G04:AMPARAMS|DCode=26|XSize=3.3mm|YSize=2.1mm|CornerRadius=0.55mm|HoleSize=0mm|Usage=FLASHONLY|Rotation=90.000|XOffset=0mm|YOffset=0mm|HoleType=Round|Shape=RoundedRectangle|*
%AMROUNDEDRECTD26*
21,1,3.300,1.000,0,0,90.0*
21,1,2.200,2.100,0,0,90.0*
1,1,1.100,0.500,1.100*
1,1,1.100,0.500,-1.100*
1,1,1.100,-0.500,-1.100*
1,1,1.100,-0.500,1.100*
%
%ADD26ROUNDEDRECTD26*%
%ADD27R,2.000X2.000*%
%ADD28C,2.000*%
%ADD29R,1.700X1.700*%
%ADD30C,1.700*%
%ADD31R,2.000X2.000*%
%ADD32C,4.600*%
%ADD33R,1.700X1.700*%
%ADD34C,1.800*%
%ADD35C,6.100*%
%ADD36C,2.103*%
%ADD37C,0.700*%
D15*
X60425Y117400D02*
D03*
X61375Y119700D02*
D03*
X62325Y117400D02*
D03*
D16*
X63150Y30650D02*
D03*
X57350D02*
D03*
X63150Y26750D02*
D03*
X57350D02*
D03*
X57625Y42950D02*
D03*
X63425D02*
D03*
X57625Y46850D02*
D03*
X63425D02*
D03*
X57550Y34600D02*
D03*
X63350D02*
D03*
X57550Y38500D02*
D03*
X63350D02*
D03*
D17*
X68525Y104975D02*
D03*
X67175D02*
D03*
X63700Y72400D02*
D03*
X62350D02*
D03*
D18*
X68500Y101800D02*
D03*
X65450D02*
D03*
X64575Y70225D02*
D03*
X61525D02*
D03*
D19*
X66750Y59750D02*
D03*
X64000D02*
D03*
D20*
X55625Y84350D02*
D03*
Y83000D02*
D03*
D21*
X57725Y87575D02*
D03*
Y84525D02*
D03*
D22*
X40850Y53700D02*
D03*
X42350D02*
D03*
X42325Y51975D02*
D03*
X43825D02*
D03*
D23*
X7375Y89900D02*
D03*
Y87900D02*
D03*
X11750Y87825D02*
D03*
Y89825D02*
D03*
X14047Y87868D02*
D03*
Y89868D02*
D03*
X17333Y87875D02*
D03*
Y89875D02*
D03*
X9525Y87925D02*
D03*
Y89925D02*
D03*
X5225Y89875D02*
D03*
Y87875D02*
D03*
X2725Y89850D02*
D03*
Y87850D02*
D03*
D24*
X6223Y13589D02*
D03*
X4223D02*
D03*
X9303Y4191D02*
D03*
X11303D02*
D03*
X6223Y9779D02*
D03*
X4223D02*
D03*
X9303Y1905D02*
D03*
X11303D02*
D03*
D25*
X38200Y98775D02*
D03*
X28200D02*
D03*
X44050Y98800D02*
D03*
X54050D02*
D03*
D26*
X12500Y101000D02*
D03*
X22900D02*
D03*
Y117400D02*
D03*
X12500D02*
D03*
X26000Y117500D02*
D03*
X36400D02*
D03*
Y101100D02*
D03*
X26000D02*
D03*
X39725Y101125D02*
D03*
X50125D02*
D03*
Y117525D02*
D03*
X39725D02*
D03*
D27*
X55100Y51010D02*
D03*
X52255Y50990D02*
D03*
X63295Y111285D02*
D03*
X53275Y75400D02*
D03*
X59480Y102900D02*
D03*
D28*
X55100Y53550D02*
D03*
X55095Y56095D02*
D03*
X52255Y53530D02*
D03*
X52250Y56075D02*
D03*
X64040Y91500D02*
D03*
X66585Y91505D02*
D03*
X24575Y15575D02*
D03*
X27115D02*
D03*
X29655D02*
D03*
X34730Y15570D02*
D03*
X37275Y15575D02*
D03*
X32195D02*
D03*
X63300Y106200D02*
D03*
X63295Y108745D02*
D03*
Y103665D02*
D03*
X41325Y77940D02*
D03*
X53275D02*
D03*
X41325Y75400D02*
D03*
X53275Y88100D02*
D03*
Y85560D02*
D03*
X53280Y80485D02*
D03*
X53275Y83020D02*
D03*
X41330Y85560D02*
D03*
X41325Y83020D02*
D03*
Y80485D02*
D03*
Y88100D02*
D03*
X56175Y95735D02*
D03*
X53635D02*
D03*
X56175Y93195D02*
D03*
X5375Y93200D02*
D03*
X12995D02*
D03*
X20615D02*
D03*
X5375Y95740D02*
D03*
X12995D02*
D03*
X20615D02*
D03*
X28235Y93200D02*
D03*
Y95740D02*
D03*
X35855Y93200D02*
D03*
Y95740D02*
D03*
X43475D02*
D03*
X40935Y93200D02*
D03*
X7915Y62720D02*
D03*
Y67800D02*
D03*
X5375D02*
D03*
X25695Y62720D02*
D03*
X33315D02*
D03*
X40935D02*
D03*
X25695Y60180D02*
D03*
X33315D02*
D03*
X40935D02*
D03*
X23155Y62720D02*
D03*
X7915Y60180D02*
D03*
X15535D02*
D03*
X23155D02*
D03*
X20615D02*
D03*
X15535Y62720D02*
D03*
X37240Y26543D02*
D03*
X34700D02*
D03*
X32160D02*
D03*
X29620D02*
D03*
X24545Y26538D02*
D03*
X22000Y26543D02*
D03*
X27080D02*
D03*
X37240Y38543D02*
D03*
X34700D02*
D03*
X32160D02*
D03*
X29620D02*
D03*
X24545Y38538D02*
D03*
X22000Y38543D02*
D03*
X19460D02*
D03*
X27080D02*
D03*
X66295Y98255D02*
D03*
X63750Y98250D02*
D03*
X27080Y54291D02*
D03*
X19460D02*
D03*
X22000D02*
D03*
X24545Y54286D02*
D03*
X29620Y54291D02*
D03*
X32160D02*
D03*
X34700D02*
D03*
X37240D02*
D03*
X27080Y42291D02*
D03*
X22000D02*
D03*
X24545Y42286D02*
D03*
X29620Y42291D02*
D03*
X32160D02*
D03*
X34700D02*
D03*
X37240D02*
D03*
Y10541D02*
D03*
X34700D02*
D03*
X32160D02*
D03*
X29620D02*
D03*
X24545Y10536D02*
D03*
X22000Y10541D02*
D03*
X27080D02*
D03*
X37240Y22541D02*
D03*
X34700D02*
D03*
X32160D02*
D03*
X29620D02*
D03*
X24545Y22536D02*
D03*
X22000Y22541D02*
D03*
X19460D02*
D03*
X27080D02*
D03*
X59480Y107980D02*
D03*
Y105440D02*
D03*
Y110520D02*
D03*
Y113060D02*
D03*
Y115600D02*
D03*
X56940Y107980D02*
D03*
Y105440D02*
D03*
Y102900D02*
D03*
Y110520D02*
D03*
Y113060D02*
D03*
Y115600D02*
D03*
X54400Y107980D02*
D03*
Y105440D02*
D03*
Y102900D02*
D03*
Y110520D02*
D03*
Y113060D02*
D03*
Y115600D02*
D03*
D29*
X50050Y30000D02*
D03*
Y21875D02*
D03*
X5587Y102787D02*
D03*
X14000Y34381D02*
D03*
Y18379D02*
D03*
X5600Y110525D02*
D03*
X14000Y50129D02*
D03*
D30*
X50050Y27500D02*
D03*
Y19375D02*
D03*
X59500Y4575D02*
D03*
X54500D02*
D03*
X52000D02*
D03*
X49500D02*
D03*
X57000D02*
D03*
X5587Y100287D02*
D03*
X14000Y26881D02*
D03*
Y29381D02*
D03*
Y31881D02*
D03*
Y15879D02*
D03*
Y13379D02*
D03*
Y10879D02*
D03*
X5600Y108025D02*
D03*
X4286Y39497D02*
D03*
X7786D02*
D03*
X4286Y51943D02*
D03*
X7786D02*
D03*
X4286Y24511D02*
D03*
X7786D02*
D03*
X14000Y47629D02*
D03*
Y45129D02*
D03*
Y42629D02*
D03*
D31*
X61500Y91500D02*
D03*
X39815Y15575D02*
D03*
X43475Y93200D02*
D03*
X19460Y26543D02*
D03*
X61210Y98250D02*
D03*
X19460Y42291D02*
D03*
Y10541D02*
D03*
D32*
X44202Y16152D02*
D03*
X44075Y39775D02*
D03*
D33*
X47000Y4575D02*
D03*
D34*
X64000Y83625D02*
D03*
X66500D02*
D03*
X61500D02*
D03*
X61100Y65075D02*
D03*
X66100D02*
D03*
X63600D02*
D03*
X61275Y54450D02*
D03*
X66275D02*
D03*
X63775D02*
D03*
D35*
X4000Y77000D02*
D03*
X66000D02*
D03*
X4000Y116000D02*
D03*
X66000D02*
D03*
X4000Y4000D02*
D03*
X66000D02*
D03*
D36*
X51095Y93195D02*
D03*
Y95735D02*
D03*
X53635Y93195D02*
D03*
X7915Y93200D02*
D03*
X10455D02*
D03*
X15535D02*
D03*
X18075D02*
D03*
X7915Y95740D02*
D03*
X10455D02*
D03*
X15535D02*
D03*
X23155Y93200D02*
D03*
X25695D02*
D03*
X23155Y95740D02*
D03*
X25695D02*
D03*
X30775Y93200D02*
D03*
X33315D02*
D03*
X30775Y95740D02*
D03*
X33315D02*
D03*
X38395D02*
D03*
X40935D02*
D03*
X38395Y93200D02*
D03*
X18075Y95740D02*
D03*
X5375Y62720D02*
D03*
X30789Y60193D02*
D03*
X7915Y70340D02*
D03*
Y65260D02*
D03*
X5375D02*
D03*
Y70340D02*
D03*
X30775Y62720D02*
D03*
X28235D02*
D03*
X35855D02*
D03*
X43475D02*
D03*
X38395D02*
D03*
X28235Y60180D02*
D03*
X38395D02*
D03*
X35855D02*
D03*
X43475D02*
D03*
X18075Y62720D02*
D03*
X20615D02*
D03*
X10455Y60180D02*
D03*
X12995D02*
D03*
X18075D02*
D03*
X5375D02*
D03*
X10455Y62720D02*
D03*
X12995D02*
D03*
D37*
X59200Y96925D02*
D03*
X59650Y89450D02*
D03*
M02*
