G04*
G04 #@! TF.GenerationSoftware,Altium Limited,Altium Designer,24.2.2 (26)*
G04*
G04 Layer_Physical_Order=1*
G04 Layer_Color=255*
%FSLAX43Y43*%
%MOMM*%
G71*
G04*
G04 #@! TF.SameCoordinates,826AFC0B-8DA9-4817-B3A0-D4F6A81A9B3F*
G04*
G04*
G04 #@! TF.FilePolarity,Positive*
G04*
G01*
G75*
%ADD10C,0.600*%
%ADD13C,0.254*%
%ADD30C,1.700*%
%ADD38R,0.600X0.900*%
%ADD39R,1.400X1.400*%
G04:AMPARAMS|DCode=40|XSize=0.95mm|YSize=0.85mm|CornerRadius=0.213mm|HoleSize=0mm|Usage=FLASHONLY|Rotation=270.000|XOffset=0mm|YOffset=0mm|HoleType=Round|Shape=RoundedRectangle|*
%AMROUNDEDRECTD40*
21,1,0.950,0.425,0,0,270.0*
21,1,0.525,0.850,0,0,270.0*
1,1,0.425,-0.213,-0.263*
1,1,0.425,-0.213,0.263*
1,1,0.425,0.213,0.263*
1,1,0.425,0.213,-0.263*
%
%ADD40ROUNDEDRECTD40*%
G04:AMPARAMS|DCode=41|XSize=1.8mm|YSize=1.05mm|CornerRadius=0.263mm|HoleSize=0mm|Usage=FLASHONLY|Rotation=270.000|XOffset=0mm|YOffset=0mm|HoleType=Round|Shape=RoundedRectangle|*
%AMROUNDEDRECTD41*
21,1,1.800,0.525,0,0,270.0*
21,1,1.275,1.050,0,0,270.0*
1,1,0.525,-0.263,-0.638*
1,1,0.525,-0.263,0.638*
1,1,0.525,0.263,0.638*
1,1,0.525,0.263,-0.638*
%
%ADD41ROUNDEDRECTD41*%
G04:AMPARAMS|DCode=42|XSize=2.7mm|YSize=1.35mm|CornerRadius=0.338mm|HoleSize=0mm|Usage=FLASHONLY|Rotation=270.000|XOffset=0mm|YOffset=0mm|HoleType=Round|Shape=RoundedRectangle|*
%AMROUNDEDRECTD42*
21,1,2.700,0.675,0,0,270.0*
21,1,2.025,1.350,0,0,270.0*
1,1,0.675,-0.338,-1.013*
1,1,0.675,-0.338,1.013*
1,1,0.675,0.338,1.013*
1,1,0.675,0.338,-1.013*
%
%ADD42ROUNDEDRECTD42*%
G04:AMPARAMS|DCode=43|XSize=0.95mm|YSize=0.85mm|CornerRadius=0.213mm|HoleSize=0mm|Usage=FLASHONLY|Rotation=0.000|XOffset=0mm|YOffset=0mm|HoleType=Round|Shape=RoundedRectangle|*
%AMROUNDEDRECTD43*
21,1,0.950,0.425,0,0,0.0*
21,1,0.525,0.850,0,0,0.0*
1,1,0.425,0.263,-0.213*
1,1,0.425,-0.263,-0.213*
1,1,0.425,-0.263,0.213*
1,1,0.425,0.263,0.213*
%
%ADD43ROUNDEDRECTD43*%
G04:AMPARAMS|DCode=44|XSize=1.8mm|YSize=1.05mm|CornerRadius=0.263mm|HoleSize=0mm|Usage=FLASHONLY|Rotation=0.000|XOffset=0mm|YOffset=0mm|HoleType=Round|Shape=RoundedRectangle|*
%AMROUNDEDRECTD44*
21,1,1.800,0.525,0,0,0.0*
21,1,1.275,1.050,0,0,0.0*
1,1,0.525,0.638,-0.263*
1,1,0.525,-0.638,-0.263*
1,1,0.525,-0.638,0.263*
1,1,0.525,0.638,0.263*
%
%ADD44ROUNDEDRECTD44*%
%ADD45R,0.700X1.000*%
%ADD46R,1.400X1.150*%
%ADD47R,1.150X1.400*%
%ADD48C,0.500*%
%ADD49C,0.800*%
%ADD50C,1.000*%
%ADD51C,0.400*%
%ADD52C,1.524*%
G04:AMPARAMS|DCode=53|XSize=3.2mm|YSize=2mm|CornerRadius=0.5mm|HoleSize=0mm|Usage=FLASHONLY|Rotation=90.000|XOffset=0mm|YOffset=0mm|HoleType=Round|Shape=RoundedRectangle|*
%AMROUNDEDRECTD53*
21,1,3.200,1.000,0,0,90.0*
21,1,2.200,2.000,0,0,90.0*
1,1,1.000,0.500,1.100*
1,1,1.000,0.500,-1.100*
1,1,1.000,-0.500,-1.100*
1,1,1.000,-0.500,1.100*
%
%ADD53ROUNDEDRECTD53*%
%ADD54R,1.900X1.900*%
%ADD55C,1.900*%
%ADD56R,1.600X1.600*%
%ADD57C,1.600*%
%ADD58R,1.900X1.900*%
%ADD59C,4.500*%
%ADD60R,1.600X1.600*%
%ADD61C,6.000*%
%ADD62C,0.600*%
G36*
X61078Y119253D02*
X61073Y119290D01*
X61058Y119324D01*
X61033Y119353D01*
X60998Y119379D01*
X60953Y119401D01*
X60898Y119418D01*
X60833Y119432D01*
X60758Y119442D01*
X60673Y119448D01*
X60578Y119450D01*
Y119950D01*
X60673Y119952D01*
X60833Y119968D01*
X60898Y119982D01*
X60953Y119999D01*
X60998Y120021D01*
X61033Y120047D01*
X61058Y120076D01*
X61073Y120110D01*
X61078Y120147D01*
Y119253D01*
D02*
G37*
G36*
X43691Y118809D02*
X45028Y117472D01*
X34805Y107250D01*
X10288D01*
X8288Y109250D01*
X6051D01*
X5872Y109298D01*
X5889Y109425D01*
X6700D01*
Y110125D01*
X5600D01*
X4500D01*
Y109472D01*
X4377Y109415D01*
X3937Y109855D01*
Y112500D01*
X4275D01*
X4820Y112586D01*
X5344Y112756D01*
X5834Y113007D01*
X6280Y113330D01*
X6670Y113720D01*
X6993Y114166D01*
X7244Y114656D01*
X7414Y115180D01*
X7425Y115250D01*
X10775D01*
Y118475D01*
X11149Y118868D01*
X11257Y118797D01*
X11221Y118709D01*
X11193Y118500D01*
Y117950D01*
X12500D01*
X13807D01*
Y118500D01*
X13779Y118709D01*
X13711Y118873D01*
X13768Y119000D01*
X21410D01*
X21481Y118894D01*
X21426Y118761D01*
X21391Y118500D01*
Y116300D01*
X21426Y116039D01*
X21527Y115796D01*
X21687Y115587D01*
X21896Y115427D01*
X22139Y115326D01*
X22400Y115291D01*
X23400D01*
X23661Y115326D01*
X23904Y115427D01*
X24113Y115587D01*
X24273Y115796D01*
X24374Y116039D01*
X24409Y116300D01*
Y118500D01*
X24374Y118761D01*
X24319Y118894D01*
X24390Y119000D01*
X24685D01*
X24756Y118894D01*
X24721Y118809D01*
X24693Y118600D01*
Y118050D01*
X26000D01*
X27307D01*
Y118600D01*
X27279Y118809D01*
X27244Y118894D01*
X27315Y119000D01*
X34869D01*
X34940Y118894D01*
X34926Y118861D01*
X34891Y118600D01*
Y116400D01*
X34926Y116139D01*
X35027Y115896D01*
X35187Y115687D01*
X35396Y115527D01*
X35639Y115426D01*
X35900Y115391D01*
X36900D01*
X37161Y115426D01*
X37404Y115527D01*
X37613Y115687D01*
X37773Y115896D01*
X37874Y116139D01*
X37909Y116400D01*
Y118600D01*
X37874Y118861D01*
X37860Y118894D01*
X37931Y119000D01*
X38400D01*
X38471Y118894D01*
X38446Y118834D01*
X38418Y118625D01*
Y118075D01*
X39725D01*
X41032D01*
Y118625D01*
X41004Y118834D01*
X40979Y118894D01*
X41050Y119000D01*
X43500D01*
X43691Y118809D01*
D02*
G37*
G36*
X59625Y117452D02*
X59618Y117400D01*
Y117202D01*
X59613Y117199D01*
X59566Y117170D01*
X59515Y117142D01*
X59457Y117116D01*
X59400Y117093D01*
X59245Y117045D01*
X59160Y117024D01*
X59114Y117003D01*
X58920Y116951D01*
X58590Y116760D01*
X58320Y116490D01*
X58168Y116227D01*
X58021D01*
X57940Y116368D01*
X57708Y116600D01*
X57490Y116726D01*
Y115600D01*
X56390D01*
Y116726D01*
X56172Y116600D01*
X55940Y116368D01*
X55859Y116227D01*
X55712D01*
X55560Y116490D01*
X55290Y116760D01*
X54960Y116951D01*
X54591Y117050D01*
X54209D01*
X53840Y116951D01*
X53510Y116760D01*
X53240Y116490D01*
X53049Y116160D01*
X52950Y115791D01*
Y115409D01*
X53049Y115040D01*
X53240Y114710D01*
X53510Y114440D01*
X53590Y114394D01*
Y114267D01*
X53510Y114220D01*
X53240Y113950D01*
X53049Y113620D01*
X52950Y113251D01*
Y112869D01*
X53049Y112500D01*
X53240Y112170D01*
X53510Y111900D01*
X53590Y111854D01*
Y111727D01*
X53510Y111680D01*
X53240Y111410D01*
X53049Y111080D01*
X52950Y110711D01*
Y110329D01*
X53049Y109960D01*
X53240Y109630D01*
X53510Y109360D01*
X53590Y109313D01*
Y109187D01*
X53510Y109140D01*
X53240Y108870D01*
X53049Y108540D01*
X52950Y108171D01*
Y108104D01*
X52298Y107452D01*
X52159Y107245D01*
X52111Y107000D01*
Y104111D01*
X51300Y103300D01*
X35288D01*
X34235Y102289D01*
Y99135D01*
X33583Y98483D01*
X29325D01*
X29248Y98583D01*
X29262Y98635D01*
Y98915D01*
X29190Y99185D01*
X29050Y99427D01*
X28852Y99625D01*
X28610Y99765D01*
X28600Y99767D01*
Y98775D01*
X27800D01*
Y99767D01*
X27790Y99765D01*
X27548Y99625D01*
X27350Y99427D01*
X27210Y99185D01*
X27138Y98915D01*
Y98635D01*
X27152Y98583D01*
X27075Y98483D01*
X25592D01*
X25250Y98875D01*
Y99109D01*
X25377Y99209D01*
X25450Y99200D01*
Y101100D01*
X26000D01*
Y101650D01*
X27307D01*
Y102200D01*
X27279Y102409D01*
X27199Y102603D01*
X27071Y102771D01*
X26903Y102899D01*
X26709Y102979D01*
X26500Y103007D01*
X25673D01*
X25624Y103124D01*
X28219Y105719D01*
X35100D01*
X35296Y105744D01*
X35478Y105820D01*
X35552Y105877D01*
X35627D01*
X45175Y115425D01*
X46625Y115416D01*
X49066Y115416D01*
X50625D01*
X50886Y115451D01*
X51129Y115551D01*
X51338Y115712D01*
X51499Y115921D01*
X51599Y116164D01*
X51634Y116425D01*
Y116634D01*
X53245Y118245D01*
X59625D01*
Y117452D01*
D02*
G37*
G36*
X60615Y116609D02*
X60555Y116543D01*
X60504Y116474D01*
X60461Y116402D01*
X60427Y116328D01*
X60401Y116250D01*
X60385Y116170D01*
X60377Y116087D01*
X60377Y116001D01*
X60386Y115912D01*
X60404Y115820D01*
X59279Y116528D01*
X59381Y116553D01*
X59570Y116612D01*
X59658Y116647D01*
X59742Y116685D01*
X59820Y116727D01*
X59894Y116773D01*
X59964Y116822D01*
X60028Y116874D01*
X60089Y116931D01*
X60615Y116609D01*
D02*
G37*
G36*
X57581Y114887D02*
X57522Y114809D01*
X57470Y114730D01*
X57425Y114650D01*
X57387Y114569D01*
X57355Y114487D01*
X57331Y114404D01*
X57316Y114330D01*
X57331Y114256D01*
X57355Y114173D01*
X57387Y114091D01*
X57425Y114010D01*
X57470Y113930D01*
X57522Y113851D01*
X57581Y113773D01*
X57647Y113695D01*
X56319Y113779D01*
X56392Y113846D01*
X56456Y113915D01*
X56513Y113986D01*
X56563Y114060D01*
X56605Y114136D01*
X56639Y114214D01*
X56666Y114295D01*
X56674Y114330D01*
X56666Y114365D01*
X56639Y114446D01*
X56605Y114524D01*
X56563Y114600D01*
X56513Y114674D01*
X56456Y114745D01*
X56392Y114814D01*
X56319Y114881D01*
X57647Y114965D01*
X57581Y114887D01*
D02*
G37*
G36*
X57586Y112604D02*
X57526Y112527D01*
X57473Y112449D01*
X57452Y112413D01*
X57647Y112425D01*
X57581Y112347D01*
X57522Y112269D01*
X57470Y112190D01*
X57425Y112110D01*
X57387Y112029D01*
X57355Y111947D01*
X57331Y111864D01*
X57316Y111790D01*
X57331Y111716D01*
X57355Y111633D01*
X57387Y111551D01*
X57425Y111470D01*
X57470Y111390D01*
X57522Y111311D01*
X57581Y111233D01*
X57647Y111155D01*
X56319Y111239D01*
X56392Y111306D01*
X56456Y111375D01*
X56513Y111446D01*
X56563Y111520D01*
X56605Y111596D01*
X56639Y111674D01*
X56666Y111755D01*
X56674Y111790D01*
X56666Y111825D01*
X56639Y111906D01*
X56605Y111984D01*
X56563Y112060D01*
X56513Y112134D01*
X56456Y112205D01*
X56392Y112274D01*
X56319Y112341D01*
X56553Y112356D01*
X56516Y112412D01*
X56459Y112485D01*
X56396Y112555D01*
X56324Y112624D01*
X57653Y112680D01*
X57586Y112604D01*
D02*
G37*
G36*
X62351Y110661D02*
X62349Y110694D01*
X62344Y110719D01*
X62334Y110737D01*
X62321Y110748D01*
X62305Y110752D01*
X62284Y110748D01*
X62260Y110737D01*
X62233Y110719D01*
X62201Y110694D01*
X62166Y110661D01*
Y111016D01*
X62201Y111052D01*
X62233Y111088D01*
X62260Y111124D01*
X62284Y111159D01*
X62305Y111195D01*
X62321Y111230D01*
X62334Y111265D01*
X62344Y111301D01*
X62349Y111336D01*
X62351Y111371D01*
Y110661D01*
D02*
G37*
G36*
X4741Y108722D02*
X4720Y108700D01*
X4575Y108450D01*
X4568Y108425D01*
X5600D01*
X6632D01*
X6625Y108450D01*
X6531Y108613D01*
X6604Y108740D01*
X7020D01*
X7880Y107880D01*
Y107880D01*
X7880Y107880D01*
X8382Y107379D01*
Y104965D01*
X7239Y103823D01*
X7239Y102299D01*
X7239Y101790D01*
X6581Y101132D01*
X6386Y101328D01*
X6089Y101499D01*
X5859Y101561D01*
X5876Y101688D01*
X6687D01*
Y102387D01*
X5588D01*
X4488D01*
Y101688D01*
X5299D01*
X5316Y101561D01*
X5086Y101499D01*
X4789Y101328D01*
X4547Y101086D01*
X4514Y101029D01*
X2730D01*
X1778Y101981D01*
Y107696D01*
X2921Y108839D01*
X2921D01*
X2921Y108839D01*
X2921Y108839D01*
X4692D01*
X4741Y108722D01*
D02*
G37*
G36*
X57586Y110064D02*
X57526Y109987D01*
X57473Y109909D01*
X57452Y109873D01*
X57647Y109885D01*
X57581Y109807D01*
X57522Y109729D01*
X57470Y109650D01*
X57425Y109570D01*
X57387Y109489D01*
X57355Y109407D01*
X57331Y109324D01*
X57316Y109250D01*
X57331Y109176D01*
X57355Y109093D01*
X57387Y109011D01*
X57425Y108930D01*
X57470Y108850D01*
X57522Y108771D01*
X57581Y108693D01*
X57647Y108615D01*
X56319Y108699D01*
X56392Y108766D01*
X56456Y108835D01*
X56513Y108906D01*
X56563Y108980D01*
X56605Y109056D01*
X56639Y109134D01*
X56666Y109215D01*
X56674Y109250D01*
X56666Y109285D01*
X56639Y109366D01*
X56605Y109444D01*
X56563Y109520D01*
X56513Y109594D01*
X56456Y109665D01*
X56392Y109734D01*
X56319Y109801D01*
X56553Y109816D01*
X56516Y109872D01*
X56459Y109945D01*
X56396Y110015D01*
X56324Y110084D01*
X57653Y110140D01*
X57586Y110064D01*
D02*
G37*
G36*
X63285Y107795D02*
X63140Y107794D01*
X62882Y107779D01*
X62769Y107765D01*
X62666Y107747D01*
X62575Y107724D01*
X62494Y107696D01*
X62424Y107664D01*
X62365Y107627D01*
X62316Y107586D01*
X62136Y107766D01*
X62177Y107815D01*
X62214Y107874D01*
X62246Y107944D01*
X62274Y108025D01*
X62297Y108117D01*
X62315Y108219D01*
X62329Y108332D01*
X62344Y108590D01*
X62345Y108736D01*
X63285Y107795D01*
D02*
G37*
G36*
X57586Y107524D02*
X57526Y107447D01*
X57473Y107369D01*
X57452Y107333D01*
X57647Y107345D01*
X57581Y107267D01*
X57522Y107189D01*
X57470Y107110D01*
X57425Y107030D01*
X57387Y106949D01*
X57355Y106867D01*
X57331Y106784D01*
X57316Y106710D01*
X57331Y106636D01*
X57355Y106553D01*
X57387Y106471D01*
X57425Y106390D01*
X57470Y106310D01*
X57522Y106231D01*
X57581Y106153D01*
X57647Y106075D01*
X56319Y106159D01*
X56392Y106226D01*
X56456Y106295D01*
X56513Y106366D01*
X56563Y106440D01*
X56605Y106516D01*
X56639Y106594D01*
X56666Y106675D01*
X56674Y106710D01*
X56666Y106745D01*
X56639Y106826D01*
X56605Y106904D01*
X56563Y106980D01*
X56513Y107054D01*
X56456Y107125D01*
X56392Y107194D01*
X56319Y107261D01*
X56553Y107276D01*
X56516Y107332D01*
X56459Y107405D01*
X56396Y107475D01*
X56324Y107544D01*
X57653Y107600D01*
X57586Y107524D01*
D02*
G37*
G36*
X54214Y104508D02*
X54082Y104532D01*
X53845Y104556D01*
X53740Y104556D01*
X53643Y104550D01*
X53555Y104535D01*
X53476Y104513D01*
X53406Y104483D01*
X53344Y104446D01*
X53291Y104401D01*
X53146Y104615D01*
X53180Y104656D01*
X53214Y104710D01*
X53247Y104777D01*
X53280Y104857D01*
X53312Y104950D01*
X53375Y105174D01*
X53435Y105450D01*
X53465Y105607D01*
X54214Y104508D01*
D02*
G37*
G36*
X57586Y104984D02*
X57526Y104907D01*
X57473Y104829D01*
X57452Y104793D01*
X57647Y104805D01*
X57581Y104727D01*
X57522Y104649D01*
X57470Y104570D01*
X57425Y104490D01*
X57387Y104409D01*
X57355Y104327D01*
X57331Y104244D01*
X57316Y104170D01*
X57331Y104096D01*
X57355Y104013D01*
X57387Y103931D01*
X57425Y103850D01*
X57470Y103770D01*
X57522Y103691D01*
X57581Y103613D01*
X57647Y103535D01*
X56319Y103619D01*
X56392Y103686D01*
X56456Y103755D01*
X56513Y103826D01*
X56563Y103900D01*
X56605Y103976D01*
X56639Y104054D01*
X56666Y104135D01*
X56674Y104170D01*
X56666Y104205D01*
X56639Y104286D01*
X56605Y104364D01*
X56563Y104440D01*
X56513Y104514D01*
X56456Y104585D01*
X56392Y104654D01*
X56319Y104721D01*
X56553Y104736D01*
X56516Y104792D01*
X56459Y104865D01*
X56396Y104935D01*
X56324Y105004D01*
X57653Y105060D01*
X57586Y104984D01*
D02*
G37*
G36*
X65967Y102990D02*
X65965Y102505D01*
X65217Y102696D01*
X65265Y102690D01*
X65307Y102696D01*
X65345Y102715D01*
X65377Y102746D01*
X65405Y102790D01*
X65427Y102847D01*
X65445Y102916D01*
X65457Y102998D01*
X65465Y103092D01*
X65467Y103199D01*
X65967Y102990D01*
D02*
G37*
G36*
X13852Y102474D02*
X13759Y102377D01*
X13611Y102201D01*
X13556Y102122D01*
X13515Y102048D01*
X13486Y101981D01*
X13470Y101919D01*
X13466Y101863D01*
X13476Y101813D01*
X13498Y101769D01*
X12919Y102598D01*
X12952Y102564D01*
X12991Y102544D01*
X13038Y102539D01*
X13093Y102548D01*
X13154Y102571D01*
X13223Y102608D01*
X13300Y102660D01*
X13383Y102726D01*
X13474Y102806D01*
X13572Y102901D01*
X13852Y102474D01*
D02*
G37*
G36*
X54963Y102118D02*
X54791Y101925D01*
X54721Y101835D01*
X54661Y101750D01*
X54613Y101669D01*
X54575Y101592D01*
X54549Y101520D01*
X54532Y101452D01*
X54527Y101389D01*
X54273D01*
X54268Y101452D01*
X54251Y101520D01*
X54225Y101592D01*
X54187Y101669D01*
X54139Y101750D01*
X54079Y101835D01*
X54009Y101925D01*
X53837Y102118D01*
X53735Y102222D01*
X55065D01*
X54963Y102118D01*
D02*
G37*
G36*
X65633Y100904D02*
X65594Y100932D01*
X65549Y100946D01*
X65496Y100945D01*
X65436Y100931D01*
X65369Y100902D01*
X65294Y100860D01*
X65213Y100803D01*
X65124Y100732D01*
X64926Y100547D01*
X64572Y100901D01*
X64672Y101004D01*
X64828Y101188D01*
X64885Y101269D01*
X64927Y101344D01*
X64956Y101411D01*
X64970Y101471D01*
X64971Y101524D01*
X64957Y101569D01*
X64929Y101608D01*
X65633Y100904D01*
D02*
G37*
G36*
X62467Y100438D02*
X62490Y100420D01*
X62512Y100403D01*
X62535Y100389D01*
X62557Y100377D01*
X62580Y100367D01*
X62603Y100359D01*
X62626Y100354D01*
X62649Y100351D01*
X62672Y100350D01*
X62375Y100053D01*
X62374Y100076D01*
X62371Y100099D01*
X62366Y100122D01*
X62358Y100145D01*
X62348Y100168D01*
X62336Y100190D01*
X62322Y100213D01*
X62305Y100235D01*
X62287Y100258D01*
X62266Y100280D01*
X62445Y100459D01*
X62467Y100438D01*
D02*
G37*
G36*
X60393Y99753D02*
X60372Y99731D01*
X60353Y99708D01*
X60337Y99686D01*
X60323Y99663D01*
X60311Y99641D01*
X60301Y99618D01*
X60293Y99595D01*
X60288Y99572D01*
X60285Y99549D01*
X60284Y99526D01*
X59987Y99823D01*
X60010Y99824D01*
X60033Y99827D01*
X60056Y99832D01*
X60079Y99840D01*
X60102Y99850D01*
X60124Y99862D01*
X60147Y99876D01*
X60169Y99893D01*
X60191Y99911D01*
X60213Y99932D01*
X60393Y99753D01*
D02*
G37*
G36*
X5597Y99488D02*
X5525Y99484D01*
X5455Y99475D01*
X5386Y99460D01*
X5319Y99440D01*
X5254Y99415D01*
X5190Y99383D01*
X5129Y99347D01*
X5069Y99305D01*
X5010Y99257D01*
X4954Y99204D01*
X4519Y99618D01*
X4572Y99675D01*
X4620Y99734D01*
X4661Y99794D01*
X4697Y99856D01*
X4727Y99919D01*
X4751Y99985D01*
X4769Y100051D01*
X4781Y100120D01*
X4787Y100190D01*
X4788Y100262D01*
X5597Y99488D01*
D02*
G37*
G36*
X64004Y99638D02*
X64015Y99553D01*
X64033Y99472D01*
X64058Y99393D01*
X64091Y99316D01*
X64131Y99243D01*
X64178Y99172D01*
X64232Y99104D01*
X64294Y99039D01*
X64363Y98976D01*
X63138D01*
X63206Y99039D01*
X63268Y99104D01*
X63322Y99172D01*
X63369Y99243D01*
X63409Y99316D01*
X63442Y99393D01*
X63467Y99472D01*
X63486Y99553D01*
X63496Y99638D01*
X63500Y99725D01*
X64000D01*
X64004Y99638D01*
D02*
G37*
G36*
X55747Y98650D02*
X55724Y98649D01*
X55701Y98646D01*
X55678Y98641D01*
X55655Y98633D01*
X55632Y98623D01*
X55610Y98611D01*
X55587Y98597D01*
X55565Y98580D01*
X55542Y98562D01*
X55520Y98541D01*
X55341Y98720D01*
X55362Y98742D01*
X55380Y98765D01*
X55397Y98787D01*
X55411Y98810D01*
X55423Y98832D01*
X55433Y98855D01*
X55441Y98878D01*
X55446Y98901D01*
X55449Y98924D01*
X55450Y98947D01*
X55747Y98650D01*
D02*
G37*
G36*
X55797Y97825D02*
X55774Y97824D01*
X55751Y97821D01*
X55728Y97816D01*
X55705Y97808D01*
X55682Y97798D01*
X55660Y97786D01*
X55637Y97772D01*
X55615Y97755D01*
X55592Y97737D01*
X55570Y97716D01*
X55391Y97895D01*
X55412Y97917D01*
X55430Y97940D01*
X55447Y97962D01*
X55461Y97985D01*
X55473Y98007D01*
X55483Y98030D01*
X55491Y98053D01*
X55496Y98076D01*
X55499Y98099D01*
X55500Y98122D01*
X55797Y97825D01*
D02*
G37*
G36*
X70175Y105775D02*
Y82575D01*
X67800Y80200D01*
X67429D01*
X67344Y80244D01*
X66820Y80414D01*
X66275Y80500D01*
X65725D01*
X65180Y80414D01*
X64656Y80244D01*
X64571Y80200D01*
X63300D01*
X62575Y79475D01*
Y77749D01*
X62500Y77275D01*
Y76725D01*
X62575Y76251D01*
Y73093D01*
X62562Y73083D01*
X62138D01*
X61977Y73051D01*
X61840Y72960D01*
X61749Y72823D01*
X61724Y72700D01*
X62350D01*
Y72100D01*
X61724D01*
X61749Y71977D01*
X61840Y71840D01*
X61977Y71749D01*
X62138Y71717D01*
X62562D01*
X62575Y71707D01*
Y71175D01*
X62450D01*
Y69275D01*
X62575D01*
Y68275D01*
X64575Y66275D01*
Y65906D01*
X64448Y65853D01*
X64306Y65995D01*
X64100Y66114D01*
Y65075D01*
Y64036D01*
X64306Y64155D01*
X64448Y64297D01*
X64575Y64244D01*
Y61391D01*
X64500Y61331D01*
Y59750D01*
X64000D01*
D01*
X64500D01*
Y58222D01*
X64547Y58231D01*
X64725Y58350D01*
X64775Y58425D01*
X65635D01*
X65681Y58315D01*
X65815Y58140D01*
X65990Y58006D01*
X66194Y57922D01*
X66412Y57893D01*
X66907D01*
X69875Y54925D01*
Y14525D01*
X62950Y7600D01*
X50125D01*
X49475Y7025D01*
Y5875D01*
X49329D01*
X48998Y5786D01*
X48702Y5615D01*
X48460Y5373D01*
X48289Y5077D01*
X48227Y4847D01*
X48100Y4864D01*
Y5675D01*
X47400D01*
Y4575D01*
X46600D01*
Y5675D01*
X45900D01*
X45832Y5774D01*
Y6982D01*
X66423Y27573D01*
Y51492D01*
X66421Y51562D01*
X64478Y53505D01*
X64481Y53530D01*
X64695Y53744D01*
X64847Y54006D01*
X64856Y54040D01*
X64987D01*
X65017Y53929D01*
X65195Y53621D01*
X65446Y53370D01*
X65754Y53192D01*
X66097Y53100D01*
X66453D01*
X66796Y53192D01*
X67104Y53370D01*
X67355Y53621D01*
X67533Y53929D01*
X67625Y54272D01*
Y54628D01*
X67533Y54971D01*
X67355Y55279D01*
X67104Y55530D01*
X66796Y55708D01*
X66453Y55800D01*
X66097D01*
X65754Y55708D01*
X65446Y55530D01*
X65195Y55279D01*
X65017Y54971D01*
X64987Y54860D01*
X64856D01*
X64847Y54894D01*
X64695Y55156D01*
X64481Y55370D01*
X64275Y55489D01*
Y54450D01*
X63275D01*
Y55489D01*
X63069Y55370D01*
X62855Y55156D01*
X62830Y55153D01*
X62357Y55626D01*
Y60452D01*
X59500Y62928D01*
X58175Y64253D01*
Y64436D01*
X59910D01*
X60020Y64246D01*
X60271Y63995D01*
X60579Y63817D01*
X60922Y63725D01*
X61278D01*
X61621Y63817D01*
X61929Y63995D01*
X62180Y64246D01*
X62358Y64554D01*
X62388Y64665D01*
X62519D01*
X62528Y64631D01*
X62680Y64369D01*
X62894Y64155D01*
X63100Y64036D01*
Y65075D01*
Y66114D01*
X62894Y65995D01*
X62680Y65781D01*
X62528Y65519D01*
X62519Y65485D01*
X62388D01*
X62358Y65596D01*
X62180Y65904D01*
X61929Y66155D01*
X61621Y66333D01*
X61278Y66425D01*
X60922D01*
X60579Y66333D01*
X60271Y66155D01*
X60020Y65904D01*
X59910Y65714D01*
X58175D01*
Y68326D01*
X58175Y79075D01*
X61375Y82275D01*
X61678D01*
X62021Y82367D01*
X62329Y82545D01*
X62580Y82796D01*
X62758Y83104D01*
X62788Y83215D01*
X62919D01*
X62928Y83181D01*
X62993Y83070D01*
X63012Y83099D01*
X63049Y83165D01*
X63081Y83234D01*
X63106Y83306D01*
X63126Y83380D01*
X63140Y83456D01*
X63148Y83535D01*
X63150Y83617D01*
X63500Y83267D01*
Y83625D01*
X64500D01*
Y82586D01*
X64706Y82705D01*
X64920Y82919D01*
X65072Y83181D01*
X65081Y83215D01*
X65212D01*
X65242Y83104D01*
X65420Y82796D01*
X65671Y82545D01*
X65979Y82367D01*
X66322Y82275D01*
X66678D01*
X67021Y82367D01*
X67329Y82545D01*
X67580Y82796D01*
X67758Y83104D01*
X67850Y83447D01*
Y83803D01*
X67758Y84146D01*
X67580Y84454D01*
X67329Y84705D01*
X67021Y84883D01*
X66678Y84975D01*
X66322D01*
X65979Y84883D01*
X65671Y84705D01*
X65420Y84454D01*
X65242Y84146D01*
X65212Y84035D01*
X65081D01*
X65072Y84069D01*
X64920Y84331D01*
X64706Y84545D01*
X64444Y84697D01*
X64151Y84775D01*
X64041D01*
X63992Y84892D01*
X65500Y86400D01*
Y89136D01*
X66419Y90055D01*
X66776D01*
X67145Y90154D01*
X67475Y90345D01*
X67745Y90615D01*
X67936Y90945D01*
X68035Y91314D01*
Y91696D01*
X67936Y92065D01*
X67745Y92395D01*
X67475Y92665D01*
X67145Y92856D01*
X66776Y92955D01*
X66394D01*
X66025Y92856D01*
X65841Y92750D01*
X64775D01*
X64600Y92851D01*
X64231Y92950D01*
X63849D01*
X63480Y92851D01*
X63305Y92750D01*
X62950D01*
Y92950D01*
X60050D01*
Y92750D01*
X59450D01*
X57343Y94857D01*
X57526Y95175D01*
X57625Y95544D01*
Y95926D01*
X57526Y96295D01*
X57335Y96625D01*
X57065Y96895D01*
X56735Y97086D01*
X56625Y97116D01*
Y100648D01*
X56323Y100949D01*
X56325Y101685D01*
X56390Y101723D01*
Y102900D01*
X57490D01*
Y101774D01*
X57708Y101900D01*
X57903Y102095D01*
X58030Y102043D01*
Y101450D01*
X59720D01*
X59769Y101333D01*
X58640Y100204D01*
X58520Y100047D01*
X58444Y99865D01*
X58419Y99669D01*
Y98473D01*
X58444Y98283D01*
Y97193D01*
X58400Y97030D01*
Y96820D01*
X58455Y96616D01*
X58560Y96434D01*
X58709Y96285D01*
X58891Y96180D01*
X59095Y96125D01*
X59305D01*
X59509Y96180D01*
X59691Y96285D01*
X59840Y96434D01*
X59945Y96616D01*
X59995Y96800D01*
X60250D01*
X60425Y96625D01*
X65500D01*
Y96913D01*
X65610Y96976D01*
X65735Y96904D01*
X66104Y96805D01*
X66486D01*
X66855Y96904D01*
X67185Y97095D01*
X67455Y97365D01*
X67646Y97695D01*
X67745Y98064D01*
Y98421D01*
X69017Y99693D01*
X69161Y99881D01*
X69252Y100100D01*
X69283Y100335D01*
Y100601D01*
X69306Y100619D01*
X69429Y100778D01*
X69505Y100963D01*
X69532Y101162D01*
Y102438D01*
X69505Y102637D01*
X69429Y102822D01*
X69408Y102849D01*
Y104469D01*
X69432Y104526D01*
X69456Y104713D01*
Y105238D01*
X69432Y105424D01*
X69360Y105597D01*
X69246Y105746D01*
X69097Y105860D01*
X68924Y105932D01*
X68738Y105956D01*
X68312D01*
X68127Y105932D01*
X67953Y105860D01*
X67850Y105781D01*
X67747Y105860D01*
X67574Y105932D01*
X67387Y105956D01*
X67163D01*
X67160Y105956D01*
X67158Y105956D01*
X66963D01*
X66776Y105932D01*
X66603Y105860D01*
X66454Y105746D01*
X66340Y105597D01*
X66268Y105424D01*
X66244Y105238D01*
Y105042D01*
X66244Y105039D01*
Y104944D01*
X65591Y104292D01*
X65475Y104275D01*
X65380Y104353D01*
X64300Y105432D01*
X64426Y105650D01*
X63300D01*
Y106750D01*
X64426D01*
X64300Y106968D01*
X64068Y107200D01*
X64055Y107295D01*
X64368Y107607D01*
X68393D01*
X70175Y105775D01*
D02*
G37*
G36*
X26646Y95585D02*
X26661Y95327D01*
X26675Y95214D01*
X26693Y95111D01*
X26716Y95020D01*
X26744Y94939D01*
X26776Y94869D01*
X26813Y94810D01*
X26854Y94761D01*
X26674Y94581D01*
X26625Y94622D01*
X26566Y94659D01*
X26496Y94691D01*
X26415Y94719D01*
X26324Y94742D01*
X26221Y94760D01*
X26108Y94774D01*
X25850Y94789D01*
X25705Y94790D01*
X26645Y95730D01*
X26646Y95585D01*
D02*
G37*
G36*
X18066Y94790D02*
X17920Y94789D01*
X17662Y94774D01*
X17549Y94760D01*
X17446Y94742D01*
X17355Y94719D01*
X17274Y94691D01*
X17204Y94659D01*
X17145Y94622D01*
X17096Y94581D01*
X16916Y94761D01*
X16957Y94810D01*
X16994Y94869D01*
X17026Y94939D01*
X17054Y95020D01*
X17077Y95111D01*
X17095Y95214D01*
X17109Y95327D01*
X17124Y95585D01*
X17125Y95730D01*
X18066Y94790D01*
D02*
G37*
G36*
X7905D02*
X7760Y94789D01*
X7502Y94774D01*
X7389Y94760D01*
X7286Y94742D01*
X7195Y94719D01*
X7114Y94691D01*
X7044Y94659D01*
X6985Y94622D01*
X6936Y94581D01*
X6756Y94761D01*
X6797Y94810D01*
X6834Y94869D01*
X6866Y94939D01*
X6894Y95020D01*
X6917Y95111D01*
X6935Y95214D01*
X6949Y95327D01*
X6964Y95585D01*
X6965Y95730D01*
X7905Y94790D01*
D02*
G37*
G36*
X9074Y94179D02*
X9033Y94130D01*
X8996Y94071D01*
X8964Y94001D01*
X8936Y93920D01*
X8913Y93829D01*
X8895Y93726D01*
X8881Y93613D01*
X8866Y93355D01*
X8865Y93210D01*
X7924Y94150D01*
X8070Y94151D01*
X8328Y94166D01*
X8441Y94180D01*
X8544Y94198D01*
X8635Y94221D01*
X8716Y94249D01*
X8786Y94281D01*
X8845Y94318D01*
X8894Y94359D01*
X9074Y94179D01*
D02*
G37*
G36*
X18638Y92418D02*
X18466Y92225D01*
X18396Y92135D01*
X18337Y92050D01*
X18288Y91969D01*
X18250Y91892D01*
X18224Y91820D01*
X18207Y91752D01*
X18202Y91689D01*
X17948D01*
X17943Y91752D01*
X17926Y91820D01*
X17900Y91892D01*
X17862Y91969D01*
X17813Y92050D01*
X17754Y92135D01*
X17684Y92225D01*
X17512Y92418D01*
X17410Y92522D01*
X18740D01*
X18638Y92418D01*
D02*
G37*
G36*
X11018D02*
X10846Y92225D01*
X10776Y92135D01*
X10717Y92050D01*
X10668Y91969D01*
X10630Y91892D01*
X10604Y91820D01*
X10587Y91752D01*
X10582Y91689D01*
X10328D01*
X10323Y91752D01*
X10306Y91820D01*
X10280Y91892D01*
X10242Y91969D01*
X10193Y92050D01*
X10134Y92135D01*
X10064Y92225D01*
X9892Y92418D01*
X9790Y92522D01*
X11120D01*
X11018Y92418D01*
D02*
G37*
G36*
X26353Y92515D02*
X26250Y92413D01*
X26077Y92222D01*
X26007Y92133D01*
X25947Y92048D01*
X25899Y91968D01*
X25861Y91891D01*
X25834Y91819D01*
X25817Y91751D01*
X25812Y91687D01*
X25558Y91690D01*
X25553Y91753D01*
X25537Y91820D01*
X25510Y91893D01*
X25472Y91970D01*
X25424Y92051D01*
X25365Y92137D01*
X25296Y92228D01*
X25125Y92424D01*
X25023Y92529D01*
X26353Y92515D01*
D02*
G37*
G36*
X25812Y90872D02*
X25813Y90841D01*
X25815Y90812D01*
X25819Y90785D01*
X25825Y90759D01*
X25832Y90734D01*
X25841Y90711D01*
X25851Y90689D01*
X25863Y90669D01*
X25877Y90650D01*
X25892Y90632D01*
X25472Y90646D01*
X25489Y90663D01*
X25503Y90681D01*
X25516Y90700D01*
X25527Y90721D01*
X25537Y90744D01*
X25544Y90769D01*
X25550Y90794D01*
X25555Y90822D01*
X25557Y90851D01*
X25558Y90881D01*
X25812Y90872D01*
D02*
G37*
G36*
X9381Y90702D02*
X9385Y90658D01*
X9391Y90620D01*
X9400Y90586D01*
X9412Y90558D01*
X9426Y90535D01*
X9442Y90517D01*
X9461Y90504D01*
X9483Y90496D01*
X9507Y90494D01*
X8999D01*
X9023Y90496D01*
X9045Y90504D01*
X9064Y90517D01*
X9080Y90535D01*
X9094Y90558D01*
X9106Y90586D01*
X9115Y90620D01*
X9121Y90658D01*
X9125Y90702D01*
X9126Y90751D01*
X9380D01*
X9381Y90702D01*
D02*
G37*
G36*
X14924Y90440D02*
X14873Y90388D01*
X14794Y90294D01*
X14766Y90253D01*
X14744Y90215D01*
X14730Y90181D01*
X14723Y90151D01*
Y90124D01*
X14730Y90101D01*
X14744Y90081D01*
X14385Y90440D01*
X14405Y90426D01*
X14428Y90418D01*
X14455D01*
X14485Y90426D01*
X14520Y90440D01*
X14557Y90462D01*
X14599Y90490D01*
X14644Y90526D01*
X14744Y90620D01*
X14924Y90440D01*
D02*
G37*
G36*
X11105Y90526D02*
X11199Y90446D01*
X11241Y90417D01*
X11278Y90395D01*
X11312Y90381D01*
X11343Y90373D01*
X11370Y90373D01*
X11393Y90380D01*
X11412Y90394D01*
X11056Y90038D01*
X11070Y90057D01*
X11077Y90080D01*
X11077Y90107D01*
X11069Y90138D01*
X11055Y90172D01*
X11033Y90209D01*
X11004Y90251D01*
X10967Y90296D01*
X10873Y90397D01*
X11053Y90577D01*
X11105Y90526D01*
D02*
G37*
G36*
X4651Y90752D02*
X4872Y90565D01*
X4970Y90497D01*
X5059Y90445D01*
X5140Y90411D01*
X5212Y90394D01*
X5275Y90394D01*
X5330Y90410D01*
X5377Y90444D01*
X4531Y89598D01*
X4565Y89645D01*
X4581Y89700D01*
X4581Y89763D01*
X4564Y89835D01*
X4530Y89916D01*
X4478Y90005D01*
X4410Y90103D01*
X4325Y90209D01*
X4104Y90447D01*
X4528Y90871D01*
X4651Y90752D01*
D02*
G37*
G36*
X58306Y89424D02*
X58287Y89438D01*
X58268Y89450D01*
X58247Y89462D01*
X58225Y89471D01*
X58201Y89479D01*
X58176Y89486D01*
X58150Y89491D01*
X58122Y89495D01*
X58093Y89497D01*
X58063Y89498D01*
X58037Y89752D01*
X58068Y89753D01*
X58097Y89756D01*
X58124Y89760D01*
X58149Y89766D01*
X58173Y89774D01*
X58196Y89784D01*
X58216Y89796D01*
X58235Y89810D01*
X58252Y89825D01*
X58268Y89842D01*
X58306Y89424D01*
D02*
G37*
G36*
X12433Y89592D02*
X12425Y89569D01*
Y89542D01*
X12433Y89512D01*
X12447Y89478D01*
X12469Y89440D01*
X12497Y89399D01*
X12533Y89354D01*
X12627Y89253D01*
X12447Y89073D01*
X12395Y89124D01*
X12301Y89203D01*
X12260Y89231D01*
X12222Y89253D01*
X12188Y89267D01*
X12158Y89275D01*
X12131D01*
X12108Y89267D01*
X12088Y89253D01*
X12447Y89612D01*
X12433Y89592D01*
D02*
G37*
G36*
X5891Y90195D02*
X5883Y90128D01*
X5896Y90047D01*
X5928Y89953D01*
X5981Y89845D01*
X6054Y89723D01*
X6147Y89589D01*
X6393Y89278D01*
X6546Y89103D01*
X6099Y88703D01*
X5954Y88860D01*
X5699Y89109D01*
X5588Y89202D01*
X5488Y89273D01*
X5399Y89322D01*
X5322Y89350D01*
X5256Y89357D01*
X5201Y89342D01*
X5158Y89306D01*
X5919Y90248D01*
X5891Y90195D01*
D02*
G37*
G36*
X8828Y87353D02*
X8822Y87400D01*
X8804Y87442D01*
X8774Y87479D01*
X8732Y87511D01*
X8678Y87538D01*
X8612Y87560D01*
X8534Y87578D01*
X8454Y87589D01*
X8366Y87576D01*
X8288Y87556D01*
X8222Y87532D01*
X8168Y87502D01*
X8126Y87467D01*
X8096Y87426D01*
X8078Y87380D01*
X8072Y87328D01*
Y88472D01*
X8078Y88420D01*
X8096Y88374D01*
X8126Y88333D01*
X8168Y88298D01*
X8222Y88268D01*
X8288Y88244D01*
X8366Y88224D01*
X8447Y88212D01*
X8534Y88227D01*
X8612Y88248D01*
X8678Y88274D01*
X8732Y88307D01*
X8774Y88346D01*
X8804Y88390D01*
X8822Y88441D01*
X8828Y88497D01*
Y87353D01*
D02*
G37*
G36*
X13350Y87296D02*
X13344Y87349D01*
X13326Y87396D01*
X13296Y87438D01*
X13254Y87475D01*
X13200Y87505D01*
X13134Y87530D01*
X13056Y87550D01*
X12966Y87564D01*
X12901Y87569D01*
X12830Y87563D01*
X12740Y87548D01*
X12661Y87527D01*
X12595Y87500D01*
X12541Y87467D01*
X12499Y87428D01*
X12468Y87383D01*
X12450Y87332D01*
X12444Y87275D01*
X12447Y88397D01*
X12453Y88355D01*
X12471Y88317D01*
X12501Y88284D01*
X12543Y88255D01*
X12597Y88230D01*
X12663Y88211D01*
X12741Y88195D01*
X12831Y88184D01*
X12893Y88180D01*
X12966Y88186D01*
X13056Y88199D01*
X13134Y88217D01*
X13200Y88241D01*
X13254Y88270D01*
X13296Y88305D01*
X13326Y88345D01*
X13344Y88390D01*
X13350Y88440D01*
Y87296D01*
D02*
G37*
G36*
X4531Y87596D02*
X4529Y87620D01*
X4521Y87642D01*
X4508Y87661D01*
X4490Y87677D01*
X4467Y87691D01*
X4439Y87703D01*
X4405Y87712D01*
X4367Y87718D01*
X4323Y87722D01*
X4274Y87723D01*
Y87977D01*
X4323Y87978D01*
X4367Y87982D01*
X4405Y87988D01*
X4439Y87997D01*
X4467Y88009D01*
X4490Y88023D01*
X4508Y88039D01*
X4521Y88058D01*
X4529Y88080D01*
X4531Y88104D01*
Y87596D01*
D02*
G37*
G36*
X3421Y88080D02*
X3429Y88058D01*
X3442Y88039D01*
X3460Y88023D01*
X3483Y88009D01*
X3511Y87997D01*
X3545Y87988D01*
X3583Y87982D01*
X3627Y87978D01*
X3676Y87977D01*
Y87723D01*
X3627Y87722D01*
X3583Y87718D01*
X3545Y87712D01*
X3511Y87703D01*
X3483Y87691D01*
X3460Y87677D01*
X3442Y87661D01*
X3429Y87642D01*
X3421Y87620D01*
X3419Y87596D01*
Y88104D01*
X3421Y88080D01*
D02*
G37*
G36*
X27161Y87680D02*
X27164Y87651D01*
X27169Y87624D01*
X27175Y87599D01*
X27184Y87576D01*
X27194Y87554D01*
X27207Y87535D01*
X27221Y87518D01*
X27237Y87502D01*
X27255Y87488D01*
X26843Y87410D01*
X26855Y87429D01*
X26865Y87449D01*
X26875Y87471D01*
X26883Y87493D01*
X26890Y87517D01*
X26896Y87543D01*
X26900Y87569D01*
X26905Y87626D01*
X26906Y87657D01*
X27160Y87710D01*
X27161Y87680D01*
D02*
G37*
G36*
X6826Y88795D02*
X7034Y88599D01*
X7126Y88528D01*
X7210Y88474D01*
X7286Y88438D01*
X7355Y88419D01*
X7416Y88418D01*
X7469Y88435D01*
X7515Y88469D01*
X6930Y87864D01*
X7652Y87328D01*
X7599Y87356D01*
X7540Y87369D01*
X7473Y87366D01*
X7399Y87347D01*
X7318Y87312D01*
X7229Y87262D01*
X7134Y87196D01*
X7031Y87114D01*
X6920Y87017D01*
X6803Y86904D01*
X6254Y87203D01*
X6378Y87332D01*
X6572Y87560D01*
X6642Y87659D01*
X6694Y87749D01*
X6723Y87820D01*
X6716Y87854D01*
X6684Y87939D01*
X6635Y88033D01*
X6571Y88137D01*
X6489Y88250D01*
X6278Y88504D01*
X6711Y88919D01*
X6826Y88795D01*
D02*
G37*
G36*
X16636Y87303D02*
X16630Y87353D01*
X16612Y87398D01*
X16582Y87438D01*
X16540Y87473D01*
X16486Y87502D01*
X16420Y87526D01*
X16342Y87544D01*
X16252Y87557D01*
X16150Y87565D01*
X16036Y87568D01*
Y88168D01*
X16150Y88171D01*
X16252Y88179D01*
X16342Y88193D01*
X16420Y88213D01*
X16486Y88238D01*
X16540Y88268D01*
X16582Y88305D01*
X16612Y88347D01*
X16630Y88394D01*
X16636Y88447D01*
Y87303D01*
D02*
G37*
G36*
X14750Y88388D02*
X14768Y88342D01*
X14798Y88301D01*
X14840Y88266D01*
X14894Y88236D01*
X14960Y88212D01*
X15038Y88192D01*
X15128Y88179D01*
X15230Y88171D01*
X15344Y88168D01*
Y87568D01*
X15230Y87565D01*
X15128Y87557D01*
X15038Y87544D01*
X14960Y87524D01*
X14894Y87500D01*
X14840Y87470D01*
X14798Y87435D01*
X14768Y87394D01*
X14750Y87348D01*
X14744Y87296D01*
Y88440D01*
X14750Y88388D01*
D02*
G37*
G36*
X10225Y88418D02*
X10243Y88367D01*
X10274Y88322D01*
X10316Y88283D01*
X10370Y88250D01*
X10436Y88223D01*
X10515Y88202D01*
X10605Y88187D01*
X10640Y88184D01*
X10759Y88195D01*
X10837Y88211D01*
X10903Y88230D01*
X10957Y88255D01*
X10999Y88284D01*
X11029Y88317D01*
X11047Y88355D01*
X11053Y88397D01*
X11056Y87275D01*
X11050Y87332D01*
X11032Y87383D01*
X11001Y87428D01*
X10959Y87467D01*
X10905Y87500D01*
X10839Y87527D01*
X10760Y87548D01*
X10670Y87563D01*
X10635Y87566D01*
X10516Y87555D01*
X10438Y87539D01*
X10372Y87520D01*
X10318Y87495D01*
X10276Y87466D01*
X10246Y87433D01*
X10228Y87395D01*
X10222Y87353D01*
X10219Y88475D01*
X10225Y88418D01*
D02*
G37*
G36*
X58523Y88047D02*
X58566Y88032D01*
X58622Y88019D01*
X58692Y88007D01*
X58870Y87989D01*
X59101Y87979D01*
X59384Y87975D01*
Y87175D01*
X59236Y87174D01*
X58622Y87131D01*
X58566Y87118D01*
X58523Y87103D01*
X58493Y87086D01*
Y88064D01*
X58523Y88047D01*
D02*
G37*
G36*
X12481Y86719D02*
X12500Y86705D01*
X12520Y86693D01*
X12541Y86682D01*
X12564Y86673D01*
X12589Y86665D01*
X12615Y86659D01*
X12642Y86655D01*
X12671Y86653D01*
X12702Y86652D01*
Y86398D01*
X12671Y86397D01*
X12642Y86395D01*
X12615Y86391D01*
X12589Y86385D01*
X12564Y86377D01*
X12541Y86368D01*
X12520Y86357D01*
X12500Y86345D01*
X12481Y86331D01*
X12464Y86315D01*
Y86735D01*
X12481Y86719D01*
D02*
G37*
G36*
X59224Y84700D02*
X59088Y84697D01*
X58969Y84688D01*
X58866Y84673D01*
X58781Y84652D01*
X58712Y84625D01*
X58660Y84592D01*
X58625Y84553D01*
X58607Y84508D01*
X58606Y84457D01*
X58621Y84400D01*
X58362Y85049D01*
X58027Y85097D01*
X57630Y85177D01*
X57568Y85210D01*
X57597Y85237D01*
X57718Y85260D01*
X57930Y85277D01*
X58627Y85297D01*
X59112Y85300D01*
X59224Y84700D01*
D02*
G37*
G36*
X57644Y84004D02*
X57599Y84038D01*
X57545Y84056D01*
X57482Y84056D01*
X57410Y84039D01*
X57330Y84005D01*
X57240Y83954D01*
X57142Y83885D01*
X57036Y83799D01*
X56796Y83577D01*
X56402Y84031D01*
X56473Y84106D01*
X56539Y84183D01*
X56598Y84262D01*
X56650Y84342D01*
X56697Y84424D01*
X56737Y84507D01*
X56771Y84592D01*
X56798Y84678D01*
X56820Y84766D01*
X56835Y84855D01*
X57644Y84004D01*
D02*
G37*
G36*
X63348Y84705D02*
X63410Y84656D01*
X63474Y84613D01*
X63540Y84576D01*
X63609Y84544D01*
X63681Y84519D01*
X63755Y84499D01*
X63831Y84485D01*
X63910Y84477D01*
X63992Y84475D01*
X63150Y83633D01*
X63148Y83715D01*
X63140Y83794D01*
X63126Y83870D01*
X63106Y83944D01*
X63081Y84016D01*
X63049Y84085D01*
X63012Y84151D01*
X62969Y84215D01*
X62920Y84277D01*
X62865Y84336D01*
X63289Y84760D01*
X63348Y84705D01*
D02*
G37*
G36*
X56525Y83306D02*
X56449Y83228D01*
X56215Y82956D01*
X56174Y82898D01*
X56141Y82844D01*
X56115Y82794D01*
X56096Y82748D01*
X56085Y82706D01*
X55373Y83423D01*
X55419Y83389D01*
X55474Y83372D01*
X55537Y83373D01*
X55609Y83390D01*
X55690Y83424D01*
X55779Y83475D01*
X55876Y83544D01*
X55983Y83629D01*
X56221Y83850D01*
X56525Y83306D01*
D02*
G37*
G36*
X53647Y83898D02*
X53678Y83897D01*
X54600Y83893D01*
Y83093D01*
X54532Y83091D01*
X54471Y83085D01*
X54416Y83074D01*
X54368Y83060D01*
X54326Y83041D01*
X54291Y83018D01*
X54262Y82991D01*
X54240Y82960D01*
X54225Y82925D01*
X54215Y82886D01*
X53634Y83900D01*
X53647Y83898D01*
D02*
G37*
G36*
X55969Y82590D02*
X55927Y82579D01*
X55881Y82560D01*
X55831Y82534D01*
X55777Y82501D01*
X55719Y82460D01*
X55591Y82358D01*
X55447Y82226D01*
X55369Y82150D01*
X54726Y82355D01*
X54850Y82484D01*
X55044Y82712D01*
X55114Y82811D01*
X55166Y82901D01*
X55199Y82980D01*
X55215Y83050D01*
X55212Y83111D01*
X55191Y83162D01*
X55152Y83202D01*
X55969Y82590D01*
D02*
G37*
G36*
X54533Y81313D02*
X54474Y81250D01*
X54422Y81182D01*
X54376Y81110D01*
X54336Y81035D01*
X54303Y80955D01*
X54276Y80871D01*
X54255Y80783D01*
X54240Y80691D01*
X54232Y80595D01*
X54230Y80495D01*
X53290Y81435D01*
X53390Y81437D01*
X53486Y81445D01*
X53578Y81460D01*
X53666Y81481D01*
X53750Y81508D01*
X53830Y81541D01*
X53905Y81581D01*
X53977Y81627D01*
X54045Y81679D01*
X54108Y81738D01*
X54533Y81313D01*
D02*
G37*
G36*
X42578D02*
X42519Y81250D01*
X42467Y81182D01*
X42421Y81110D01*
X42381Y81035D01*
X42348Y80955D01*
X42321Y80871D01*
X42300Y80783D01*
X42285Y80691D01*
X42277Y80595D01*
X42275Y80495D01*
X41334Y81435D01*
X41435Y81437D01*
X41531Y81445D01*
X41623Y81460D01*
X41711Y81481D01*
X41795Y81508D01*
X41875Y81541D01*
X41950Y81581D01*
X42022Y81627D01*
X42090Y81679D01*
X42153Y81738D01*
X42578Y81313D01*
D02*
G37*
G36*
X40395Y79058D02*
X40454Y79021D01*
X40524Y78989D01*
X40605Y78961D01*
X40696Y78938D01*
X40799Y78920D01*
X40912Y78906D01*
X41170Y78891D01*
X41315Y78890D01*
X40375Y77950D01*
X40374Y78095D01*
X40359Y78353D01*
X40345Y78466D01*
X40327Y78569D01*
X40304Y78660D01*
X40276Y78741D01*
X40244Y78811D01*
X40207Y78870D01*
X40166Y78919D01*
X40346Y79099D01*
X40395Y79058D01*
D02*
G37*
G36*
Y76518D02*
X40454Y76481D01*
X40524Y76449D01*
X40605Y76421D01*
X40696Y76398D01*
X40799Y76380D01*
X40912Y76366D01*
X41170Y76351D01*
X41315Y76350D01*
X40375Y75410D01*
X40374Y75555D01*
X40359Y75813D01*
X40345Y75926D01*
X40327Y76029D01*
X40304Y76120D01*
X40276Y76201D01*
X40244Y76271D01*
X40207Y76330D01*
X40166Y76379D01*
X40346Y76559D01*
X40395Y76518D01*
D02*
G37*
G36*
X64108Y72045D02*
X64106Y72019D01*
X64100Y71393D01*
X64100Y71241D01*
X63991D01*
X64016Y71217D01*
X64078Y71165D01*
X64107Y71145D01*
X64134Y71130D01*
X64159Y71119D01*
X64183Y71112D01*
X64205Y71109D01*
X64226Y71110D01*
X64245Y71115D01*
X64054Y69914D01*
X64051Y69942D01*
X64037Y69979D01*
X64010Y70025D01*
X63972Y70081D01*
X63921Y70147D01*
X63783Y70306D01*
X63485Y70615D01*
X63977Y71241D01*
X63300D01*
X63290Y72056D01*
X64110D01*
X64108Y72045D01*
D02*
G37*
G36*
X66502Y66245D02*
X66518Y66082D01*
X66531Y66009D01*
X66549Y65941D01*
X66570Y65878D01*
X66596Y65821D01*
X66625Y65769D01*
X66658Y65723D01*
X66695Y65682D01*
X65505D01*
X65542Y65723D01*
X65575Y65769D01*
X65604Y65821D01*
X65630Y65878D01*
X65651Y65941D01*
X65669Y66009D01*
X65682Y66082D01*
X65692Y66161D01*
X65698Y66245D01*
X65700Y66335D01*
X66500D01*
X66502Y66245D01*
D02*
G37*
G36*
X23251Y63859D02*
X23256Y63820D01*
X23263Y63784D01*
X23273Y63752D01*
X23286Y63724D01*
X23302Y63699D01*
X23321Y63679D01*
X23343Y63662D01*
X23368Y63649D01*
X23396Y63639D01*
X22853Y63621D01*
X22880Y63632D01*
X22904Y63647D01*
X22926Y63666D01*
X22944Y63689D01*
X22960Y63715D01*
X22973Y63745D01*
X22983Y63779D01*
X22990Y63816D01*
X22994Y63857D01*
X22996Y63902D01*
X23250D01*
X23251Y63859D01*
D02*
G37*
G36*
X44416Y60941D02*
X44384Y60907D01*
X44357Y60872D01*
X44335Y60838D01*
X44318Y60805D01*
X44306Y60771D01*
X44299Y60738D01*
X44297Y60706D01*
X44301Y60673D01*
X44309Y60641D01*
X44322Y60609D01*
X43904Y61027D01*
X43936Y61014D01*
X43968Y61006D01*
X44001Y61002D01*
X44033Y61004D01*
X44066Y61011D01*
X44100Y61023D01*
X44133Y61040D01*
X44167Y61062D01*
X44202Y61089D01*
X44236Y61121D01*
X44416Y60941D01*
D02*
G37*
G36*
X67200Y61878D02*
X67202Y61740D01*
X67229Y61384D01*
X67245Y61285D01*
X67265Y61195D01*
X67288Y61115D01*
X67315Y61044D01*
X67346Y60983D01*
X67380Y60931D01*
X66120D01*
X66173Y61006D01*
X66221Y61086D01*
X66263Y61171D01*
X66299Y61261D01*
X66330Y61355D01*
X66355Y61454D01*
X66375Y61558D01*
X66389Y61667D01*
X66397Y61780D01*
X66400Y61898D01*
X67200Y61878D01*
D02*
G37*
G36*
X46029Y60794D02*
X46048Y60780D01*
X46068Y60768D01*
X46089Y60757D01*
X46112Y60748D01*
X46137Y60740D01*
X46163Y60734D01*
X46190Y60730D01*
X46219Y60728D01*
X46250Y60727D01*
Y60473D01*
X46219Y60472D01*
X46190Y60470D01*
X46163Y60466D01*
X46137Y60460D01*
X46112Y60452D01*
X46089Y60443D01*
X46068Y60432D01*
X46048Y60420D01*
X46029Y60406D01*
X46012Y60390D01*
Y60810D01*
X46029Y60794D01*
D02*
G37*
G36*
X39554Y61159D02*
X39513Y61110D01*
X39476Y61051D01*
X39444Y60981D01*
X39416Y60900D01*
X39393Y60809D01*
X39375Y60706D01*
X39361Y60593D01*
X39346Y60335D01*
X39345Y60189D01*
X38404Y61130D01*
X38550Y61131D01*
X38808Y61146D01*
X38921Y61160D01*
X39024Y61178D01*
X39115Y61201D01*
X39196Y61229D01*
X39266Y61261D01*
X39325Y61298D01*
X39374Y61339D01*
X39554Y61159D01*
D02*
G37*
G36*
X4445Y61298D02*
X4504Y61261D01*
X4574Y61229D01*
X4655Y61201D01*
X4746Y61178D01*
X4849Y61160D01*
X4962Y61146D01*
X5220Y61131D01*
X5365Y61130D01*
X4425Y60189D01*
X4424Y60335D01*
X4409Y60593D01*
X4395Y60706D01*
X4377Y60809D01*
X4354Y60900D01*
X4326Y60981D01*
X4294Y61051D01*
X4257Y61110D01*
X4216Y61159D01*
X4396Y61339D01*
X4445Y61298D01*
D02*
G37*
G36*
X41886Y60025D02*
X41901Y59767D01*
X41915Y59654D01*
X41933Y59551D01*
X41956Y59460D01*
X41984Y59379D01*
X42016Y59309D01*
X42053Y59250D01*
X42094Y59201D01*
X41914Y59021D01*
X41865Y59062D01*
X41806Y59099D01*
X41736Y59131D01*
X41655Y59159D01*
X41564Y59182D01*
X41461Y59200D01*
X41348Y59214D01*
X41090Y59229D01*
X40944Y59230D01*
X41885Y60171D01*
X41886Y60025D01*
D02*
G37*
G36*
X10446Y59230D02*
X10300Y59229D01*
X10042Y59214D01*
X9929Y59200D01*
X9826Y59182D01*
X9735Y59159D01*
X9654Y59131D01*
X9584Y59099D01*
X9525Y59062D01*
X9476Y59021D01*
X9296Y59201D01*
X9337Y59250D01*
X9374Y59309D01*
X9406Y59379D01*
X9434Y59460D01*
X9457Y59551D01*
X9475Y59654D01*
X9489Y59767D01*
X9504Y60025D01*
X9505Y60171D01*
X10446Y59230D01*
D02*
G37*
G36*
X7905D02*
X7760Y59229D01*
X7502Y59214D01*
X7389Y59200D01*
X7286Y59182D01*
X7195Y59159D01*
X7114Y59131D01*
X7044Y59099D01*
X6985Y59062D01*
X6936Y59021D01*
X6756Y59201D01*
X6797Y59250D01*
X6834Y59309D01*
X6866Y59379D01*
X6894Y59460D01*
X6917Y59551D01*
X6935Y59654D01*
X6949Y59767D01*
X6964Y60025D01*
X6965Y60171D01*
X7905Y59230D01*
D02*
G37*
G36*
X61407Y55742D02*
X61421Y55680D01*
X61444Y55614D01*
X61477Y55545D01*
X61519Y55472D01*
X61570Y55396D01*
X61631Y55317D01*
X61781Y55147D01*
X61870Y55057D01*
X60680D01*
X60769Y55147D01*
X60919Y55317D01*
X60980Y55396D01*
X61031Y55472D01*
X61073Y55545D01*
X61106Y55614D01*
X61129Y55680D01*
X61143Y55742D01*
X61148Y55800D01*
X61402D01*
X61407Y55742D01*
D02*
G37*
G36*
X42591Y55019D02*
X42574Y55003D01*
X42559Y54986D01*
X42546Y54967D01*
X42534Y54946D01*
X42524Y54924D01*
X42516Y54900D01*
X42510Y54875D01*
X42506Y54847D01*
X42503Y54818D01*
X42502Y54788D01*
X42248Y54811D01*
X42247Y54842D01*
X42245Y54871D01*
X42241Y54899D01*
X42236Y54925D01*
X42229Y54950D01*
X42221Y54973D01*
X42211Y54996D01*
X42200Y55016D01*
X42187Y55036D01*
X42173Y55054D01*
X42591Y55019D01*
D02*
G37*
G36*
X36694Y55547D02*
X36834Y55425D01*
X36900Y55376D01*
X36962Y55334D01*
X37022Y55300D01*
X37078Y55274D01*
X37132Y55255D01*
X37183Y55244D01*
X37230Y55241D01*
X36290Y54300D01*
X36287Y54348D01*
X36276Y54399D01*
X36257Y54453D01*
X36231Y54509D01*
X36197Y54569D01*
X36155Y54631D01*
X36106Y54697D01*
X35984Y54837D01*
X35912Y54912D01*
X36619Y55619D01*
X36694Y55547D01*
D02*
G37*
G36*
X42503Y54402D02*
X42507Y54358D01*
X42513Y54320D01*
X42522Y54286D01*
X42534Y54258D01*
X42548Y54235D01*
X42564Y54217D01*
X42583Y54204D01*
X42605Y54196D01*
X42629Y54194D01*
X42121D01*
X42145Y54196D01*
X42167Y54204D01*
X42186Y54217D01*
X42202Y54235D01*
X42216Y54258D01*
X42228Y54286D01*
X42237Y54320D01*
X42243Y54358D01*
X42247Y54402D01*
X42248Y54451D01*
X42502D01*
X42503Y54402D01*
D02*
G37*
G36*
X21060Y55369D02*
X21129Y55317D01*
X21201Y55274D01*
X21275Y55240D01*
X21353Y55215D01*
X21433Y55198D01*
X21516Y55189D01*
X21603Y55190D01*
X21692Y55199D01*
X21784Y55216D01*
X21071Y54094D01*
X21047Y54195D01*
X20988Y54385D01*
X20954Y54473D01*
X20915Y54557D01*
X20874Y54635D01*
X20828Y54709D01*
X20779Y54779D01*
X20727Y54844D01*
X20670Y54904D01*
X20994Y55429D01*
X21060Y55369D01*
D02*
G37*
G36*
X63766Y53600D02*
X63685Y53598D01*
X63606Y53590D01*
X63530Y53576D01*
X63456Y53556D01*
X63384Y53531D01*
X63315Y53499D01*
X63249Y53462D01*
X63185Y53419D01*
X63123Y53370D01*
X63064Y53315D01*
X62640Y53739D01*
X62695Y53798D01*
X62744Y53860D01*
X62787Y53924D01*
X62824Y53990D01*
X62856Y54059D01*
X62881Y54131D01*
X62901Y54205D01*
X62915Y54281D01*
X62923Y54360D01*
X62925Y54442D01*
X63766Y53600D01*
D02*
G37*
G36*
X35653Y54208D02*
X35663Y54134D01*
X35679Y54061D01*
X35703Y53988D01*
X35734Y53916D01*
X35772Y53844D01*
X35818Y53773D01*
X35870Y53702D01*
X35929Y53632D01*
X35995Y53561D01*
X35430Y52996D01*
X35360Y53062D01*
X35289Y53121D01*
X35218Y53173D01*
X35147Y53219D01*
X35075Y53257D01*
X35003Y53288D01*
X34930Y53312D01*
X34857Y53328D01*
X34783Y53338D01*
X34709Y53341D01*
X35650Y54282D01*
X35653Y54208D01*
D02*
G37*
G36*
X32151Y53341D02*
X32077Y53338D01*
X32003Y53328D01*
X31930Y53312D01*
X31857Y53288D01*
X31785Y53257D01*
X31713Y53219D01*
X31642Y53173D01*
X31571Y53121D01*
X31500Y53062D01*
X31430Y52996D01*
X30865Y53561D01*
X30931Y53632D01*
X30990Y53702D01*
X31042Y53773D01*
X31088Y53844D01*
X31126Y53916D01*
X31157Y53988D01*
X31181Y54061D01*
X31197Y54134D01*
X31207Y54208D01*
X31210Y54282D01*
X32151Y53341D01*
D02*
G37*
G36*
X29611D02*
X29537Y53338D01*
X29463Y53328D01*
X29390Y53312D01*
X29317Y53288D01*
X29245Y53257D01*
X29173Y53219D01*
X29102Y53173D01*
X29031Y53121D01*
X28961Y53062D01*
X28890Y52996D01*
X28325Y53561D01*
X28391Y53632D01*
X28450Y53702D01*
X28502Y53773D01*
X28548Y53844D01*
X28586Y53916D01*
X28617Y53988D01*
X28641Y54061D01*
X28657Y54134D01*
X28667Y54208D01*
X28670Y54282D01*
X29611Y53341D01*
D02*
G37*
G36*
X27070D02*
X26997Y53338D01*
X26923Y53328D01*
X26850Y53312D01*
X26777Y53288D01*
X26705Y53257D01*
X26633Y53219D01*
X26562Y53173D01*
X26491Y53121D01*
X26420Y53062D01*
X26350Y52996D01*
X25785Y53561D01*
X25851Y53632D01*
X25910Y53702D01*
X25962Y53773D01*
X26008Y53844D01*
X26046Y53916D01*
X26077Y53988D01*
X26101Y54061D01*
X26117Y54134D01*
X26127Y54208D01*
X26130Y54282D01*
X27070Y53341D01*
D02*
G37*
G36*
X24536Y53336D02*
X24462Y53333D01*
X24388Y53323D01*
X24315Y53306D01*
X24242Y53283D01*
X24170Y53252D01*
X24098Y53214D01*
X24027Y53168D01*
X23956Y53116D01*
X23886Y53057D01*
X23816Y52991D01*
X23250Y53556D01*
X23316Y53626D01*
X23375Y53697D01*
X23427Y53768D01*
X23473Y53839D01*
X23511Y53911D01*
X23542Y53983D01*
X23566Y54056D01*
X23582Y54129D01*
X23592Y54202D01*
X23595Y54276D01*
X24536Y53336D01*
D02*
G37*
G36*
X42567Y53201D02*
X42546Y53193D01*
X42527Y53180D01*
X42510Y53162D01*
X42496Y53140D01*
X42485Y53112D01*
X42476Y53079D01*
X42470Y53040D01*
X42466Y52997D01*
X42465Y52949D01*
X42210D01*
X42209Y52997D01*
X42205Y53040D01*
X42199Y53079D01*
X42190Y53112D01*
X42179Y53140D01*
X42165Y53162D01*
X42148Y53180D01*
X42129Y53193D01*
X42108Y53201D01*
X42083Y53203D01*
X42591D01*
X42567Y53201D01*
D02*
G37*
G36*
X4786Y52957D02*
X4807Y52628D01*
X4815Y52587D01*
X4824Y52554D01*
X4834Y52530D01*
X4845Y52514D01*
X3726D01*
X3737Y52530D01*
X3747Y52554D01*
X3756Y52587D01*
X3764Y52628D01*
X3770Y52677D01*
X3780Y52800D01*
X3786Y53048D01*
X4786D01*
X4786Y52957D01*
D02*
G37*
G36*
X42466Y52677D02*
X42470Y52633D01*
X42476Y52595D01*
X42485Y52561D01*
X42496Y52533D01*
X42510Y52510D01*
X42527Y52492D01*
X42546Y52479D01*
X42567Y52471D01*
X42591Y52469D01*
X42083D01*
X42108Y52471D01*
X42129Y52479D01*
X42148Y52492D01*
X42165Y52510D01*
X42179Y52533D01*
X42190Y52561D01*
X42199Y52595D01*
X42205Y52633D01*
X42209Y52677D01*
X42210Y52726D01*
X42465D01*
X42466Y52677D01*
D02*
G37*
G36*
X18387Y54933D02*
X18334Y54841D01*
X19460D01*
Y53741D01*
X18334D01*
X18460Y53523D01*
X18692Y53291D01*
X18860Y53194D01*
X18852Y53052D01*
X16303Y51962D01*
X14925D01*
X14925Y51962D01*
X14690Y51931D01*
X14471Y51840D01*
X14283Y51696D01*
X14283Y51696D01*
X14016Y51429D01*
X12700D01*
Y50421D01*
X11600Y49950D01*
X10875Y49225D01*
Y39081D01*
X8917D01*
X8904Y39097D01*
X7786D01*
X6667D01*
X6654Y39081D01*
X5846D01*
X5733Y39194D01*
X5730Y39198D01*
X5623Y39310D01*
X5585Y39354D01*
Y39668D01*
X5497Y39999D01*
X5326Y40295D01*
X5084Y40537D01*
X4787Y40708D01*
X4457Y40797D01*
X4114D01*
X3784Y40708D01*
X3487Y40537D01*
X3245Y40295D01*
X3074Y39999D01*
X2986Y39668D01*
Y39326D01*
X3074Y38995D01*
X3245Y38699D01*
X3487Y38457D01*
X3784Y38286D01*
X3812Y38278D01*
X3819Y38271D01*
X3872Y38201D01*
X4268Y37805D01*
X4311Y37761D01*
X4316Y37757D01*
X4326Y37747D01*
X4330Y37743D01*
X4333Y37741D01*
X4715Y37359D01*
X4924Y37199D01*
X5167Y37098D01*
X5428Y37063D01*
X10875D01*
Y26973D01*
X10769Y26902D01*
X10716Y26924D01*
X10455Y26959D01*
X5725D01*
X5463Y26924D01*
X5220Y26823D01*
X5124Y26750D01*
X4400D01*
X3075Y25425D01*
Y25014D01*
X3074Y25013D01*
X2986Y24682D01*
Y24340D01*
X3074Y24009D01*
X3075Y24008D01*
Y23831D01*
X3856Y23050D01*
X4700D01*
X5800Y24150D01*
X5725Y24226D01*
Y24521D01*
X5729Y24526D01*
X5783Y24580D01*
X5786Y24585D01*
X6142Y24941D01*
X6631D01*
X6654Y24911D01*
X7786D01*
X8917D01*
X8940Y24941D01*
X10037D01*
X10441Y24537D01*
X10650Y24376D01*
X10894Y24276D01*
X11155Y24241D01*
X15383D01*
X15644Y24276D01*
X15887Y24376D01*
X16096Y24537D01*
X16185Y24625D01*
X19600D01*
X20823Y23402D01*
X20688Y23168D01*
X20541D01*
X20460Y23309D01*
X20228Y23541D01*
X20010Y23667D01*
Y22541D01*
X19460D01*
Y21991D01*
X18334D01*
X18460Y21773D01*
X18541Y21692D01*
X18492Y21575D01*
X14775D01*
X14700Y21650D01*
X12729Y19679D01*
X12700D01*
Y19650D01*
X12100Y19050D01*
X8100D01*
X4850Y15800D01*
Y14489D01*
X4665D01*
X4666Y14486D01*
X4685Y14414D01*
X4707Y14358D01*
X4733Y14318D01*
X4762Y14294D01*
X4795Y14286D01*
X4653D01*
Y13589D01*
Y12892D01*
X4795D01*
X4743Y12886D01*
X4697Y12868D01*
X4656Y12838D01*
X4653Y12834D01*
Y12689D01*
X4850D01*
Y10679D01*
X4653D01*
Y10534D01*
X4656Y10530D01*
X4697Y10500D01*
X4743Y10482D01*
X4795Y10476D01*
X4653D01*
Y9789D01*
X4795Y9931D01*
X4761Y9884D01*
X4744Y9829D01*
Y9765D01*
X4761Y9693D01*
X4795Y9612D01*
X4846Y9523D01*
X4914Y9426D01*
X4999Y9320D01*
X5219Y9082D01*
X4850Y8713D01*
Y8550D01*
X3800Y7500D01*
X3725D01*
X3180Y7414D01*
X2753Y7275D01*
X2025D01*
X950Y8375D01*
Y47950D01*
X1700Y48700D01*
X1825Y48675D01*
X1905D01*
X1957Y48668D01*
X3844D01*
X3896Y48675D01*
X6550D01*
Y50898D01*
X6644Y50992D01*
X6772Y51159D01*
X6793Y51209D01*
X6819Y51223D01*
X6940Y51233D01*
X7110Y51063D01*
X7361Y50918D01*
X7385Y50911D01*
Y51943D01*
Y52975D01*
X7361Y52968D01*
X7110Y52823D01*
X7007Y52720D01*
X6880Y52773D01*
X6880Y53280D01*
X8643Y55043D01*
X18324D01*
X18387Y54933D01*
D02*
G37*
G36*
X54156Y50390D02*
X54150Y50447D01*
X54132Y50498D01*
X54102Y50543D01*
X54060Y50582D01*
X54005Y50615D01*
X53939Y50642D01*
X53861Y50663D01*
X53770Y50678D01*
X53678Y50686D01*
X53585Y50678D01*
X53494Y50663D01*
X53416Y50642D01*
X53350Y50615D01*
X53295Y50582D01*
X53253Y50543D01*
X53223Y50498D01*
X53205Y50447D01*
X53199Y50390D01*
Y51590D01*
X53205Y51533D01*
X53223Y51482D01*
X53253Y51437D01*
X53295Y51398D01*
X53350Y51365D01*
X53416Y51338D01*
X53494Y51317D01*
X53585Y51302D01*
X53678Y51294D01*
X53770Y51302D01*
X53861Y51317D01*
X53939Y51338D01*
X54005Y51365D01*
X54060Y51398D01*
X54102Y51437D01*
X54132Y51482D01*
X54150Y51533D01*
X54156Y51590D01*
Y50390D01*
D02*
G37*
G36*
X44163Y51472D02*
X44155Y51454D01*
X44148Y51424D01*
X44142Y51382D01*
X44133Y51262D01*
X44125Y50878D01*
X43525D01*
X43525Y50992D01*
X43495Y51454D01*
X43487Y51472D01*
X43478Y51478D01*
X44172D01*
X44163Y51472D01*
D02*
G37*
G36*
X56050Y51533D02*
X56068Y51482D01*
X56098Y51437D01*
X56140Y51398D01*
X56195Y51365D01*
X56261Y51338D01*
X56339Y51317D01*
X56430Y51302D01*
X56532Y51293D01*
X56647Y51290D01*
Y50690D01*
X56532Y50687D01*
X56430Y50678D01*
X56339Y50663D01*
X56261Y50642D01*
X56195Y50615D01*
X56140Y50582D01*
X56098Y50543D01*
X56068Y50498D01*
X56050Y50447D01*
X56044Y50390D01*
Y51590D01*
X56050Y51533D01*
D02*
G37*
G36*
X15112Y48176D02*
X15052Y48114D01*
X14952Y47995D01*
X14911Y47939D01*
X14877Y47884D01*
X14849Y47831D01*
X14827Y47780D01*
X14812Y47730D01*
X14803Y47683D01*
X14800Y47637D01*
X14008Y48429D01*
X14054Y48432D01*
X14101Y48441D01*
X14151Y48456D01*
X14202Y48478D01*
X14255Y48506D01*
X14309Y48540D01*
X14366Y48581D01*
X14424Y48628D01*
X14546Y48741D01*
X15112Y48176D01*
D02*
G37*
G36*
X53581Y47044D02*
X53600Y47030D01*
X53620Y47018D01*
X53641Y47007D01*
X53664Y46998D01*
X53689Y46990D01*
X53715Y46984D01*
X53742Y46980D01*
X53771Y46978D01*
X53802Y46977D01*
Y46723D01*
X53771Y46722D01*
X53742Y46720D01*
X53715Y46716D01*
X53689Y46710D01*
X53664Y46702D01*
X53641Y46693D01*
X53620Y46682D01*
X53600Y46670D01*
X53581Y46656D01*
X53564Y46640D01*
Y47060D01*
X53581Y47044D01*
D02*
G37*
G36*
X62731Y46596D02*
X62729Y46620D01*
X62721Y46642D01*
X62708Y46661D01*
X62690Y46677D01*
X62667Y46691D01*
X62639Y46703D01*
X62605Y46712D01*
X62567Y46718D01*
X62523Y46722D01*
X62474Y46723D01*
Y46977D01*
X62523Y46978D01*
X62567Y46982D01*
X62605Y46988D01*
X62639Y46997D01*
X62667Y47009D01*
X62690Y47023D01*
X62708Y47039D01*
X62721Y47058D01*
X62729Y47080D01*
X62731Y47104D01*
Y46596D01*
D02*
G37*
G36*
X58321Y47080D02*
X58329Y47058D01*
X58342Y47039D01*
X58360Y47023D01*
X58383Y47009D01*
X58411Y46997D01*
X58445Y46988D01*
X58483Y46982D01*
X58527Y46978D01*
X58576Y46977D01*
Y46723D01*
X58527Y46722D01*
X58483Y46718D01*
X58445Y46712D01*
X58411Y46703D01*
X58383Y46691D01*
X58360Y46677D01*
X58342Y46661D01*
X58329Y46642D01*
X58321Y46620D01*
X58319Y46596D01*
Y47104D01*
X58321Y47080D01*
D02*
G37*
G36*
X56931Y46596D02*
X56929Y46620D01*
X56921Y46642D01*
X56908Y46661D01*
X56890Y46677D01*
X56867Y46691D01*
X56839Y46703D01*
X56805Y46712D01*
X56767Y46718D01*
X56723Y46722D01*
X56674Y46723D01*
Y46977D01*
X56723Y46978D01*
X56767Y46982D01*
X56805Y46988D01*
X56839Y46997D01*
X56867Y47009D01*
X56890Y47023D01*
X56908Y47039D01*
X56921Y47058D01*
X56929Y47080D01*
X56931Y47104D01*
Y46596D01*
D02*
G37*
G36*
X15112Y45676D02*
X15052Y45614D01*
X14952Y45495D01*
X14911Y45439D01*
X14877Y45384D01*
X14849Y45331D01*
X14827Y45280D01*
X14812Y45230D01*
X14803Y45183D01*
X14800Y45137D01*
X14008Y45929D01*
X14054Y45932D01*
X14101Y45941D01*
X14151Y45956D01*
X14202Y45978D01*
X14255Y46006D01*
X14309Y46040D01*
X14366Y46081D01*
X14424Y46128D01*
X14546Y46241D01*
X15112Y45676D01*
D02*
G37*
G36*
Y43176D02*
X15052Y43114D01*
X14952Y42995D01*
X14911Y42939D01*
X14877Y42884D01*
X14849Y42831D01*
X14827Y42780D01*
X14812Y42730D01*
X14803Y42683D01*
X14800Y42637D01*
X14008Y43429D01*
X14054Y43432D01*
X14101Y43441D01*
X14151Y43456D01*
X14202Y43478D01*
X14255Y43506D01*
X14309Y43540D01*
X14366Y43581D01*
X14424Y43628D01*
X14546Y43741D01*
X15112Y43176D01*
D02*
G37*
G36*
X34022Y41626D02*
X33949Y41695D01*
X33875Y41757D01*
X33800Y41812D01*
X33723Y41860D01*
X33644Y41900D01*
X33564Y41933D01*
X33483Y41958D01*
X33430Y41970D01*
X33377Y41958D01*
X33296Y41933D01*
X33216Y41900D01*
X33137Y41860D01*
X33060Y41812D01*
X32985Y41757D01*
X32911Y41695D01*
X32838Y41626D01*
Y42956D01*
X32911Y42887D01*
X32985Y42825D01*
X33060Y42770D01*
X33137Y42722D01*
X33216Y42682D01*
X33296Y42649D01*
X33377Y42624D01*
X33430Y42612D01*
X33483Y42624D01*
X33564Y42649D01*
X33644Y42682D01*
X33723Y42722D01*
X33800Y42770D01*
X33875Y42825D01*
X33949Y42887D01*
X34022Y42956D01*
Y41626D01*
D02*
G37*
G36*
X31482D02*
X31409Y41695D01*
X31335Y41757D01*
X31260Y41812D01*
X31183Y41860D01*
X31104Y41900D01*
X31024Y41933D01*
X30943Y41958D01*
X30890Y41970D01*
X30837Y41958D01*
X30756Y41933D01*
X30676Y41900D01*
X30597Y41860D01*
X30520Y41812D01*
X30445Y41757D01*
X30371Y41695D01*
X30298Y41626D01*
Y42956D01*
X30371Y42887D01*
X30445Y42825D01*
X30520Y42770D01*
X30597Y42722D01*
X30676Y42682D01*
X30756Y42649D01*
X30837Y42624D01*
X30890Y42612D01*
X30943Y42624D01*
X31024Y42649D01*
X31104Y42682D01*
X31183Y42722D01*
X31260Y42770D01*
X31335Y42825D01*
X31409Y42887D01*
X31482Y42956D01*
Y41626D01*
D02*
G37*
G36*
X26403Y41624D02*
X26331Y41693D01*
X26257Y41755D01*
X26181Y41810D01*
X26104Y41857D01*
X26025Y41897D01*
X25945Y41930D01*
X25864Y41956D01*
X25814Y41967D01*
X25763Y41956D01*
X25682Y41930D01*
X25602Y41897D01*
X25523Y41857D01*
X25446Y41809D01*
X25371Y41754D01*
X25297Y41692D01*
X25225Y41623D01*
X25222Y42953D01*
X25294Y42884D01*
X25368Y42822D01*
X25444Y42767D01*
X25521Y42720D01*
X25600Y42680D01*
X25680Y42647D01*
X25761Y42621D01*
X25812Y42610D01*
X25862Y42621D01*
X25944Y42647D01*
X26024Y42680D01*
X26102Y42720D01*
X26179Y42768D01*
X26254Y42823D01*
X26328Y42885D01*
X26400Y42954D01*
X26403Y41624D01*
D02*
G37*
G36*
X62731Y42450D02*
X62725Y42507D01*
X62707Y42558D01*
X62676Y42603D01*
X62634Y42642D01*
X62580Y42675D01*
X62514Y42702D01*
X62435Y42723D01*
X62345Y42738D01*
X62242Y42747D01*
X62128Y42750D01*
Y43350D01*
X62242Y43353D01*
X62344Y43362D01*
X62434Y43377D01*
X62512Y43398D01*
X62578Y43424D01*
X62632Y43457D01*
X62674Y43495D01*
X62704Y43540D01*
X62722Y43591D01*
X62728Y43647D01*
X62731Y42450D01*
D02*
G37*
G36*
X58328Y43591D02*
X58346Y43540D01*
X58376Y43495D01*
X58418Y43457D01*
X58472Y43424D01*
X58538Y43398D01*
X58616Y43377D01*
X58706Y43362D01*
X58808Y43353D01*
X58922Y43350D01*
Y42750D01*
X58808Y42747D01*
X58705Y42738D01*
X58615Y42723D01*
X58536Y42702D01*
X58470Y42675D01*
X58416Y42642D01*
X58374Y42603D01*
X58343Y42558D01*
X58325Y42507D01*
X58319Y42450D01*
X58322Y43647D01*
X58328Y43591D01*
D02*
G37*
G36*
X64124Y43421D02*
X64141Y43378D01*
X64169Y43340D01*
X64208Y43308D01*
X64258Y43280D01*
X64319Y43257D01*
X64391Y43240D01*
X64474Y43227D01*
X64568Y43220D01*
X64674Y43217D01*
Y42617D01*
X64568Y42615D01*
X64474Y42607D01*
X64391Y42595D01*
X64319Y42577D01*
X64258Y42554D01*
X64208Y42527D01*
X64169Y42494D01*
X64141Y42456D01*
X64124Y42413D01*
X64119Y42366D01*
Y43469D01*
X64124Y43421D01*
D02*
G37*
G36*
X29611Y41341D02*
X29510Y41339D01*
X29414Y41331D01*
X29322Y41316D01*
X29234Y41295D01*
X29150Y41268D01*
X29070Y41235D01*
X28995Y41195D01*
X28923Y41149D01*
X28855Y41097D01*
X28792Y41038D01*
X28367Y41463D01*
X28426Y41526D01*
X28478Y41594D01*
X28524Y41666D01*
X28564Y41741D01*
X28597Y41821D01*
X28624Y41905D01*
X28645Y41993D01*
X28660Y42085D01*
X28668Y42181D01*
X28670Y42282D01*
X29611Y41341D01*
D02*
G37*
G36*
X23253Y39371D02*
X23194Y39308D01*
X23142Y39240D01*
X23096Y39168D01*
X23056Y39093D01*
X23023Y39013D01*
X22996Y38929D01*
X22975Y38841D01*
X22960Y38749D01*
X22952Y38653D01*
X22950Y38553D01*
X22010Y39493D01*
X22110Y39495D01*
X22206Y39503D01*
X22298Y39518D01*
X22386Y39539D01*
X22470Y39566D01*
X22550Y39599D01*
X22625Y39639D01*
X22697Y39685D01*
X22765Y39737D01*
X22828Y39796D01*
X23253Y39371D01*
D02*
G37*
G36*
X62656Y38246D02*
X62654Y38270D01*
X62646Y38292D01*
X62633Y38311D01*
X62615Y38327D01*
X62592Y38341D01*
X62564Y38353D01*
X62530Y38362D01*
X62492Y38368D01*
X62448Y38372D01*
X62399Y38373D01*
Y38627D01*
X62448Y38628D01*
X62492Y38632D01*
X62530Y38638D01*
X62564Y38647D01*
X62592Y38659D01*
X62615Y38673D01*
X62633Y38689D01*
X62646Y38708D01*
X62654Y38730D01*
X62656Y38754D01*
Y38246D01*
D02*
G37*
G36*
X58246Y38730D02*
X58254Y38708D01*
X58267Y38689D01*
X58285Y38673D01*
X58308Y38659D01*
X58336Y38647D01*
X58370Y38638D01*
X58408Y38632D01*
X58452Y38628D01*
X58501Y38627D01*
Y38373D01*
X58452Y38372D01*
X58408Y38368D01*
X58370Y38362D01*
X58336Y38353D01*
X58308Y38341D01*
X58285Y38327D01*
X58267Y38311D01*
X58254Y38292D01*
X58246Y38270D01*
X58244Y38246D01*
Y38754D01*
X58246Y38730D01*
D02*
G37*
G36*
X56856Y38246D02*
X56854Y38270D01*
X56846Y38292D01*
X56833Y38311D01*
X56815Y38327D01*
X56792Y38341D01*
X56764Y38353D01*
X56730Y38362D01*
X56692Y38368D01*
X56648Y38372D01*
X56599Y38373D01*
Y38627D01*
X56648Y38628D01*
X56692Y38632D01*
X56730Y38638D01*
X56764Y38647D01*
X56792Y38659D01*
X56815Y38673D01*
X56833Y38689D01*
X56846Y38708D01*
X56854Y38730D01*
X56856Y38754D01*
Y38246D01*
D02*
G37*
G36*
X5056Y39265D02*
X5061Y39236D01*
X5073Y39203D01*
X5092Y39165D01*
X5119Y39123D01*
X5153Y39077D01*
X5243Y38970D01*
X5362Y38846D01*
X4678Y38115D01*
X4094Y38720D01*
X5058Y39290D01*
X5056Y39265D01*
D02*
G37*
G36*
X35653Y38460D02*
X35663Y38386D01*
X35679Y38313D01*
X35703Y38240D01*
X35734Y38168D01*
X35772Y38096D01*
X35818Y38025D01*
X35870Y37954D01*
X35929Y37883D01*
X35995Y37813D01*
X35430Y37248D01*
X35360Y37314D01*
X35289Y37373D01*
X35218Y37425D01*
X35147Y37471D01*
X35075Y37509D01*
X35003Y37540D01*
X34930Y37564D01*
X34857Y37580D01*
X34783Y37590D01*
X34709Y37593D01*
X35650Y38534D01*
X35653Y38460D01*
D02*
G37*
G36*
X32151Y37593D02*
X32077Y37590D01*
X32003Y37580D01*
X31930Y37564D01*
X31857Y37540D01*
X31785Y37509D01*
X31713Y37471D01*
X31642Y37425D01*
X31571Y37373D01*
X31500Y37314D01*
X31430Y37248D01*
X30865Y37813D01*
X30931Y37883D01*
X30990Y37954D01*
X31042Y38025D01*
X31088Y38096D01*
X31126Y38168D01*
X31157Y38240D01*
X31181Y38313D01*
X31197Y38386D01*
X31207Y38460D01*
X31210Y38534D01*
X32151Y37593D01*
D02*
G37*
G36*
X29611D02*
X29537Y37590D01*
X29463Y37580D01*
X29390Y37564D01*
X29317Y37540D01*
X29245Y37509D01*
X29173Y37471D01*
X29102Y37425D01*
X29031Y37373D01*
X28961Y37314D01*
X28890Y37248D01*
X28325Y37813D01*
X28391Y37883D01*
X28450Y37954D01*
X28502Y38025D01*
X28548Y38096D01*
X28586Y38168D01*
X28617Y38240D01*
X28641Y38313D01*
X28657Y38386D01*
X28667Y38460D01*
X28670Y38534D01*
X29611Y37593D01*
D02*
G37*
G36*
X27070D02*
X26997Y37590D01*
X26923Y37580D01*
X26850Y37564D01*
X26777Y37540D01*
X26705Y37509D01*
X26633Y37471D01*
X26562Y37425D01*
X26491Y37373D01*
X26420Y37314D01*
X26350Y37248D01*
X25785Y37813D01*
X25851Y37883D01*
X25910Y37954D01*
X25962Y38025D01*
X26008Y38096D01*
X26046Y38168D01*
X26077Y38240D01*
X26101Y38313D01*
X26117Y38386D01*
X26127Y38460D01*
X26130Y38534D01*
X27070Y37593D01*
D02*
G37*
G36*
X36783Y37033D02*
X36904Y36937D01*
X37028Y36852D01*
X37158Y36779D01*
X37292Y36716D01*
X37431Y36666D01*
X37575Y36626D01*
X37723Y36598D01*
X37876Y36581D01*
X38034Y36575D01*
X38834Y35775D01*
X38687Y35769D01*
X38568Y35752D01*
X38477Y35724D01*
X38412Y35684D01*
X38375Y35634D01*
X38365Y35571D01*
X38383Y35498D01*
X38428Y35413D01*
X38500Y35317D01*
X38599Y35209D01*
X36785Y35892D01*
X36668Y37141D01*
X36783Y37033D01*
D02*
G37*
G36*
X65400Y34600D02*
X64800Y33700D01*
X64794Y33814D01*
X64776Y33916D01*
X64746Y34006D01*
X64704Y34084D01*
X64650Y34150D01*
X64584Y34204D01*
X64506Y34246D01*
X64416Y34276D01*
X64388Y34281D01*
X64339Y34273D01*
X64261Y34252D01*
X64195Y34225D01*
X64140Y34192D01*
X64098Y34153D01*
X64068Y34108D01*
X64050Y34057D01*
X64044Y34000D01*
Y35200D01*
X64050Y35143D01*
X64068Y35092D01*
X64098Y35047D01*
X64140Y35008D01*
X64195Y34975D01*
X64261Y34948D01*
X64339Y34927D01*
X64388Y34919D01*
X64416Y34924D01*
X64506Y34954D01*
X64584Y34996D01*
X64650Y35050D01*
X64704Y35116D01*
X64746Y35194D01*
X64776Y35284D01*
X64794Y35386D01*
X64800Y35500D01*
X65400Y34600D01*
D02*
G37*
G36*
X62656Y34000D02*
X62650Y34057D01*
X62632Y34108D01*
X62602Y34153D01*
X62560Y34192D01*
X62505Y34225D01*
X62439Y34252D01*
X62361Y34273D01*
X62270Y34288D01*
X62168Y34297D01*
X62053Y34300D01*
Y34900D01*
X62168Y34903D01*
X62270Y34912D01*
X62361Y34927D01*
X62439Y34948D01*
X62505Y34975D01*
X62560Y35008D01*
X62602Y35047D01*
X62632Y35092D01*
X62650Y35143D01*
X62656Y35200D01*
Y34000D01*
D02*
G37*
G36*
X58250Y35143D02*
X58268Y35092D01*
X58298Y35047D01*
X58340Y35008D01*
X58395Y34975D01*
X58461Y34948D01*
X58539Y34927D01*
X58630Y34912D01*
X58732Y34903D01*
X58847Y34900D01*
Y34300D01*
X58732Y34297D01*
X58630Y34288D01*
X58539Y34273D01*
X58461Y34252D01*
X58395Y34225D01*
X58340Y34192D01*
X58298Y34153D01*
X58268Y34108D01*
X58250Y34057D01*
X58244Y34000D01*
Y35200D01*
X58250Y35143D01*
D02*
G37*
G36*
X14805Y35103D02*
X14829Y35035D01*
X14869Y34976D01*
X14925Y34924D01*
X14997Y34880D01*
X15085Y34845D01*
X15189Y34817D01*
X15309Y34797D01*
X15445Y34785D01*
X15597Y34781D01*
Y33981D01*
X15445Y33977D01*
X15309Y33965D01*
X15189Y33945D01*
X15085Y33918D01*
X14997Y33882D01*
X14925Y33838D01*
X14869Y33787D01*
X14829Y33727D01*
X14805Y33660D01*
X14797Y33584D01*
Y35178D01*
X14805Y35103D01*
D02*
G37*
G36*
X51649Y32349D02*
X51652Y32326D01*
X51657Y32303D01*
X51665Y32280D01*
X51675Y32257D01*
X51687Y32235D01*
X51701Y32212D01*
X51718Y32190D01*
X51736Y32167D01*
X51757Y32145D01*
X51578Y31966D01*
X51556Y31987D01*
X51533Y32005D01*
X51511Y32022D01*
X51488Y32036D01*
X51466Y32048D01*
X51443Y32058D01*
X51420Y32066D01*
X51397Y32071D01*
X51374Y32074D01*
X51351Y32075D01*
X51648Y32372D01*
X51649Y32349D01*
D02*
G37*
G36*
X62456Y30396D02*
X62454Y30420D01*
X62446Y30442D01*
X62433Y30461D01*
X62415Y30477D01*
X62392Y30491D01*
X62364Y30503D01*
X62330Y30512D01*
X62292Y30518D01*
X62248Y30522D01*
X62199Y30523D01*
Y30777D01*
X62248Y30778D01*
X62292Y30782D01*
X62330Y30788D01*
X62364Y30797D01*
X62392Y30809D01*
X62415Y30823D01*
X62433Y30839D01*
X62446Y30858D01*
X62454Y30880D01*
X62456Y30904D01*
Y30396D01*
D02*
G37*
G36*
X58046Y30880D02*
X58054Y30858D01*
X58067Y30839D01*
X58085Y30823D01*
X58108Y30809D01*
X58136Y30797D01*
X58170Y30788D01*
X58208Y30782D01*
X58252Y30778D01*
X58301Y30777D01*
Y30523D01*
X58252Y30522D01*
X58208Y30518D01*
X58170Y30512D01*
X58136Y30503D01*
X58108Y30491D01*
X58085Y30477D01*
X58067Y30461D01*
X58054Y30442D01*
X58046Y30420D01*
X58044Y30396D01*
Y30904D01*
X58046Y30880D01*
D02*
G37*
G36*
X56656Y30396D02*
X56654Y30420D01*
X56646Y30442D01*
X56633Y30461D01*
X56615Y30477D01*
X56592Y30491D01*
X56564Y30503D01*
X56530Y30512D01*
X56492Y30518D01*
X56448Y30522D01*
X56399Y30523D01*
Y30777D01*
X56448Y30778D01*
X56492Y30782D01*
X56530Y30788D01*
X56564Y30797D01*
X56592Y30809D01*
X56615Y30823D01*
X56633Y30839D01*
X56646Y30858D01*
X56654Y30880D01*
X56656Y30904D01*
Y30396D01*
D02*
G37*
G36*
X15112Y29928D02*
X15052Y29866D01*
X14952Y29747D01*
X14911Y29691D01*
X14877Y29636D01*
X14849Y29583D01*
X14827Y29532D01*
X14812Y29482D01*
X14803Y29435D01*
X14800Y29389D01*
X14008Y30181D01*
X14054Y30184D01*
X14101Y30193D01*
X14151Y30208D01*
X14202Y30230D01*
X14255Y30258D01*
X14309Y30292D01*
X14366Y30333D01*
X14424Y30380D01*
X14546Y30493D01*
X15112Y29928D01*
D02*
G37*
G36*
X15301Y27361D02*
X15209Y27267D01*
X14882Y26894D01*
X14844Y26838D01*
X14814Y26788D01*
X14793Y26745D01*
X14781Y26708D01*
X14189Y27659D01*
X14235Y27651D01*
X14282Y27652D01*
X14332Y27659D01*
X14383Y27674D01*
X14436Y27696D01*
X14491Y27726D01*
X14548Y27763D01*
X14606Y27808D01*
X14667Y27860D01*
X14729Y27919D01*
X15301Y27361D01*
D02*
G37*
G36*
X64483Y27384D02*
X64336Y27233D01*
X64006Y26839D01*
X63933Y26728D01*
X63878Y26627D01*
X63842Y26536D01*
X63824Y26455D01*
X63825Y26384D01*
X63844Y26323D01*
X63273Y27444D01*
X63307Y27398D01*
X63353Y27372D01*
X63409Y27365D01*
X63477Y27378D01*
X63557Y27411D01*
X63647Y27464D01*
X63749Y27536D01*
X63862Y27628D01*
X64122Y27871D01*
X64483Y27384D01*
D02*
G37*
G36*
X48514Y28286D02*
X48532Y28184D01*
X48562Y28094D01*
X48604Y28016D01*
X48658Y27950D01*
X48724Y27896D01*
X48802Y27854D01*
X48892Y27824D01*
X48973Y27810D01*
X48981Y27810D01*
X49053Y27823D01*
X49122Y27842D01*
X49189Y27865D01*
X49252Y27894D01*
X49313Y27927D01*
X49371Y27966D01*
X49426Y28011D01*
X49479Y28060D01*
Y26940D01*
X49426Y26989D01*
X49371Y27034D01*
X49313Y27073D01*
X49252Y27106D01*
X49189Y27135D01*
X49122Y27158D01*
X49053Y27177D01*
X48981Y27190D01*
X48973Y27190D01*
X48892Y27176D01*
X48802Y27146D01*
X48724Y27104D01*
X48658Y27050D01*
X48604Y26984D01*
X48562Y26906D01*
X48532Y26816D01*
X48514Y26714D01*
X48508Y26600D01*
X48208Y27500D01*
X48508Y28400D01*
X48514Y28286D01*
D02*
G37*
G36*
X34022Y25878D02*
X33949Y25947D01*
X33875Y26009D01*
X33800Y26064D01*
X33723Y26112D01*
X33644Y26152D01*
X33564Y26185D01*
X33483Y26210D01*
X33430Y26222D01*
X33377Y26210D01*
X33296Y26185D01*
X33216Y26152D01*
X33137Y26112D01*
X33060Y26064D01*
X32985Y26009D01*
X32911Y25947D01*
X32838Y25878D01*
Y27208D01*
X32911Y27139D01*
X32985Y27077D01*
X33060Y27022D01*
X33137Y26974D01*
X33216Y26934D01*
X33296Y26901D01*
X33377Y26876D01*
X33430Y26864D01*
X33483Y26876D01*
X33564Y26901D01*
X33644Y26934D01*
X33723Y26974D01*
X33800Y27022D01*
X33875Y27077D01*
X33949Y27139D01*
X34022Y27208D01*
Y25878D01*
D02*
G37*
G36*
X31482D02*
X31409Y25947D01*
X31335Y26009D01*
X31260Y26064D01*
X31183Y26112D01*
X31104Y26152D01*
X31024Y26185D01*
X30943Y26210D01*
X30890Y26222D01*
X30837Y26210D01*
X30756Y26185D01*
X30676Y26152D01*
X30597Y26112D01*
X30520Y26064D01*
X30445Y26009D01*
X30371Y25947D01*
X30298Y25878D01*
Y27208D01*
X30371Y27139D01*
X30445Y27077D01*
X30520Y27022D01*
X30597Y26974D01*
X30676Y26934D01*
X30756Y26901D01*
X30837Y26876D01*
X30890Y26864D01*
X30943Y26876D01*
X31024Y26901D01*
X31104Y26934D01*
X31183Y26974D01*
X31260Y27022D01*
X31335Y27077D01*
X31409Y27139D01*
X31482Y27208D01*
Y25878D01*
D02*
G37*
G36*
X26403Y25876D02*
X26331Y25945D01*
X26257Y26007D01*
X26181Y26062D01*
X26104Y26109D01*
X26025Y26149D01*
X25945Y26182D01*
X25864Y26208D01*
X25814Y26219D01*
X25763Y26208D01*
X25682Y26182D01*
X25602Y26149D01*
X25523Y26109D01*
X25446Y26061D01*
X25371Y26006D01*
X25297Y25944D01*
X25225Y25875D01*
X25222Y27205D01*
X25294Y27136D01*
X25368Y27074D01*
X25444Y27019D01*
X25521Y26972D01*
X25600Y26932D01*
X25680Y26899D01*
X25761Y26873D01*
X25812Y26862D01*
X25862Y26873D01*
X25944Y26899D01*
X26024Y26932D01*
X26102Y26972D01*
X26179Y27020D01*
X26254Y27075D01*
X26328Y27137D01*
X26400Y27206D01*
X26403Y25876D01*
D02*
G37*
G36*
X62456Y26400D02*
X62450Y26457D01*
X62432Y26508D01*
X62401Y26553D01*
X62359Y26592D01*
X62305Y26625D01*
X62239Y26652D01*
X62160Y26673D01*
X62070Y26688D01*
X61967Y26697D01*
X61853Y26700D01*
Y27300D01*
X61967Y27301D01*
X62237Y27324D01*
X62303Y27337D01*
X62357Y27353D01*
X62399Y27372D01*
X62429Y27394D01*
X62447Y27419D01*
X62453Y27447D01*
X62456Y26400D01*
D02*
G37*
G36*
X58053Y27419D02*
X58071Y27394D01*
X58101Y27372D01*
X58143Y27353D01*
X58197Y27337D01*
X58263Y27324D01*
X58341Y27313D01*
X58533Y27301D01*
X58647Y27300D01*
Y26700D01*
X58533Y26697D01*
X58430Y26688D01*
X58340Y26673D01*
X58261Y26652D01*
X58195Y26625D01*
X58141Y26592D01*
X58099Y26553D01*
X58068Y26508D01*
X58050Y26457D01*
X58044Y26400D01*
X58047Y27447D01*
X58053Y27419D01*
D02*
G37*
G36*
X56656Y26400D02*
X56650Y26457D01*
X56632Y26508D01*
X56601Y26553D01*
X56559Y26592D01*
X56505Y26625D01*
X56439Y26652D01*
X56360Y26673D01*
X56270Y26688D01*
X56167Y26697D01*
X56053Y26700D01*
Y27300D01*
X56167Y27301D01*
X56437Y27324D01*
X56503Y27337D01*
X56557Y27353D01*
X56599Y27372D01*
X56629Y27394D01*
X56647Y27419D01*
X56653Y27447D01*
X56656Y26400D01*
D02*
G37*
G36*
X29611Y25593D02*
X29510Y25591D01*
X29414Y25583D01*
X29322Y25568D01*
X29234Y25547D01*
X29150Y25520D01*
X29070Y25487D01*
X28995Y25447D01*
X28923Y25401D01*
X28855Y25349D01*
X28792Y25290D01*
X28367Y25715D01*
X28426Y25778D01*
X28478Y25846D01*
X28524Y25918D01*
X28564Y25993D01*
X28597Y26073D01*
X28624Y26157D01*
X28645Y26245D01*
X28660Y26337D01*
X28668Y26433D01*
X28670Y26534D01*
X29611Y25593D01*
D02*
G37*
G36*
X5420Y24938D02*
X5356Y24874D01*
X5139Y24626D01*
X5115Y24592D01*
X5099Y24563D01*
X5089Y24538D01*
X5085Y24519D01*
X4293Y25311D01*
X4313Y25314D01*
X4337Y25324D01*
X4367Y25341D01*
X4401Y25364D01*
X4440Y25394D01*
X4534Y25475D01*
X4713Y25646D01*
X5420Y24938D01*
D02*
G37*
G36*
X38505Y23343D02*
X38434Y23268D01*
X38316Y23127D01*
X38270Y23061D01*
X38232Y22998D01*
X38203Y22937D01*
X38183Y22879D01*
X38171Y22824D01*
X38167Y22772D01*
X38172Y22723D01*
X37077Y23477D01*
X37115Y23487D01*
X37157Y23504D01*
X37203Y23528D01*
X37254Y23559D01*
X37308Y23597D01*
X37429Y23694D01*
X37567Y23820D01*
X37642Y23894D01*
X38505Y23343D01*
D02*
G37*
G36*
X23253Y23369D02*
X23194Y23306D01*
X23142Y23238D01*
X23096Y23166D01*
X23056Y23091D01*
X23023Y23011D01*
X22996Y22927D01*
X22975Y22839D01*
X22960Y22747D01*
X22952Y22651D01*
X22950Y22551D01*
X22010Y23491D01*
X22110Y23493D01*
X22206Y23501D01*
X22298Y23516D01*
X22386Y23537D01*
X22470Y23564D01*
X22550Y23597D01*
X22625Y23637D01*
X22697Y23683D01*
X22765Y23735D01*
X22828Y23794D01*
X23253Y23369D01*
D02*
G37*
G36*
X35653Y22458D02*
X35663Y22384D01*
X35679Y22311D01*
X35703Y22238D01*
X35734Y22166D01*
X35772Y22094D01*
X35818Y22023D01*
X35870Y21952D01*
X35929Y21882D01*
X35995Y21811D01*
X35430Y21246D01*
X35360Y21312D01*
X35289Y21371D01*
X35218Y21423D01*
X35147Y21469D01*
X35075Y21507D01*
X35003Y21538D01*
X34930Y21562D01*
X34857Y21578D01*
X34783Y21588D01*
X34709Y21591D01*
X35650Y22531D01*
X35653Y22458D01*
D02*
G37*
G36*
X32151Y21591D02*
X32077Y21588D01*
X32003Y21578D01*
X31930Y21562D01*
X31857Y21538D01*
X31785Y21507D01*
X31713Y21469D01*
X31642Y21423D01*
X31571Y21371D01*
X31500Y21312D01*
X31430Y21246D01*
X30865Y21811D01*
X30931Y21882D01*
X30990Y21952D01*
X31042Y22023D01*
X31088Y22094D01*
X31126Y22166D01*
X31157Y22238D01*
X31181Y22311D01*
X31197Y22384D01*
X31207Y22458D01*
X31210Y22531D01*
X32151Y21591D01*
D02*
G37*
G36*
X27070D02*
X26997Y21588D01*
X26923Y21578D01*
X26850Y21562D01*
X26777Y21538D01*
X26705Y21507D01*
X26633Y21469D01*
X26562Y21423D01*
X26491Y21371D01*
X26420Y21312D01*
X26350Y21246D01*
X25785Y21811D01*
X25851Y21882D01*
X25910Y21952D01*
X25962Y22023D01*
X26008Y22094D01*
X26046Y22166D01*
X26077Y22238D01*
X26101Y22311D01*
X26117Y22384D01*
X26127Y22458D01*
X26130Y22531D01*
X27070Y21591D01*
D02*
G37*
G36*
X24536Y21586D02*
X24462Y21583D01*
X24388Y21573D01*
X24315Y21556D01*
X24242Y21533D01*
X24170Y21502D01*
X24098Y21463D01*
X24027Y21418D01*
X23956Y21366D01*
X23886Y21307D01*
X23816Y21241D01*
X23250Y21806D01*
X23316Y21876D01*
X23375Y21947D01*
X23427Y22018D01*
X23473Y22089D01*
X23511Y22161D01*
X23542Y22233D01*
X23566Y22306D01*
X23582Y22379D01*
X23592Y22452D01*
X23595Y22526D01*
X24536Y21586D01*
D02*
G37*
G36*
X29820Y21612D02*
X29752Y21595D01*
X29684Y21572D01*
X29615Y21544D01*
X29547Y21510D01*
X29478Y21471D01*
X29409Y21426D01*
X29340Y21375D01*
X29202Y21258D01*
X29132Y21192D01*
X28424Y21615D01*
X28491Y21686D01*
X28548Y21757D01*
X28597Y21827D01*
X28638Y21898D01*
X28669Y21969D01*
X28692Y22040D01*
X28706Y22111D01*
X28711Y22181D01*
X28708Y22252D01*
X28695Y22322D01*
X29820Y21612D01*
D02*
G37*
G36*
X41657Y21783D02*
X41585Y21687D01*
X41540Y21602D01*
X41522Y21529D01*
X41532Y21466D01*
X41569Y21416D01*
X41634Y21376D01*
X41725Y21348D01*
X41844Y21331D01*
X41991Y21325D01*
X40225Y20525D01*
X39259Y21325D01*
X39417Y21331D01*
X39570Y21348D01*
X39718Y21376D01*
X39862Y21416D01*
X40001Y21466D01*
X40135Y21529D01*
X40264Y21602D01*
X40389Y21687D01*
X40510Y21783D01*
X40625Y21891D01*
X41756D01*
X41657Y21783D01*
D02*
G37*
G36*
X44622Y19800D02*
X44599Y19799D01*
X44576Y19796D01*
X44553Y19791D01*
X44530Y19783D01*
X44507Y19773D01*
X44485Y19761D01*
X44462Y19747D01*
X44440Y19730D01*
X44417Y19712D01*
X44395Y19691D01*
X44216Y19870D01*
X44237Y19892D01*
X44255Y19915D01*
X44272Y19937D01*
X44286Y19960D01*
X44298Y19982D01*
X44308Y20005D01*
X44316Y20028D01*
X44321Y20051D01*
X44324Y20074D01*
X44325Y20097D01*
X44622Y19800D01*
D02*
G37*
G36*
X42480Y19474D02*
X42461Y19486D01*
X42441Y19496D01*
X42420Y19506D01*
X42397Y19514D01*
X42373Y19521D01*
X42348Y19526D01*
X42321Y19531D01*
X42264Y19536D01*
X42234Y19536D01*
X42178Y19790D01*
X42209Y19791D01*
X42238Y19794D01*
X42265Y19799D01*
X42290Y19806D01*
X42313Y19814D01*
X42334Y19825D01*
X42353Y19837D01*
X42370Y19851D01*
X42386Y19868D01*
X42399Y19886D01*
X42480Y19474D01*
D02*
G37*
G36*
X49514Y20443D02*
X49563Y20387D01*
X49616Y20338D01*
X49671Y20295D01*
X49728Y20258D01*
X49788Y20228D01*
X49850Y20205D01*
X49915Y20188D01*
X49982Y20178D01*
X50051Y20175D01*
X49250Y19392D01*
X49249Y19466D01*
X49242Y19540D01*
X49228Y19615D01*
X49209Y19692D01*
X49184Y19769D01*
X49153Y19847D01*
X49116Y19926D01*
X49073Y20006D01*
X48970Y20169D01*
X49466Y20506D01*
X49514Y20443D01*
D02*
G37*
G36*
X15363Y19176D02*
X15204Y19012D01*
X14954Y18717D01*
X14864Y18587D01*
X14795Y18468D01*
X14750Y18361D01*
X14727Y18265D01*
X14727Y18180D01*
X14749Y18107D01*
X14794Y18045D01*
X13666Y19173D01*
X13728Y19128D01*
X13801Y19106D01*
X13886Y19106D01*
X13982Y19129D01*
X14089Y19175D01*
X14208Y19243D01*
X14338Y19334D01*
X14480Y19447D01*
X14797Y19742D01*
X15363Y19176D01*
D02*
G37*
G36*
X41203Y18811D02*
X41180Y18810D01*
X41157Y18807D01*
X41134Y18802D01*
X41111Y18794D01*
X41088Y18785D01*
X41066Y18772D01*
X41043Y18758D01*
X41021Y18742D01*
X40998Y18723D01*
X40976Y18702D01*
X40797Y18882D01*
X40818Y18904D01*
X40836Y18926D01*
X40853Y18948D01*
X40867Y18971D01*
X40879Y18993D01*
X40889Y19016D01*
X40897Y19039D01*
X40902Y19062D01*
X40905Y19085D01*
X40906Y19108D01*
X41203Y18811D01*
D02*
G37*
G36*
X41963Y18527D02*
X41940Y18528D01*
X41918Y18528D01*
X41895Y18525D01*
X41872Y18519D01*
X41850Y18510D01*
X41827Y18500D01*
X41805Y18486D01*
X41782Y18470D01*
X41760Y18452D01*
X41737Y18431D01*
X41583Y18635D01*
X41604Y18657D01*
X41640Y18702D01*
X41655Y18724D01*
X41668Y18746D01*
X41680Y18768D01*
X41689Y18791D01*
X41697Y18813D01*
X41702Y18836D01*
X41706Y18858D01*
X41963Y18527D01*
D02*
G37*
G36*
X50561Y18751D02*
X50516Y18696D01*
X50477Y18638D01*
X50444Y18577D01*
X50415Y18514D01*
X50392Y18447D01*
X50373Y18378D01*
X50360Y18306D01*
X50353Y18231D01*
X50350Y18153D01*
X49750D01*
X49747Y18231D01*
X49740Y18306D01*
X49727Y18378D01*
X49708Y18447D01*
X49685Y18514D01*
X49656Y18577D01*
X49623Y18638D01*
X49584Y18696D01*
X49539Y18751D01*
X49490Y18804D01*
X50610D01*
X50561Y18751D01*
D02*
G37*
G36*
X15112Y16426D02*
X15052Y16364D01*
X14952Y16245D01*
X14911Y16189D01*
X14877Y16134D01*
X14849Y16081D01*
X14827Y16030D01*
X14812Y15980D01*
X14803Y15933D01*
X14800Y15887D01*
X14008Y16679D01*
X14054Y16682D01*
X14101Y16691D01*
X14151Y16706D01*
X14202Y16728D01*
X14255Y16756D01*
X14309Y16790D01*
X14366Y16831D01*
X14424Y16878D01*
X14546Y16991D01*
X15112Y16426D01*
D02*
G37*
G36*
X33168Y16738D02*
X33122Y16684D01*
X33085Y16622D01*
X33056Y16552D01*
X33037Y16474D01*
X33026Y16389D01*
X33024Y16296D01*
X33031Y16195D01*
X33047Y16086D01*
X33072Y15970D01*
X33106Y15846D01*
X31943Y16491D01*
X32106Y16537D01*
X32788Y16773D01*
X32852Y16806D01*
X32901Y16837D01*
X32936Y16866D01*
X33168Y16738D01*
D02*
G37*
G36*
X25652Y16647D02*
X25608Y16596D01*
X25571Y16534D01*
X25541Y16464D01*
X25517Y16384D01*
X25500Y16295D01*
X25490Y16196D01*
X25486Y16088D01*
X25489Y15971D01*
X25516Y15708D01*
X24461Y16518D01*
X24615Y16538D01*
X25108Y16638D01*
X25200Y16667D01*
X25281Y16699D01*
X25349Y16732D01*
X25405Y16767D01*
X25449Y16803D01*
X25652Y16647D01*
D02*
G37*
G36*
X30768Y16609D02*
X30726Y16558D01*
X30689Y16498D01*
X30657Y16427D01*
X30632Y16347D01*
X30612Y16256D01*
X30599Y16156D01*
X30591Y16046D01*
X30589Y15926D01*
X30602Y15655D01*
X29594Y16523D01*
X29744Y16535D01*
X30125Y16588D01*
X30229Y16611D01*
X30321Y16638D01*
X30402Y16668D01*
X30471Y16700D01*
X30529Y16736D01*
X30575Y16775D01*
X30768Y16609D01*
D02*
G37*
G36*
X35889Y16549D02*
X35848Y16500D01*
X35811Y16441D01*
X35779Y16371D01*
X35751Y16290D01*
X35728Y16198D01*
X35710Y16096D01*
X35696Y15983D01*
X35681Y15725D01*
X35680Y15579D01*
X34739Y16520D01*
X34885Y16521D01*
X35143Y16536D01*
X35256Y16550D01*
X35358Y16568D01*
X35450Y16591D01*
X35531Y16619D01*
X35601Y16651D01*
X35660Y16688D01*
X35709Y16729D01*
X35889Y16549D01*
D02*
G37*
G36*
X37265Y14625D02*
X37165Y14623D01*
X37069Y14615D01*
X36977Y14600D01*
X36889Y14579D01*
X36805Y14552D01*
X36725Y14519D01*
X36650Y14479D01*
X36578Y14433D01*
X36510Y14381D01*
X36447Y14322D01*
X36022Y14747D01*
X36081Y14810D01*
X36133Y14878D01*
X36179Y14950D01*
X36219Y15025D01*
X36252Y15105D01*
X36279Y15189D01*
X36300Y15277D01*
X36315Y15369D01*
X36323Y15465D01*
X36325Y15566D01*
X37265Y14625D01*
D02*
G37*
G36*
X40358Y14622D02*
X40307Y14604D01*
X40262Y14574D01*
X40223Y14532D01*
X40190Y14478D01*
X40163Y14412D01*
X40142Y14334D01*
X40127Y14244D01*
X40118Y14142D01*
X40115Y14028D01*
X39515D01*
X39512Y14142D01*
X39503Y14244D01*
X39488Y14334D01*
X39467Y14412D01*
X39440Y14478D01*
X39407Y14532D01*
X39368Y14574D01*
X39323Y14604D01*
X39272Y14622D01*
X39215Y14628D01*
X40415D01*
X40358Y14622D01*
D02*
G37*
G36*
X14874Y14314D02*
X14814Y14251D01*
X14719Y14135D01*
X14685Y14081D01*
X14660Y14031D01*
X14643Y13984D01*
X14635Y13940D01*
X14635Y13900D01*
X14644Y13863D01*
X14662Y13829D01*
X13611Y14078D01*
X14215Y14786D01*
X14874Y14314D01*
D02*
G37*
G36*
X6781Y13231D02*
X6773Y13208D01*
Y13181D01*
X6781Y13151D01*
X6795Y13117D01*
X6817Y13079D01*
X6845Y13038D01*
X6881Y12993D01*
X6975Y12892D01*
X6795Y12712D01*
X6743Y12763D01*
X6649Y12842D01*
X6608Y12870D01*
X6570Y12892D01*
X6536Y12906D01*
X6506Y12914D01*
X6479D01*
X6456Y12906D01*
X6436Y12892D01*
X6795Y13251D01*
X6781Y13231D01*
D02*
G37*
G36*
X35004Y11926D02*
X35015Y11841D01*
X35033Y11758D01*
X35058Y11677D01*
X35091Y11597D01*
X35131Y11518D01*
X35179Y11441D01*
X35234Y11366D01*
X35296Y11292D01*
X35365Y11219D01*
X34035D01*
X34104Y11292D01*
X34166Y11366D01*
X34221Y11441D01*
X34269Y11518D01*
X34309Y11597D01*
X34342Y11677D01*
X34367Y11758D01*
X34385Y11841D01*
X34396Y11926D01*
X34400Y12012D01*
X35000D01*
X35004Y11926D01*
D02*
G37*
G36*
X15112Y11426D02*
X15052Y11364D01*
X14952Y11245D01*
X14911Y11189D01*
X14877Y11134D01*
X14849Y11081D01*
X14827Y11030D01*
X14812Y10980D01*
X14803Y10933D01*
X14800Y10887D01*
X14008Y11679D01*
X14054Y11682D01*
X14101Y11691D01*
X14151Y11706D01*
X14202Y11728D01*
X14255Y11756D01*
X14309Y11790D01*
X14366Y11831D01*
X14424Y11878D01*
X14546Y11991D01*
X15112Y11426D01*
D02*
G37*
G36*
X34022Y9876D02*
X33949Y9945D01*
X33875Y10007D01*
X33800Y10062D01*
X33723Y10110D01*
X33644Y10150D01*
X33564Y10183D01*
X33483Y10208D01*
X33430Y10220D01*
X33377Y10208D01*
X33296Y10183D01*
X33216Y10150D01*
X33137Y10110D01*
X33060Y10062D01*
X32985Y10007D01*
X32911Y9945D01*
X32838Y9876D01*
Y11206D01*
X32911Y11137D01*
X32985Y11075D01*
X33060Y11020D01*
X33137Y10972D01*
X33216Y10932D01*
X33296Y10899D01*
X33377Y10874D01*
X33430Y10862D01*
X33483Y10874D01*
X33564Y10899D01*
X33644Y10932D01*
X33723Y10972D01*
X33800Y11020D01*
X33875Y11075D01*
X33949Y11137D01*
X34022Y11206D01*
Y9876D01*
D02*
G37*
G36*
X31482D02*
X31409Y9945D01*
X31335Y10007D01*
X31260Y10062D01*
X31183Y10110D01*
X31104Y10150D01*
X31024Y10183D01*
X30943Y10208D01*
X30890Y10220D01*
X30837Y10208D01*
X30756Y10183D01*
X30676Y10150D01*
X30597Y10110D01*
X30520Y10062D01*
X30445Y10007D01*
X30371Y9945D01*
X30298Y9876D01*
Y11206D01*
X30371Y11137D01*
X30445Y11075D01*
X30520Y11020D01*
X30597Y10972D01*
X30676Y10932D01*
X30756Y10899D01*
X30837Y10874D01*
X30890Y10862D01*
X30943Y10874D01*
X31024Y10899D01*
X31104Y10932D01*
X31183Y10972D01*
X31260Y11020D01*
X31335Y11075D01*
X31409Y11137D01*
X31482Y11206D01*
Y9876D01*
D02*
G37*
G36*
X26403Y9874D02*
X26331Y9943D01*
X26257Y10005D01*
X26181Y10060D01*
X26104Y10107D01*
X26025Y10147D01*
X25945Y10180D01*
X25864Y10206D01*
X25814Y10217D01*
X25763Y10206D01*
X25682Y10180D01*
X25602Y10147D01*
X25523Y10107D01*
X25446Y10059D01*
X25371Y10004D01*
X25297Y9942D01*
X25225Y9873D01*
X25222Y11203D01*
X25294Y11134D01*
X25368Y11072D01*
X25444Y11017D01*
X25521Y10970D01*
X25600Y10930D01*
X25680Y10897D01*
X25761Y10871D01*
X25812Y10860D01*
X25862Y10871D01*
X25944Y10897D01*
X26024Y10930D01*
X26102Y10970D01*
X26179Y11018D01*
X26254Y11073D01*
X26328Y11135D01*
X26400Y11204D01*
X26403Y9874D01*
D02*
G37*
G36*
X56111Y5740D02*
X56094Y5756D01*
X56075Y5770D01*
X56055Y5782D01*
X56034Y5793D01*
X56011Y5802D01*
X55986Y5810D01*
X55960Y5816D01*
X55933Y5820D01*
X55904Y5822D01*
X55873Y5823D01*
Y6077D01*
X55904Y6078D01*
X55933Y6080D01*
X55960Y6084D01*
X55986Y6090D01*
X56011Y6098D01*
X56034Y6107D01*
X56055Y6118D01*
X56075Y6130D01*
X56094Y6144D01*
X56111Y6160D01*
Y5740D01*
D02*
G37*
G36*
X50498Y5368D02*
X50462Y5326D01*
X50430Y5275D01*
X50401Y5216D01*
X50375Y5148D01*
X50354Y5072D01*
X50336Y4987D01*
X50321Y4894D01*
X50303Y4683D01*
X50300Y4565D01*
X49526Y5375D01*
X49642Y5373D01*
X49850Y5382D01*
X49942Y5393D01*
X50025Y5409D01*
X50101Y5429D01*
X50169Y5453D01*
X50228Y5482D01*
X50280Y5514D01*
X50323Y5552D01*
X50498Y5368D01*
D02*
G37*
G36*
X9431Y5093D02*
X9435Y5049D01*
X9441Y5011D01*
X9450Y4977D01*
X9462Y4949D01*
X9476Y4926D01*
X9492Y4908D01*
X9511Y4895D01*
X9533Y4887D01*
X9557Y4885D01*
X9049D01*
X9073Y4887D01*
X9095Y4895D01*
X9114Y4908D01*
X9130Y4926D01*
X9144Y4949D01*
X9156Y4977D01*
X9165Y5011D01*
X9171Y5049D01*
X9175Y5093D01*
X9176Y5142D01*
X9430D01*
X9431Y5093D01*
D02*
G37*
G36*
X11863Y3953D02*
X11861Y3926D01*
X11864Y3896D01*
X11874Y3864D01*
X11889Y3829D01*
X11910Y3792D01*
X11937Y3752D01*
X11970Y3710D01*
X12010Y3666D01*
X12055Y3619D01*
X12000Y3314D01*
X11942Y3371D01*
X11841Y3458D01*
X11798Y3489D01*
X11759Y3511D01*
X11726Y3525D01*
X11697Y3531D01*
X11673Y3528D01*
X11655Y3517D01*
X11641Y3497D01*
X11872Y3978D01*
X11863Y3953D01*
D02*
G37*
G36*
X8664Y2726D02*
X8765Y2639D01*
X8808Y2609D01*
X8846Y2586D01*
X8880Y2573D01*
X8908Y2567D01*
X8932Y2570D01*
X8951Y2582D01*
X8965Y2602D01*
X8731Y2118D01*
X8740Y2143D01*
X8743Y2171D01*
X8739Y2201D01*
X8730Y2233D01*
X8715Y2268D01*
X8694Y2305D01*
X8668Y2345D01*
X8635Y2386D01*
X8596Y2430D01*
X8551Y2477D01*
X8606Y2782D01*
X8664Y2726D01*
D02*
G37*
G36*
X11874Y2135D02*
X11882Y2113D01*
X11895Y2094D01*
X11913Y2078D01*
X11936Y2064D01*
X11964Y2052D01*
X11998Y2043D01*
X12036Y2037D01*
X12080Y2033D01*
X12129Y2032D01*
Y1778D01*
X12080Y1777D01*
X12036Y1773D01*
X11998Y1767D01*
X11964Y1758D01*
X11936Y1746D01*
X11913Y1732D01*
X11895Y1716D01*
X11882Y1697D01*
X11874Y1675D01*
X11872Y1651D01*
Y2159D01*
X11874Y2135D01*
D02*
G37*
%LPC*%
G36*
X39175Y116975D02*
X38418D01*
Y116425D01*
X38446Y116216D01*
X38526Y116022D01*
X38654Y115854D01*
X38822Y115726D01*
X39016Y115646D01*
X39175Y115625D01*
Y116975D01*
D02*
G37*
G36*
X41032D02*
X40275D01*
Y115625D01*
X40434Y115646D01*
X40628Y115726D01*
X40796Y115854D01*
X40924Y116022D01*
X41004Y116216D01*
X41032Y116425D01*
Y116975D01*
D02*
G37*
G36*
X27307Y116950D02*
X26550D01*
Y115600D01*
X26709Y115621D01*
X26903Y115701D01*
X27071Y115829D01*
X27199Y115997D01*
X27279Y116191D01*
X27307Y116400D01*
Y116950D01*
D02*
G37*
G36*
X25450D02*
X24693D01*
Y116400D01*
X24721Y116191D01*
X24801Y115997D01*
X24929Y115829D01*
X25097Y115701D01*
X25291Y115621D01*
X25450Y115600D01*
Y116950D01*
D02*
G37*
G36*
X11950Y116850D02*
X11193D01*
Y116300D01*
X11221Y116091D01*
X11301Y115897D01*
X11429Y115729D01*
X11597Y115601D01*
X11791Y115521D01*
X11950Y115500D01*
Y116850D01*
D02*
G37*
G36*
X13807D02*
X13050D01*
Y115500D01*
X13209Y115521D01*
X13403Y115601D01*
X13571Y115729D01*
X13699Y115897D01*
X13779Y116091D01*
X13807Y116300D01*
Y116850D01*
D02*
G37*
G36*
X6700Y111625D02*
X6000D01*
Y110925D01*
X6700D01*
Y111625D01*
D02*
G37*
G36*
X5200D02*
X4500D01*
Y110925D01*
X5200D01*
Y111625D01*
D02*
G37*
G36*
X27307Y100550D02*
X26550D01*
Y99200D01*
X26709Y99221D01*
X26903Y99301D01*
X27071Y99429D01*
X27199Y99597D01*
X27279Y99791D01*
X27307Y100000D01*
Y100550D01*
D02*
G37*
G36*
X6632Y107625D02*
X6000D01*
Y106993D01*
X6025Y107000D01*
X6275Y107145D01*
X6480Y107350D01*
X6625Y107600D01*
X6632Y107625D01*
D02*
G37*
G36*
X5200D02*
X4568D01*
X4575Y107600D01*
X4720Y107350D01*
X4925Y107145D01*
X5175Y107000D01*
X5200Y106993D01*
Y107625D01*
D02*
G37*
G36*
X6687Y103887D02*
X5988D01*
Y103188D01*
X6687D01*
Y103887D01*
D02*
G37*
G36*
X5188D02*
X4488D01*
Y103188D01*
X5188D01*
Y103887D01*
D02*
G37*
G36*
X63500Y82652D02*
X63474Y82637D01*
X63445Y82618D01*
X63500Y82586D01*
Y82652D01*
D02*
G37*
G36*
X61955Y71301D02*
Y70655D01*
X62259D01*
Y70863D01*
X62223Y71043D01*
X62121Y71196D01*
X61968Y71298D01*
X61955Y71301D01*
D02*
G37*
G36*
X61095D02*
X61082Y71298D01*
X60929Y71196D01*
X60827Y71043D01*
X60791Y70863D01*
Y70655D01*
X61095D01*
Y71301D01*
D02*
G37*
G36*
X62259Y69795D02*
X61955D01*
Y69149D01*
X61968Y69152D01*
X62121Y69254D01*
X62223Y69407D01*
X62259Y69588D01*
Y69795D01*
D02*
G37*
G36*
X61095D02*
X60791D01*
Y69588D01*
X60827Y69407D01*
X60929Y69254D01*
X61082Y69152D01*
X61095Y69149D01*
Y69795D01*
D02*
G37*
G36*
X63500Y61278D02*
X63453Y61269D01*
X63275Y61150D01*
X63156Y60972D01*
X63114Y60763D01*
Y60250D01*
X63500D01*
Y61278D01*
D02*
G37*
G36*
Y59250D02*
X63114D01*
Y58737D01*
X63156Y58528D01*
X63275Y58350D01*
X63453Y58231D01*
X63500Y58222D01*
Y59250D01*
D02*
G37*
G36*
X8186Y52975D02*
Y52343D01*
X8817D01*
X8811Y52368D01*
X8666Y52618D01*
X8461Y52823D01*
X8210Y52968D01*
X8186Y52975D01*
D02*
G37*
G36*
X8817Y51543D02*
X8186D01*
Y50911D01*
X8210Y50918D01*
X8461Y51063D01*
X8666Y51268D01*
X8811Y51518D01*
X8817Y51543D01*
D02*
G37*
G36*
X8186Y40529D02*
Y39897D01*
X8817D01*
X8811Y39922D01*
X8666Y40172D01*
X8461Y40377D01*
X8210Y40522D01*
X8186Y40529D01*
D02*
G37*
G36*
X7385D02*
X7361Y40522D01*
X7110Y40377D01*
X6905Y40172D01*
X6760Y39922D01*
X6754Y39897D01*
X7385D01*
Y40529D01*
D02*
G37*
G36*
Y24111D02*
X6754D01*
X6760Y24086D01*
X6905Y23836D01*
X7110Y23631D01*
X7361Y23486D01*
X7379Y23481D01*
X7371Y23579D01*
X7360Y23648D01*
X7345Y23711D01*
X7328Y23768D01*
X7307Y23820D01*
X7283Y23865D01*
X7256Y23905D01*
X7226Y23940D01*
X7385D01*
Y24111D01*
D02*
G37*
G36*
X8817D02*
X8186D01*
Y23940D01*
X8345D01*
X8315Y23905D01*
X8288Y23865D01*
X8264Y23820D01*
X8243Y23768D01*
X8226Y23711D01*
X8211Y23648D01*
X8200Y23579D01*
X8192Y23505D01*
X8191Y23481D01*
X8210Y23486D01*
X8461Y23631D01*
X8666Y23836D01*
X8811Y24086D01*
X8817Y24111D01*
D02*
G37*
G36*
X18910Y23667D02*
X18692Y23541D01*
X18460Y23309D01*
X18334Y23091D01*
X18910D01*
Y23667D01*
D02*
G37*
G36*
X3781Y14489D02*
X3448D01*
Y14019D01*
X3793D01*
Y14286D01*
X3651D01*
X3684Y14294D01*
X3713Y14318D01*
X3739Y14358D01*
X3761Y14414D01*
X3780Y14486D01*
X3781Y14489D01*
D02*
G37*
G36*
X3793Y13159D02*
X3448D01*
Y12689D01*
X3793D01*
Y12834D01*
X3790Y12838D01*
X3749Y12868D01*
X3703Y12886D01*
X3651Y12892D01*
X3793D01*
Y13159D01*
D02*
G37*
G36*
Y10679D02*
X3448D01*
Y10209D01*
X3793D01*
Y10476D01*
X3651D01*
X3703Y10482D01*
X3749Y10500D01*
X3790Y10530D01*
X3793Y10534D01*
Y10679D01*
D02*
G37*
G36*
Y9349D02*
X3448D01*
Y8879D01*
X3793D01*
Y9349D01*
D02*
G37*
%LPD*%
D10*
X7675Y55850D02*
X20149D01*
Y55850D02*
X21708Y54291D01*
X6249Y54424D02*
X7675Y55850D01*
X60425Y116843D02*
Y117400D01*
X60419Y116837D02*
X60425Y116843D01*
X60419Y116837D02*
Y116837D01*
X59480Y115898D02*
X60419Y116837D01*
X59480Y115600D02*
Y115898D01*
X57325Y43050D02*
X63425D01*
X57550Y34600D02*
X63350D01*
X57387D02*
X57550D01*
X50821Y27000D02*
X63150D01*
X50050Y19375D02*
Y19551D01*
Y14600D02*
Y19375D01*
Y27500D02*
X50321D01*
X48208D02*
X50050D01*
X2000Y96675D02*
X5600Y100275D01*
X5075Y98725D02*
X24049D01*
X2725Y96375D02*
X5075Y98725D01*
X2725Y92250D02*
X5100Y89875D01*
X24049Y98725D02*
X25000Y99676D01*
X60315Y50990D02*
X63775Y54450D01*
X52255Y50990D02*
X60315D01*
X53280Y80485D02*
X57795Y85000D01*
X62625D01*
X64000Y83625D01*
X67090Y89924D02*
X68060Y90894D01*
Y92116D01*
X67090Y89050D02*
Y89924D01*
X66540Y88500D02*
X67090Y89050D01*
X66784Y93392D02*
X68060Y92116D01*
X58677Y90500D02*
X59650Y89527D01*
Y89450D02*
Y89527D01*
X51340Y90500D02*
X58677D01*
X41325Y80485D02*
X51340Y90500D01*
X60500Y80125D02*
X64000Y83625D01*
X66784Y93392D02*
Y94807D01*
X66335Y95255D02*
X66784Y94807D01*
X66335Y95255D02*
X67858Y96778D01*
Y98651D01*
X45025Y9575D02*
X50050Y14600D01*
X47652Y46465D02*
X48032Y46084D01*
X65100Y28425D02*
Y34600D01*
X4223Y9654D02*
X7425Y6452D01*
X47652Y46465D02*
X47652D01*
X63425Y42950D02*
X63458Y42917D01*
X4223Y9779D02*
Y13589D01*
X7425Y1907D02*
Y6452D01*
X8552Y780D02*
X43030D01*
X48208Y27500D02*
Y45909D01*
X43825Y50292D02*
Y51975D01*
X39815Y10565D02*
Y15575D01*
X48208Y27500D02*
X48208Y21780D01*
X48032Y46084D02*
X48208Y45909D01*
X43825Y50292D02*
X47652Y46465D01*
X63725Y27050D02*
X65100Y28425D01*
X64674Y42917D02*
X65100Y42491D01*
X63150Y27000D02*
X63200Y27050D01*
X65100Y34600D02*
Y42491D01*
X4223Y9654D02*
Y9779D01*
X43030Y780D02*
X45025Y2775D01*
X48208Y21780D02*
X49522Y19903D01*
X63200Y27050D02*
X63725D01*
X63350Y34600D02*
X65100D01*
X63458Y42917D02*
X64674D01*
X7425Y1907D02*
X8552Y780D01*
X45025Y2775D02*
Y9575D01*
X49522Y19903D02*
X50050Y19375D01*
X50321Y27500D02*
X50821Y27000D01*
X22000Y38543D02*
X23874Y40417D01*
X27746D01*
X22000Y22541D02*
X24001Y24542D01*
X27619D01*
X29620Y26543D01*
X5804Y89477D02*
X5876Y89405D01*
X5892Y89383D01*
X6975Y88175D02*
X7375Y87900D01*
X5225Y89875D02*
X5625Y89600D01*
X5804Y89477D01*
X5892Y89383D02*
X6975Y88175D01*
X2725Y92250D02*
Y96375D01*
X34700Y13000D02*
X37275Y15575D01*
X34700Y10541D02*
Y13000D01*
X25700Y100417D02*
Y101125D01*
X25000Y99676D02*
Y99717D01*
X25700Y100417D01*
X14047Y87868D02*
X17326D01*
X7375Y87900D02*
X9500D01*
X9525Y87875D02*
X14047D01*
X5932Y86457D02*
X7375Y87900D01*
X5100Y89875D02*
X5225D01*
X5890Y51379D02*
X6073Y51563D01*
Y51811D02*
X6073Y54248D01*
X6073Y51563D02*
Y51811D01*
X3844Y49475D02*
X5890Y51379D01*
X1957Y49475D02*
X3844D01*
X6073Y54248D02*
X6249Y54424D01*
X21708Y54291D02*
X22000D01*
X5832Y86325D02*
X5932Y86457D01*
X550Y81043D02*
X5832Y86325D01*
X550Y50882D02*
X1957Y49475D01*
X550Y50882D02*
Y81043D01*
X2000Y90575D02*
X2325Y90250D01*
X2000Y90575D02*
Y96675D01*
X2325Y90125D02*
X2600Y89850D01*
X2725D01*
X2325Y90125D02*
Y90250D01*
X57000Y103278D02*
Y115978D01*
X63587Y60367D02*
X63627D01*
X68475Y38175D02*
Y55850D01*
X27077Y10538D02*
X27080Y10541D01*
X24545Y10536D02*
X24548Y10538D01*
X27077D01*
X24545Y26538D02*
X24548Y26540D01*
X27077D01*
X27080Y26543D01*
X24548Y42288D02*
X27077D01*
X24545Y42286D02*
X24548Y42288D01*
X27077D02*
X27080Y42291D01*
X27746Y40417D02*
X29620Y42291D01*
X32160D02*
X34700D01*
X29620D02*
X32160D01*
Y26543D02*
X34700D01*
X29620D02*
X32160D01*
Y10541D02*
X34700D01*
X29620D02*
X32160D01*
D13*
X42593Y18068D02*
G03*
X42286Y17761I1609J-1916D01*
G01*
X37275Y17156D02*
G03*
X37242Y17156I0J-1581D01*
G01*
X37612Y16729D02*
G03*
X36938Y16729I-337J-1154D01*
G01*
X61714Y101253D02*
Y110398D01*
X59984Y99523D02*
X61714Y101253D01*
X62093Y100632D02*
Y107543D01*
Y100632D02*
X62675Y100050D01*
X62093Y107543D02*
X63295Y108745D01*
X61714Y110398D02*
X62472Y111137D01*
X63295Y111285D01*
X54400Y101090D02*
Y102900D01*
X51352Y98042D02*
X54400Y101090D01*
X51195Y98421D02*
X53175Y100401D01*
Y104465D02*
X54275Y105565D01*
X53175Y100401D02*
Y104465D01*
X52750Y100512D02*
Y107000D01*
X54148Y108398D01*
X18315Y97200D02*
X19277Y96238D01*
X10215Y97200D02*
X18315D01*
X9175Y96160D02*
X10215Y97200D01*
X9175Y94460D02*
Y96160D01*
X19277Y87638D02*
Y96238D01*
X61275Y54450D02*
Y57950D01*
X58073Y61152D02*
X61275Y57950D01*
X58473Y89625D02*
X58500Y89652D01*
X52014Y89625D02*
X58473D01*
X51536Y89147D02*
X52014Y89625D01*
X48815Y65075D02*
X61100D01*
X44326Y61122D02*
X54925Y71721D01*
X45084Y59553D02*
Y60808D01*
X44705Y60965D02*
X48815Y65075D01*
X39733Y61518D02*
X43973D01*
X43475Y60180D02*
Y60180D01*
X43973Y61518D02*
X50450Y67995D01*
X45428Y61152D02*
X58073D01*
X45084Y60808D02*
X45428Y61152D01*
X44326Y61031D02*
Y61122D01*
X43475Y60180D02*
X44326Y61031D01*
X54925Y71721D02*
Y77050D01*
X61500Y83625D01*
X44130Y58599D02*
X45084Y59553D01*
X50450Y67995D02*
Y88061D01*
X53350Y46850D02*
X63425D01*
X53073Y30650D02*
X57350D01*
X51348Y32375D02*
X53073Y30650D01*
X27033Y87295D02*
Y94402D01*
Y87295D02*
X27089Y87239D01*
X35962Y1909D02*
X48581Y14528D01*
X35893Y1905D02*
X35962Y1909D01*
X11303Y1905D02*
X35893D01*
X48581Y14528D02*
Y20063D01*
X41098Y17971D02*
X41951Y18824D01*
X42004D01*
X40554Y18620D02*
X40715D01*
X40509Y18575D02*
X40554Y18620D01*
X40715D02*
X41206Y19111D01*
X41602Y51198D02*
X47203Y45597D01*
X41602Y51198D02*
Y54154D01*
X41304Y54452D02*
X41602Y54154D01*
X41212Y54452D02*
X41304D01*
X37987Y57677D02*
X41212Y54452D01*
X19409Y58056D02*
X40644D01*
X41112Y57588D01*
X15898Y57677D02*
X37987D01*
X14333Y59242D02*
X15898Y57677D01*
X18818Y58647D02*
X19409Y58056D01*
X12954Y2540D02*
X35862D01*
X48202Y14880D02*
Y19906D01*
X35862Y2540D02*
X48202Y14880D01*
X57350Y30650D02*
X63150D01*
X56397Y38500D02*
X57550D01*
X63350D01*
X48204Y46693D02*
X56397Y38500D01*
X43753Y19907D02*
X43844Y20100D01*
X42593Y18068D02*
X44625Y20100D01*
X38761Y16777D02*
X41302D01*
X43753Y19792D02*
X43753Y19907D01*
X41302Y16777D02*
X42286Y17761D01*
X41117Y17156D02*
X43753Y19792D01*
X30388Y19663D02*
X42592D01*
X42650Y19721D01*
X37275Y17156D02*
X41117D01*
X31951Y17971D02*
X41098D01*
X27582Y16857D02*
X30388Y19663D01*
X29925Y18575D02*
X40509D01*
X26480Y15130D02*
X29925Y18575D01*
X29289Y15310D02*
X31951Y17971D01*
X38712Y16729D02*
X38761Y16777D01*
X47656Y20988D02*
Y45680D01*
Y20988D02*
X48581Y20063D01*
X47203Y20906D02*
X48202Y19906D01*
X47203Y20906D02*
Y45597D01*
X43210Y55490D02*
X43223Y51371D01*
X43273Y50063D02*
X47656Y45680D01*
X43223Y51371D02*
X43273Y50063D01*
X43136Y55564D02*
X43210Y55490D01*
X41112Y57588D02*
X43136Y55564D01*
X46193Y92533D02*
X50944Y97284D01*
X46193Y91518D02*
Y92533D01*
X45814Y92690D02*
X50787Y97663D01*
X45814Y91675D02*
Y92690D01*
X41747Y90861D02*
X45000D01*
X45157Y90482D02*
X46193Y91518D01*
X35490Y91240D02*
X44843D01*
X51038Y98800D02*
X52750Y100512D01*
X50473Y98421D02*
X51195D01*
X44677Y92146D02*
Y93161D01*
X44529Y91998D02*
X44677Y92146D01*
X44686Y91619D02*
X45056Y91989D01*
Y93004D02*
X50473Y98421D01*
X45435Y92847D02*
X50630Y98042D01*
X45056Y91989D02*
Y93004D01*
X35032Y91619D02*
X44686D01*
X50316Y98800D02*
X51038D01*
X44677Y93161D02*
X50316Y98800D01*
X44843Y91240D02*
X45435Y91832D01*
X41904Y90482D02*
X45157D01*
X45435Y91832D02*
Y92847D01*
X50630Y98042D02*
X51352D01*
X34848Y91998D02*
X44529D01*
X45000Y90861D02*
X45814Y91675D01*
X50787Y97663D02*
X54463D01*
X55750Y98950D01*
X50944Y97284D02*
X54959D01*
X55800Y98125D01*
X42375Y55225D02*
X42400Y55250D01*
X42375Y53725D02*
Y55225D01*
X42338Y53688D02*
X42375Y53725D01*
X48204Y46693D02*
Y58882D01*
X46486Y60600D02*
X48204Y58882D01*
X12250Y86525D02*
X17615D01*
X45798Y60600D02*
X46486D01*
X43973Y58978D02*
X44705Y59710D01*
Y60965D01*
X38276Y58599D02*
X44130D01*
X42137Y58978D02*
X43973D01*
X24140Y15315D02*
X25682Y16857D01*
X27582D01*
X33389Y17139D02*
X37242Y17156D01*
X31609Y15359D02*
X33389Y17139D01*
X35889Y16729D02*
X36938D01*
X37612D02*
X38712D01*
X34730Y15570D02*
X35889Y16729D01*
X37193Y59682D02*
X38276Y58599D01*
X37193Y59682D02*
Y65622D01*
X50901Y5950D02*
X56325D01*
X49523Y4572D02*
X50901Y5950D01*
X11750Y89825D02*
X11875D01*
X11625D02*
X11750D01*
X12650Y64725D02*
X22300D01*
X11657Y63732D02*
X12650Y64725D01*
X22300D02*
X23123Y63902D01*
Y62752D02*
X23155Y62720D01*
X23123Y62752D02*
Y63902D01*
X21325Y64300D02*
X21900Y63725D01*
X15125Y64300D02*
X21325D01*
X14333Y63508D02*
X15125Y64300D01*
X21900Y61900D02*
Y63725D01*
Y61900D02*
X22700Y61100D01*
X14333Y62222D02*
Y63508D01*
X11657Y62168D02*
Y63732D01*
X30100Y85850D02*
X35490Y91240D01*
X4173Y70838D02*
X19185Y85850D01*
X30100D01*
X3529Y70818D02*
X18955Y86244D01*
X29473Y86623D02*
X34848Y91998D01*
X3150Y70975D02*
X18798Y86623D01*
X29657Y86244D02*
X35032Y91619D01*
X18798Y86623D02*
X29473D01*
X18955Y86244D02*
X29657D01*
X10140Y94765D02*
Y95425D01*
X9253Y90197D02*
Y93878D01*
X10140Y94765D01*
Y95425D02*
X10455Y95740D01*
X7915Y93200D02*
X9175Y94460D01*
X25685Y93190D02*
X25695Y93200D01*
X25685Y90435D02*
Y93190D01*
X25675Y90425D02*
X25685Y90435D01*
X39675Y88789D02*
X41747Y90861D01*
X40054Y88632D02*
X41904Y90482D01*
X39675Y77050D02*
Y88789D01*
Y77050D02*
X41325Y75400D01*
X40054Y79211D02*
X41325Y77940D01*
X40054Y79211D02*
Y88632D01*
X25695Y95740D02*
X27033Y94402D01*
X51536Y89147D02*
X51536Y89147D01*
X50450Y88061D02*
X51536Y89147D01*
X42325Y51975D02*
X42338Y51987D01*
Y53688D01*
X16850Y59705D02*
X17909Y58647D01*
X18818D01*
X16850Y59705D02*
Y60565D01*
X3529Y59807D02*
Y70818D01*
X4173Y61382D02*
Y70838D01*
X23050Y60075D02*
Y60730D01*
X15897Y61518D02*
X16850Y60565D01*
X15037Y61518D02*
X15897D01*
X22700Y61080D02*
X23050Y60730D01*
X22700Y61080D02*
Y61100D01*
X14333Y62222D02*
X15037Y61518D01*
X11657Y62168D02*
X12443Y61382D01*
X14333Y59242D02*
Y60542D01*
X13493Y61382D02*
X14333Y60542D01*
X12443Y61382D02*
X13493D01*
X40935Y60180D02*
X42137Y58978D01*
X10885Y61450D02*
X11657Y60678D01*
Y59682D02*
Y60678D01*
X31273Y71542D02*
X37193Y65622D01*
X2771Y71132D02*
X19277Y87638D01*
X2771Y59493D02*
Y71132D01*
Y59493D02*
X4118Y58146D01*
X10121D01*
X11657Y59682D01*
X7485Y61450D02*
X10885D01*
X6713Y62222D02*
X7485Y61450D01*
X6713Y62222D02*
Y70838D01*
X7417Y71542D01*
X31273D01*
X11875Y89825D02*
X12734Y88966D01*
X18285Y87196D02*
Y88554D01*
X17874Y88966D02*
X18285Y88554D01*
X12734Y88966D02*
X17874D01*
X17615Y86525D02*
X18285Y87196D01*
X10455Y90995D02*
X11625Y89825D01*
X10455Y90995D02*
Y93200D01*
X14047Y89868D02*
X14172D01*
X6625Y90525D02*
X7250Y89900D01*
X6625Y90525D02*
Y94450D01*
X7915Y95740D01*
X16737Y92433D02*
Y94402D01*
X14172Y89868D02*
X16737Y92433D01*
Y94402D02*
X18075Y95740D01*
X4275Y58525D02*
X8800D01*
X3529Y59807D02*
X4358Y58978D01*
X3150Y59650D02*
X4275Y58525D01*
X4358Y58978D02*
X6713D01*
X3150Y59650D02*
Y70975D01*
X6713Y58978D02*
X7915Y60180D01*
X8800Y58525D02*
X10455Y60180D01*
X9253Y90197D02*
X9525Y89925D01*
X7250Y89900D02*
X7375D01*
X4173Y61382D02*
X5375Y60180D01*
X61849Y90833D02*
X62075Y91059D01*
X62033Y97427D02*
Y97427D01*
X61210Y98250D02*
X61210D01*
X62033Y97427D01*
X38395Y60180D02*
X39733Y61518D01*
X18075Y90492D02*
Y93200D01*
X17458Y89875D02*
X18075Y90492D01*
X17333Y89875D02*
X17458D01*
X2725Y87850D02*
X5700D01*
X7977Y3231D02*
Y7771D01*
X6671Y9077D02*
X7977Y7771D01*
Y3231D02*
X9303Y1905D01*
X6223Y9779D02*
X6671Y9331D01*
Y9077D02*
Y9331D01*
X11303Y4191D02*
X12954Y2540D01*
X7134Y11194D02*
Y12554D01*
X6223Y13464D02*
X7134Y12554D01*
Y11194D02*
X9303Y9025D01*
Y4191D02*
Y9025D01*
X6223Y13464D02*
Y13589D01*
D30*
X64000Y83625D02*
D03*
X66500D02*
D03*
X61500D02*
D03*
X61100Y65075D02*
D03*
X66100D02*
D03*
X63600D02*
D03*
X61275Y54450D02*
D03*
X66275D02*
D03*
X63775D02*
D03*
D38*
X60425Y117400D02*
D03*
X61375Y119700D02*
D03*
X62325Y117400D02*
D03*
D39*
X63150Y30650D02*
D03*
X57350D02*
D03*
X63150Y26750D02*
D03*
X57350D02*
D03*
X57625Y42950D02*
D03*
X63425D02*
D03*
X57625Y46850D02*
D03*
X63425D02*
D03*
X57550Y34600D02*
D03*
X63350D02*
D03*
X57550Y38500D02*
D03*
X63350D02*
D03*
D40*
X68525Y104975D02*
D03*
X67175D02*
D03*
X63700Y72400D02*
D03*
X62350D02*
D03*
D41*
X68500Y101800D02*
D03*
X65450D02*
D03*
X64575Y70225D02*
D03*
X61525D02*
D03*
D42*
X66750Y59750D02*
D03*
X64000D02*
D03*
D43*
X55625Y84350D02*
D03*
Y83000D02*
D03*
D44*
X57725Y87575D02*
D03*
Y84525D02*
D03*
D45*
X40850Y53700D02*
D03*
X42350D02*
D03*
X42325Y51975D02*
D03*
X43825D02*
D03*
D46*
X7375Y89900D02*
D03*
Y87900D02*
D03*
X11750Y87825D02*
D03*
Y89825D02*
D03*
X14047Y87868D02*
D03*
Y89868D02*
D03*
X17333Y87875D02*
D03*
Y89875D02*
D03*
X9525Y87925D02*
D03*
Y89925D02*
D03*
X5225Y89875D02*
D03*
Y87875D02*
D03*
X2725Y89850D02*
D03*
Y87850D02*
D03*
D47*
X6223Y13589D02*
D03*
X4223D02*
D03*
X9303Y4191D02*
D03*
X11303D02*
D03*
X6223Y9779D02*
D03*
X4223D02*
D03*
X9303Y1905D02*
D03*
X11303D02*
D03*
D48*
X61212Y101706D02*
Y119207D01*
X61325Y119650D02*
X61375Y119700D01*
X61212Y119207D02*
X61325Y119320D01*
Y119650D01*
X59175Y99669D02*
X61212Y101706D01*
X48325Y119700D02*
X61375D01*
X35100Y106475D02*
X48325Y119700D01*
X67000Y105039D02*
X67160Y105200D01*
X65717Y103348D02*
X67000Y104631D01*
X65717Y102067D02*
Y103348D01*
X67000Y104631D02*
Y105039D01*
X65450Y101800D02*
X65717Y102067D01*
X65450Y101425D02*
Y101800D01*
X59200Y96925D02*
Y98448D01*
X59175Y98473D02*
X59200Y98448D01*
X59175Y98473D02*
Y99669D01*
X12500Y101000D02*
Y101475D01*
X17500Y106475D01*
X63750Y98250D02*
Y99725D01*
X65450Y101425D01*
X17500Y106475D02*
X35100D01*
D49*
X68500Y101125D02*
Y104950D01*
X66800Y58875D02*
Y64131D01*
X15948Y3302D02*
X32552D01*
X10500Y14000D02*
Y17350D01*
Y8750D02*
Y14000D01*
X7800Y20050D02*
X10500Y17350D01*
X7786Y20065D02*
X7800Y20050D01*
X62655Y87575D02*
X66585Y91505D01*
X57725Y87575D02*
X62655D01*
X37068Y36175D02*
X41675Y31568D01*
X34700Y38543D02*
X37068Y36175D01*
X39866D02*
X41025Y37334D01*
X37068Y36175D02*
X39866D01*
X41025Y37334D02*
Y47966D01*
X34700Y54291D02*
X41025Y47966D01*
X16801Y45430D02*
X23299D01*
X32160Y54291D01*
X14000Y42629D02*
X16801Y45430D01*
X41675Y22375D02*
Y31568D01*
X40225Y20925D02*
X41675Y22375D01*
X40225Y20925D02*
X44975D01*
X36316D02*
X40225D01*
X22402Y31325D02*
X29620Y38543D01*
X15944Y31325D02*
X22402D01*
X14000Y29381D02*
X15944Y31325D01*
X14656Y27281D02*
X17600Y30225D01*
X23842D02*
X32160Y38543D01*
X17600Y30225D02*
X23842D01*
X4223Y13589D02*
Y16473D01*
X7800Y20050D01*
X7786Y20065D02*
Y24511D01*
X32552Y3302D02*
X39815Y10565D01*
X42964D01*
X18595Y18600D02*
X25975D01*
X14153Y14158D02*
X18595Y18600D01*
X16195Y20574D02*
X22583D01*
X15325Y13175D02*
X19659Y17509D01*
X17671Y19550D02*
X24089D01*
X19659Y17509D02*
X27128D01*
X42964Y10565D02*
X47550Y15151D01*
X44975Y20925D02*
X47550Y18350D01*
Y15151D02*
Y18350D01*
X68375Y100335D02*
Y101125D01*
X66295Y98255D02*
X68375Y100335D01*
X63295Y103665D02*
X63366D01*
X66100Y64831D02*
Y65075D01*
Y64831D02*
X66800Y64131D01*
X63700Y70966D02*
Y72400D01*
Y70966D02*
X64350Y70316D01*
X64722Y69028D02*
X66100Y67650D01*
X64722Y69028D02*
Y69944D01*
X56850Y87450D02*
X57225D01*
X56725Y87325D02*
X56850Y87450D01*
X55850Y86450D02*
X56725Y87325D01*
X55700Y84675D02*
X55850Y84825D01*
Y86450D01*
X56725Y87325D02*
Y87325D01*
X55550Y84325D02*
X55600D01*
X55625Y84350D01*
X55675D02*
X55700Y84375D01*
Y84675D01*
X55625Y84350D02*
X55675D01*
X55057Y83950D02*
X55175D01*
X54600Y83493D02*
X55057Y83950D01*
X54045Y83493D02*
X54600D01*
X55175Y83950D02*
X55550Y84325D01*
X53275Y83020D02*
X53573D01*
X54045Y83493D01*
X34700Y22541D02*
X36316Y20925D01*
X25975Y18600D02*
X29620Y22245D01*
X27128Y17509D02*
X32160Y22541D01*
X29620Y22245D02*
Y22541D01*
X14000Y31881D02*
X14175D01*
X14869Y32575D02*
X21112D01*
X14175Y31881D02*
X14869Y32575D01*
X21112D02*
X27080Y38543D01*
X14000Y34381D02*
X19999D01*
X23630Y38012D01*
X14216Y26881D02*
X14616Y27281D01*
X14000Y26881D02*
X14216D01*
X14616Y27281D02*
X14656D01*
X14000Y5250D02*
X15948Y3302D01*
X10500Y8750D02*
X14000Y5250D01*
X15012Y48641D02*
X21430D01*
X14000Y47629D02*
X15012Y48641D01*
X21430D02*
X27080Y54291D01*
X66100Y65075D02*
Y67650D01*
X21684Y46355D02*
X29620Y54291D01*
X15226Y46355D02*
X21684D01*
X14000Y45129D02*
X15226Y46355D01*
X24089Y19550D02*
X27080Y22541D01*
X14000Y15879D02*
X17671Y19550D01*
X15325Y12204D02*
Y13175D01*
X14000Y10879D02*
X15325Y12204D01*
X14000Y13379D02*
X14153Y13532D01*
Y14158D01*
X22583Y20574D02*
X24545Y22536D01*
X14000Y18379D02*
X16195Y20574D01*
X21313Y51054D02*
X24545Y54286D01*
X14925Y51054D02*
X21313D01*
X14000Y50129D02*
X14925Y51054D01*
X24247Y38538D02*
X24545D01*
X23630Y38012D02*
X23722D01*
X24247Y38538D01*
D50*
X10455Y25950D02*
X11155Y25250D01*
X15383D02*
X17885Y27752D01*
X11155Y25250D02*
X15383D01*
X39475Y39575D02*
Y43075D01*
X38684Y43866D02*
X39475Y43075D01*
X37371Y38674D02*
X38574D01*
X37240Y38543D02*
X37371Y38674D01*
X38574D02*
X39475Y39575D01*
X17991Y43866D02*
X38684D01*
X12197Y38072D02*
X17991Y43866D01*
X5428Y38072D02*
X12197D01*
X4286Y39335D02*
Y39497D01*
X4585Y38915D02*
Y39035D01*
X4286Y39335D02*
X4585Y39035D01*
Y38915D02*
X5428Y38072D01*
X38039Y28550D02*
X38815Y27774D01*
X37240Y22785D02*
X38815Y24360D01*
X37240Y22541D02*
Y22785D01*
X38815Y24360D02*
Y27774D01*
X18683Y28550D02*
X38039D01*
X37565Y54291D02*
X38156Y53700D01*
X37240Y54291D02*
X37565D01*
X17885Y27752D02*
Y27752D01*
X18683Y28550D01*
X4286Y24511D02*
X5725Y25950D01*
X10455D01*
X7175Y56925D02*
X34606D01*
X37240Y54291D01*
X4286Y54035D02*
X7175Y56925D01*
X38156Y53700D02*
X40850D01*
X4286Y51943D02*
Y54035D01*
D51*
X26042Y99700D02*
X26850Y100508D01*
Y101000D01*
D52*
X38200Y98775D02*
D03*
X28200D02*
D03*
X44050Y98800D02*
D03*
X54050D02*
D03*
D53*
X12500Y101000D02*
D03*
X22900D02*
D03*
Y117400D02*
D03*
X12500D02*
D03*
X26000Y117500D02*
D03*
X36400D02*
D03*
Y101100D02*
D03*
X26000D02*
D03*
X39725Y101125D02*
D03*
X50125D02*
D03*
Y117525D02*
D03*
X39725D02*
D03*
D54*
X55100Y51010D02*
D03*
X52255Y50990D02*
D03*
X63295Y111285D02*
D03*
X53275Y75400D02*
D03*
X59480Y102900D02*
D03*
D55*
X55100Y53550D02*
D03*
X55095Y56095D02*
D03*
X52255Y53530D02*
D03*
X52250Y56075D02*
D03*
X64040Y91500D02*
D03*
X66585Y91505D02*
D03*
X24575Y15575D02*
D03*
X27115D02*
D03*
X29655D02*
D03*
X34730Y15570D02*
D03*
X37275Y15575D02*
D03*
X32195D02*
D03*
X63300Y106200D02*
D03*
X63295Y108745D02*
D03*
Y103665D02*
D03*
X41325Y77940D02*
D03*
X53275D02*
D03*
X41325Y75400D02*
D03*
X53275Y88100D02*
D03*
Y85560D02*
D03*
X53280Y80485D02*
D03*
X53275Y83020D02*
D03*
X41330Y85560D02*
D03*
X41325Y83020D02*
D03*
Y80485D02*
D03*
Y88100D02*
D03*
X56175Y95735D02*
D03*
X51095Y93195D02*
D03*
Y95735D02*
D03*
X53635D02*
D03*
X56175Y93195D02*
D03*
X53635D02*
D03*
X5375Y93200D02*
D03*
X7915D02*
D03*
X10455D02*
D03*
X12995D02*
D03*
X15535D02*
D03*
X18075D02*
D03*
X20615D02*
D03*
X5375Y95740D02*
D03*
X7915D02*
D03*
X10455D02*
D03*
X12995D02*
D03*
X15535D02*
D03*
X20615D02*
D03*
X23155Y93200D02*
D03*
X25695D02*
D03*
X28235D02*
D03*
X23155Y95740D02*
D03*
X25695D02*
D03*
X28235D02*
D03*
X30775Y93200D02*
D03*
X33315D02*
D03*
X35855D02*
D03*
X30775Y95740D02*
D03*
X33315D02*
D03*
X35855D02*
D03*
X38395D02*
D03*
X40935D02*
D03*
X43475D02*
D03*
X40935Y93200D02*
D03*
X38395D02*
D03*
X18075Y95740D02*
D03*
X5375Y62720D02*
D03*
X7915D02*
D03*
X30789Y60193D02*
D03*
X7915Y70340D02*
D03*
Y65260D02*
D03*
X5375D02*
D03*
X7915Y67800D02*
D03*
X5375D02*
D03*
Y70340D02*
D03*
X25695Y62720D02*
D03*
X33315D02*
D03*
X30775D02*
D03*
X28235D02*
D03*
X35855D02*
D03*
X43475D02*
D03*
X40935D02*
D03*
X38395D02*
D03*
X25695Y60180D02*
D03*
X33315D02*
D03*
X28235D02*
D03*
X38395D02*
D03*
X35855D02*
D03*
X40935D02*
D03*
X43475D02*
D03*
X18075Y62720D02*
D03*
X20615D02*
D03*
X23155D02*
D03*
X7915Y60180D02*
D03*
X10455D02*
D03*
X12995D02*
D03*
X15535D02*
D03*
X23155D02*
D03*
X20615D02*
D03*
X18075D02*
D03*
X5375D02*
D03*
X10455Y62720D02*
D03*
X12995D02*
D03*
X15535D02*
D03*
X37240Y26543D02*
D03*
X34700D02*
D03*
X32160D02*
D03*
X29620D02*
D03*
X24545Y26538D02*
D03*
X22000Y26543D02*
D03*
X27080D02*
D03*
X37240Y38543D02*
D03*
X34700D02*
D03*
X32160D02*
D03*
X29620D02*
D03*
X24545Y38538D02*
D03*
X22000Y38543D02*
D03*
X19460D02*
D03*
X27080D02*
D03*
X66295Y98255D02*
D03*
X63750Y98250D02*
D03*
X27080Y54291D02*
D03*
X19460D02*
D03*
X22000D02*
D03*
X24545Y54286D02*
D03*
X29620Y54291D02*
D03*
X32160D02*
D03*
X34700D02*
D03*
X37240D02*
D03*
X27080Y42291D02*
D03*
X22000D02*
D03*
X24545Y42286D02*
D03*
X29620Y42291D02*
D03*
X32160D02*
D03*
X34700D02*
D03*
X37240D02*
D03*
Y10541D02*
D03*
X34700D02*
D03*
X32160D02*
D03*
X29620D02*
D03*
X24545Y10536D02*
D03*
X22000Y10541D02*
D03*
X27080D02*
D03*
X37240Y22541D02*
D03*
X34700D02*
D03*
X32160D02*
D03*
X29620D02*
D03*
X24545Y22536D02*
D03*
X22000Y22541D02*
D03*
X19460D02*
D03*
X27080D02*
D03*
X59480Y107980D02*
D03*
Y105440D02*
D03*
Y110520D02*
D03*
Y113060D02*
D03*
Y115600D02*
D03*
X56940Y107980D02*
D03*
Y105440D02*
D03*
Y102900D02*
D03*
Y110520D02*
D03*
Y113060D02*
D03*
Y115600D02*
D03*
X54400Y107980D02*
D03*
Y105440D02*
D03*
Y102900D02*
D03*
Y110520D02*
D03*
Y113060D02*
D03*
Y115600D02*
D03*
D56*
X50050Y30000D02*
D03*
Y21875D02*
D03*
X5587Y102787D02*
D03*
X14000Y34381D02*
D03*
Y18379D02*
D03*
X5600Y110525D02*
D03*
X14000Y50129D02*
D03*
D57*
X50050Y27500D02*
D03*
Y19375D02*
D03*
X59500Y4575D02*
D03*
X54500D02*
D03*
X52000D02*
D03*
X49500D02*
D03*
X57000D02*
D03*
X5587Y100287D02*
D03*
X14000Y26881D02*
D03*
Y29381D02*
D03*
Y31881D02*
D03*
Y15879D02*
D03*
Y13379D02*
D03*
Y10879D02*
D03*
X5600Y108025D02*
D03*
X4286Y39497D02*
D03*
X7786D02*
D03*
X4286Y51943D02*
D03*
X7786D02*
D03*
X4286Y24511D02*
D03*
X7786D02*
D03*
X14000Y47629D02*
D03*
Y45129D02*
D03*
Y42629D02*
D03*
D58*
X61500Y91500D02*
D03*
X39815Y15575D02*
D03*
X43475Y93200D02*
D03*
X19460Y26543D02*
D03*
X61210Y98250D02*
D03*
X19460Y42291D02*
D03*
Y10541D02*
D03*
D59*
X44202Y16152D02*
D03*
X44075Y39775D02*
D03*
D60*
X47000Y4575D02*
D03*
D61*
X4000Y77000D02*
D03*
X66000D02*
D03*
X4000Y116000D02*
D03*
X66000D02*
D03*
X4000Y4000D02*
D03*
X66000D02*
D03*
D62*
X59200Y96925D02*
D03*
X8725Y113925D02*
D03*
X7038Y111812D02*
D03*
X11825Y111350D02*
D03*
X59650Y89450D02*
D03*
X58500Y89652D02*
D03*
X53350Y46850D02*
D03*
X51348Y32375D02*
D03*
X27089Y87239D02*
D03*
X10000Y37147D02*
D03*
Y35000D02*
D03*
Y40000D02*
D03*
Y25000D02*
D03*
X7800Y20050D02*
D03*
X42004Y18824D02*
D03*
X41206Y19111D02*
D03*
X7500Y27500D02*
D03*
X10000Y30000D02*
D03*
Y32500D02*
D03*
X7500Y30000D02*
D03*
X43844Y20100D02*
D03*
X42650Y19721D02*
D03*
X44625Y20100D02*
D03*
X62675Y100050D02*
D03*
X59984Y99523D02*
D03*
X55750Y98950D02*
D03*
X55800Y98125D02*
D03*
X42400Y55250D02*
D03*
X12250Y86525D02*
D03*
X45798Y60600D02*
D03*
X56325Y5950D02*
D03*
X25675Y90425D02*
D03*
X8100Y110400D02*
D03*
X13775Y113925D02*
D03*
X10425Y113600D02*
D03*
X10500Y14000D02*
D03*
Y8750D02*
D03*
X14000Y5250D02*
D03*
X19250Y3250D02*
D03*
X30500D02*
D03*
X27250D02*
D03*
X23250D02*
D03*
X7500Y50000D02*
D03*
Y47500D02*
D03*
Y45000D02*
D03*
X10000D02*
D03*
Y47500D02*
D03*
Y50000D02*
D03*
Y27500D02*
D03*
Y22500D02*
D03*
Y20000D02*
D03*
M02*
