G04*
G04 #@! TF.GenerationSoftware,Altium Limited,Altium Designer,24.2.2 (26)*
G04*
G04 Layer_Color=32896*
%FSLAX43Y43*%
%MOMM*%
G71*
G04*
G04 #@! TF.SameCoordinates,826AFC0B-8DA9-4817-B3A0-D4F6A81A9B3F*
G04*
G04*
G04 #@! TF.FilePolarity,Positive*
G04*
G01*
G75*
%ADD10C,0.600*%
%ADD12C,0.200*%
%ADD13C,0.254*%
G36*
X37721Y57418D02*
X37730Y57413D01*
X37735Y57407D01*
X37739Y57399D01*
X37740Y57393D01*
X37741Y57388D01*
Y57219D01*
X37740Y57202D01*
X37739Y57186D01*
X37731Y57154D01*
X37721Y57124D01*
X37710Y57098D01*
X37703Y57087D01*
X37698Y57077D01*
X37693Y57068D01*
X37688Y57059D01*
X37684Y57054D01*
X37680Y57049D01*
X37679Y57046D01*
X37678Y57045D01*
X37654Y57016D01*
X37628Y56991D01*
X37603Y56972D01*
X37580Y56956D01*
X37559Y56944D01*
X37551Y56941D01*
X37543Y56937D01*
X37537Y56934D01*
X37532Y56932D01*
X37529Y56930D01*
X37528D01*
X36993Y56749D01*
X36977Y56744D01*
X36962Y56741D01*
X36946Y56739D01*
X36932Y56737D01*
X36907Y56739D01*
X36884Y56744D01*
X36866Y56749D01*
X36854Y56754D01*
X36849Y56756D01*
X36845Y56759D01*
X36843Y56760D01*
X36842D01*
X36831Y56769D01*
X36822Y56778D01*
X36813Y56788D01*
X36807Y56798D01*
X36795Y56820D01*
X36788Y56842D01*
X36784Y56861D01*
X36783Y56870D01*
X36781Y56877D01*
X36780Y56882D01*
Y57057D01*
X36783Y57074D01*
X36788Y57087D01*
X36795Y57098D01*
X36804Y57107D01*
X36812Y57113D01*
X36819Y57117D01*
X36824Y57120D01*
X36827Y57121D01*
X36836Y57124D01*
X36842Y57125D01*
X36854Y57124D01*
X36863Y57118D01*
X36868Y57111D01*
X36871Y57103D01*
X36873Y57097D01*
X36874Y57092D01*
Y56923D01*
X36875Y56905D01*
X36879Y56891D01*
X36885Y56878D01*
X36892Y56867D01*
X36897Y56859D01*
X36903Y56854D01*
X36907Y56850D01*
X36908Y56849D01*
X36922Y56843D01*
X36936Y56839D01*
X36951Y56838D01*
X36965D01*
X36977Y56840D01*
X36986Y56842D01*
X36992Y56843D01*
X36995Y56844D01*
X37528Y57026D01*
X37546Y57033D01*
X37561Y57042D01*
X37576Y57054D01*
X37588Y57064D01*
X37598Y57074D01*
X37605Y57082D01*
X37611Y57087D01*
X37612Y57089D01*
X37623Y57107D01*
X37632Y57125D01*
X37639Y57140D01*
X37644Y57155D01*
X37646Y57168D01*
X37647Y57177D01*
Y57352D01*
X37650Y57369D01*
X37655Y57383D01*
X37663Y57394D01*
X37672Y57402D01*
X37679Y57408D01*
X37687Y57413D01*
X37692Y57414D01*
X37694Y57416D01*
X37703Y57418D01*
X37710Y57419D01*
X37721Y57418D01*
D02*
G37*
G36*
Y56872D02*
X37730Y56867D01*
X37735Y56861D01*
X37739Y56853D01*
X37740Y56847D01*
X37741Y56842D01*
Y56673D01*
X37740Y56656D01*
X37739Y56640D01*
X37731Y56608D01*
X37721Y56577D01*
X37710Y56552D01*
X37703Y56541D01*
X37698Y56530D01*
X37693Y56522D01*
X37688Y56513D01*
X37684Y56508D01*
X37680Y56502D01*
X37679Y56500D01*
X37678Y56499D01*
X37654Y56469D01*
X37628Y56445D01*
X37603Y56426D01*
X37580Y56410D01*
X37559Y56398D01*
X37551Y56395D01*
X37543Y56391D01*
X37537Y56388D01*
X37532Y56386D01*
X37529Y56384D01*
X37528D01*
X36993Y56203D01*
X36977Y56198D01*
X36962Y56195D01*
X36946Y56193D01*
X36932Y56191D01*
X36907Y56193D01*
X36884Y56198D01*
X36866Y56203D01*
X36854Y56208D01*
X36849Y56210D01*
X36845Y56213D01*
X36843Y56214D01*
X36842D01*
X36831Y56223D01*
X36822Y56232D01*
X36813Y56242D01*
X36807Y56252D01*
X36795Y56274D01*
X36788Y56295D01*
X36784Y56315D01*
X36783Y56323D01*
X36781Y56331D01*
X36780Y56336D01*
Y56511D01*
X36783Y56528D01*
X36788Y56541D01*
X36795Y56552D01*
X36804Y56561D01*
X36812Y56567D01*
X36819Y56571D01*
X36824Y56574D01*
X36827Y56575D01*
X36836Y56577D01*
X36842Y56579D01*
X36854Y56577D01*
X36863Y56572D01*
X36868Y56565D01*
X36871Y56557D01*
X36873Y56551D01*
X36874Y56546D01*
Y56377D01*
X36875Y56359D01*
X36879Y56345D01*
X36885Y56332D01*
X36892Y56321D01*
X36897Y56313D01*
X36903Y56308D01*
X36907Y56304D01*
X36908Y56303D01*
X36922Y56297D01*
X36936Y56293D01*
X36951Y56292D01*
X36965D01*
X36977Y56294D01*
X36986Y56295D01*
X36992Y56297D01*
X36995Y56298D01*
X37528Y56480D01*
X37546Y56487D01*
X37561Y56496D01*
X37576Y56508D01*
X37588Y56518D01*
X37598Y56528D01*
X37605Y56535D01*
X37611Y56541D01*
X37612Y56543D01*
X37623Y56561D01*
X37632Y56579D01*
X37639Y56594D01*
X37644Y56609D01*
X37646Y56622D01*
X37647Y56631D01*
Y56806D01*
X37650Y56823D01*
X37655Y56836D01*
X37663Y56848D01*
X37672Y56856D01*
X37679Y56862D01*
X37687Y56867D01*
X37692Y56868D01*
X37694Y56870D01*
X37703Y56872D01*
X37710Y56873D01*
X37721Y56872D01*
D02*
G37*
G36*
Y56322D02*
X37729Y56317D01*
X37735Y56311D01*
X37738Y56302D01*
X37739Y56295D01*
X37740Y56290D01*
Y56288D01*
X37739Y56275D01*
X37735Y56264D01*
X37729Y56254D01*
X37724Y56246D01*
X37717Y56240D01*
X37711Y56235D01*
X37707Y56232D01*
X37706Y56231D01*
X36973Y55794D01*
X37706Y55855D01*
X37717Y55854D01*
X37726Y55851D01*
X37731Y55846D01*
X37736Y55840D01*
X37739Y55833D01*
X37740Y55827D01*
Y55822D01*
X37738Y55805D01*
X37732Y55791D01*
X37726Y55781D01*
X37717Y55772D01*
X37708Y55766D01*
X37702Y55762D01*
X37697Y55760D01*
X37694Y55758D01*
X37686Y55756D01*
X37683D01*
X37682D01*
X36819Y55696D01*
X36807Y55697D01*
X36797Y55700D01*
X36790Y55705D01*
X36785Y55711D01*
X36783Y55718D01*
X36781Y55723D01*
X36780Y55727D01*
Y55728D01*
X36781Y55740D01*
X36786Y55752D01*
X36793Y55762D01*
X36800Y55771D01*
X36807Y55779D01*
X36813Y55784D01*
X36818Y55786D01*
X36819Y55787D01*
X37688Y56317D01*
X37689Y56318D01*
X37692Y56320D01*
X37693Y56321D01*
X37694D01*
X37702Y56323D01*
X37710D01*
X37721Y56322D01*
D02*
G37*
G36*
X35074Y57561D02*
X35096Y57557D01*
X35114Y57550D01*
X35126Y57545D01*
X35132Y57543D01*
X35135Y57540D01*
X35137Y57539D01*
X35138D01*
X35149Y57531D01*
X35159Y57521D01*
X35167Y57512D01*
X35175Y57502D01*
X35186Y57481D01*
X35194Y57459D01*
X35198Y57440D01*
X35200Y57431D01*
Y57423D01*
X35201Y57418D01*
Y57176D01*
X35199Y57159D01*
X35194Y57147D01*
X35186Y57135D01*
X35179Y57128D01*
X35170Y57121D01*
X35162Y57116D01*
X35157Y57115D01*
X35154Y57114D01*
X34287Y56818D01*
X34279Y56815D01*
X34272D01*
X34260Y56816D01*
X34251Y56821D01*
X34246Y56828D01*
X34243Y56835D01*
X34241Y56842D01*
X34240Y56847D01*
Y57082D01*
X34241Y57098D01*
X34243Y57115D01*
X34250Y57147D01*
X34260Y57177D01*
X34272Y57202D01*
X34277Y57214D01*
X34283Y57224D01*
X34288Y57234D01*
X34292Y57242D01*
X34297Y57247D01*
X34300Y57252D01*
X34301Y57255D01*
X34302Y57256D01*
X34326Y57285D01*
X34352Y57309D01*
X34377Y57329D01*
X34401Y57345D01*
X34422Y57356D01*
X34431Y57360D01*
X34438Y57364D01*
X34444Y57366D01*
X34450Y57369D01*
X34452Y57370D01*
X34453D01*
X34988Y57552D01*
X35005Y57557D01*
X35020Y57559D01*
X35035Y57562D01*
X35049D01*
X35074Y57561D01*
D02*
G37*
G36*
X35181Y56995D02*
X35190Y56990D01*
X35195Y56984D01*
X35199Y56975D01*
X35200Y56969D01*
X35201Y56964D01*
Y56961D01*
X35199Y56945D01*
X35194Y56932D01*
X35186Y56921D01*
X35179Y56913D01*
X35170Y56907D01*
X35162Y56901D01*
X35157Y56900D01*
X35154Y56899D01*
X34452Y56659D01*
X35173Y56595D01*
X35182Y56593D01*
X35190Y56589D01*
X35195Y56583D01*
X35198Y56576D01*
X35200Y56571D01*
X35201Y56566D01*
Y56561D01*
X35199Y56545D01*
X35194Y56532D01*
X35186Y56520D01*
X35179Y56513D01*
X35170Y56506D01*
X35162Y56501D01*
X35157Y56500D01*
X35154Y56499D01*
X34287Y56203D01*
X34279Y56200D01*
X34272D01*
X34260Y56202D01*
X34251Y56207D01*
X34246Y56213D01*
X34243Y56221D01*
X34241Y56227D01*
X34240Y56232D01*
Y56235D01*
X34243Y56251D01*
X34248Y56265D01*
X34255Y56277D01*
X34264Y56284D01*
X34272Y56291D01*
X34279Y56296D01*
X34284Y56297D01*
X34287Y56298D01*
X34989Y56537D01*
X34272Y56602D01*
X34262Y56604D01*
X34254Y56608D01*
X34248Y56614D01*
X34244Y56620D01*
X34241Y56626D01*
X34240Y56630D01*
Y56635D01*
X34243Y56651D01*
X34248Y56665D01*
X34255Y56677D01*
X34264Y56684D01*
X34272Y56691D01*
X34279Y56696D01*
X34284Y56697D01*
X34287Y56698D01*
X35154Y56994D01*
X35163Y56997D01*
X35170D01*
X35181Y56995D01*
D02*
G37*
G36*
Y56379D02*
X35190Y56374D01*
X35195Y56368D01*
X35199Y56360D01*
X35200Y56354D01*
X35201Y56349D01*
Y56113D01*
X35200Y56096D01*
X35199Y56080D01*
X35191Y56048D01*
X35181Y56019D01*
X35170Y55993D01*
X35163Y55982D01*
X35158Y55972D01*
X35153Y55962D01*
X35148Y55954D01*
X35144Y55949D01*
X35140Y55944D01*
X35139Y55941D01*
X35138Y55940D01*
X35126Y55925D01*
X35114Y55911D01*
X35088Y55887D01*
X35063Y55868D01*
X35040Y55852D01*
X35019Y55841D01*
X35011Y55836D01*
X35003Y55833D01*
X34997Y55831D01*
X34992Y55828D01*
X34989Y55827D01*
X34988D01*
X34453Y55645D01*
X34437Y55640D01*
X34422Y55637D01*
X34406Y55635D01*
X34392Y55634D01*
X34367Y55635D01*
X34344Y55639D01*
X34326Y55644D01*
X34314Y55649D01*
X34309Y55652D01*
X34305Y55654D01*
X34304Y55656D01*
X34302D01*
X34291Y55664D01*
X34282Y55673D01*
X34273Y55684D01*
X34267Y55694D01*
X34255Y55715D01*
X34248Y55737D01*
X34244Y55756D01*
X34243Y55765D01*
X34241Y55772D01*
X34240Y55778D01*
Y56019D01*
X34243Y56035D01*
X34248Y56049D01*
X34255Y56061D01*
X34264Y56068D01*
X34272Y56075D01*
X34279Y56080D01*
X34284Y56081D01*
X34287Y56082D01*
X34753Y56241D01*
X34762Y56244D01*
X34768D01*
X34780Y56242D01*
X34789Y56237D01*
X34794Y56231D01*
X34798Y56223D01*
X34799Y56217D01*
X34800Y56212D01*
Y56076D01*
X34798Y56059D01*
X34792Y56047D01*
X34785Y56035D01*
X34777Y56026D01*
X34768Y56020D01*
X34761Y56016D01*
X34756Y56014D01*
X34753Y56012D01*
X34745Y56010D01*
X34738D01*
X34726Y56011D01*
X34718Y56016D01*
X34712Y56023D01*
X34709Y56030D01*
X34707Y56037D01*
X34706Y56042D01*
Y56129D01*
X34334Y56004D01*
Y55818D01*
X34335Y55802D01*
X34339Y55786D01*
X34345Y55775D01*
X34352Y55765D01*
X34357Y55757D01*
X34363Y55751D01*
X34367Y55748D01*
X34368Y55747D01*
X34382Y55741D01*
X34396Y55737D01*
X34411Y55736D01*
X34425D01*
X34437Y55737D01*
X34446Y55738D01*
X34452Y55741D01*
X34455D01*
X34988Y55922D01*
X35006Y55930D01*
X35021Y55939D01*
X35036Y55950D01*
X35048Y55960D01*
X35058Y55971D01*
X35065Y55978D01*
X35071Y55983D01*
X35072Y55986D01*
X35083Y56004D01*
X35092Y56020D01*
X35099Y56037D01*
X35104Y56051D01*
X35106Y56063D01*
X35107Y56073D01*
Y56315D01*
X35110Y56331D01*
X35115Y56344D01*
X35123Y56355D01*
X35132Y56363D01*
X35139Y56369D01*
X35147Y56374D01*
X35152Y56376D01*
X35154Y56377D01*
X35163Y56379D01*
X35170Y56381D01*
X35181Y56379D01*
D02*
G37*
G36*
X32661Y58018D02*
X32683Y58015D01*
X32701Y58008D01*
X32713Y58003D01*
X32719Y58001D01*
X32722Y57998D01*
X32724Y57997D01*
X32725D01*
X32736Y57989D01*
X32746Y57979D01*
X32754Y57970D01*
X32762Y57960D01*
X32773Y57938D01*
X32781Y57917D01*
X32785Y57898D01*
X32787Y57889D01*
Y57881D01*
X32788Y57876D01*
Y57665D01*
X32786Y57649D01*
X32781Y57636D01*
X32773Y57625D01*
X32766Y57617D01*
X32757Y57611D01*
X32749Y57606D01*
X32744Y57604D01*
X32741Y57603D01*
X31874Y57307D01*
X31866Y57305D01*
X31859D01*
X31847Y57306D01*
X31838Y57311D01*
X31833Y57317D01*
X31830Y57325D01*
X31828Y57331D01*
X31827Y57336D01*
Y57574D01*
X31828Y57590D01*
X31830Y57606D01*
X31837Y57636D01*
X31847Y57665D01*
X31859Y57692D01*
X31870Y57714D01*
X31875Y57723D01*
X31880Y57730D01*
X31884Y57736D01*
X31888Y57742D01*
X31889Y57744D01*
X31890Y57745D01*
X31903Y57761D01*
X31916Y57776D01*
X31929Y57789D01*
X31941Y57801D01*
X31967Y57820D01*
X31990Y57837D01*
X32010Y57848D01*
X32019Y57853D01*
X32026Y57856D01*
X32033Y57858D01*
X32037Y57861D01*
X32039Y57862D01*
X32040D01*
X32174Y57908D01*
X32195Y57914D01*
X32216Y57917D01*
X32235Y57918D01*
X32251D01*
X32265Y57917D01*
X32275Y57916D01*
X32282Y57913D01*
X32284D01*
X32302Y57907D01*
X32317Y57899D01*
X32329Y57890D01*
X32339Y57881D01*
X32345Y57872D01*
X32350Y57866D01*
X32353Y57861D01*
X32354Y57860D01*
X32364Y57876D01*
X32376Y57891D01*
X32387Y57905D01*
X32400Y57918D01*
X32425Y57941D01*
X32451Y57957D01*
X32473Y57971D01*
X32482Y57977D01*
X32491Y57980D01*
X32498Y57983D01*
X32504Y57985D01*
X32506Y57987D01*
X32508D01*
X32575Y58010D01*
X32592Y58015D01*
X32607Y58017D01*
X32622Y58020D01*
X32636D01*
X32661Y58018D01*
D02*
G37*
G36*
X32626Y57432D02*
X32639Y57429D01*
X32659Y57422D01*
X32675Y57413D01*
X32687Y57404D01*
X32693Y57397D01*
X32696Y57396D01*
Y57395D01*
X32712Y57385D01*
X32726Y57373D01*
X32739Y57361D01*
X32750Y57348D01*
X32759Y57335D01*
X32767Y57322D01*
X32773Y57310D01*
X32778Y57297D01*
X32785Y57275D01*
X32787Y57265D01*
X32788Y57256D01*
X32790Y57250D01*
Y57240D01*
X32788Y57209D01*
X32782Y57181D01*
X32774Y57154D01*
X32763Y57128D01*
X32750Y57103D01*
X32736Y57080D01*
X32721Y57058D01*
X32706Y57039D01*
X32689Y57021D01*
X32674Y57006D01*
X32660Y56992D01*
X32647Y56981D01*
X32636Y56972D01*
X32628Y56966D01*
X32623Y56962D01*
X32621Y56961D01*
X32614Y56958D01*
X32609Y56955D01*
X32606Y56954D01*
X32604D01*
X32597Y56952D01*
X32589Y56950D01*
X32578Y56953D01*
X32570Y56958D01*
X32565Y56964D01*
X32561Y56972D01*
X32560Y56980D01*
X32559Y56985D01*
Y56987D01*
X32560Y56997D01*
X32564Y57007D01*
X32569Y57016D01*
X32574Y57025D01*
X32579Y57032D01*
X32584Y57037D01*
X32588Y57039D01*
X32589Y57041D01*
X32608Y57056D01*
X32625Y57071D01*
X32639Y57086D01*
X32651Y57101D01*
X32661Y57117D01*
X32670Y57131D01*
X32677Y57145D01*
X32683Y57157D01*
X32691Y57179D01*
X32692Y57189D01*
X32694Y57197D01*
Y57203D01*
X32696Y57208D01*
Y57212D01*
X32694Y57235D01*
X32689Y57254D01*
X32682Y57272D01*
X32674Y57286D01*
X32665Y57297D01*
X32659Y57305D01*
X32654Y57310D01*
X32651Y57311D01*
X32642Y57317D01*
X32633Y57322D01*
X32616Y57329D01*
X32598Y57333D01*
X32581D01*
X32567Y57331D01*
X32556Y57329D01*
X32548Y57328D01*
X32547Y57326D01*
X32546D01*
X32529Y57320D01*
X32513Y57310D01*
X32498Y57301D01*
X32484Y57291D01*
X32472Y57281D01*
X32463Y57273D01*
X32458Y57268D01*
X32456Y57265D01*
X31897Y56708D01*
X31890Y56703D01*
X31883Y56698D01*
X31878Y56696D01*
X31877Y56695D01*
X31875D01*
X31866Y56693D01*
X31859Y56691D01*
X31847Y56693D01*
X31838Y56698D01*
X31833Y56704D01*
X31830Y56710D01*
X31828Y56718D01*
X31827Y56723D01*
Y57124D01*
X31830Y57141D01*
X31835Y57155D01*
X31842Y57166D01*
X31851Y57174D01*
X31859Y57180D01*
X31866Y57185D01*
X31871Y57187D01*
X31874Y57188D01*
X31883Y57190D01*
X31889Y57192D01*
X31901Y57190D01*
X31910Y57185D01*
X31915Y57178D01*
X31918Y57170D01*
X31920Y57164D01*
X31921Y57159D01*
Y56834D01*
X32402Y57328D01*
X32429Y57352D01*
X32454Y57372D01*
X32480Y57389D01*
X32501Y57402D01*
X32520Y57411D01*
X32528Y57415D01*
X32534Y57418D01*
X32539Y57420D01*
X32543Y57422D01*
X32546Y57423D01*
X32547D01*
X32565Y57428D01*
X32583Y57432D01*
X32598Y57433D01*
X32613D01*
X32626Y57432D01*
D02*
G37*
G36*
X30232Y57878D02*
X30238Y57873D01*
X30243Y57866D01*
X30246Y57860D01*
X30248Y57855D01*
Y57850D01*
X30247Y57837D01*
X30242Y57826D01*
X30236Y57815D01*
X30228Y57807D01*
X30220Y57800D01*
X30214Y57794D01*
X30209Y57791D01*
X30208Y57790D01*
X29338Y57260D01*
X29337Y57259D01*
X29335Y57258D01*
X29334D01*
X29326Y57255D01*
X29319Y57254D01*
X29307Y57255D01*
X29300Y57260D01*
X29295Y57268D01*
X29291Y57276D01*
X29290Y57282D01*
X29288Y57287D01*
Y57290D01*
X29290Y57302D01*
X29293Y57314D01*
X29300Y57324D01*
X29306Y57332D01*
X29311Y57338D01*
X29317Y57343D01*
X29321Y57346D01*
X29323Y57347D01*
X29555Y57488D01*
Y57739D01*
X29323Y57723D01*
X29311Y57724D01*
X29302Y57727D01*
X29297Y57732D01*
X29292Y57738D01*
X29290Y57744D01*
X29288Y57751D01*
Y57756D01*
X29291Y57772D01*
X29296Y57786D01*
X29302Y57798D01*
X29311Y57805D01*
X29320Y57812D01*
X29326Y57817D01*
X29331Y57818D01*
X29334Y57819D01*
X29343Y57822D01*
X29345D01*
X29347D01*
X30208Y57881D01*
X30222D01*
X30232Y57878D01*
D02*
G37*
G36*
X30086Y57382D02*
X30099Y57380D01*
X30119Y57372D01*
X30135Y57363D01*
X30147Y57354D01*
X30153Y57348D01*
X30156Y57347D01*
Y57346D01*
X30172Y57335D01*
X30186Y57324D01*
X30199Y57311D01*
X30210Y57299D01*
X30219Y57286D01*
X30227Y57273D01*
X30233Y57260D01*
X30238Y57248D01*
X30245Y57226D01*
X30247Y57216D01*
X30248Y57207D01*
X30250Y57201D01*
Y57191D01*
X30248Y57160D01*
X30242Y57132D01*
X30234Y57104D01*
X30223Y57079D01*
X30210Y57053D01*
X30196Y57031D01*
X30181Y57009D01*
X30166Y56990D01*
X30149Y56972D01*
X30134Y56957D01*
X30120Y56943D01*
X30107Y56931D01*
X30096Y56923D01*
X30088Y56916D01*
X30083Y56912D01*
X30081Y56911D01*
X30074Y56909D01*
X30069Y56906D01*
X30066Y56905D01*
X30064D01*
X30057Y56902D01*
X30049Y56901D01*
X30038Y56904D01*
X30030Y56909D01*
X30025Y56915D01*
X30021Y56923D01*
X30020Y56930D01*
X30019Y56935D01*
Y56938D01*
X30020Y56948D01*
X30024Y56958D01*
X30029Y56967D01*
X30034Y56976D01*
X30039Y56982D01*
X30044Y56987D01*
X30048Y56990D01*
X30049Y56991D01*
X30068Y57006D01*
X30085Y57022D01*
X30099Y57037D01*
X30111Y57052D01*
X30121Y57067D01*
X30130Y57081D01*
X30137Y57095D01*
X30143Y57108D01*
X30151Y57130D01*
X30152Y57140D01*
X30154Y57147D01*
Y57154D01*
X30156Y57159D01*
Y57163D01*
X30154Y57185D01*
X30149Y57205D01*
X30142Y57222D01*
X30134Y57236D01*
X30125Y57248D01*
X30119Y57255D01*
X30114Y57260D01*
X30111Y57262D01*
X30102Y57268D01*
X30093Y57273D01*
X30076Y57279D01*
X30058Y57283D01*
X30041D01*
X30027Y57282D01*
X30016Y57279D01*
X30008Y57278D01*
X30007Y57277D01*
X30006D01*
X29989Y57271D01*
X29973Y57260D01*
X29958Y57252D01*
X29944Y57241D01*
X29932Y57231D01*
X29923Y57224D01*
X29918Y57219D01*
X29916Y57216D01*
X29357Y56658D01*
X29351Y56653D01*
X29343Y56648D01*
X29338Y56647D01*
X29337Y56646D01*
X29335D01*
X29326Y56643D01*
X29319Y56642D01*
X29307Y56643D01*
X29298Y56648D01*
X29293Y56655D01*
X29290Y56661D01*
X29288Y56669D01*
X29287Y56674D01*
Y57075D01*
X29290Y57092D01*
X29295Y57105D01*
X29302Y57117D01*
X29311Y57125D01*
X29319Y57131D01*
X29326Y57136D01*
X29331Y57137D01*
X29334Y57139D01*
X29343Y57141D01*
X29349Y57142D01*
X29361Y57141D01*
X29370Y57136D01*
X29375Y57128D01*
X29378Y57121D01*
X29380Y57114D01*
X29381Y57109D01*
Y56784D01*
X29862Y57278D01*
X29889Y57302D01*
X29914Y57323D01*
X29940Y57339D01*
X29961Y57353D01*
X29980Y57362D01*
X29988Y57366D01*
X29994Y57368D01*
X29999Y57371D01*
X30003Y57372D01*
X30006Y57373D01*
X30007D01*
X30025Y57379D01*
X30043Y57382D01*
X30058Y57384D01*
X30073D01*
X30086Y57382D01*
D02*
G37*
G36*
X27565Y57584D02*
X27571Y57579D01*
X27576Y57572D01*
X27579Y57566D01*
X27581Y57561D01*
Y57556D01*
X27580Y57543D01*
X27575Y57532D01*
X27569Y57522D01*
X27561Y57513D01*
X27553Y57506D01*
X27547Y57500D01*
X27542Y57497D01*
X27541Y57496D01*
X26671Y56967D01*
X26670Y56965D01*
X26668Y56964D01*
X26667D01*
X26659Y56961D01*
X26652Y56960D01*
X26640Y56961D01*
X26633Y56967D01*
X26628Y56974D01*
X26624Y56982D01*
X26623Y56988D01*
X26621Y56993D01*
Y56996D01*
X26623Y57008D01*
X26626Y57020D01*
X26633Y57030D01*
X26639Y57038D01*
X26644Y57044D01*
X26650Y57049D01*
X26654Y57052D01*
X26656Y57053D01*
X26888Y57194D01*
Y57445D01*
X26656Y57429D01*
X26644Y57430D01*
X26635Y57433D01*
X26630Y57438D01*
X26625Y57444D01*
X26623Y57450D01*
X26621Y57457D01*
Y57462D01*
X26624Y57478D01*
X26629Y57492D01*
X26635Y57504D01*
X26644Y57511D01*
X26653Y57518D01*
X26659Y57523D01*
X26664Y57524D01*
X26667Y57525D01*
X26676Y57528D01*
X26678D01*
X26680D01*
X27541Y57588D01*
X27555D01*
X27565Y57584D01*
D02*
G37*
G36*
X27561Y57147D02*
X27569Y57142D01*
X27575Y57134D01*
X27578Y57127D01*
X27579Y57120D01*
X27580Y57115D01*
Y57113D01*
X27578Y57099D01*
X27574Y57086D01*
X27571Y57081D01*
X27570Y57077D01*
X27567Y57076D01*
Y57074D01*
X27363Y56803D01*
X27354Y56794D01*
X27345Y56787D01*
X27338Y56784D01*
X27336Y56782D01*
X27335D01*
X27329Y56781D01*
X27321Y56780D01*
X27311Y56781D01*
X27303Y56784D01*
X27302Y56785D01*
X27301D01*
X27296Y56789D01*
X27293Y56794D01*
X27288Y56803D01*
X27287Y56810D01*
Y56814D01*
X27288Y56820D01*
X27289Y56827D01*
X27294Y56840D01*
X27297Y56845D01*
X27298Y56847D01*
X27301Y56850D01*
Y56851D01*
X27440Y57017D01*
X26667Y56754D01*
X26659Y56752D01*
X26652D01*
X26640Y56753D01*
X26631Y56758D01*
X26626Y56765D01*
X26623Y56772D01*
X26621Y56779D01*
X26620Y56784D01*
Y56786D01*
X26623Y56803D01*
X26628Y56817D01*
X26635Y56828D01*
X26644Y56836D01*
X26652Y56842D01*
X26659Y56847D01*
X26664Y56848D01*
X26667Y56850D01*
X27534Y57144D01*
X27542Y57147D01*
X27550Y57148D01*
X27561Y57147D01*
D02*
G37*
G36*
X24787Y57626D02*
X24809Y57622D01*
X24827Y57616D01*
X24839Y57611D01*
X24845Y57608D01*
X24848Y57606D01*
X24850Y57604D01*
X24851D01*
X24862Y57597D01*
X24872Y57586D01*
X24880Y57578D01*
X24888Y57567D01*
X24899Y57546D01*
X24907Y57524D01*
X24911Y57505D01*
X24913Y57496D01*
Y57489D01*
X24914Y57484D01*
Y57273D01*
X24912Y57256D01*
X24907Y57244D01*
X24899Y57232D01*
X24892Y57225D01*
X24883Y57218D01*
X24875Y57213D01*
X24870Y57212D01*
X24867Y57211D01*
X24000Y56915D01*
X23992Y56912D01*
X23985D01*
X23973Y56913D01*
X23964Y56918D01*
X23959Y56925D01*
X23956Y56932D01*
X23954Y56939D01*
X23953Y56944D01*
Y57181D01*
X23954Y57198D01*
X23956Y57213D01*
X23963Y57244D01*
X23973Y57273D01*
X23985Y57299D01*
X23996Y57321D01*
X24001Y57330D01*
X24006Y57338D01*
X24010Y57344D01*
X24014Y57349D01*
X24015Y57352D01*
X24017Y57353D01*
X24029Y57368D01*
X24042Y57383D01*
X24055Y57396D01*
X24067Y57409D01*
X24093Y57428D01*
X24116Y57444D01*
X24136Y57456D01*
X24145Y57461D01*
X24152Y57463D01*
X24159Y57466D01*
X24163Y57468D01*
X24165Y57470D01*
X24166D01*
X24300Y57515D01*
X24321Y57522D01*
X24342Y57524D01*
X24361Y57526D01*
X24377D01*
X24391Y57524D01*
X24401Y57523D01*
X24408Y57520D01*
X24410D01*
X24428Y57514D01*
X24443Y57506D01*
X24455Y57498D01*
X24465Y57489D01*
X24471Y57480D01*
X24476Y57473D01*
X24479Y57468D01*
X24480Y57467D01*
X24490Y57484D01*
X24502Y57499D01*
X24513Y57513D01*
X24526Y57526D01*
X24551Y57548D01*
X24577Y57565D01*
X24599Y57579D01*
X24608Y57584D01*
X24617Y57588D01*
X24624Y57590D01*
X24630Y57593D01*
X24632Y57594D01*
X24634D01*
X24701Y57617D01*
X24718Y57622D01*
X24733Y57625D01*
X24748Y57627D01*
X24762D01*
X24787Y57626D01*
D02*
G37*
G36*
X24894Y57098D02*
X24902Y57092D01*
X24908Y57085D01*
X24911Y57077D01*
X24912Y57071D01*
X24913Y57066D01*
Y57063D01*
X24911Y57049D01*
X24907Y57037D01*
X24904Y57031D01*
X24903Y57028D01*
X24900Y57026D01*
Y57025D01*
X24696Y56753D01*
X24687Y56744D01*
X24678Y56738D01*
X24671Y56734D01*
X24669Y56733D01*
X24668D01*
X24662Y56732D01*
X24654Y56730D01*
X24644Y56732D01*
X24636Y56734D01*
X24635Y56736D01*
X24634D01*
X24629Y56739D01*
X24626Y56744D01*
X24621Y56753D01*
X24620Y56761D01*
Y56765D01*
X24621Y56771D01*
X24622Y56777D01*
X24627Y56790D01*
X24630Y56795D01*
X24631Y56798D01*
X24634Y56800D01*
Y56802D01*
X24773Y56968D01*
X24000Y56705D01*
X23992Y56703D01*
X23985D01*
X23973Y56704D01*
X23964Y56709D01*
X23959Y56715D01*
X23956Y56723D01*
X23954Y56729D01*
X23953Y56734D01*
Y56737D01*
X23956Y56753D01*
X23961Y56767D01*
X23968Y56779D01*
X23977Y56786D01*
X23985Y56793D01*
X23992Y56798D01*
X23997Y56799D01*
X24000Y56800D01*
X24867Y57095D01*
X24875Y57098D01*
X24883Y57099D01*
X24894Y57098D01*
D02*
G37*
G36*
X22501Y57684D02*
X22523Y57680D01*
X22541Y57674D01*
X22553Y57668D01*
X22559Y57666D01*
X22562Y57663D01*
X22564Y57662D01*
X22565D01*
X22576Y57654D01*
X22586Y57644D01*
X22594Y57635D01*
X22602Y57625D01*
X22613Y57604D01*
X22621Y57582D01*
X22625Y57563D01*
X22627Y57554D01*
Y57547D01*
X22628Y57541D01*
Y57331D01*
X22626Y57314D01*
X22621Y57301D01*
X22613Y57290D01*
X22606Y57282D01*
X22597Y57276D01*
X22589Y57271D01*
X22584Y57270D01*
X22581Y57268D01*
X21714Y56972D01*
X21706Y56970D01*
X21699D01*
X21687Y56971D01*
X21678Y56976D01*
X21673Y56983D01*
X21670Y56990D01*
X21668Y56997D01*
X21667Y57002D01*
Y57239D01*
X21668Y57256D01*
X21670Y57271D01*
X21677Y57301D01*
X21687Y57331D01*
X21699Y57357D01*
X21710Y57379D01*
X21715Y57388D01*
X21720Y57395D01*
X21724Y57402D01*
X21728Y57407D01*
X21729Y57409D01*
X21730Y57411D01*
X21743Y57426D01*
X21756Y57441D01*
X21769Y57454D01*
X21781Y57467D01*
X21807Y57486D01*
X21830Y57502D01*
X21850Y57514D01*
X21859Y57519D01*
X21866Y57521D01*
X21873Y57524D01*
X21877Y57526D01*
X21879Y57527D01*
X21880D01*
X22014Y57573D01*
X22035Y57580D01*
X22056Y57582D01*
X22075Y57583D01*
X22091D01*
X22105Y57582D01*
X22115Y57581D01*
X22122Y57578D01*
X22124D01*
X22142Y57572D01*
X22157Y57564D01*
X22169Y57555D01*
X22179Y57547D01*
X22185Y57538D01*
X22190Y57531D01*
X22193Y57526D01*
X22194Y57525D01*
X22204Y57541D01*
X22216Y57557D01*
X22227Y57571D01*
X22240Y57583D01*
X22265Y57606D01*
X22291Y57623D01*
X22313Y57637D01*
X22322Y57642D01*
X22331Y57646D01*
X22338Y57648D01*
X22344Y57651D01*
X22346Y57652D01*
X22348D01*
X22415Y57675D01*
X22432Y57680D01*
X22447Y57682D01*
X22462Y57685D01*
X22476D01*
X22501Y57684D01*
D02*
G37*
G36*
X22608Y57153D02*
X22617Y57148D01*
X22622Y57141D01*
X22626Y57134D01*
X22627Y57127D01*
X22628Y57122D01*
Y56786D01*
X22626Y56769D01*
X22621Y56757D01*
X22613Y56745D01*
X22606Y56738D01*
X22597Y56731D01*
X22589Y56726D01*
X22584Y56725D01*
X22581Y56724D01*
X22180Y56586D01*
X22172Y56584D01*
X22165Y56583D01*
X22153Y56584D01*
X22145Y56589D01*
X22139Y56597D01*
X22136Y56604D01*
X22134Y56611D01*
X22133Y56616D01*
Y56786D01*
X22132Y56802D01*
X22128Y56818D01*
X22122Y56829D01*
X22115Y56839D01*
X22109Y56847D01*
X22103Y56853D01*
X22099Y56856D01*
X22098Y56857D01*
X22084Y56865D01*
X22070Y56868D01*
X22056Y56870D01*
X22043D01*
X22031Y56868D01*
X22021Y56867D01*
X22016Y56866D01*
X22014Y56865D01*
X21880Y56819D01*
X21863Y56811D01*
X21846Y56802D01*
X21832Y56791D01*
X21819Y56781D01*
X21809Y56771D01*
X21802Y56762D01*
X21797Y56757D01*
X21795Y56754D01*
X21784Y56736D01*
X21775Y56720D01*
X21770Y56703D01*
X21765Y56689D01*
X21762Y56677D01*
X21761Y56668D01*
Y56491D01*
X21758Y56475D01*
X21753Y56462D01*
X21746Y56451D01*
X21738Y56442D01*
X21729Y56435D01*
X21722Y56431D01*
X21717Y56429D01*
X21714Y56428D01*
X21706Y56425D01*
X21699D01*
X21687Y56426D01*
X21678Y56431D01*
X21673Y56438D01*
X21670Y56445D01*
X21668Y56452D01*
X21667Y56457D01*
Y56627D01*
X21668Y56644D01*
X21670Y56660D01*
X21677Y56691D01*
X21687Y56720D01*
X21699Y56745D01*
X21710Y56768D01*
X21715Y56777D01*
X21719Y56785D01*
X21724Y56790D01*
X21727Y56795D01*
X21728Y56797D01*
X21729Y56798D01*
X21753Y56828D01*
X21779Y56852D01*
X21804Y56872D01*
X21828Y56887D01*
X21849Y56899D01*
X21858Y56903D01*
X21865Y56906D01*
X21871Y56909D01*
X21877Y56912D01*
X21879Y56913D01*
X21880D01*
X22014Y56959D01*
X22030Y56964D01*
X22045Y56966D01*
X22061Y56969D01*
X22075D01*
X22100Y56967D01*
X22122Y56964D01*
X22139Y56959D01*
X22152Y56953D01*
X22157Y56951D01*
X22161Y56948D01*
X22162Y56947D01*
X22164D01*
X22175Y56939D01*
X22185Y56929D01*
X22193Y56920D01*
X22200Y56910D01*
X22212Y56889D01*
X22219Y56867D01*
X22223Y56848D01*
X22226Y56839D01*
Y56832D01*
X22227Y56826D01*
Y56697D01*
X22534Y56802D01*
Y57088D01*
X22537Y57105D01*
X22542Y57117D01*
X22550Y57129D01*
X22559Y57136D01*
X22566Y57143D01*
X22574Y57148D01*
X22579Y57149D01*
X22581Y57150D01*
X22590Y57153D01*
X22597Y57154D01*
X22608Y57153D01*
D02*
G37*
G36*
X22040Y56452D02*
X22049Y56447D01*
X22054Y56440D01*
X22058Y56433D01*
X22059Y56426D01*
X22061Y56421D01*
Y56299D01*
X22181Y56340D01*
X22190Y56343D01*
X22197Y56344D01*
X22208Y56343D01*
X22217Y56337D01*
X22222Y56330D01*
X22226Y56322D01*
X22227Y56316D01*
X22228Y56311D01*
Y56308D01*
X22226Y56292D01*
X22221Y56279D01*
X22213Y56268D01*
X22205Y56259D01*
X22197Y56252D01*
X22189Y56249D01*
X22184Y56246D01*
X22181Y56245D01*
X22061Y56204D01*
Y56085D01*
X22058Y56068D01*
X22053Y56054D01*
X22045Y56044D01*
X22038Y56035D01*
X22029Y56029D01*
X22021Y56025D01*
X22016Y56023D01*
X22014Y56021D01*
X22006Y56019D01*
X21998Y56017D01*
X21987Y56019D01*
X21978Y56024D01*
X21973Y56031D01*
X21969Y56039D01*
X21968Y56045D01*
X21967Y56050D01*
Y56172D01*
X21847Y56132D01*
X21840Y56129D01*
X21832Y56128D01*
X21821Y56129D01*
X21812Y56134D01*
X21807Y56142D01*
X21803Y56150D01*
X21802Y56156D01*
X21800Y56161D01*
Y56163D01*
X21803Y56180D01*
X21808Y56193D01*
X21816Y56204D01*
X21824Y56213D01*
X21832Y56219D01*
X21840Y56223D01*
X21845Y56226D01*
X21847Y56227D01*
X21967Y56268D01*
Y56387D01*
X21969Y56404D01*
X21974Y56416D01*
X21982Y56428D01*
X21991Y56437D01*
X21998Y56443D01*
X22006Y56447D01*
X22011Y56449D01*
X22014Y56451D01*
X22023Y56453D01*
X22029D01*
X22040Y56452D01*
D02*
G37*
G36*
X19707Y57561D02*
X19729Y57557D01*
X19747Y57550D01*
X19759Y57545D01*
X19765Y57543D01*
X19768Y57540D01*
X19770Y57539D01*
X19771D01*
X19782Y57531D01*
X19792Y57521D01*
X19800Y57512D01*
X19808Y57502D01*
X19819Y57481D01*
X19827Y57459D01*
X19831Y57440D01*
X19833Y57431D01*
Y57423D01*
X19834Y57418D01*
Y57176D01*
X19832Y57159D01*
X19827Y57147D01*
X19819Y57135D01*
X19812Y57128D01*
X19803Y57121D01*
X19795Y57116D01*
X19790Y57115D01*
X19787Y57114D01*
X18920Y56818D01*
X18912Y56815D01*
X18905D01*
X18893Y56816D01*
X18884Y56821D01*
X18879Y56828D01*
X18876Y56835D01*
X18874Y56842D01*
X18873Y56847D01*
Y57082D01*
X18874Y57098D01*
X18876Y57115D01*
X18883Y57147D01*
X18893Y57177D01*
X18905Y57202D01*
X18910Y57214D01*
X18916Y57224D01*
X18921Y57234D01*
X18925Y57242D01*
X18930Y57247D01*
X18933Y57252D01*
X18934Y57255D01*
X18935Y57256D01*
X18959Y57285D01*
X18985Y57309D01*
X19010Y57329D01*
X19034Y57345D01*
X19055Y57356D01*
X19063Y57360D01*
X19071Y57364D01*
X19077Y57366D01*
X19083Y57369D01*
X19085Y57370D01*
X19086D01*
X19621Y57552D01*
X19638Y57557D01*
X19653Y57559D01*
X19668Y57562D01*
X19682D01*
X19707Y57561D01*
D02*
G37*
G36*
X19814Y56995D02*
X19823Y56990D01*
X19828Y56984D01*
X19832Y56975D01*
X19833Y56969D01*
X19834Y56964D01*
Y56961D01*
X19832Y56945D01*
X19827Y56932D01*
X19819Y56921D01*
X19812Y56913D01*
X19803Y56907D01*
X19795Y56901D01*
X19790Y56900D01*
X19787Y56899D01*
X19085Y56659D01*
X19806Y56595D01*
X19815Y56593D01*
X19823Y56589D01*
X19828Y56583D01*
X19831Y56576D01*
X19833Y56571D01*
X19834Y56566D01*
Y56561D01*
X19832Y56545D01*
X19827Y56532D01*
X19819Y56520D01*
X19812Y56513D01*
X19803Y56506D01*
X19795Y56501D01*
X19790Y56500D01*
X19787Y56499D01*
X18920Y56203D01*
X18912Y56200D01*
X18905D01*
X18893Y56202D01*
X18884Y56207D01*
X18879Y56213D01*
X18876Y56221D01*
X18874Y56227D01*
X18873Y56232D01*
Y56235D01*
X18876Y56251D01*
X18881Y56265D01*
X18888Y56277D01*
X18897Y56284D01*
X18905Y56291D01*
X18912Y56296D01*
X18917Y56297D01*
X18920Y56298D01*
X19622Y56537D01*
X18905Y56602D01*
X18895Y56604D01*
X18887Y56608D01*
X18881Y56614D01*
X18877Y56620D01*
X18874Y56626D01*
X18873Y56630D01*
Y56635D01*
X18876Y56651D01*
X18881Y56665D01*
X18888Y56677D01*
X18897Y56684D01*
X18905Y56691D01*
X18912Y56696D01*
X18917Y56697D01*
X18920Y56698D01*
X19787Y56994D01*
X19796Y56997D01*
X19803D01*
X19814Y56995D01*
D02*
G37*
G36*
Y56379D02*
X19823Y56374D01*
X19828Y56368D01*
X19832Y56360D01*
X19833Y56354D01*
X19834Y56349D01*
Y56113D01*
X19833Y56096D01*
X19832Y56080D01*
X19824Y56048D01*
X19814Y56019D01*
X19803Y55993D01*
X19796Y55982D01*
X19791Y55972D01*
X19786Y55962D01*
X19781Y55954D01*
X19777Y55949D01*
X19773Y55944D01*
X19772Y55941D01*
X19771Y55940D01*
X19759Y55925D01*
X19747Y55911D01*
X19721Y55887D01*
X19696Y55868D01*
X19673Y55852D01*
X19652Y55841D01*
X19644Y55836D01*
X19636Y55833D01*
X19630Y55831D01*
X19625Y55828D01*
X19622Y55827D01*
X19621D01*
X19086Y55645D01*
X19070Y55640D01*
X19055Y55637D01*
X19039Y55635D01*
X19025Y55634D01*
X19000Y55635D01*
X18977Y55639D01*
X18959Y55644D01*
X18947Y55649D01*
X18942Y55652D01*
X18938Y55654D01*
X18937Y55656D01*
X18935D01*
X18924Y55664D01*
X18915Y55673D01*
X18906Y55684D01*
X18900Y55694D01*
X18888Y55715D01*
X18881Y55737D01*
X18877Y55756D01*
X18876Y55765D01*
X18874Y55772D01*
X18873Y55778D01*
Y56019D01*
X18876Y56035D01*
X18881Y56049D01*
X18888Y56061D01*
X18897Y56068D01*
X18905Y56075D01*
X18912Y56080D01*
X18917Y56081D01*
X18920Y56082D01*
X19386Y56241D01*
X19395Y56244D01*
X19401D01*
X19413Y56242D01*
X19422Y56237D01*
X19427Y56231D01*
X19431Y56223D01*
X19432Y56217D01*
X19433Y56212D01*
Y56076D01*
X19431Y56059D01*
X19425Y56047D01*
X19418Y56035D01*
X19410Y56026D01*
X19401Y56020D01*
X19394Y56016D01*
X19389Y56014D01*
X19386Y56012D01*
X19378Y56010D01*
X19371D01*
X19359Y56011D01*
X19351Y56016D01*
X19345Y56023D01*
X19342Y56030D01*
X19340Y56037D01*
X19339Y56042D01*
Y56129D01*
X18967Y56004D01*
Y55818D01*
X18968Y55802D01*
X18972Y55786D01*
X18978Y55775D01*
X18985Y55765D01*
X18990Y55757D01*
X18996Y55751D01*
X19000Y55748D01*
X19001Y55747D01*
X19015Y55741D01*
X19029Y55737D01*
X19044Y55736D01*
X19058D01*
X19070Y55737D01*
X19079Y55738D01*
X19085Y55741D01*
X19088D01*
X19621Y55922D01*
X19639Y55930D01*
X19654Y55939D01*
X19669Y55950D01*
X19681Y55960D01*
X19691Y55971D01*
X19698Y55978D01*
X19704Y55983D01*
X19705Y55986D01*
X19716Y56004D01*
X19725Y56020D01*
X19732Y56037D01*
X19737Y56051D01*
X19739Y56063D01*
X19740Y56073D01*
Y56315D01*
X19743Y56331D01*
X19748Y56344D01*
X19756Y56355D01*
X19765Y56363D01*
X19772Y56369D01*
X19780Y56374D01*
X19785Y56376D01*
X19787Y56377D01*
X19796Y56379D01*
X19803Y56381D01*
X19814Y56379D01*
D02*
G37*
G36*
X21459Y8916D02*
X21481Y8912D01*
X21499Y8906D01*
X21511Y8901D01*
X21517Y8898D01*
X21520Y8896D01*
X21522Y8894D01*
X21523D01*
X21534Y8887D01*
X21544Y8877D01*
X21552Y8868D01*
X21560Y8857D01*
X21571Y8836D01*
X21579Y8814D01*
X21583Y8795D01*
X21585Y8786D01*
Y8779D01*
X21586Y8774D01*
Y8531D01*
X21584Y8515D01*
X21579Y8502D01*
X21571Y8490D01*
X21564Y8483D01*
X21555Y8476D01*
X21547Y8471D01*
X21542Y8470D01*
X21539Y8469D01*
X20672Y8173D01*
X20664Y8170D01*
X20657D01*
X20645Y8172D01*
X20636Y8177D01*
X20631Y8183D01*
X20628Y8191D01*
X20626Y8197D01*
X20625Y8202D01*
Y8205D01*
X20628Y8221D01*
X20633Y8235D01*
X20640Y8247D01*
X20649Y8254D01*
X20657Y8261D01*
X20664Y8266D01*
X20669Y8267D01*
X20672Y8268D01*
X21026Y8389D01*
Y8480D01*
X20658Y8574D01*
X20647Y8577D01*
X20639Y8581D01*
X20633Y8586D01*
X20629Y8591D01*
X20626Y8596D01*
X20625Y8600D01*
Y8603D01*
X20628Y8617D01*
X20631Y8630D01*
X20634Y8634D01*
X20635Y8638D01*
X20638Y8640D01*
Y8642D01*
X20643Y8649D01*
X20649Y8654D01*
X20659Y8663D01*
X20668Y8667D01*
X20669Y8668D01*
X20671D01*
X20680Y8670D01*
X20687Y8671D01*
X20692Y8670D01*
X20695D01*
X21026Y8578D01*
X21028Y8593D01*
X21029Y8609D01*
X21035Y8638D01*
X21045Y8666D01*
X21057Y8691D01*
X21067Y8713D01*
X21072Y8722D01*
X21077Y8729D01*
X21081Y8734D01*
X21083Y8739D01*
X21086Y8742D01*
Y8743D01*
X21097Y8758D01*
X21110Y8774D01*
X21136Y8798D01*
X21161Y8818D01*
X21185Y8835D01*
X21207Y8847D01*
X21216Y8851D01*
X21224Y8855D01*
X21231Y8857D01*
X21236Y8860D01*
X21238Y8861D01*
X21240D01*
X21373Y8907D01*
X21390Y8912D01*
X21405Y8915D01*
X21420Y8917D01*
X21434D01*
X21459Y8916D01*
D02*
G37*
G36*
X21566Y8358D02*
X21575Y8353D01*
X21580Y8347D01*
X21584Y8338D01*
X21585Y8332D01*
X21586Y8327D01*
Y8324D01*
X21584Y8308D01*
X21579Y8295D01*
X21571Y8283D01*
X21564Y8276D01*
X21555Y8269D01*
X21547Y8264D01*
X21542Y8263D01*
X21539Y8262D01*
X20672Y7966D01*
X20664Y7963D01*
X20657D01*
X20645Y7965D01*
X20636Y7970D01*
X20631Y7976D01*
X20628Y7984D01*
X20626Y7990D01*
X20625Y7995D01*
Y7998D01*
X20628Y8014D01*
X20633Y8028D01*
X20640Y8040D01*
X20649Y8047D01*
X20657Y8054D01*
X20664Y8059D01*
X20669Y8060D01*
X20672Y8061D01*
X21539Y8357D01*
X21548Y8360D01*
X21555D01*
X21566Y8358D01*
D02*
G37*
G36*
X21459Y8095D02*
X21481Y8092D01*
X21499Y8085D01*
X21511Y8080D01*
X21517Y8078D01*
X21520Y8075D01*
X21522Y8074D01*
X21523D01*
X21534Y8066D01*
X21544Y8056D01*
X21552Y8047D01*
X21560Y8037D01*
X21571Y8015D01*
X21579Y7994D01*
X21583Y7975D01*
X21585Y7966D01*
Y7958D01*
X21586Y7953D01*
Y7711D01*
X21584Y7694D01*
X21579Y7681D01*
X21571Y7670D01*
X21564Y7662D01*
X21555Y7656D01*
X21547Y7651D01*
X21542Y7650D01*
X21539Y7648D01*
X20672Y7353D01*
X20664Y7350D01*
X20657D01*
X20645Y7351D01*
X20636Y7356D01*
X20631Y7363D01*
X20628Y7370D01*
X20626Y7377D01*
X20625Y7382D01*
Y7617D01*
X20626Y7633D01*
X20628Y7650D01*
X20635Y7681D01*
X20645Y7712D01*
X20657Y7737D01*
X20662Y7749D01*
X20668Y7759D01*
X20673Y7769D01*
X20677Y7777D01*
X20682Y7782D01*
X20685Y7787D01*
X20686Y7789D01*
X20687Y7791D01*
X20711Y7820D01*
X20737Y7844D01*
X20762Y7864D01*
X20786Y7880D01*
X20807Y7891D01*
X20816Y7895D01*
X20823Y7899D01*
X20829Y7901D01*
X20835Y7904D01*
X20837Y7905D01*
X20838D01*
X21373Y8087D01*
X21390Y8092D01*
X21405Y8094D01*
X21420Y8097D01*
X21434D01*
X21459Y8095D01*
D02*
G37*
G36*
X22905Y8988D02*
X22927Y8984D01*
X22945Y8978D01*
X22957Y8973D01*
X22963Y8970D01*
X22966Y8968D01*
X22968Y8966D01*
X22969D01*
X22980Y8959D01*
X22990Y8949D01*
X22998Y8940D01*
X23006Y8929D01*
X23017Y8908D01*
X23025Y8886D01*
X23029Y8867D01*
X23031Y8858D01*
Y8851D01*
X23032Y8846D01*
Y8603D01*
X23030Y8587D01*
X23025Y8574D01*
X23017Y8562D01*
X23010Y8555D01*
X23001Y8548D01*
X22993Y8543D01*
X22988Y8542D01*
X22985Y8541D01*
X22119Y8246D01*
X22112Y8244D01*
X22104Y8242D01*
X22093Y8244D01*
X22084Y8249D01*
X22079Y8255D01*
X22075Y8263D01*
X22074Y8269D01*
X22072Y8274D01*
Y8277D01*
X22075Y8293D01*
X22080Y8307D01*
X22088Y8319D01*
X22096Y8327D01*
X22104Y8334D01*
X22112Y8338D01*
X22117Y8340D01*
X22119Y8341D01*
X22472Y8461D01*
Y8646D01*
X22474Y8663D01*
X22475Y8679D01*
X22482Y8711D01*
X22491Y8740D01*
X22503Y8766D01*
X22509Y8777D01*
X22514Y8787D01*
X22519Y8797D01*
X22524Y8805D01*
X22528Y8810D01*
X22531Y8815D01*
X22532Y8818D01*
X22533Y8819D01*
X22557Y8848D01*
X22583Y8872D01*
X22608Y8893D01*
X22632Y8908D01*
X22653Y8919D01*
X22662Y8923D01*
X22669Y8927D01*
X22676Y8929D01*
X22681Y8932D01*
X22683Y8933D01*
X22684D01*
X22819Y8979D01*
X22836Y8984D01*
X22851Y8987D01*
X22866Y8989D01*
X22880D01*
X22905Y8988D01*
D02*
G37*
G36*
X23012Y8423D02*
X23021Y8418D01*
X23026Y8411D01*
X23030Y8404D01*
X23031Y8397D01*
X23032Y8392D01*
Y7987D01*
X23030Y7971D01*
X23025Y7958D01*
X23017Y7946D01*
X23010Y7939D01*
X23001Y7933D01*
X22993Y7927D01*
X22988Y7926D01*
X22985Y7925D01*
X22978Y7922D01*
X22970Y7921D01*
X22959Y7922D01*
X22950Y7927D01*
X22945Y7934D01*
X22941Y7941D01*
X22940Y7948D01*
X22938Y7953D01*
Y8109D01*
X22118Y7830D01*
X22110Y7827D01*
X22103D01*
X22091Y7828D01*
X22082Y7833D01*
X22077Y7840D01*
X22074Y7847D01*
X22072Y7854D01*
X22071Y7859D01*
Y7861D01*
X22074Y7878D01*
X22079Y7892D01*
X22086Y7903D01*
X22095Y7911D01*
X22103Y7917D01*
X22110Y7922D01*
X22115Y7924D01*
X22118Y7925D01*
X22938Y8204D01*
Y8358D01*
X22941Y8374D01*
X22946Y8387D01*
X22954Y8399D01*
X22963Y8407D01*
X22970Y8414D01*
X22978Y8418D01*
X22983Y8420D01*
X22985Y8421D01*
X22994Y8424D01*
X23001D01*
X23012Y8423D01*
D02*
G37*
G36*
X22971Y7792D02*
X22977Y7790D01*
X22980Y7788D01*
X22982Y7786D01*
X22983Y7785D01*
X22999Y7765D01*
X23012Y7742D01*
X23021Y7718D01*
X23026Y7694D01*
X23030Y7673D01*
X23031Y7665D01*
Y7656D01*
X23032Y7649D01*
Y7543D01*
X23031Y7526D01*
X23030Y7510D01*
X23022Y7478D01*
X23013Y7447D01*
X23002Y7422D01*
X22996Y7411D01*
X22990Y7400D01*
X22984Y7391D01*
X22980Y7383D01*
X22977Y7378D01*
X22973Y7372D01*
X22971Y7370D01*
X22970Y7369D01*
X22946Y7341D01*
X22921Y7317D01*
X22895Y7296D01*
X22871Y7281D01*
X22850Y7270D01*
X22841Y7266D01*
X22833Y7262D01*
X22827Y7259D01*
X22822Y7257D01*
X22819Y7256D01*
X22818D01*
X22803Y7251D01*
X22786Y7248D01*
X22772Y7245D01*
X22758Y7244D01*
X22733Y7245D01*
X22711Y7251D01*
X22692Y7256D01*
X22679Y7261D01*
X22674Y7263D01*
X22670Y7266D01*
X22669Y7267D01*
X22668D01*
X22369Y7464D01*
X22355Y7470D01*
X22342Y7474D01*
X22328Y7477D01*
X22315Y7475D01*
X22303Y7474D01*
X22295Y7473D01*
X22289Y7471D01*
X22287Y7470D01*
X22268Y7463D01*
X22251Y7454D01*
X22236Y7442D01*
X22223Y7432D01*
X22213Y7422D01*
X22206Y7413D01*
X22201Y7408D01*
X22199Y7405D01*
X22188Y7388D01*
X22179Y7371D01*
X22174Y7355D01*
X22169Y7339D01*
X22166Y7327D01*
X22165Y7318D01*
Y7212D01*
X22166Y7193D01*
X22170Y7176D01*
X22175Y7159D01*
X22181Y7145D01*
X22187Y7134D01*
X22192Y7125D01*
X22195Y7120D01*
X22197Y7117D01*
X22202Y7108D01*
X22204Y7099D01*
X22206Y7094D01*
Y7084D01*
X22203Y7078D01*
X22198Y7065D01*
X22195Y7061D01*
X22193Y7057D01*
X22192Y7055D01*
X22190Y7054D01*
X22179Y7042D01*
X22169Y7035D01*
X22161Y7031D01*
X22160Y7030D01*
X22159D01*
X22151Y7028D01*
X22143Y7027D01*
X22132Y7031D01*
X22127Y7033D01*
X22123Y7035D01*
X22122Y7037D01*
X22121D01*
X22112Y7046D01*
X22104Y7056D01*
X22091Y7078D01*
X22084Y7102D01*
X22077Y7126D01*
X22074Y7148D01*
X22072Y7157D01*
Y7165D01*
X22071Y7172D01*
Y7278D01*
X22072Y7295D01*
X22074Y7311D01*
X22081Y7343D01*
X22091Y7372D01*
X22103Y7399D01*
X22108Y7411D01*
X22114Y7421D01*
X22119Y7430D01*
X22123Y7437D01*
X22128Y7444D01*
X22131Y7447D01*
X22132Y7450D01*
X22133Y7451D01*
X22157Y7480D01*
X22183Y7505D01*
X22209Y7525D01*
X22232Y7540D01*
X22254Y7552D01*
X22263Y7555D01*
X22270Y7559D01*
X22277Y7562D01*
X22282Y7564D01*
X22284Y7565D01*
X22286D01*
X22301Y7571D01*
X22316Y7573D01*
X22331Y7576D01*
X22345D01*
X22369Y7574D01*
X22392Y7571D01*
X22410Y7564D01*
X22423Y7559D01*
X22428Y7557D01*
X22432Y7554D01*
X22433Y7553D01*
X22434D01*
X22733Y7357D01*
X22747Y7350D01*
X22761Y7346D01*
X22776Y7345D01*
X22789D01*
X22800Y7347D01*
X22810Y7348D01*
X22815Y7350D01*
X22818Y7351D01*
X22836Y7358D01*
X22852Y7367D01*
X22866Y7379D01*
X22879Y7389D01*
X22889Y7399D01*
X22896Y7407D01*
X22902Y7412D01*
X22903Y7414D01*
X22914Y7432D01*
X22923Y7450D01*
X22930Y7466D01*
X22935Y7480D01*
X22937Y7493D01*
X22938Y7503D01*
Y7610D01*
X22937Y7629D01*
X22933Y7647D01*
X22927Y7662D01*
X22922Y7677D01*
X22916Y7689D01*
X22909Y7698D01*
X22905Y7703D01*
X22904Y7705D01*
X22900Y7714D01*
X22898Y7722D01*
X22896Y7727D01*
Y7729D01*
X22898Y7737D01*
X22899Y7743D01*
X22904Y7756D01*
X22907Y7760D01*
X22908Y7764D01*
X22910Y7766D01*
Y7767D01*
X22917Y7775D01*
X22922Y7780D01*
X22933Y7789D01*
X22942Y7793D01*
X22943Y7794D01*
X22945D01*
X22952Y7795D01*
X22960D01*
X22971Y7792D01*
D02*
G37*
G36*
X24810Y8851D02*
X24832Y8847D01*
X24850Y8841D01*
X24862Y8835D01*
X24868Y8833D01*
X24871Y8830D01*
X24873Y8829D01*
X24874D01*
X24885Y8822D01*
X24895Y8811D01*
X24903Y8802D01*
X24911Y8792D01*
X24922Y8771D01*
X24930Y8749D01*
X24934Y8730D01*
X24936Y8721D01*
Y8714D01*
X24937Y8708D01*
Y8466D01*
X24935Y8449D01*
X24930Y8437D01*
X24922Y8425D01*
X24915Y8418D01*
X24906Y8411D01*
X24898Y8406D01*
X24893Y8405D01*
X24890Y8404D01*
X24024Y8109D01*
X24017Y8106D01*
X24009Y8105D01*
X23998Y8106D01*
X23989Y8112D01*
X23984Y8118D01*
X23980Y8126D01*
X23979Y8132D01*
X23977Y8137D01*
Y8140D01*
X23980Y8156D01*
X23985Y8170D01*
X23993Y8181D01*
X24001Y8190D01*
X24009Y8197D01*
X24017Y8200D01*
X24022Y8203D01*
X24024Y8204D01*
X24377Y8324D01*
Y8509D01*
X24379Y8526D01*
X24380Y8542D01*
X24387Y8574D01*
X24396Y8603D01*
X24408Y8628D01*
X24414Y8640D01*
X24419Y8650D01*
X24424Y8660D01*
X24429Y8668D01*
X24433Y8673D01*
X24436Y8678D01*
X24437Y8681D01*
X24438Y8682D01*
X24462Y8711D01*
X24488Y8735D01*
X24513Y8755D01*
X24537Y8771D01*
X24558Y8782D01*
X24567Y8786D01*
X24574Y8790D01*
X24581Y8792D01*
X24586Y8795D01*
X24588Y8796D01*
X24589D01*
X24724Y8842D01*
X24741Y8847D01*
X24756Y8849D01*
X24771Y8852D01*
X24785D01*
X24810Y8851D01*
D02*
G37*
G36*
X24917Y8021D02*
X24926Y8016D01*
X24931Y8010D01*
X24935Y8001D01*
X24936Y7995D01*
X24937Y7990D01*
Y7987D01*
X24935Y7971D01*
X24930Y7958D01*
X24922Y7946D01*
X24915Y7939D01*
X24906Y7933D01*
X24898Y7927D01*
X24893Y7926D01*
X24890Y7925D01*
X24023Y7629D01*
X24015Y7626D01*
X24008D01*
X23996Y7628D01*
X23987Y7633D01*
X23982Y7639D01*
X23979Y7647D01*
X23977Y7653D01*
X23976Y7658D01*
Y7929D01*
X23979Y7945D01*
X23984Y7958D01*
X23991Y7969D01*
X24000Y7978D01*
X24008Y7985D01*
X24015Y7988D01*
X24020Y7991D01*
X24023Y7992D01*
X24032Y7995D01*
X24038D01*
X24050Y7993D01*
X24059Y7988D01*
X24064Y7982D01*
X24067Y7974D01*
X24069Y7968D01*
X24070Y7963D01*
Y7741D01*
X24890Y8020D01*
X24899Y8023D01*
X24906D01*
X24917Y8021D01*
D02*
G37*
G36*
X24876Y7792D02*
X24882Y7790D01*
X24885Y7788D01*
X24887Y7786D01*
X24888Y7785D01*
X24904Y7765D01*
X24917Y7742D01*
X24926Y7718D01*
X24931Y7694D01*
X24935Y7673D01*
X24936Y7665D01*
Y7656D01*
X24937Y7649D01*
Y7543D01*
X24936Y7526D01*
X24935Y7510D01*
X24927Y7478D01*
X24918Y7447D01*
X24907Y7422D01*
X24901Y7411D01*
X24895Y7400D01*
X24889Y7391D01*
X24885Y7383D01*
X24882Y7378D01*
X24878Y7372D01*
X24876Y7370D01*
X24875Y7369D01*
X24851Y7341D01*
X24826Y7317D01*
X24800Y7296D01*
X24776Y7281D01*
X24755Y7270D01*
X24746Y7266D01*
X24738Y7262D01*
X24732Y7259D01*
X24727Y7257D01*
X24724Y7256D01*
X24723D01*
X24708Y7251D01*
X24691Y7248D01*
X24677Y7245D01*
X24663Y7244D01*
X24638Y7245D01*
X24616Y7251D01*
X24597Y7256D01*
X24584Y7261D01*
X24579Y7263D01*
X24575Y7266D01*
X24574Y7267D01*
X24573D01*
X24274Y7464D01*
X24260Y7470D01*
X24247Y7474D01*
X24233Y7477D01*
X24220Y7475D01*
X24208Y7474D01*
X24200Y7473D01*
X24194Y7471D01*
X24192Y7470D01*
X24173Y7463D01*
X24156Y7454D01*
X24141Y7442D01*
X24128Y7432D01*
X24118Y7422D01*
X24111Y7413D01*
X24106Y7408D01*
X24104Y7405D01*
X24093Y7388D01*
X24084Y7371D01*
X24079Y7355D01*
X24074Y7339D01*
X24071Y7327D01*
X24070Y7318D01*
Y7212D01*
X24071Y7193D01*
X24075Y7176D01*
X24080Y7159D01*
X24086Y7145D01*
X24092Y7134D01*
X24097Y7125D01*
X24100Y7120D01*
X24102Y7117D01*
X24107Y7108D01*
X24109Y7099D01*
X24111Y7094D01*
Y7084D01*
X24108Y7078D01*
X24103Y7065D01*
X24100Y7061D01*
X24098Y7057D01*
X24097Y7055D01*
X24095Y7054D01*
X24084Y7042D01*
X24074Y7035D01*
X24066Y7031D01*
X24065Y7030D01*
X24064D01*
X24056Y7028D01*
X24048Y7027D01*
X24037Y7031D01*
X24032Y7033D01*
X24028Y7035D01*
X24027Y7037D01*
X24026D01*
X24017Y7046D01*
X24009Y7056D01*
X23996Y7078D01*
X23989Y7102D01*
X23982Y7126D01*
X23979Y7148D01*
X23977Y7157D01*
Y7165D01*
X23976Y7172D01*
Y7278D01*
X23977Y7295D01*
X23979Y7311D01*
X23986Y7343D01*
X23996Y7372D01*
X24008Y7399D01*
X24013Y7411D01*
X24019Y7421D01*
X24024Y7430D01*
X24028Y7437D01*
X24033Y7444D01*
X24036Y7447D01*
X24037Y7450D01*
X24038Y7451D01*
X24062Y7480D01*
X24088Y7505D01*
X24114Y7525D01*
X24137Y7540D01*
X24159Y7552D01*
X24168Y7555D01*
X24175Y7559D01*
X24182Y7562D01*
X24187Y7564D01*
X24189Y7565D01*
X24191D01*
X24206Y7571D01*
X24221Y7573D01*
X24236Y7576D01*
X24250D01*
X24274Y7574D01*
X24297Y7571D01*
X24315Y7564D01*
X24328Y7559D01*
X24333Y7557D01*
X24337Y7554D01*
X24338Y7553D01*
X24339D01*
X24638Y7357D01*
X24652Y7350D01*
X24666Y7346D01*
X24681Y7345D01*
X24694D01*
X24705Y7347D01*
X24715Y7348D01*
X24720Y7350D01*
X24723Y7351D01*
X24741Y7358D01*
X24757Y7367D01*
X24771Y7379D01*
X24784Y7389D01*
X24794Y7399D01*
X24802Y7407D01*
X24807Y7412D01*
X24808Y7414D01*
X24819Y7432D01*
X24828Y7450D01*
X24835Y7466D01*
X24840Y7480D01*
X24842Y7493D01*
X24843Y7503D01*
Y7610D01*
X24842Y7629D01*
X24838Y7647D01*
X24832Y7662D01*
X24827Y7677D01*
X24821Y7689D01*
X24814Y7698D01*
X24810Y7703D01*
X24809Y7705D01*
X24805Y7714D01*
X24803Y7722D01*
X24802Y7727D01*
Y7729D01*
X24803Y7737D01*
X24804Y7743D01*
X24809Y7756D01*
X24812Y7760D01*
X24813Y7764D01*
X24815Y7766D01*
Y7767D01*
X24822Y7775D01*
X24827Y7780D01*
X24838Y7789D01*
X24847Y7793D01*
X24848Y7794D01*
X24850D01*
X24857Y7795D01*
X24865D01*
X24876Y7792D01*
D02*
G37*
G36*
X27543Y8966D02*
X27549Y8965D01*
X27552Y8962D01*
X27554Y8961D01*
X27555Y8960D01*
X27571Y8940D01*
X27584Y8917D01*
X27593Y8893D01*
X27598Y8868D01*
X27602Y8848D01*
X27603Y8839D01*
Y8830D01*
X27604Y8824D01*
Y8717D01*
X27603Y8701D01*
X27602Y8684D01*
X27594Y8653D01*
X27585Y8622D01*
X27574Y8597D01*
X27568Y8585D01*
X27562Y8575D01*
X27556Y8566D01*
X27552Y8557D01*
X27549Y8552D01*
X27545Y8547D01*
X27543Y8545D01*
X27542Y8543D01*
X27518Y8515D01*
X27493Y8491D01*
X27467Y8471D01*
X27443Y8456D01*
X27422Y8444D01*
X27413Y8441D01*
X27405Y8437D01*
X27399Y8434D01*
X27394Y8432D01*
X27391Y8430D01*
X27390D01*
X27375Y8425D01*
X27358Y8423D01*
X27344Y8420D01*
X27330Y8419D01*
X27305Y8420D01*
X27283Y8425D01*
X27264Y8430D01*
X27251Y8435D01*
X27246Y8438D01*
X27242Y8441D01*
X27241Y8442D01*
X27240D01*
X26941Y8639D01*
X26927Y8645D01*
X26914Y8649D01*
X26900Y8651D01*
X26887Y8650D01*
X26875Y8649D01*
X26867Y8648D01*
X26861Y8646D01*
X26859Y8645D01*
X26840Y8637D01*
X26823Y8628D01*
X26808Y8617D01*
X26795Y8607D01*
X26785Y8597D01*
X26778Y8588D01*
X26773Y8583D01*
X26771Y8580D01*
X26760Y8562D01*
X26751Y8546D01*
X26746Y8529D01*
X26741Y8514D01*
X26738Y8501D01*
X26737Y8493D01*
Y8387D01*
X26738Y8368D01*
X26742Y8350D01*
X26747Y8334D01*
X26753Y8320D01*
X26759Y8308D01*
X26764Y8300D01*
X26767Y8294D01*
X26769Y8292D01*
X26774Y8283D01*
X26776Y8274D01*
X26778Y8269D01*
Y8259D01*
X26775Y8253D01*
X26770Y8240D01*
X26767Y8236D01*
X26765Y8232D01*
X26764Y8230D01*
X26762Y8228D01*
X26751Y8217D01*
X26741Y8209D01*
X26733Y8206D01*
X26732Y8204D01*
X26731D01*
X26723Y8203D01*
X26715Y8202D01*
X26704Y8206D01*
X26699Y8208D01*
X26695Y8209D01*
X26694Y8212D01*
X26693D01*
X26684Y8221D01*
X26676Y8231D01*
X26663Y8253D01*
X26656Y8277D01*
X26649Y8301D01*
X26646Y8322D01*
X26644Y8331D01*
Y8340D01*
X26643Y8347D01*
Y8453D01*
X26644Y8470D01*
X26646Y8486D01*
X26653Y8518D01*
X26663Y8547D01*
X26675Y8574D01*
X26680Y8585D01*
X26686Y8595D01*
X26691Y8604D01*
X26695Y8612D01*
X26700Y8618D01*
X26703Y8622D01*
X26704Y8625D01*
X26705Y8626D01*
X26729Y8655D01*
X26755Y8679D01*
X26781Y8700D01*
X26804Y8715D01*
X26826Y8726D01*
X26835Y8730D01*
X26842Y8734D01*
X26849Y8736D01*
X26854Y8739D01*
X26856Y8740D01*
X26858D01*
X26873Y8745D01*
X26888Y8748D01*
X26903Y8750D01*
X26917D01*
X26941Y8749D01*
X26964Y8745D01*
X26982Y8739D01*
X26995Y8734D01*
X27000Y8731D01*
X27004Y8729D01*
X27005Y8728D01*
X27006D01*
X27305Y8532D01*
X27319Y8524D01*
X27333Y8521D01*
X27348Y8519D01*
X27361D01*
X27372Y8522D01*
X27382Y8523D01*
X27387Y8524D01*
X27390Y8526D01*
X27408Y8533D01*
X27424Y8542D01*
X27438Y8554D01*
X27451Y8564D01*
X27461Y8574D01*
X27469Y8581D01*
X27474Y8587D01*
X27475Y8589D01*
X27486Y8607D01*
X27495Y8625D01*
X27502Y8641D01*
X27507Y8655D01*
X27509Y8668D01*
X27510Y8678D01*
Y8785D01*
X27509Y8804D01*
X27505Y8822D01*
X27499Y8837D01*
X27494Y8852D01*
X27488Y8863D01*
X27481Y8872D01*
X27477Y8877D01*
X27476Y8880D01*
X27472Y8889D01*
X27470Y8896D01*
X27469Y8902D01*
Y8904D01*
X27470Y8912D01*
X27471Y8918D01*
X27476Y8931D01*
X27479Y8935D01*
X27480Y8938D01*
X27482Y8941D01*
Y8942D01*
X27489Y8950D01*
X27494Y8955D01*
X27505Y8964D01*
X27514Y8968D01*
X27515Y8969D01*
X27517D01*
X27524Y8970D01*
X27532D01*
X27543Y8966D01*
D02*
G37*
G36*
X27584Y8371D02*
X27593Y8366D01*
X27598Y8359D01*
X27602Y8352D01*
X27603Y8345D01*
X27604Y8340D01*
Y8002D01*
X27602Y7986D01*
X27597Y7973D01*
X27589Y7962D01*
X27582Y7954D01*
X27573Y7948D01*
X27565Y7943D01*
X27560Y7941D01*
X27557Y7940D01*
X26690Y7644D01*
X26682Y7642D01*
X26675D01*
X26663Y7643D01*
X26654Y7648D01*
X26649Y7654D01*
X26646Y7662D01*
X26644Y7668D01*
X26643Y7673D01*
Y8010D01*
X26646Y8026D01*
X26651Y8039D01*
X26658Y8051D01*
X26667Y8060D01*
X26675Y8066D01*
X26682Y8070D01*
X26687Y8072D01*
X26690Y8073D01*
X26699Y8076D01*
X26705Y8077D01*
X26717Y8076D01*
X26726Y8071D01*
X26731Y8063D01*
X26734Y8056D01*
X26736Y8049D01*
X26737Y8044D01*
Y7756D01*
X27109Y7882D01*
Y8035D01*
X27112Y8052D01*
X27117Y8065D01*
X27124Y8076D01*
X27133Y8085D01*
X27141Y8091D01*
X27148Y8095D01*
X27154Y8098D01*
X27156Y8099D01*
X27165Y8101D01*
X27171D01*
X27183Y8100D01*
X27192Y8095D01*
X27197Y8089D01*
X27201Y8081D01*
X27202Y8075D01*
X27203Y8070D01*
Y7913D01*
X27510Y8019D01*
Y8305D01*
X27513Y8321D01*
X27518Y8335D01*
X27526Y8347D01*
X27535Y8354D01*
X27542Y8361D01*
X27550Y8366D01*
X27555Y8367D01*
X27557Y8368D01*
X27566Y8371D01*
X27573Y8372D01*
X27584Y8371D01*
D02*
G37*
G36*
X27477Y7772D02*
X27499Y7769D01*
X27517Y7762D01*
X27529Y7757D01*
X27535Y7755D01*
X27538Y7752D01*
X27540Y7751D01*
X27541D01*
X27552Y7743D01*
X27562Y7733D01*
X27570Y7724D01*
X27578Y7714D01*
X27589Y7692D01*
X27597Y7671D01*
X27601Y7652D01*
X27603Y7643D01*
Y7635D01*
X27604Y7630D01*
Y7388D01*
X27602Y7371D01*
X27597Y7358D01*
X27589Y7347D01*
X27582Y7339D01*
X27573Y7333D01*
X27565Y7328D01*
X27560Y7327D01*
X27557Y7325D01*
X26690Y7030D01*
X26682Y7027D01*
X26675D01*
X26663Y7028D01*
X26654Y7033D01*
X26649Y7040D01*
X26646Y7047D01*
X26644Y7054D01*
X26643Y7059D01*
Y7061D01*
X26646Y7078D01*
X26651Y7092D01*
X26658Y7103D01*
X26667Y7111D01*
X26675Y7117D01*
X26682Y7122D01*
X26687Y7124D01*
X26690Y7125D01*
X27044Y7245D01*
Y7337D01*
X26676Y7431D01*
X26665Y7433D01*
X26657Y7437D01*
X26651Y7442D01*
X26647Y7447D01*
X26644Y7452D01*
X26643Y7456D01*
Y7460D01*
X26646Y7474D01*
X26649Y7487D01*
X26652Y7491D01*
X26653Y7494D01*
X26656Y7497D01*
Y7498D01*
X26661Y7506D01*
X26667Y7511D01*
X26677Y7520D01*
X26686Y7524D01*
X26687Y7525D01*
X26689D01*
X26698Y7526D01*
X26705Y7527D01*
X26710Y7526D01*
X26713D01*
X27044Y7435D01*
X27046Y7450D01*
X27047Y7465D01*
X27053Y7494D01*
X27063Y7522D01*
X27075Y7548D01*
X27085Y7569D01*
X27090Y7578D01*
X27095Y7586D01*
X27099Y7591D01*
X27101Y7596D01*
X27104Y7598D01*
Y7600D01*
X27115Y7615D01*
X27128Y7630D01*
X27154Y7654D01*
X27179Y7675D01*
X27203Y7691D01*
X27225Y7704D01*
X27234Y7708D01*
X27242Y7712D01*
X27249Y7714D01*
X27254Y7717D01*
X27256Y7718D01*
X27258D01*
X27391Y7764D01*
X27408Y7769D01*
X27423Y7771D01*
X27438Y7774D01*
X27452D01*
X27477Y7772D01*
D02*
G37*
G36*
X30144Y8693D02*
X30166Y8689D01*
X30184Y8683D01*
X30196Y8678D01*
X30202Y8675D01*
X30205Y8673D01*
X30207Y8672D01*
X30208D01*
X30219Y8664D01*
X30229Y8654D01*
X30237Y8645D01*
X30245Y8635D01*
X30256Y8613D01*
X30264Y8592D01*
X30268Y8573D01*
X30270Y8564D01*
Y8556D01*
X30271Y8551D01*
Y8340D01*
X30269Y8324D01*
X30264Y8311D01*
X30256Y8300D01*
X30249Y8292D01*
X30240Y8286D01*
X30232Y8280D01*
X30227Y8279D01*
X30224Y8278D01*
X29357Y7982D01*
X29349Y7979D01*
X29342D01*
X29330Y7981D01*
X29321Y7986D01*
X29316Y7992D01*
X29313Y8000D01*
X29311Y8006D01*
X29310Y8011D01*
Y8249D01*
X29311Y8265D01*
X29313Y8280D01*
X29320Y8311D01*
X29330Y8340D01*
X29342Y8367D01*
X29353Y8388D01*
X29358Y8397D01*
X29363Y8405D01*
X29367Y8411D01*
X29371Y8416D01*
X29372Y8419D01*
X29374Y8420D01*
X29386Y8435D01*
X29399Y8451D01*
X29412Y8463D01*
X29424Y8476D01*
X29450Y8495D01*
X29473Y8512D01*
X29493Y8523D01*
X29502Y8528D01*
X29509Y8531D01*
X29516Y8533D01*
X29520Y8536D01*
X29522Y8537D01*
X29523D01*
X29657Y8583D01*
X29678Y8589D01*
X29699Y8592D01*
X29718Y8593D01*
X29734D01*
X29748Y8592D01*
X29758Y8590D01*
X29765Y8588D01*
X29767D01*
X29785Y8581D01*
X29800Y8574D01*
X29812Y8565D01*
X29822Y8556D01*
X29828Y8547D01*
X29833Y8541D01*
X29836Y8536D01*
X29837Y8534D01*
X29847Y8551D01*
X29859Y8566D01*
X29870Y8580D01*
X29883Y8593D01*
X29908Y8616D01*
X29934Y8632D01*
X29956Y8646D01*
X29965Y8651D01*
X29974Y8655D01*
X29981Y8658D01*
X29987Y8660D01*
X29989Y8661D01*
X29991D01*
X30058Y8684D01*
X30075Y8689D01*
X30090Y8692D01*
X30105Y8695D01*
X30119D01*
X30144Y8693D01*
D02*
G37*
G36*
X30251Y8162D02*
X30260Y8157D01*
X30265Y8151D01*
X30269Y8143D01*
X30270Y8137D01*
X30271Y8132D01*
Y7795D01*
X30269Y7779D01*
X30264Y7766D01*
X30256Y7755D01*
X30249Y7747D01*
X30240Y7741D01*
X30232Y7736D01*
X30227Y7734D01*
X30224Y7733D01*
X29823Y7596D01*
X29815Y7593D01*
X29808Y7592D01*
X29796Y7593D01*
X29788Y7598D01*
X29782Y7606D01*
X29779Y7614D01*
X29777Y7620D01*
X29776Y7625D01*
Y7795D01*
X29775Y7812D01*
X29771Y7827D01*
X29765Y7839D01*
X29758Y7849D01*
X29752Y7856D01*
X29746Y7863D01*
X29742Y7865D01*
X29741Y7866D01*
X29727Y7874D01*
X29713Y7878D01*
X29699Y7879D01*
X29686D01*
X29674Y7878D01*
X29664Y7877D01*
X29659Y7875D01*
X29657Y7874D01*
X29523Y7828D01*
X29506Y7821D01*
X29489Y7812D01*
X29475Y7800D01*
X29462Y7790D01*
X29452Y7780D01*
X29445Y7771D01*
X29440Y7766D01*
X29438Y7764D01*
X29427Y7746D01*
X29418Y7729D01*
X29413Y7713D01*
X29408Y7699D01*
X29405Y7686D01*
X29404Y7677D01*
Y7501D01*
X29401Y7484D01*
X29396Y7471D01*
X29389Y7460D01*
X29381Y7451D01*
X29372Y7445D01*
X29365Y7441D01*
X29360Y7438D01*
X29357Y7437D01*
X29349Y7435D01*
X29342D01*
X29330Y7436D01*
X29321Y7441D01*
X29316Y7447D01*
X29313Y7455D01*
X29311Y7461D01*
X29310Y7466D01*
Y7637D01*
X29311Y7653D01*
X29313Y7670D01*
X29320Y7700D01*
X29330Y7729D01*
X29342Y7755D01*
X29353Y7778D01*
X29358Y7786D01*
X29362Y7794D01*
X29367Y7799D01*
X29370Y7804D01*
X29371Y7807D01*
X29372Y7808D01*
X29396Y7837D01*
X29422Y7861D01*
X29447Y7882D01*
X29471Y7897D01*
X29492Y7908D01*
X29500Y7912D01*
X29508Y7916D01*
X29514Y7919D01*
X29520Y7921D01*
X29522Y7922D01*
X29523D01*
X29657Y7968D01*
X29673Y7973D01*
X29688Y7976D01*
X29704Y7978D01*
X29718D01*
X29743Y7977D01*
X29765Y7973D01*
X29782Y7968D01*
X29795Y7963D01*
X29800Y7960D01*
X29804Y7958D01*
X29805Y7957D01*
X29807D01*
X29818Y7949D01*
X29828Y7939D01*
X29836Y7930D01*
X29843Y7920D01*
X29855Y7898D01*
X29862Y7877D01*
X29866Y7858D01*
X29869Y7849D01*
Y7841D01*
X29870Y7836D01*
Y7706D01*
X30177Y7812D01*
Y8098D01*
X30180Y8114D01*
X30185Y8127D01*
X30193Y8138D01*
X30202Y8146D01*
X30209Y8152D01*
X30217Y8157D01*
X30222Y8159D01*
X30224Y8160D01*
X30233Y8162D01*
X30240Y8164D01*
X30251Y8162D01*
D02*
G37*
G36*
X29683Y7461D02*
X29692Y7456D01*
X29697Y7450D01*
X29701Y7442D01*
X29702Y7436D01*
X29704Y7431D01*
Y7309D01*
X29824Y7350D01*
X29833Y7352D01*
X29840Y7353D01*
X29851Y7352D01*
X29860Y7347D01*
X29865Y7339D01*
X29869Y7332D01*
X29870Y7325D01*
X29871Y7320D01*
Y7318D01*
X29869Y7301D01*
X29864Y7289D01*
X29856Y7277D01*
X29848Y7268D01*
X29840Y7262D01*
X29832Y7258D01*
X29827Y7256D01*
X29824Y7254D01*
X29704Y7214D01*
Y7094D01*
X29701Y7078D01*
X29696Y7064D01*
X29688Y7054D01*
X29681Y7045D01*
X29672Y7038D01*
X29664Y7035D01*
X29659Y7032D01*
X29657Y7031D01*
X29649Y7028D01*
X29641Y7027D01*
X29630Y7028D01*
X29621Y7033D01*
X29616Y7041D01*
X29612Y7049D01*
X29611Y7055D01*
X29610Y7060D01*
Y7182D01*
X29490Y7141D01*
X29483Y7139D01*
X29475Y7137D01*
X29464Y7139D01*
X29455Y7144D01*
X29450Y7151D01*
X29446Y7159D01*
X29445Y7165D01*
X29443Y7171D01*
Y7173D01*
X29446Y7190D01*
X29451Y7202D01*
X29459Y7214D01*
X29467Y7223D01*
X29475Y7229D01*
X29483Y7233D01*
X29488Y7235D01*
X29490Y7237D01*
X29610Y7277D01*
Y7397D01*
X29612Y7413D01*
X29617Y7426D01*
X29625Y7437D01*
X29634Y7446D01*
X29641Y7452D01*
X29649Y7456D01*
X29654Y7459D01*
X29657Y7460D01*
X29666Y7463D01*
X29672D01*
X29683Y7461D01*
D02*
G37*
G36*
X32684Y8693D02*
X32706Y8689D01*
X32724Y8683D01*
X32736Y8678D01*
X32742Y8675D01*
X32745Y8673D01*
X32747Y8672D01*
X32748D01*
X32759Y8664D01*
X32769Y8654D01*
X32777Y8645D01*
X32785Y8635D01*
X32796Y8613D01*
X32804Y8592D01*
X32808Y8573D01*
X32810Y8564D01*
Y8556D01*
X32811Y8551D01*
Y8340D01*
X32809Y8324D01*
X32804Y8311D01*
X32796Y8300D01*
X32789Y8292D01*
X32780Y8286D01*
X32772Y8280D01*
X32767Y8279D01*
X32764Y8278D01*
X31897Y7982D01*
X31889Y7979D01*
X31882D01*
X31870Y7981D01*
X31861Y7986D01*
X31856Y7992D01*
X31853Y8000D01*
X31851Y8006D01*
X31850Y8011D01*
Y8249D01*
X31851Y8265D01*
X31853Y8280D01*
X31860Y8311D01*
X31870Y8340D01*
X31882Y8367D01*
X31893Y8388D01*
X31898Y8397D01*
X31903Y8405D01*
X31907Y8411D01*
X31911Y8416D01*
X31912Y8419D01*
X31913Y8420D01*
X31926Y8435D01*
X31939Y8451D01*
X31952Y8463D01*
X31964Y8476D01*
X31990Y8495D01*
X32013Y8512D01*
X32033Y8523D01*
X32042Y8528D01*
X32049Y8531D01*
X32056Y8533D01*
X32060Y8536D01*
X32062Y8537D01*
X32063D01*
X32197Y8583D01*
X32218Y8589D01*
X32239Y8592D01*
X32258Y8593D01*
X32274D01*
X32288Y8592D01*
X32298Y8590D01*
X32305Y8588D01*
X32307D01*
X32325Y8581D01*
X32340Y8574D01*
X32352Y8565D01*
X32362Y8556D01*
X32368Y8547D01*
X32373Y8541D01*
X32376Y8536D01*
X32377Y8534D01*
X32387Y8551D01*
X32399Y8566D01*
X32410Y8580D01*
X32423Y8593D01*
X32448Y8616D01*
X32474Y8632D01*
X32496Y8646D01*
X32505Y8651D01*
X32514Y8655D01*
X32521Y8658D01*
X32527Y8660D01*
X32529Y8661D01*
X32531D01*
X32598Y8684D01*
X32615Y8689D01*
X32630Y8692D01*
X32645Y8695D01*
X32659D01*
X32684Y8693D01*
D02*
G37*
G36*
X32791Y8162D02*
X32800Y8157D01*
X32805Y8151D01*
X32809Y8143D01*
X32810Y8137D01*
X32811Y8132D01*
Y7795D01*
X32809Y7779D01*
X32804Y7766D01*
X32796Y7755D01*
X32789Y7747D01*
X32780Y7741D01*
X32772Y7736D01*
X32767Y7734D01*
X32764Y7733D01*
X32363Y7596D01*
X32355Y7593D01*
X32348Y7592D01*
X32336Y7593D01*
X32328Y7598D01*
X32322Y7606D01*
X32319Y7614D01*
X32317Y7620D01*
X32316Y7625D01*
Y7795D01*
X32315Y7812D01*
X32311Y7827D01*
X32305Y7839D01*
X32298Y7849D01*
X32292Y7856D01*
X32286Y7863D01*
X32282Y7865D01*
X32281Y7866D01*
X32267Y7874D01*
X32253Y7878D01*
X32239Y7879D01*
X32226D01*
X32214Y7878D01*
X32204Y7877D01*
X32199Y7875D01*
X32197Y7874D01*
X32063Y7828D01*
X32046Y7821D01*
X32029Y7812D01*
X32015Y7800D01*
X32002Y7790D01*
X31992Y7780D01*
X31985Y7771D01*
X31980Y7766D01*
X31978Y7764D01*
X31967Y7746D01*
X31958Y7729D01*
X31953Y7713D01*
X31948Y7699D01*
X31945Y7686D01*
X31944Y7677D01*
Y7501D01*
X31941Y7484D01*
X31936Y7471D01*
X31929Y7460D01*
X31921Y7451D01*
X31912Y7445D01*
X31905Y7441D01*
X31900Y7438D01*
X31897Y7437D01*
X31889Y7435D01*
X31882D01*
X31870Y7436D01*
X31861Y7441D01*
X31856Y7447D01*
X31853Y7455D01*
X31851Y7461D01*
X31850Y7466D01*
Y7637D01*
X31851Y7653D01*
X31853Y7670D01*
X31860Y7700D01*
X31870Y7729D01*
X31882Y7755D01*
X31893Y7778D01*
X31898Y7786D01*
X31902Y7794D01*
X31907Y7799D01*
X31910Y7804D01*
X31911Y7807D01*
X31912Y7808D01*
X31936Y7837D01*
X31962Y7861D01*
X31987Y7882D01*
X32011Y7897D01*
X32032Y7908D01*
X32041Y7912D01*
X32048Y7916D01*
X32054Y7919D01*
X32060Y7921D01*
X32062Y7922D01*
X32063D01*
X32197Y7968D01*
X32213Y7973D01*
X32228Y7976D01*
X32244Y7978D01*
X32258D01*
X32283Y7977D01*
X32305Y7973D01*
X32322Y7968D01*
X32335Y7963D01*
X32340Y7960D01*
X32344Y7958D01*
X32345Y7957D01*
X32347D01*
X32358Y7949D01*
X32368Y7939D01*
X32376Y7930D01*
X32383Y7920D01*
X32395Y7898D01*
X32402Y7877D01*
X32406Y7858D01*
X32409Y7849D01*
Y7841D01*
X32410Y7836D01*
Y7706D01*
X32717Y7812D01*
Y8098D01*
X32720Y8114D01*
X32725Y8127D01*
X32733Y8138D01*
X32742Y8146D01*
X32749Y8152D01*
X32757Y8157D01*
X32762Y8159D01*
X32764Y8160D01*
X32773Y8162D01*
X32780Y8164D01*
X32791Y8162D01*
D02*
G37*
G36*
X32223Y7461D02*
X32232Y7456D01*
X32237Y7450D01*
X32241Y7442D01*
X32242Y7436D01*
X32244Y7431D01*
Y7309D01*
X32364Y7350D01*
X32373Y7352D01*
X32380Y7353D01*
X32391Y7352D01*
X32400Y7347D01*
X32405Y7339D01*
X32409Y7332D01*
X32410Y7325D01*
X32411Y7320D01*
Y7318D01*
X32409Y7301D01*
X32404Y7289D01*
X32396Y7277D01*
X32388Y7268D01*
X32380Y7262D01*
X32372Y7258D01*
X32367Y7256D01*
X32364Y7254D01*
X32244Y7214D01*
Y7094D01*
X32241Y7078D01*
X32236Y7064D01*
X32228Y7054D01*
X32221Y7045D01*
X32212Y7038D01*
X32204Y7035D01*
X32199Y7032D01*
X32197Y7031D01*
X32189Y7028D01*
X32181Y7027D01*
X32170Y7028D01*
X32161Y7033D01*
X32156Y7041D01*
X32152Y7049D01*
X32151Y7055D01*
X32150Y7060D01*
Y7182D01*
X32030Y7141D01*
X32023Y7139D01*
X32015Y7137D01*
X32004Y7139D01*
X31995Y7144D01*
X31990Y7151D01*
X31986Y7159D01*
X31985Y7165D01*
X31983Y7171D01*
Y7173D01*
X31986Y7190D01*
X31991Y7202D01*
X31999Y7214D01*
X32007Y7223D01*
X32015Y7229D01*
X32023Y7233D01*
X32028Y7235D01*
X32030Y7237D01*
X32150Y7277D01*
Y7397D01*
X32152Y7413D01*
X32157Y7426D01*
X32165Y7437D01*
X32174Y7446D01*
X32181Y7452D01*
X32189Y7456D01*
X32194Y7459D01*
X32197Y7460D01*
X32206Y7463D01*
X32212D01*
X32223Y7461D01*
D02*
G37*
G36*
X35097Y8693D02*
X35119Y8689D01*
X35137Y8683D01*
X35149Y8678D01*
X35155Y8675D01*
X35158Y8673D01*
X35160Y8672D01*
X35161D01*
X35172Y8664D01*
X35182Y8654D01*
X35190Y8645D01*
X35198Y8635D01*
X35209Y8613D01*
X35217Y8592D01*
X35221Y8573D01*
X35223Y8564D01*
Y8556D01*
X35224Y8551D01*
Y8340D01*
X35222Y8324D01*
X35217Y8311D01*
X35209Y8300D01*
X35202Y8292D01*
X35193Y8286D01*
X35185Y8280D01*
X35180Y8279D01*
X35177Y8278D01*
X34310Y7982D01*
X34302Y7979D01*
X34295D01*
X34283Y7981D01*
X34274Y7986D01*
X34269Y7992D01*
X34266Y8000D01*
X34264Y8006D01*
X34263Y8011D01*
Y8249D01*
X34264Y8265D01*
X34266Y8280D01*
X34273Y8311D01*
X34283Y8340D01*
X34295Y8367D01*
X34306Y8388D01*
X34311Y8397D01*
X34316Y8405D01*
X34320Y8411D01*
X34324Y8416D01*
X34325Y8419D01*
X34326Y8420D01*
X34339Y8435D01*
X34352Y8451D01*
X34365Y8463D01*
X34377Y8476D01*
X34403Y8495D01*
X34426Y8512D01*
X34446Y8523D01*
X34455Y8528D01*
X34462Y8531D01*
X34469Y8533D01*
X34473Y8536D01*
X34475Y8537D01*
X34476D01*
X34610Y8583D01*
X34631Y8589D01*
X34652Y8592D01*
X34671Y8593D01*
X34687D01*
X34701Y8592D01*
X34711Y8590D01*
X34718Y8588D01*
X34720D01*
X34738Y8581D01*
X34753Y8574D01*
X34765Y8565D01*
X34775Y8556D01*
X34781Y8547D01*
X34786Y8541D01*
X34789Y8536D01*
X34790Y8534D01*
X34800Y8551D01*
X34812Y8566D01*
X34823Y8580D01*
X34836Y8593D01*
X34861Y8616D01*
X34887Y8632D01*
X34909Y8646D01*
X34918Y8651D01*
X34927Y8655D01*
X34934Y8658D01*
X34940Y8660D01*
X34942Y8661D01*
X34944D01*
X35011Y8684D01*
X35028Y8689D01*
X35043Y8692D01*
X35058Y8695D01*
X35072D01*
X35097Y8693D01*
D02*
G37*
G36*
X35204Y8162D02*
X35213Y8157D01*
X35218Y8151D01*
X35222Y8143D01*
X35223Y8137D01*
X35224Y8132D01*
Y7795D01*
X35222Y7779D01*
X35217Y7766D01*
X35209Y7755D01*
X35202Y7747D01*
X35193Y7741D01*
X35185Y7736D01*
X35180Y7734D01*
X35177Y7733D01*
X34776Y7596D01*
X34768Y7593D01*
X34761Y7592D01*
X34749Y7593D01*
X34741Y7598D01*
X34735Y7606D01*
X34732Y7614D01*
X34730Y7620D01*
X34729Y7625D01*
Y7795D01*
X34728Y7812D01*
X34724Y7827D01*
X34718Y7839D01*
X34711Y7849D01*
X34705Y7856D01*
X34699Y7863D01*
X34695Y7865D01*
X34694Y7866D01*
X34680Y7874D01*
X34666Y7878D01*
X34652Y7879D01*
X34639D01*
X34627Y7878D01*
X34617Y7877D01*
X34612Y7875D01*
X34610Y7874D01*
X34476Y7828D01*
X34459Y7821D01*
X34442Y7812D01*
X34428Y7800D01*
X34415Y7790D01*
X34405Y7780D01*
X34398Y7771D01*
X34393Y7766D01*
X34391Y7764D01*
X34380Y7746D01*
X34371Y7729D01*
X34366Y7713D01*
X34361Y7699D01*
X34358Y7686D01*
X34357Y7677D01*
Y7501D01*
X34354Y7484D01*
X34349Y7471D01*
X34342Y7460D01*
X34334Y7451D01*
X34325Y7445D01*
X34318Y7441D01*
X34313Y7438D01*
X34310Y7437D01*
X34302Y7435D01*
X34295D01*
X34283Y7436D01*
X34274Y7441D01*
X34269Y7447D01*
X34266Y7455D01*
X34264Y7461D01*
X34263Y7466D01*
Y7637D01*
X34264Y7653D01*
X34266Y7670D01*
X34273Y7700D01*
X34283Y7729D01*
X34295Y7755D01*
X34306Y7778D01*
X34311Y7786D01*
X34315Y7794D01*
X34320Y7799D01*
X34323Y7804D01*
X34324Y7807D01*
X34325Y7808D01*
X34349Y7837D01*
X34375Y7861D01*
X34400Y7882D01*
X34424Y7897D01*
X34445Y7908D01*
X34453Y7912D01*
X34461Y7916D01*
X34467Y7919D01*
X34473Y7921D01*
X34475Y7922D01*
X34476D01*
X34610Y7968D01*
X34626Y7973D01*
X34641Y7976D01*
X34657Y7978D01*
X34671D01*
X34696Y7977D01*
X34718Y7973D01*
X34735Y7968D01*
X34748Y7963D01*
X34753Y7960D01*
X34757Y7958D01*
X34758Y7957D01*
X34760D01*
X34771Y7949D01*
X34781Y7939D01*
X34789Y7930D01*
X34796Y7920D01*
X34808Y7898D01*
X34815Y7877D01*
X34819Y7858D01*
X34822Y7849D01*
Y7841D01*
X34823Y7836D01*
Y7706D01*
X35130Y7812D01*
Y8098D01*
X35133Y8114D01*
X35138Y8127D01*
X35146Y8138D01*
X35155Y8146D01*
X35162Y8152D01*
X35170Y8157D01*
X35175Y8159D01*
X35177Y8160D01*
X35186Y8162D01*
X35193Y8164D01*
X35204Y8162D01*
D02*
G37*
G36*
X34636Y7461D02*
X34645Y7456D01*
X34650Y7450D01*
X34654Y7442D01*
X34655Y7436D01*
X34657Y7431D01*
Y7309D01*
X34777Y7350D01*
X34786Y7352D01*
X34793Y7353D01*
X34804Y7352D01*
X34813Y7347D01*
X34818Y7339D01*
X34822Y7332D01*
X34823Y7325D01*
X34824Y7320D01*
Y7318D01*
X34822Y7301D01*
X34817Y7289D01*
X34809Y7277D01*
X34801Y7268D01*
X34793Y7262D01*
X34785Y7258D01*
X34780Y7256D01*
X34777Y7254D01*
X34657Y7214D01*
Y7094D01*
X34654Y7078D01*
X34649Y7064D01*
X34641Y7054D01*
X34634Y7045D01*
X34625Y7038D01*
X34617Y7035D01*
X34612Y7032D01*
X34610Y7031D01*
X34602Y7028D01*
X34594Y7027D01*
X34583Y7028D01*
X34574Y7033D01*
X34569Y7041D01*
X34565Y7049D01*
X34564Y7055D01*
X34563Y7060D01*
Y7182D01*
X34443Y7141D01*
X34436Y7139D01*
X34428Y7137D01*
X34417Y7139D01*
X34408Y7144D01*
X34403Y7151D01*
X34399Y7159D01*
X34398Y7165D01*
X34396Y7171D01*
Y7173D01*
X34399Y7190D01*
X34404Y7202D01*
X34412Y7214D01*
X34420Y7223D01*
X34428Y7229D01*
X34436Y7233D01*
X34441Y7235D01*
X34443Y7237D01*
X34563Y7277D01*
Y7397D01*
X34565Y7413D01*
X34570Y7426D01*
X34578Y7437D01*
X34587Y7446D01*
X34594Y7452D01*
X34602Y7456D01*
X34607Y7459D01*
X34610Y7460D01*
X34619Y7463D01*
X34625D01*
X34636Y7461D01*
D02*
G37*
G36*
X54244Y89952D02*
X54527Y89432D01*
X54328D01*
X54146Y89770D01*
X53964Y89432D01*
X53764D01*
X54047Y89952D01*
X53789Y90433D01*
X53982D01*
X54146Y90132D01*
X54308Y90433D01*
X54501D01*
X54244Y89952D01*
D02*
G37*
G36*
X53466Y90434D02*
X53486Y90433D01*
X53523Y90425D01*
X53555Y90413D01*
X53570Y90406D01*
X53582Y90399D01*
X53594Y90393D01*
X53604Y90386D01*
X53612Y90381D01*
X53619Y90374D01*
X53624Y90370D01*
X53629Y90366D01*
X53631Y90365D01*
X53632Y90364D01*
X53644Y90349D01*
X53656Y90334D01*
X53675Y90300D01*
X53689Y90262D01*
X53700Y90226D01*
X53704Y90209D01*
X53708Y90193D01*
X53711Y90179D01*
X53713Y90167D01*
X53715Y90156D01*
Y90148D01*
X53716Y90143D01*
Y90141D01*
X53560Y90121D01*
X53558Y90149D01*
X53554Y90173D01*
X53547Y90193D01*
X53539Y90212D01*
X53531Y90226D01*
X53522Y90238D01*
X53511Y90249D01*
X53502Y90257D01*
X53491Y90264D01*
X53482Y90269D01*
X53472Y90272D01*
X53464Y90274D01*
X53458Y90276D01*
X53452Y90277D01*
X53448D01*
X53431Y90276D01*
X53417Y90272D01*
X53403Y90266D01*
X53391Y90260D01*
X53383Y90253D01*
X53377Y90248D01*
X53373Y90244D01*
X53371Y90242D01*
X53361Y90229D01*
X53354Y90213D01*
X53349Y90197D01*
X53345Y90181D01*
X53342Y90167D01*
X53341Y90155D01*
Y90147D01*
Y90145D01*
Y90144D01*
X53342Y90121D01*
X53346Y90099D01*
X53353Y90079D01*
X53358Y90060D01*
X53365Y90044D01*
X53371Y90032D01*
X53375Y90024D01*
X53377Y90023D01*
Y90021D01*
X53382Y90014D01*
X53389Y90003D01*
X53398Y89991D01*
X53407Y89979D01*
X53427Y89952D01*
X53450Y89926D01*
X53470Y89902D01*
X53479Y89891D01*
X53487Y89880D01*
X53495Y89872D01*
X53500Y89867D01*
X53503Y89863D01*
X53504Y89862D01*
X53528Y89835D01*
X53550Y89809D01*
X53570Y89785D01*
X53588Y89762D01*
X53604Y89741D01*
X53619Y89721D01*
X53631Y89703D01*
X53643Y89686D01*
X53652Y89671D01*
X53660Y89659D01*
X53667Y89647D01*
X53672Y89640D01*
X53676Y89632D01*
X53679Y89626D01*
X53681Y89624D01*
Y89622D01*
X53696Y89588D01*
X53709Y89554D01*
X53719Y89522D01*
X53725Y89493D01*
X53728Y89480D01*
X53729Y89468D01*
X53732Y89459D01*
Y89449D01*
X53733Y89441D01*
X53735Y89436D01*
Y89433D01*
Y89432D01*
X53184D01*
Y89610D01*
X53496D01*
X53486Y89629D01*
X53476Y89646D01*
X53471Y89653D01*
X53467Y89658D01*
X53466Y89661D01*
X53464Y89662D01*
X53460Y89667D01*
X53455Y89675D01*
X53440Y89691D01*
X53426Y89710D01*
X53409Y89729D01*
X53394Y89747D01*
X53381Y89762D01*
X53375Y89767D01*
X53371Y89771D01*
X53370Y89774D01*
X53369Y89775D01*
X53341Y89807D01*
X53317Y89836D01*
X53297Y89862D01*
X53281Y89884D01*
X53267Y89902D01*
X53259Y89914D01*
X53254Y89922D01*
X53253Y89924D01*
X53241Y89946D01*
X53230Y89967D01*
X53221Y89987D01*
X53214Y90004D01*
X53208Y90019D01*
X53204Y90031D01*
X53202Y90037D01*
X53201Y90040D01*
X53196Y90061D01*
X53190Y90083D01*
X53188Y90103D01*
X53186Y90121D01*
X53185Y90136D01*
X53184Y90148D01*
Y90156D01*
Y90159D01*
X53185Y90179D01*
X53186Y90199D01*
X53194Y90234D01*
X53205Y90268D01*
X53217Y90296D01*
X53224Y90309D01*
X53229Y90320D01*
X53234Y90329D01*
X53240Y90337D01*
X53243Y90344D01*
X53248Y90348D01*
X53249Y90350D01*
X53250Y90352D01*
X53263Y90366D01*
X53277Y90380D01*
X53293Y90390D01*
X53307Y90399D01*
X53325Y90409D01*
X53341Y90415D01*
X53371Y90425D01*
X53401Y90431D01*
X53413Y90433D01*
X53423Y90434D01*
X53432Y90435D01*
X53444D01*
X53466Y90434D01*
D02*
G37*
G36*
X53057Y89895D02*
X52929Y89872D01*
X52919Y89886D01*
X52909Y89896D01*
X52899Y89907D01*
X52888Y89915D01*
X52868Y89928D01*
X52848Y89936D01*
X52832Y89942D01*
X52820Y89944D01*
X52815Y89946D01*
X52808D01*
X52788Y89944D01*
X52771Y89939D01*
X52756Y89931D01*
X52743Y89923D01*
X52732Y89915D01*
X52726Y89907D01*
X52720Y89902D01*
X52719Y89900D01*
X52707Y89882D01*
X52699Y89859D01*
X52692Y89836D01*
X52688Y89814D01*
X52686Y89794D01*
Y89785D01*
X52685Y89778D01*
Y89771D01*
Y89766D01*
Y89763D01*
Y89762D01*
X52686Y89727D01*
X52690Y89698D01*
X52696Y89673D01*
X52702Y89651D01*
X52708Y89636D01*
X52715Y89625D01*
X52719Y89618D01*
X52720Y89616D01*
X52734Y89600D01*
X52748Y89589D01*
X52762Y89581D01*
X52775Y89574D01*
X52787Y89572D01*
X52796Y89570D01*
X52802Y89569D01*
X52804D01*
X52819Y89570D01*
X52832Y89574D01*
X52846Y89581D01*
X52856Y89588D01*
X52866Y89594D01*
X52872Y89601D01*
X52877Y89605D01*
X52879Y89606D01*
X52891Y89621D01*
X52900Y89638D01*
X52907Y89655D01*
X52912Y89673D01*
X52915Y89687D01*
X52917Y89699D01*
X52919Y89707D01*
Y89709D01*
Y89710D01*
X53076Y89690D01*
X53072Y89666D01*
X53068Y89644D01*
X53062Y89622D01*
X53056Y89602D01*
X53049Y89584D01*
X53041Y89566D01*
X53035Y89552D01*
X53027Y89538D01*
X53019Y89525D01*
X53012Y89514D01*
X53005Y89506D01*
X53000Y89498D01*
X52995Y89493D01*
X52991Y89489D01*
X52989Y89486D01*
X52988Y89485D01*
X52973Y89473D01*
X52959Y89462D01*
X52944Y89452D01*
X52928Y89444D01*
X52897Y89432D01*
X52869Y89424D01*
X52844Y89419D01*
X52834Y89417D01*
X52824Y89416D01*
X52816Y89415D01*
X52806D01*
X52780Y89416D01*
X52758Y89420D01*
X52736Y89425D01*
X52715Y89432D01*
X52696Y89440D01*
X52679Y89449D01*
X52665Y89459D01*
X52650Y89469D01*
X52638Y89480D01*
X52627Y89489D01*
X52618Y89498D01*
X52610Y89506D01*
X52605Y89513D01*
X52601Y89520D01*
X52598Y89522D01*
X52597Y89524D01*
X52583Y89545D01*
X52573Y89566D01*
X52562Y89588D01*
X52554Y89608D01*
X52541Y89649D01*
X52533Y89686D01*
X52530Y89703D01*
X52527Y89718D01*
X52526Y89733D01*
X52525Y89743D01*
X52523Y89753D01*
Y89761D01*
Y89765D01*
Y89766D01*
X52525Y89795D01*
X52527Y89823D01*
X52531Y89848D01*
X52537Y89874D01*
X52543Y89896D01*
X52551Y89918D01*
X52558Y89936D01*
X52566Y89955D01*
X52575Y89970D01*
X52582Y89984D01*
X52590Y89995D01*
X52597Y90006D01*
X52602Y90014D01*
X52606Y90019D01*
X52609Y90021D01*
X52610Y90023D01*
X52623Y90036D01*
X52637Y90048D01*
X52650Y90059D01*
X52665Y90068D01*
X52678Y90075D01*
X52692Y90081D01*
X52718Y90091D01*
X52740Y90096D01*
X52750Y90097D01*
X52759Y90099D01*
X52766Y90100D01*
X52775D01*
X52795Y90099D01*
X52815Y90095D01*
X52834Y90089D01*
X52850Y90084D01*
X52863Y90079D01*
X52874Y90073D01*
X52880Y90069D01*
X52883Y90068D01*
X52856Y90238D01*
X52561D01*
Y90418D01*
X52976D01*
X53057Y89895D01*
D02*
G37*
%LPC*%
G36*
X35030Y57462D02*
X35017D01*
X35006Y57460D01*
X34996Y57459D01*
X34991Y57458D01*
X34988Y57456D01*
X34455Y57275D01*
X34437Y57267D01*
X34420Y57257D01*
X34405Y57247D01*
X34392Y57235D01*
X34382Y57225D01*
X34375Y57218D01*
X34370Y57213D01*
X34368Y57210D01*
X34357Y57192D01*
X34348Y57176D01*
X34343Y57159D01*
X34338Y57145D01*
X34335Y57133D01*
X34334Y57124D01*
Y56929D01*
X35107Y57192D01*
Y57378D01*
X35106Y57394D01*
X35102Y57409D01*
X35096Y57421D01*
X35090Y57431D01*
X35083Y57439D01*
X35077Y57445D01*
X35073Y57448D01*
X35072Y57449D01*
X35058Y57456D01*
X35044Y57460D01*
X35030Y57462D01*
D02*
G37*
G36*
X32617Y57919D02*
X32604D01*
X32593Y57918D01*
X32583Y57917D01*
X32578Y57916D01*
X32575Y57914D01*
X32508Y57891D01*
X32490Y57884D01*
X32473Y57875D01*
X32459Y57863D01*
X32447Y57853D01*
X32437Y57843D01*
X32429Y57834D01*
X32424Y57829D01*
X32423Y57827D01*
X32411Y57809D01*
X32402Y57791D01*
X32396Y57775D01*
X32392Y57761D01*
X32390Y57748D01*
X32387Y57739D01*
Y57576D01*
X32694Y57682D01*
Y57834D01*
X32693Y57852D01*
X32689Y57866D01*
X32683Y57879D01*
X32677Y57889D01*
X32670Y57896D01*
X32664Y57903D01*
X32660Y57905D01*
X32659Y57907D01*
X32645Y57914D01*
X32631Y57918D01*
X32617Y57919D01*
D02*
G37*
G36*
X32216Y57818D02*
X32203D01*
X32191Y57816D01*
X32183Y57815D01*
X32176Y57814D01*
X32174Y57813D01*
X32040Y57767D01*
X32023Y57759D01*
X32006Y57749D01*
X31992Y57739D01*
X31979Y57728D01*
X31969Y57717D01*
X31962Y57710D01*
X31957Y57705D01*
X31955Y57702D01*
X31944Y57684D01*
X31935Y57668D01*
X31930Y57651D01*
X31925Y57636D01*
X31922Y57623D01*
X31921Y57615D01*
Y57419D01*
X32293Y57545D01*
Y57731D01*
X32292Y57749D01*
X32288Y57764D01*
X32282Y57777D01*
X32275Y57787D01*
X32269Y57795D01*
X32263Y57801D01*
X32259Y57804D01*
X32258Y57805D01*
X32244Y57813D01*
X32230Y57816D01*
X32216Y57818D01*
D02*
G37*
G36*
X30062Y57786D02*
X29649Y57749D01*
Y57541D01*
X30062Y57786D01*
D02*
G37*
G36*
X27395Y57492D02*
X26982Y57455D01*
Y57247D01*
X27395Y57492D01*
D02*
G37*
G36*
X24743Y57527D02*
X24730D01*
X24719Y57526D01*
X24709Y57524D01*
X24704Y57523D01*
X24701Y57522D01*
X24634Y57499D01*
X24616Y57491D01*
X24599Y57482D01*
X24585Y57471D01*
X24573Y57461D01*
X24563Y57451D01*
X24555Y57442D01*
X24550Y57437D01*
X24549Y57434D01*
X24537Y57416D01*
X24528Y57399D01*
X24522Y57382D01*
X24518Y57368D01*
X24516Y57355D01*
X24513Y57346D01*
Y57184D01*
X24820Y57289D01*
Y57442D01*
X24819Y57459D01*
X24815Y57473D01*
X24809Y57486D01*
X24803Y57496D01*
X24796Y57504D01*
X24790Y57510D01*
X24786Y57513D01*
X24785Y57514D01*
X24771Y57522D01*
X24757Y57526D01*
X24743Y57527D01*
D02*
G37*
G36*
X24342Y57425D02*
X24329D01*
X24317Y57424D01*
X24309Y57423D01*
X24302Y57421D01*
X24300Y57420D01*
X24166Y57374D01*
X24149Y57367D01*
X24132Y57357D01*
X24118Y57346D01*
X24105Y57335D01*
X24095Y57325D01*
X24088Y57317D01*
X24083Y57312D01*
X24081Y57310D01*
X24070Y57292D01*
X24061Y57275D01*
X24056Y57259D01*
X24051Y57244D01*
X24048Y57231D01*
X24047Y57222D01*
Y57026D01*
X24419Y57152D01*
Y57339D01*
X24418Y57357D01*
X24414Y57372D01*
X24408Y57385D01*
X24401Y57395D01*
X24395Y57402D01*
X24389Y57409D01*
X24385Y57411D01*
X24384Y57412D01*
X24370Y57420D01*
X24356Y57424D01*
X24342Y57425D01*
D02*
G37*
G36*
X22457Y57585D02*
X22444D01*
X22433Y57583D01*
X22423Y57582D01*
X22418Y57581D01*
X22415Y57580D01*
X22348Y57557D01*
X22330Y57549D01*
X22313Y57540D01*
X22299Y57529D01*
X22287Y57519D01*
X22277Y57508D01*
X22269Y57500D01*
X22264Y57494D01*
X22263Y57492D01*
X22251Y57474D01*
X22242Y57456D01*
X22236Y57440D01*
X22232Y57426D01*
X22230Y57413D01*
X22227Y57404D01*
Y57242D01*
X22534Y57347D01*
Y57500D01*
X22533Y57517D01*
X22529Y57531D01*
X22523Y57544D01*
X22517Y57554D01*
X22510Y57562D01*
X22504Y57568D01*
X22500Y57571D01*
X22499Y57572D01*
X22485Y57580D01*
X22471Y57583D01*
X22457Y57585D01*
D02*
G37*
G36*
X22056Y57483D02*
X22043D01*
X22031Y57482D01*
X22023Y57480D01*
X22016Y57479D01*
X22014Y57478D01*
X21880Y57432D01*
X21863Y57425D01*
X21846Y57414D01*
X21832Y57404D01*
X21819Y57393D01*
X21809Y57383D01*
X21802Y57375D01*
X21797Y57370D01*
X21795Y57367D01*
X21784Y57350D01*
X21775Y57333D01*
X21770Y57317D01*
X21765Y57301D01*
X21762Y57289D01*
X21761Y57280D01*
Y57084D01*
X22133Y57210D01*
Y57397D01*
X22132Y57414D01*
X22128Y57430D01*
X22122Y57442D01*
X22115Y57453D01*
X22109Y57460D01*
X22103Y57467D01*
X22099Y57469D01*
X22098Y57470D01*
X22084Y57478D01*
X22070Y57482D01*
X22056Y57483D01*
D02*
G37*
G36*
X19663Y57462D02*
X19650D01*
X19639Y57460D01*
X19629Y57459D01*
X19624Y57458D01*
X19621Y57456D01*
X19088Y57275D01*
X19070Y57267D01*
X19053Y57257D01*
X19038Y57247D01*
X19025Y57235D01*
X19015Y57225D01*
X19008Y57218D01*
X19003Y57213D01*
X19001Y57210D01*
X18990Y57192D01*
X18981Y57176D01*
X18976Y57159D01*
X18971Y57145D01*
X18968Y57133D01*
X18967Y57124D01*
Y56929D01*
X19740Y57192D01*
Y57378D01*
X19739Y57394D01*
X19735Y57409D01*
X19729Y57421D01*
X19723Y57431D01*
X19716Y57439D01*
X19710Y57445D01*
X19706Y57448D01*
X19705Y57449D01*
X19691Y57456D01*
X19677Y57460D01*
X19663Y57462D01*
D02*
G37*
G36*
X21415Y8817D02*
X21402D01*
X21391Y8816D01*
X21381Y8814D01*
X21376Y8813D01*
X21373Y8812D01*
X21240Y8766D01*
X21222Y8758D01*
X21205Y8750D01*
X21190Y8738D01*
X21179Y8728D01*
X21169Y8718D01*
X21161Y8710D01*
X21156Y8705D01*
X21155Y8703D01*
X21143Y8685D01*
X21134Y8668D01*
X21129Y8652D01*
X21124Y8637D01*
X21122Y8624D01*
X21120Y8615D01*
Y8421D01*
X21492Y8548D01*
Y8733D01*
X21491Y8750D01*
X21487Y8765D01*
X21481Y8776D01*
X21475Y8786D01*
X21468Y8794D01*
X21462Y8800D01*
X21458Y8803D01*
X21457Y8804D01*
X21443Y8812D01*
X21429Y8816D01*
X21415Y8817D01*
D02*
G37*
G36*
Y7996D02*
X21402D01*
X21391Y7995D01*
X21381Y7994D01*
X21376Y7993D01*
X21373Y7991D01*
X20840Y7810D01*
X20822Y7802D01*
X20805Y7792D01*
X20790Y7782D01*
X20777Y7770D01*
X20767Y7760D01*
X20760Y7753D01*
X20755Y7748D01*
X20753Y7745D01*
X20742Y7727D01*
X20733Y7711D01*
X20728Y7694D01*
X20723Y7680D01*
X20720Y7668D01*
X20719Y7659D01*
Y7464D01*
X21492Y7727D01*
Y7913D01*
X21491Y7929D01*
X21487Y7944D01*
X21481Y7956D01*
X21475Y7966D01*
X21468Y7974D01*
X21462Y7980D01*
X21458Y7982D01*
X21457Y7984D01*
X21443Y7991D01*
X21429Y7995D01*
X21415Y7996D01*
D02*
G37*
G36*
X22861Y8889D02*
X22848D01*
X22837Y8888D01*
X22827Y8886D01*
X22822Y8885D01*
X22819Y8884D01*
X22684Y8838D01*
X22667Y8830D01*
X22650Y8822D01*
X22636Y8810D01*
X22623Y8800D01*
X22615Y8790D01*
X22607Y8781D01*
X22602Y8776D01*
X22601Y8773D01*
X22589Y8755D01*
X22580Y8739D01*
X22575Y8722D01*
X22570Y8708D01*
X22568Y8696D01*
X22566Y8687D01*
Y8493D01*
X22938Y8620D01*
Y8805D01*
X22937Y8822D01*
X22933Y8837D01*
X22927Y8848D01*
X22921Y8858D01*
X22914Y8866D01*
X22908Y8872D01*
X22904Y8875D01*
X22903Y8876D01*
X22889Y8884D01*
X22875Y8888D01*
X22861Y8889D01*
D02*
G37*
G36*
X24766Y8752D02*
X24753D01*
X24742Y8750D01*
X24732Y8749D01*
X24727Y8748D01*
X24724Y8747D01*
X24589Y8701D01*
X24572Y8693D01*
X24555Y8684D01*
X24541Y8673D01*
X24528Y8663D01*
X24520Y8653D01*
X24512Y8644D01*
X24507Y8639D01*
X24506Y8636D01*
X24494Y8618D01*
X24485Y8602D01*
X24480Y8585D01*
X24475Y8571D01*
X24473Y8559D01*
X24471Y8550D01*
Y8355D01*
X24843Y8482D01*
Y8668D01*
X24842Y8684D01*
X24838Y8700D01*
X24832Y8711D01*
X24826Y8721D01*
X24819Y8729D01*
X24813Y8735D01*
X24809Y8738D01*
X24808Y8739D01*
X24794Y8747D01*
X24780Y8750D01*
X24766Y8752D01*
D02*
G37*
G36*
X27433Y7673D02*
X27420D01*
X27409Y7672D01*
X27399Y7671D01*
X27394Y7670D01*
X27391Y7668D01*
X27258Y7623D01*
X27240Y7615D01*
X27223Y7606D01*
X27208Y7595D01*
X27197Y7585D01*
X27187Y7574D01*
X27179Y7567D01*
X27174Y7562D01*
X27173Y7559D01*
X27161Y7541D01*
X27152Y7525D01*
X27147Y7508D01*
X27142Y7493D01*
X27140Y7480D01*
X27138Y7471D01*
Y7277D01*
X27510Y7404D01*
Y7590D01*
X27509Y7606D01*
X27505Y7621D01*
X27499Y7633D01*
X27493Y7643D01*
X27486Y7651D01*
X27480Y7657D01*
X27476Y7659D01*
X27475Y7661D01*
X27461Y7668D01*
X27447Y7672D01*
X27433Y7673D01*
D02*
G37*
G36*
X30100Y8594D02*
X30087D01*
X30076Y8593D01*
X30066Y8592D01*
X30061Y8590D01*
X30058Y8589D01*
X29991Y8566D01*
X29973Y8559D01*
X29956Y8550D01*
X29942Y8538D01*
X29930Y8528D01*
X29920Y8518D01*
X29912Y8509D01*
X29907Y8504D01*
X29906Y8501D01*
X29894Y8484D01*
X29885Y8466D01*
X29879Y8449D01*
X29875Y8435D01*
X29873Y8423D01*
X29870Y8414D01*
Y8251D01*
X30177Y8357D01*
Y8509D01*
X30176Y8527D01*
X30172Y8541D01*
X30166Y8554D01*
X30160Y8564D01*
X30153Y8571D01*
X30147Y8578D01*
X30143Y8580D01*
X30142Y8581D01*
X30128Y8589D01*
X30114Y8593D01*
X30100Y8594D01*
D02*
G37*
G36*
X29699Y8493D02*
X29686D01*
X29674Y8491D01*
X29666Y8490D01*
X29659Y8489D01*
X29657Y8488D01*
X29523Y8442D01*
X29506Y8434D01*
X29489Y8424D01*
X29475Y8414D01*
X29462Y8402D01*
X29452Y8392D01*
X29445Y8385D01*
X29440Y8380D01*
X29438Y8377D01*
X29427Y8359D01*
X29418Y8343D01*
X29413Y8326D01*
X29408Y8311D01*
X29405Y8298D01*
X29404Y8289D01*
Y8094D01*
X29776Y8220D01*
Y8406D01*
X29775Y8424D01*
X29771Y8439D01*
X29765Y8452D01*
X29758Y8462D01*
X29752Y8470D01*
X29746Y8476D01*
X29742Y8479D01*
X29741Y8480D01*
X29727Y8488D01*
X29713Y8491D01*
X29699Y8493D01*
D02*
G37*
G36*
X32640Y8594D02*
X32627D01*
X32616Y8593D01*
X32606Y8592D01*
X32601Y8590D01*
X32598Y8589D01*
X32531Y8566D01*
X32513Y8559D01*
X32496Y8550D01*
X32482Y8538D01*
X32470Y8528D01*
X32460Y8518D01*
X32452Y8509D01*
X32447Y8504D01*
X32446Y8501D01*
X32434Y8484D01*
X32425Y8466D01*
X32419Y8449D01*
X32415Y8435D01*
X32413Y8423D01*
X32410Y8414D01*
Y8251D01*
X32717Y8357D01*
Y8509D01*
X32716Y8527D01*
X32712Y8541D01*
X32706Y8554D01*
X32700Y8564D01*
X32693Y8571D01*
X32687Y8578D01*
X32683Y8580D01*
X32682Y8581D01*
X32668Y8589D01*
X32654Y8593D01*
X32640Y8594D01*
D02*
G37*
G36*
X32239Y8493D02*
X32226D01*
X32214Y8491D01*
X32206Y8490D01*
X32199Y8489D01*
X32197Y8488D01*
X32063Y8442D01*
X32046Y8434D01*
X32029Y8424D01*
X32015Y8414D01*
X32002Y8402D01*
X31992Y8392D01*
X31985Y8385D01*
X31980Y8380D01*
X31978Y8377D01*
X31967Y8359D01*
X31958Y8343D01*
X31953Y8326D01*
X31948Y8311D01*
X31945Y8298D01*
X31944Y8289D01*
Y8094D01*
X32316Y8220D01*
Y8406D01*
X32315Y8424D01*
X32311Y8439D01*
X32305Y8452D01*
X32298Y8462D01*
X32292Y8470D01*
X32286Y8476D01*
X32282Y8479D01*
X32281Y8480D01*
X32267Y8488D01*
X32253Y8491D01*
X32239Y8493D01*
D02*
G37*
G36*
X35053Y8594D02*
X35040D01*
X35029Y8593D01*
X35019Y8592D01*
X35014Y8590D01*
X35011Y8589D01*
X34944Y8566D01*
X34926Y8559D01*
X34909Y8550D01*
X34895Y8538D01*
X34883Y8528D01*
X34873Y8518D01*
X34865Y8509D01*
X34860Y8504D01*
X34859Y8501D01*
X34847Y8484D01*
X34838Y8466D01*
X34832Y8449D01*
X34828Y8435D01*
X34826Y8423D01*
X34823Y8414D01*
Y8251D01*
X35130Y8357D01*
Y8509D01*
X35129Y8527D01*
X35125Y8541D01*
X35119Y8554D01*
X35113Y8564D01*
X35106Y8571D01*
X35100Y8578D01*
X35096Y8580D01*
X35095Y8581D01*
X35081Y8589D01*
X35067Y8593D01*
X35053Y8594D01*
D02*
G37*
G36*
X34652Y8493D02*
X34639D01*
X34627Y8491D01*
X34619Y8490D01*
X34612Y8489D01*
X34610Y8488D01*
X34476Y8442D01*
X34459Y8434D01*
X34442Y8424D01*
X34428Y8414D01*
X34415Y8402D01*
X34405Y8392D01*
X34398Y8385D01*
X34393Y8380D01*
X34391Y8377D01*
X34380Y8359D01*
X34371Y8343D01*
X34366Y8326D01*
X34361Y8311D01*
X34358Y8298D01*
X34357Y8289D01*
Y8094D01*
X34729Y8220D01*
Y8406D01*
X34728Y8424D01*
X34724Y8439D01*
X34718Y8452D01*
X34711Y8462D01*
X34705Y8470D01*
X34699Y8476D01*
X34695Y8479D01*
X34694Y8480D01*
X34680Y8488D01*
X34666Y8491D01*
X34652Y8493D01*
D02*
G37*
%LPD*%
D10*
X55212Y73844D02*
G03*
X55212Y73844I-1J0D01*
G01*
X17905Y24607D02*
G03*
X17905Y24607I-1J0D01*
G01*
Y40355D02*
G03*
X17905Y40355I-1J0D01*
G01*
Y8605D02*
G03*
X17905Y8605I-1J0D01*
G01*
D12*
X52000Y89290D02*
X54550D01*
Y74130D02*
Y89290D01*
X52000Y74125D02*
Y89290D01*
Y74125D02*
X54550D01*
X40000Y89415D02*
X42550D01*
Y74130D02*
Y89415D01*
X40000Y74125D02*
Y89415D01*
Y74125D02*
X42550D01*
X38700Y25268D02*
Y27818D01*
X18190Y25268D02*
X38700D01*
X18185Y27818D02*
X38700D01*
X18185Y25268D02*
Y27818D01*
X38700Y37268D02*
Y39818D01*
X18190Y37268D02*
X38700D01*
X18185Y39818D02*
X38700D01*
X18185Y37268D02*
Y39818D01*
Y53016D02*
Y55566D01*
X38700D01*
X18190Y53016D02*
X38700D01*
Y55566D01*
X18185Y41016D02*
Y43566D01*
X38700D01*
X18190Y41016D02*
X38700D01*
Y43566D01*
Y9266D02*
Y11816D01*
X18190Y9266D02*
X38700D01*
X18185Y11816D02*
X38700D01*
X18185Y9266D02*
Y11816D01*
X38700Y21266D02*
Y23816D01*
X18190Y21266D02*
X38700D01*
X18185Y23816D02*
X38700D01*
X18185Y21266D02*
Y23816D01*
D13*
X40259Y10033D02*
X39243Y10711D01*
X40259D02*
X39243Y10033D01*
Y11049D02*
Y11388D01*
Y11218D01*
X40259D01*
X40090Y11049D01*
X39412Y11895D02*
X39243Y12065D01*
Y12403D01*
X39412Y12573D01*
X40090D01*
X40259Y12403D01*
Y12065D01*
X40090Y11895D01*
X39920D01*
X39751Y12065D01*
Y12573D01*
X40386Y25781D02*
X39370Y26459D01*
X40386D02*
X39370Y25781D01*
Y26797D02*
Y27136D01*
Y26966D01*
X40386D01*
X40217Y26797D01*
Y27643D02*
X40386Y27813D01*
Y28151D01*
X40217Y28321D01*
X40047D01*
X39878Y28151D01*
X39709Y28321D01*
X39539D01*
X39370Y28151D01*
Y27813D01*
X39539Y27643D01*
X39709D01*
X39878Y27813D01*
X40047Y27643D01*
X40217D01*
X39878Y27813D02*
Y28151D01*
X40524Y41845D02*
X39508Y42523D01*
X40524D02*
X39508Y41845D01*
Y42861D02*
Y43200D01*
Y43030D01*
X40524D01*
X40355Y42861D01*
X40524Y43707D02*
Y44385D01*
X40355D01*
X39677Y43707D01*
X39508D01*
M02*
