G04*
G04 #@! TF.GenerationSoftware,Altium Limited,Altium Designer,24.2.2 (26)*
G04*
G04 Layer_Physical_Order=2*
G04 Layer_Color=16711680*
%FSLAX43Y43*%
%MOMM*%
G71*
G04*
G04 #@! TF.SameCoordinates,826AFC0B-8DA9-4817-B3A0-D4F6A81A9B3F*
G04*
G04*
G04 #@! TF.FilePolarity,Positive*
G04*
G01*
G75*
%ADD10C,0.600*%
%ADD13C,0.254*%
%ADD30C,1.700*%
%ADD48C,0.500*%
%ADD49C,0.800*%
%ADD52C,1.524*%
G04:AMPARAMS|DCode=53|XSize=3.2mm|YSize=2mm|CornerRadius=0.5mm|HoleSize=0mm|Usage=FLASHONLY|Rotation=90.000|XOffset=0mm|YOffset=0mm|HoleType=Round|Shape=RoundedRectangle|*
%AMROUNDEDRECTD53*
21,1,3.200,1.000,0,0,90.0*
21,1,2.200,2.000,0,0,90.0*
1,1,1.000,0.500,1.100*
1,1,1.000,0.500,-1.100*
1,1,1.000,-0.500,-1.100*
1,1,1.000,-0.500,1.100*
%
%ADD53ROUNDEDRECTD53*%
%ADD54R,1.900X1.900*%
%ADD55C,1.900*%
%ADD56R,1.600X1.600*%
%ADD57C,1.600*%
%ADD58R,1.900X1.900*%
%ADD59C,4.500*%
%ADD60R,1.600X1.600*%
%ADD61C,6.000*%
%ADD62C,0.600*%
%ADD63C,1.400*%
%ADD64C,1.200*%
G36*
X62250Y118471D02*
Y113000D01*
X62398Y112852D01*
X62349Y112735D01*
X61845D01*
Y109835D01*
X62168D01*
X62217Y109718D01*
X62135Y109635D01*
X61944Y109305D01*
X61845Y108936D01*
Y108554D01*
X61944Y108185D01*
X62135Y107855D01*
X62405Y107585D01*
X62492Y107535D01*
Y107408D01*
X62410Y107360D01*
X62140Y107090D01*
X61949Y106760D01*
X61850Y106391D01*
Y106009D01*
X61949Y105640D01*
X62140Y105310D01*
X62410Y105040D01*
X62666Y104892D01*
Y104745D01*
X62527Y104665D01*
X62295Y104433D01*
X62250Y104355D01*
D01*
X62169Y104215D01*
X63295D01*
X64450D01*
X64499Y104300D01*
X67575D01*
X69475Y102400D01*
Y100950D01*
Y78042D01*
X69348Y78022D01*
X69244Y78344D01*
X68993Y78834D01*
X68670Y79280D01*
X68280Y79670D01*
X67834Y79993D01*
X67344Y80244D01*
X66820Y80414D01*
X66275Y80500D01*
X65725D01*
X65180Y80414D01*
X64656Y80244D01*
X64166Y79993D01*
X63720Y79670D01*
X63330Y79280D01*
X63007Y78834D01*
X62756Y78344D01*
X62586Y77820D01*
X62500Y77275D01*
Y76725D01*
X62586Y76180D01*
X62756Y75656D01*
X63007Y75166D01*
X63330Y74720D01*
X63720Y74330D01*
X64166Y74007D01*
X64656Y73756D01*
X65180Y73586D01*
X65725Y73500D01*
X66275D01*
X66820Y73586D01*
X67344Y73756D01*
X67834Y74007D01*
X68280Y74330D01*
X68670Y74720D01*
X68993Y75166D01*
X69244Y75656D01*
X69348Y75978D01*
X69475Y75958D01*
Y10334D01*
X66956Y7500D01*
X66866Y7399D01*
X66820Y7414D01*
X66275Y7500D01*
X65725D01*
X65180Y7414D01*
X64656Y7244D01*
X64166Y6993D01*
X63720Y6670D01*
X63330Y6280D01*
X63007Y5834D01*
X62756Y5344D01*
X62586Y4820D01*
X62500Y4275D01*
Y3725D01*
X62586Y3180D01*
X62728Y2744D01*
X60966Y762D01*
X10922Y762D01*
X7500Y4184D01*
Y4275D01*
X7414Y4820D01*
X7244Y5344D01*
X6993Y5834D01*
X6670Y6280D01*
X6280Y6670D01*
X5969Y6896D01*
Y21504D01*
X6710Y22246D01*
X6821Y22411D01*
X6860Y22606D01*
Y23701D01*
X6987Y23754D01*
X7110Y23631D01*
X7361Y23486D01*
X7385Y23479D01*
Y24511D01*
Y25543D01*
X7361Y25536D01*
X7110Y25391D01*
X6987Y25268D01*
X6860Y25321D01*
Y38687D01*
X6987Y38740D01*
X7110Y38617D01*
X7361Y38472D01*
X7385Y38465D01*
Y39497D01*
Y40529D01*
X7361Y40522D01*
X7110Y40377D01*
X6987Y40254D01*
X6860Y40307D01*
Y51133D01*
X6987Y51186D01*
X7110Y51063D01*
X7361Y50918D01*
X7385Y50911D01*
Y51943D01*
Y52975D01*
X7361Y52968D01*
X7110Y52823D01*
X6987Y52700D01*
X6860Y52753D01*
Y55260D01*
X8275Y56675D01*
X15771D01*
X16946Y55500D01*
X17172Y55274D01*
X17379Y55135D01*
X17624Y55087D01*
X18329D01*
X18403Y54960D01*
X18334Y54841D01*
X19460D01*
Y53741D01*
X18334D01*
X18460Y53523D01*
X18506Y53477D01*
X18457Y53360D01*
X17925D01*
X17730Y53321D01*
X17565Y53211D01*
X16229Y51875D01*
X11366D01*
Y8953D01*
X15748Y4572D01*
X45700D01*
Y3275D01*
X48300D01*
Y3808D01*
X48423Y3841D01*
X48460Y3777D01*
X48702Y3535D01*
X48998Y3364D01*
X49329Y3275D01*
X49671D01*
X50002Y3364D01*
X50190Y3472D01*
X50503Y3145D01*
X50523Y3131D01*
X50538Y3113D01*
X50558Y3096D01*
X50573Y3075D01*
X50989Y2678D01*
X51002Y2670D01*
X51004Y2667D01*
X51006Y2665D01*
X51007Y2664D01*
X51012Y2658D01*
X51022Y2649D01*
X51148Y2523D01*
X51355Y2384D01*
X51600Y2336D01*
X53290D01*
X53535Y2384D01*
X53742Y2523D01*
X54494Y3275D01*
X54671D01*
X55002Y3364D01*
X55298Y3535D01*
X55540Y3777D01*
X55711Y4073D01*
X55788Y4358D01*
X55919D01*
X55975Y4150D01*
X56120Y3900D01*
X56325Y3695D01*
X56575Y3550D01*
X56600Y3543D01*
Y4575D01*
X57400D01*
Y3543D01*
X57425Y3550D01*
X57675Y3695D01*
X57880Y3900D01*
X58025Y4150D01*
X58081Y4358D01*
X58212D01*
X58289Y4073D01*
X58460Y3777D01*
X58702Y3535D01*
X58998Y3364D01*
X59329Y3275D01*
X59671D01*
X60002Y3364D01*
X60298Y3535D01*
X60540Y3777D01*
X60711Y4073D01*
X60800Y4404D01*
Y4746D01*
X60711Y5077D01*
X60540Y5373D01*
X60298Y5615D01*
X60002Y5786D01*
X59671Y5875D01*
X59329D01*
X58998Y5786D01*
X58702Y5615D01*
X58460Y5373D01*
X58289Y5077D01*
X58212Y4792D01*
X58081D01*
X58025Y5000D01*
X57880Y5250D01*
X57675Y5455D01*
X57425Y5600D01*
X57145Y5675D01*
X57096Y5738D01*
X57125Y5845D01*
Y5940D01*
X57577Y6392D01*
X57716Y6599D01*
X57764Y6844D01*
Y7472D01*
X61087Y10795D01*
Y53092D01*
X61097Y53100D01*
X61453D01*
X61796Y53192D01*
X62104Y53370D01*
X62355Y53621D01*
X62461Y53805D01*
X62589D01*
X62695Y53621D01*
X62946Y53370D01*
X63254Y53192D01*
X63597Y53100D01*
X63953D01*
X64296Y53192D01*
X64604Y53370D01*
X64855Y53621D01*
X65033Y53929D01*
X65063Y54040D01*
X65194D01*
X65203Y54006D01*
X65355Y53744D01*
X65569Y53530D01*
X65775Y53411D01*
Y54450D01*
Y55489D01*
X65569Y55370D01*
X65355Y55156D01*
X65203Y54894D01*
X65194Y54860D01*
X65063D01*
X65033Y54971D01*
X64855Y55279D01*
X64604Y55530D01*
X64296Y55708D01*
X63953Y55800D01*
X63597D01*
X63254Y55708D01*
X62946Y55530D01*
X62695Y55279D01*
X62589Y55095D01*
X62461D01*
X62355Y55279D01*
X62104Y55530D01*
X61796Y55708D01*
X61453Y55800D01*
X61097D01*
X61087Y55808D01*
Y55994D01*
X64205Y59112D01*
X59309Y64008D01*
X59182D01*
Y76838D01*
X63179Y80836D01*
X65250Y82906D01*
Y83090D01*
X65258Y83104D01*
X65288Y83215D01*
X65419D01*
X65428Y83181D01*
X65580Y82919D01*
X65794Y82705D01*
X66000Y82586D01*
Y83625D01*
Y84664D01*
X65794Y84545D01*
X65580Y84331D01*
X65428Y84069D01*
X65419Y84035D01*
X65288D01*
X65258Y84146D01*
X65250Y84160D01*
Y90696D01*
X65356Y90880D01*
X65502Y90881D01*
X65585Y90738D01*
X65818Y90505D01*
X66035Y90379D01*
Y91505D01*
Y92631D01*
X65818Y92505D01*
X65585Y92273D01*
X65500Y92125D01*
X65353D01*
X65250Y92304D01*
Y92500D01*
X66802Y94052D01*
Y95698D01*
X65901Y96599D01*
X65500Y97000D01*
Y97124D01*
X65627Y97197D01*
X65745Y97129D01*
Y98255D01*
Y99381D01*
X65528Y99255D01*
X65295Y99023D01*
X65235Y99015D01*
X63425Y100825D01*
X62874D01*
X62780Y100850D01*
X62570D01*
X62476Y100825D01*
X59100D01*
X58425Y100150D01*
X51432D01*
Y100575D01*
X51293D01*
X51252Y100550D01*
X51195Y100498D01*
X51155Y100438D01*
X51131Y100370D01*
X51123Y100294D01*
Y100575D01*
X50125D01*
Y101125D01*
X49575D01*
Y103025D01*
X49416Y103004D01*
X49222Y102924D01*
X49054Y102796D01*
X48926Y102628D01*
X48846Y102434D01*
X48818Y102225D01*
Y101048D01*
X48701Y100999D01*
X46950Y102750D01*
X41678D01*
X41304Y103123D01*
X40669D01*
X40486Y103199D01*
X40225Y103234D01*
X39225D01*
X38964Y103199D01*
X38721Y103099D01*
X38512Y102938D01*
X38352Y102729D01*
X38251Y102486D01*
X38216Y102225D01*
Y100025D01*
X38229Y99932D01*
X38145Y99837D01*
X38060D01*
X37801Y99768D01*
X37760Y99791D01*
X37687Y99852D01*
X37707Y100000D01*
Y100550D01*
X36950D01*
Y99200D01*
X37088Y99218D01*
X37145Y99175D01*
X38200D01*
Y98775D01*
X38600D01*
Y97783D01*
X38610Y97785D01*
X38718Y97848D01*
X38796Y97746D01*
X38450Y97400D01*
X38425Y97425D01*
X31925Y97425D01*
X31425Y97925D01*
X27509Y101841D01*
Y102200D01*
X27474Y102461D01*
X27374Y102704D01*
X27213Y102913D01*
X27004Y103074D01*
X26761Y103174D01*
X26500Y103209D01*
X25500D01*
X25239Y103174D01*
X24996Y103074D01*
X24787Y102913D01*
X24626Y102704D01*
X24554Y102529D01*
X24297Y102272D01*
X24172Y102327D01*
X24099Y102503D01*
X23971Y102671D01*
X23803Y102799D01*
X23609Y102879D01*
X23400Y102907D01*
X22608D01*
X22559Y103024D01*
X25576Y106041D01*
X47498D01*
X47743Y106089D01*
X47950Y106228D01*
X51873Y110151D01*
X52998D01*
X53049Y109960D01*
X53240Y109630D01*
X53510Y109360D01*
X53590Y109313D01*
Y109187D01*
X53510Y109140D01*
X53240Y108870D01*
X53049Y108540D01*
X52950Y108171D01*
Y107789D01*
X53049Y107420D01*
X53240Y107090D01*
X53510Y106820D01*
X53590Y106773D01*
Y106646D01*
X53510Y106600D01*
X53240Y106330D01*
X53049Y106000D01*
X52950Y105631D01*
Y105249D01*
X53049Y104880D01*
X53240Y104550D01*
X53510Y104280D01*
X53590Y104233D01*
Y104106D01*
X53510Y104060D01*
X53240Y103790D01*
X53049Y103460D01*
X52950Y103091D01*
Y102709D01*
X53049Y102340D01*
X53240Y102010D01*
X53510Y101740D01*
X53840Y101549D01*
X54209Y101450D01*
X54591D01*
X54960Y101549D01*
X55290Y101740D01*
X55560Y102010D01*
X55586Y102055D01*
X55606Y102090D01*
X55734D01*
X55780Y102010D01*
X56050Y101740D01*
X56380Y101549D01*
X56749Y101450D01*
X57131D01*
X57500Y101549D01*
X57830Y101740D01*
X58100Y102010D01*
X58103Y102014D01*
X58107Y102022D01*
X58230Y101989D01*
Y101650D01*
X58930D01*
Y102900D01*
X59480D01*
Y103450D01*
X60730D01*
Y104150D01*
X60266D01*
X60282Y104071D01*
X60311Y103973D01*
X60345Y103903D01*
X60384Y103861D01*
X60427Y103847D01*
X58533D01*
X58584Y103861D01*
X58629Y103903D01*
X58669Y103973D01*
X58704Y104071D01*
X58733Y104197D01*
X58757Y104351D01*
X58776Y104533D01*
X58797Y104981D01*
X58800Y105247D01*
X59480D01*
Y105249D01*
Y105990D01*
X60606D01*
X60480Y106208D01*
X60248Y106440D01*
X59962Y106605D01*
X59815Y106644D01*
Y106776D01*
X59962Y106815D01*
X60248Y106980D01*
X60480Y107212D01*
X60606Y107430D01*
X59480D01*
Y108530D01*
X60606D01*
X60480Y108748D01*
X60248Y108980D01*
X59962Y109145D01*
X59815Y109184D01*
Y109316D01*
X59962Y109355D01*
X60248Y109520D01*
X60480Y109752D01*
X60606Y109970D01*
X59480D01*
Y111070D01*
X60606D01*
X60480Y111288D01*
X60248Y111520D01*
X59962Y111685D01*
X59815Y111724D01*
Y111856D01*
X59962Y111895D01*
X60248Y112060D01*
X60480Y112292D01*
X60606Y112510D01*
X59480D01*
Y113610D01*
X60606D01*
X60480Y113828D01*
X60248Y114060D01*
X59962Y114225D01*
X59815Y114264D01*
Y114396D01*
X59962Y114435D01*
X60248Y114600D01*
X60480Y114832D01*
X60606Y115050D01*
X59480D01*
Y115600D01*
X58930D01*
Y116726D01*
X58712Y116600D01*
X58480Y116368D01*
X58399Y116227D01*
X58252D01*
X58100Y116490D01*
X57830Y116760D01*
X57500Y116951D01*
X57131Y117050D01*
X56749D01*
X56380Y116951D01*
X56050Y116760D01*
X55780Y116490D01*
X55734Y116410D01*
X55606D01*
X55560Y116490D01*
X55290Y116760D01*
X54960Y116951D01*
X54591Y117050D01*
X54209D01*
X53840Y116951D01*
X53510Y116760D01*
X53240Y116490D01*
X53181Y116389D01*
X52504D01*
X52259Y116341D01*
X52052Y116202D01*
X43927Y108077D01*
X24761D01*
X24516Y108029D01*
X24309Y107890D01*
X20233Y103814D01*
X12012D01*
X11767Y103766D01*
X11559Y103627D01*
X10796Y102864D01*
X10657Y102656D01*
X10651Y102626D01*
X10125Y102100D01*
Y100304D01*
X9696Y99875D01*
X6720D01*
X6710Y99887D01*
X5588D01*
Y100688D01*
X6619D01*
X6613Y100712D01*
X6468Y100963D01*
X6365Y101065D01*
X6787Y101488D01*
X6887D01*
Y101588D01*
X15700Y110400D01*
Y110455D01*
X15727Y110482D01*
X15838Y110647D01*
X15877Y110842D01*
Y118110D01*
X15838Y118305D01*
X15727Y118470D01*
Y118802D01*
X16550Y119625D01*
X18787D01*
X18796Y119634D01*
X25051D01*
X25077Y119507D01*
X24996Y119474D01*
X24787Y119313D01*
X24626Y119104D01*
X24526Y118861D01*
X24491Y118600D01*
Y116400D01*
X24526Y116139D01*
X24626Y115896D01*
X24787Y115687D01*
X24996Y115527D01*
X25239Y115426D01*
X25500Y115391D01*
X26500D01*
X26761Y115426D01*
X27004Y115527D01*
X27213Y115687D01*
X27374Y115896D01*
X27474Y116139D01*
X27509Y116400D01*
Y118600D01*
X27474Y118861D01*
X27374Y119104D01*
X27213Y119313D01*
X27004Y119474D01*
X26923Y119507D01*
X26949Y119634D01*
X38716D01*
X38741Y119507D01*
X38721Y119498D01*
X38512Y119338D01*
X38352Y119129D01*
X38251Y118886D01*
X38216Y118625D01*
Y116425D01*
X38251Y116164D01*
X38352Y115921D01*
X38512Y115712D01*
X38721Y115551D01*
X38964Y115451D01*
X39225Y115416D01*
X40225D01*
X40486Y115451D01*
X40729Y115551D01*
X40938Y115712D01*
X41098Y115921D01*
X41199Y116164D01*
X41234Y116425D01*
Y118625D01*
X41199Y118886D01*
X41098Y119129D01*
X40938Y119338D01*
X40729Y119498D01*
X40709Y119507D01*
X40734Y119634D01*
X61087D01*
X62250Y118471D01*
D02*
G37*
G36*
X15367Y118110D02*
Y110842D01*
X9625Y105100D01*
X5150D01*
X3625Y103575D01*
X3659Y99792D01*
X3503Y99688D01*
X1373Y97558D01*
X1234Y97350D01*
X1186Y97106D01*
Y91623D01*
X1234Y91378D01*
X1373Y91171D01*
X3683Y88861D01*
Y80493D01*
X3180Y80414D01*
X2656Y80244D01*
X2166Y79993D01*
X1720Y79670D01*
X1330Y79280D01*
X1007Y78834D01*
X756Y78344D01*
X586Y77820D01*
X500Y77275D01*
Y76725D01*
X586Y76180D01*
X756Y75656D01*
X1007Y75166D01*
X1330Y74720D01*
X1720Y74330D01*
X2166Y74007D01*
X2656Y73756D01*
X3180Y73586D01*
X3683Y73507D01*
Y58928D01*
X4826Y57785D01*
X5207Y57404D01*
X6350Y56261D01*
Y22606D01*
X4699Y20955D01*
X1651D01*
X127Y22479D01*
Y107646D01*
X3212Y112581D01*
X3725Y112500D01*
X4275D01*
X4820Y112586D01*
X5344Y112756D01*
X5834Y113007D01*
X6280Y113330D01*
X6670Y113720D01*
X6993Y114166D01*
X7244Y114656D01*
X7414Y115180D01*
X7500Y115725D01*
Y116275D01*
X7414Y116820D01*
X7244Y117344D01*
X6993Y117834D01*
X6726Y118203D01*
X7620Y119634D01*
X13843D01*
X15367Y118110D01*
D02*
G37*
G36*
X53722Y112395D02*
X53618Y112497D01*
X53425Y112669D01*
X53335Y112739D01*
X53250Y112799D01*
X53169Y112847D01*
X53092Y112885D01*
X53020Y112911D01*
X52952Y112928D01*
X52889Y112933D01*
Y113187D01*
X52952Y113192D01*
X53020Y113209D01*
X53092Y113235D01*
X53169Y113273D01*
X53250Y113322D01*
X53335Y113381D01*
X53425Y113451D01*
X53618Y113623D01*
X53722Y113725D01*
Y112395D01*
D02*
G37*
G36*
X62444Y99859D02*
X62428Y99876D01*
X62411Y99891D01*
X62392Y99904D01*
X62371Y99916D01*
X62349Y99926D01*
X62325Y99934D01*
X62300Y99940D01*
X62272Y99944D01*
X62243Y99947D01*
X62213Y99948D01*
X62236Y100202D01*
X62267Y100203D01*
X62296Y100205D01*
X62324Y100209D01*
X62350Y100214D01*
X62375Y100221D01*
X62398Y100229D01*
X62421Y100239D01*
X62441Y100250D01*
X62461Y100263D01*
X62479Y100277D01*
X62444Y99859D01*
D02*
G37*
G36*
X59981Y99223D02*
X59958Y99222D01*
X59935Y99219D01*
X59912Y99214D01*
X59889Y99206D01*
X59866Y99196D01*
X59843Y99184D01*
X59821Y99170D01*
X59799Y99153D01*
X59776Y99135D01*
X59754Y99114D01*
X59575Y99293D01*
X59595Y99315D01*
X59614Y99338D01*
X59631Y99360D01*
X59645Y99383D01*
X59657Y99405D01*
X59667Y99428D01*
X59674Y99451D01*
X59680Y99474D01*
X59683Y99497D01*
X59684Y99520D01*
X59981Y99223D01*
D02*
G37*
G36*
X55981Y99144D02*
X56000Y99130D01*
X56020Y99118D01*
X56041Y99107D01*
X56064Y99098D01*
X56089Y99090D01*
X56115Y99084D01*
X56142Y99080D01*
X56171Y99078D01*
X56202Y99077D01*
Y98823D01*
X56171Y98822D01*
X56142Y98820D01*
X56115Y98816D01*
X56089Y98810D01*
X56064Y98802D01*
X56041Y98793D01*
X56020Y98782D01*
X56000Y98770D01*
X55981Y98756D01*
X55964Y98740D01*
Y99160D01*
X55981Y99144D01*
D02*
G37*
G36*
X60266Y97996D02*
X60264Y98020D01*
X60256Y98042D01*
X60243Y98061D01*
X60225Y98077D01*
X60202Y98091D01*
X60174Y98103D01*
X60140Y98112D01*
X60102Y98118D01*
X60058Y98122D01*
X60009Y98123D01*
Y98377D01*
X60058Y98378D01*
X60102Y98382D01*
X60140Y98388D01*
X60174Y98397D01*
X60202Y98409D01*
X60225Y98423D01*
X60243Y98439D01*
X60256Y98458D01*
X60264Y98480D01*
X60266Y98504D01*
Y97996D01*
D02*
G37*
G36*
X56031Y98319D02*
X56050Y98305D01*
X56070Y98293D01*
X56091Y98282D01*
X56114Y98273D01*
X56139Y98265D01*
X56165Y98259D01*
X56192Y98255D01*
X56221Y98253D01*
X56252Y98252D01*
Y97998D01*
X56221Y97997D01*
X56192Y97995D01*
X56165Y97991D01*
X56139Y97985D01*
X56114Y97977D01*
X56091Y97968D01*
X56070Y97957D01*
X56050Y97945D01*
X56031Y97931D01*
X56014Y97915D01*
Y98335D01*
X56031Y98319D01*
D02*
G37*
G36*
X54577Y98244D02*
X54556Y98209D01*
X54537Y98168D01*
X54520Y98120D01*
X54506Y98067D01*
X54495Y98008D01*
X54486Y97942D01*
X54476Y97794D01*
X54475Y97710D01*
X53675Y97679D01*
X53674Y97763D01*
X53662Y97911D01*
X53653Y97976D01*
X53640Y98034D01*
X53625Y98087D01*
X53606Y98134D01*
X53585Y98175D01*
X53561Y98210D01*
X53535Y98239D01*
X54601Y98274D01*
X54577Y98244D01*
D02*
G37*
G36*
X63400Y97367D02*
X63349Y97384D01*
X63300Y97395D01*
X63252Y97399D01*
X63205Y97398D01*
X63158Y97390D01*
X63113Y97377D01*
X63068Y97357D01*
X63024Y97331D01*
X62982Y97299D01*
X62940Y97260D01*
X62760Y97440D01*
X62799Y97482D01*
X62831Y97524D01*
X62857Y97568D01*
X62877Y97613D01*
X62890Y97658D01*
X62898Y97705D01*
X62900Y97752D01*
X62895Y97800D01*
X62884Y97849D01*
X62867Y97900D01*
X63400Y97367D01*
D02*
G37*
G36*
X41317Y102390D02*
X41483Y102279D01*
X41678Y102240D01*
X42236D01*
X42776Y101700D01*
X46850D01*
X48621Y99987D01*
X48651Y99764D01*
X48751Y99521D01*
X48912Y99312D01*
X49121Y99151D01*
X49364Y99051D01*
X49625Y99016D01*
X50625D01*
X50886Y99051D01*
X50948Y99077D01*
X51877Y98148D01*
X52563Y97462D01*
Y96714D01*
X52475Y96625D01*
X52323Y96362D01*
X52176D01*
X52095Y96503D01*
X51863Y96735D01*
X51645Y96861D01*
Y95735D01*
X51095D01*
Y95185D01*
X49946D01*
X49941Y95163D01*
X49921Y95076D01*
X49922Y95066D01*
X49920Y95057D01*
X49938Y94968D01*
X49952Y94879D01*
X49957Y94871D01*
X49959Y94861D01*
X50009Y94787D01*
X50056Y94710D01*
X50090Y94673D01*
X50106Y94653D01*
X50120Y94629D01*
X50134Y94602D01*
X50148Y94569D01*
X50160Y94530D01*
X50170Y94484D01*
X50173Y94465D01*
X50170Y94446D01*
X50160Y94400D01*
X50148Y94361D01*
X50134Y94328D01*
X50120Y94301D01*
X50106Y94277D01*
X50090Y94257D01*
X50056Y94220D01*
X50009Y94143D01*
X49959Y94069D01*
X49957Y94059D01*
X49952Y94051D01*
X49938Y93962D01*
X49920Y93873D01*
X49922Y93864D01*
X49921Y93854D01*
X49941Y93767D01*
X49946Y93745D01*
X51095D01*
Y92645D01*
X49969D01*
X50095Y92427D01*
X50281Y92241D01*
X50228Y92114D01*
X49386D01*
X48325Y93175D01*
Y94250D01*
X45915Y96660D01*
X44605D01*
X44365Y96900D01*
X44035Y97091D01*
X43666Y97190D01*
X43284D01*
X42915Y97091D01*
X42585Y96900D01*
X42345Y96660D01*
X42065D01*
X41825Y96900D01*
X41495Y97091D01*
X41126Y97190D01*
X40744D01*
X40375Y97091D01*
X40045Y96900D01*
X39972Y96828D01*
X39845Y96828D01*
X39275Y97405D01*
Y97590D01*
X39280Y97617D01*
X39302Y97680D01*
X39300Y97713D01*
X39306Y97746D01*
X39293Y97812D01*
X39289Y97878D01*
X39275Y97906D01*
Y98113D01*
X39376Y98288D01*
X39462Y98609D01*
Y98941D01*
X39415Y99117D01*
X39492Y99218D01*
X40225D01*
X40434Y99246D01*
X40628Y99326D01*
X40796Y99454D01*
X40924Y99622D01*
X41004Y99816D01*
X41032Y100025D01*
Y100575D01*
X39725D01*
Y101675D01*
X41032D01*
Y102225D01*
X41007Y102415D01*
X41016Y102449D01*
X41094Y102550D01*
X41152Y102555D01*
X41317Y102390D01*
D02*
G37*
G36*
X54475Y97147D02*
X54530Y96055D01*
X53360Y96644D01*
X53420Y96668D01*
X53473Y96699D01*
X53521Y96739D01*
X53562Y96788D01*
X53596Y96844D01*
X53625Y96910D01*
X53647Y96983D01*
X53662Y97065D01*
X53672Y97155D01*
X53675Y97254D01*
X54475Y97147D01*
D02*
G37*
G36*
X14454Y96704D02*
X14516Y96667D01*
X14587Y96638D01*
X14665Y96617D01*
X14752Y96604D01*
X14847Y96600D01*
X14951Y96603D01*
X15062Y96615D01*
X15182Y96635D01*
X15311Y96663D01*
X14608Y95534D01*
X14571Y95694D01*
X14395Y96293D01*
X14361Y96372D01*
X14328Y96437D01*
X14295Y96489D01*
X14263Y96528D01*
X14401Y96750D01*
X14454Y96704D01*
D02*
G37*
G36*
X18066Y94790D02*
X17920Y94789D01*
X17662Y94774D01*
X17549Y94760D01*
X17446Y94742D01*
X17355Y94719D01*
X17274Y94691D01*
X17204Y94659D01*
X17145Y94622D01*
X17096Y94581D01*
X16916Y94761D01*
X16957Y94810D01*
X16994Y94869D01*
X17026Y94939D01*
X17054Y95020D01*
X17077Y95111D01*
X17095Y95214D01*
X17109Y95327D01*
X17124Y95585D01*
X17125Y95730D01*
X18066Y94790D01*
D02*
G37*
G36*
X11406Y95585D02*
X11421Y95327D01*
X11435Y95214D01*
X11453Y95111D01*
X11476Y95020D01*
X11504Y94939D01*
X11536Y94869D01*
X11573Y94810D01*
X11614Y94761D01*
X11434Y94581D01*
X11385Y94622D01*
X11326Y94659D01*
X11256Y94691D01*
X11175Y94719D01*
X11084Y94742D01*
X10981Y94760D01*
X10868Y94774D01*
X10610Y94789D01*
X10465Y94790D01*
X11405Y95730D01*
X11406Y95585D01*
D02*
G37*
G36*
X8866D02*
X8881Y95327D01*
X8895Y95214D01*
X8913Y95111D01*
X8936Y95020D01*
X8964Y94939D01*
X8996Y94869D01*
X9033Y94810D01*
X9074Y94761D01*
X8894Y94581D01*
X8845Y94622D01*
X8786Y94659D01*
X8716Y94691D01*
X8635Y94719D01*
X8544Y94742D01*
X8441Y94760D01*
X8328Y94774D01*
X8070Y94789D01*
X7924Y94790D01*
X8865Y95730D01*
X8866Y95585D01*
D02*
G37*
G36*
X6326D02*
X6341Y95327D01*
X6355Y95214D01*
X6373Y95111D01*
X6396Y95020D01*
X6424Y94939D01*
X6456Y94869D01*
X6493Y94810D01*
X6534Y94761D01*
X6354Y94581D01*
X6305Y94622D01*
X6246Y94659D01*
X6176Y94691D01*
X6095Y94719D01*
X6004Y94742D01*
X5901Y94760D01*
X5788Y94774D01*
X5530Y94789D01*
X5385Y94790D01*
X6325Y95730D01*
X6326Y95585D01*
D02*
G37*
G36*
X54250Y95002D02*
X54205Y94943D01*
X54165Y94880D01*
X54130Y94811D01*
X54101Y94738D01*
X54077Y94661D01*
X54059Y94578D01*
X54046Y94491D01*
X54043Y94465D01*
X54046Y94439D01*
X54059Y94352D01*
X54077Y94269D01*
X54101Y94192D01*
X54130Y94119D01*
X54165Y94050D01*
X54205Y93987D01*
X54250Y93928D01*
X54300Y93873D01*
X52970D01*
X53020Y93928D01*
X53065Y93987D01*
X53105Y94050D01*
X53140Y94119D01*
X53169Y94192D01*
X53193Y94269D01*
X53211Y94352D01*
X53224Y94439D01*
X53227Y94465D01*
X53224Y94491D01*
X53211Y94578D01*
X53193Y94661D01*
X53169Y94738D01*
X53140Y94811D01*
X53105Y94880D01*
X53065Y94943D01*
X53020Y95002D01*
X52970Y95057D01*
X54300D01*
X54250Y95002D01*
D02*
G37*
G36*
X51710D02*
X51665Y94943D01*
X51625Y94880D01*
X51590Y94811D01*
X51561Y94738D01*
X51537Y94661D01*
X51519Y94578D01*
X51506Y94491D01*
X51503Y94465D01*
X51506Y94439D01*
X51519Y94352D01*
X51537Y94269D01*
X51561Y94192D01*
X51590Y94119D01*
X51625Y94050D01*
X51665Y93987D01*
X51710Y93928D01*
X51760Y93873D01*
X50430D01*
X50480Y93928D01*
X50525Y93987D01*
X50565Y94050D01*
X50600Y94119D01*
X50629Y94192D01*
X50653Y94269D01*
X50671Y94352D01*
X50684Y94439D01*
X50687Y94465D01*
X50684Y94491D01*
X50671Y94578D01*
X50653Y94661D01*
X50629Y94738D01*
X50600Y94811D01*
X50565Y94880D01*
X50525Y94943D01*
X50480Y95002D01*
X50430Y95057D01*
X51760D01*
X51710Y95002D01*
D02*
G37*
G36*
X12186Y94194D02*
X12236Y94158D01*
X12288Y94128D01*
X12343Y94106D01*
X12400Y94090D01*
X12460Y94080D01*
X12523Y94078D01*
X12588Y94082D01*
X12655Y94093D01*
X12725Y94111D01*
X12084Y93470D01*
X12102Y93540D01*
X12113Y93607D01*
X12117Y93672D01*
X12115Y93735D01*
X12105Y93795D01*
X12089Y93852D01*
X12067Y93907D01*
X12037Y93959D01*
X12001Y94009D01*
X11959Y94057D01*
X12138Y94236D01*
X12186Y94194D01*
D02*
G37*
G36*
X19392Y92538D02*
X19281Y92289D01*
X19226Y92336D01*
X19163Y92373D01*
X19094Y92401D01*
X19019Y92418D01*
X18936Y92426D01*
X18846Y92423D01*
X18750Y92411D01*
X18647Y92389D01*
X18537Y92357D01*
X18420Y92315D01*
X18967Y93527D01*
X19392Y92538D01*
D02*
G37*
G36*
X21566Y93045D02*
X21581Y92787D01*
X21595Y92674D01*
X21613Y92571D01*
X21636Y92480D01*
X21664Y92399D01*
X21696Y92329D01*
X21733Y92270D01*
X21774Y92221D01*
X21594Y92041D01*
X21545Y92082D01*
X21486Y92119D01*
X21416Y92151D01*
X21335Y92179D01*
X21244Y92202D01*
X21141Y92220D01*
X21028Y92234D01*
X20770Y92249D01*
X20625Y92250D01*
X21565Y93190D01*
X21566Y93045D01*
D02*
G37*
G36*
X5801Y92343D02*
X5738Y92295D01*
X5683Y92244D01*
X5635Y92191D01*
X5594Y92136D01*
X5561Y92078D01*
X5535Y92018D01*
X5517Y91956D01*
X5506Y91892D01*
X5502Y91825D01*
X5248D01*
X5244Y91892D01*
X5233Y91956D01*
X5215Y92018D01*
X5189Y92078D01*
X5156Y92136D01*
X5115Y92191D01*
X5067Y92244D01*
X5012Y92295D01*
X4949Y92343D01*
X4879Y92390D01*
X5871D01*
X5801Y92343D01*
D02*
G37*
G36*
X61405Y90551D02*
X61383Y90543D01*
X61364Y90530D01*
X61348Y90512D01*
X61334Y90490D01*
X61322Y90462D01*
X61313Y90429D01*
X61307Y90390D01*
X61303Y90347D01*
X61302Y90299D01*
X61048D01*
X61047Y90347D01*
X61043Y90390D01*
X61037Y90429D01*
X61028Y90462D01*
X61016Y90490D01*
X61002Y90512D01*
X60986Y90530D01*
X60967Y90543D01*
X60945Y90551D01*
X60921Y90553D01*
X61429D01*
X61405Y90551D01*
D02*
G37*
G36*
X64603Y90718D02*
X64431Y90525D01*
X64361Y90435D01*
X64301Y90350D01*
X64253Y90269D01*
X64215Y90192D01*
X64189Y90120D01*
X64172Y90052D01*
X64167Y89989D01*
X63913D01*
X63908Y90052D01*
X63891Y90120D01*
X63865Y90192D01*
X63827Y90269D01*
X63778Y90350D01*
X63719Y90435D01*
X63649Y90525D01*
X63477Y90718D01*
X63375Y90822D01*
X64705D01*
X64603Y90718D01*
D02*
G37*
G36*
X25869Y90194D02*
X25855Y90175D01*
X25843Y90155D01*
X25832Y90134D01*
X25823Y90111D01*
X25815Y90086D01*
X25809Y90060D01*
X25805Y90033D01*
X25803Y90004D01*
X25802Y89973D01*
X25548D01*
X25547Y90004D01*
X25545Y90033D01*
X25541Y90060D01*
X25535Y90086D01*
X25527Y90111D01*
X25518Y90134D01*
X25507Y90155D01*
X25495Y90175D01*
X25481Y90194D01*
X25465Y90211D01*
X25885D01*
X25869Y90194D01*
D02*
G37*
G36*
X58628Y90073D02*
X58630Y90044D01*
X58634Y90017D01*
X58640Y89991D01*
X58648Y89966D01*
X58657Y89943D01*
X58668Y89922D01*
X58680Y89902D01*
X58694Y89883D01*
X58710Y89866D01*
X58290D01*
X58306Y89883D01*
X58320Y89902D01*
X58332Y89922D01*
X58343Y89943D01*
X58352Y89966D01*
X58360Y89991D01*
X58366Y90017D01*
X58370Y90044D01*
X58372Y90073D01*
X58373Y90104D01*
X58627D01*
X58628Y90073D01*
D02*
G37*
G36*
X27390Y87213D02*
X27393Y87190D01*
X27398Y87167D01*
X27406Y87144D01*
X27416Y87121D01*
X27428Y87098D01*
X27442Y87076D01*
X27458Y87054D01*
X27477Y87031D01*
X27498Y87009D01*
X27318Y86830D01*
X27296Y86851D01*
X27274Y86869D01*
X27252Y86886D01*
X27229Y86900D01*
X27207Y86912D01*
X27184Y86922D01*
X27161Y86929D01*
X27138Y86935D01*
X27115Y86938D01*
X27092Y86939D01*
X27389Y87236D01*
X27390Y87213D01*
D02*
G37*
G36*
X12481Y86719D02*
X12500Y86705D01*
X12520Y86693D01*
X12541Y86682D01*
X12564Y86673D01*
X12589Y86665D01*
X12615Y86659D01*
X12642Y86655D01*
X12671Y86653D01*
X12702Y86652D01*
Y86398D01*
X12671Y86397D01*
X12642Y86395D01*
X12615Y86391D01*
X12589Y86385D01*
X12564Y86377D01*
X12541Y86368D01*
X12520Y86357D01*
X12500Y86345D01*
X12481Y86331D01*
X12464Y86315D01*
Y86735D01*
X12481Y86719D01*
D02*
G37*
G36*
X52597Y82355D02*
X52542Y82405D01*
X52483Y82450D01*
X52420Y82490D01*
X52351Y82525D01*
X52278Y82554D01*
X52201Y82578D01*
X52118Y82596D01*
X52031Y82609D01*
X51940Y82617D01*
X51843Y82620D01*
Y83420D01*
X51940Y83423D01*
X52031Y83431D01*
X52118Y83444D01*
X52201Y83462D01*
X52278Y83486D01*
X52351Y83515D01*
X52420Y83550D01*
X52483Y83590D01*
X52542Y83635D01*
X52597Y83685D01*
Y82355D01*
D02*
G37*
G36*
X42058Y83635D02*
X42117Y83590D01*
X42180Y83550D01*
X42249Y83515D01*
X42322Y83486D01*
X42399Y83462D01*
X42482Y83444D01*
X42569Y83431D01*
X42660Y83423D01*
X42757Y83420D01*
Y82620D01*
X42660Y82617D01*
X42569Y82609D01*
X42482Y82596D01*
X42399Y82578D01*
X42322Y82554D01*
X42249Y82525D01*
X42180Y82490D01*
X42117Y82450D01*
X42058Y82405D01*
X42003Y82355D01*
Y83685D01*
X42058Y83635D01*
D02*
G37*
G36*
X40510Y81659D02*
X40576Y81611D01*
X40648Y81569D01*
X40725Y81532D01*
X40809Y81502D01*
X40898Y81477D01*
X40994Y81458D01*
X41095Y81444D01*
X41202Y81437D01*
X41315Y81435D01*
X40375Y80495D01*
X40373Y80608D01*
X40366Y80715D01*
X40352Y80816D01*
X40333Y80912D01*
X40308Y81001D01*
X40278Y81085D01*
X40241Y81162D01*
X40199Y81234D01*
X40151Y81300D01*
X40097Y81359D01*
X40451Y81713D01*
X40510Y81659D01*
D02*
G37*
G36*
X53265Y76990D02*
X53120Y76989D01*
X52862Y76974D01*
X52749Y76960D01*
X52646Y76942D01*
X52555Y76919D01*
X52474Y76891D01*
X52404Y76859D01*
X52345Y76822D01*
X52296Y76781D01*
X52116Y76961D01*
X52157Y77010D01*
X52194Y77069D01*
X52226Y77139D01*
X52254Y77220D01*
X52277Y77311D01*
X52295Y77414D01*
X52309Y77527D01*
X52324Y77785D01*
X52325Y77930D01*
X53265Y76990D01*
D02*
G37*
G36*
X52687Y74453D02*
X52667Y74467D01*
X52644Y74475D01*
X52617D01*
X52587Y74467D01*
X52553Y74453D01*
X52515Y74432D01*
X52474Y74403D01*
X52429Y74367D01*
X52328Y74273D01*
X52148Y74453D01*
X52199Y74505D01*
X52278Y74599D01*
X52306Y74640D01*
X52328Y74678D01*
X52342Y74712D01*
X52350Y74742D01*
Y74769D01*
X52342Y74793D01*
X52328Y74812D01*
X52687Y74453D01*
D02*
G37*
G36*
X6326Y70185D02*
X6341Y69927D01*
X6355Y69814D01*
X6373Y69711D01*
X6396Y69620D01*
X6424Y69539D01*
X6456Y69469D01*
X6493Y69410D01*
X6534Y69361D01*
X6354Y69181D01*
X6305Y69222D01*
X6246Y69259D01*
X6176Y69291D01*
X6095Y69319D01*
X6004Y69342D01*
X5901Y69360D01*
X5788Y69374D01*
X5530Y69389D01*
X5385Y69390D01*
X6325Y70330D01*
X6326Y70185D01*
D02*
G37*
G36*
X8866Y67645D02*
X8881Y67387D01*
X8895Y67274D01*
X8913Y67171D01*
X8936Y67080D01*
X8964Y66999D01*
X8996Y66929D01*
X9033Y66870D01*
X9074Y66821D01*
X8894Y66641D01*
X8845Y66682D01*
X8786Y66719D01*
X8716Y66751D01*
X8635Y66779D01*
X8544Y66802D01*
X8441Y66820D01*
X8328Y66834D01*
X8070Y66849D01*
X7924Y66850D01*
X8865Y67790D01*
X8866Y67645D01*
D02*
G37*
G36*
X38501Y63859D02*
X38506Y63819D01*
X38513Y63783D01*
X38523Y63751D01*
X38536Y63723D01*
X38552Y63698D01*
X38571Y63677D01*
X38593Y63660D01*
X38617Y63646D01*
X38645Y63637D01*
X38103Y63624D01*
X38130Y63635D01*
X38154Y63650D01*
X38176Y63668D01*
X38194Y63691D01*
X38210Y63717D01*
X38223Y63746D01*
X38233Y63780D01*
X38240Y63817D01*
X38244Y63858D01*
X38246Y63902D01*
X38500D01*
X38501Y63859D01*
D02*
G37*
G36*
X42674Y62210D02*
X42125Y63045D01*
X42156Y63374D01*
X42213Y63324D01*
X42274Y63287D01*
X42338Y63263D01*
X42404Y63252D01*
X42474Y63254D01*
X42547Y63268D01*
X42623Y63295D01*
X42703Y63335D01*
X42785Y63387D01*
X42870Y63453D01*
X42674Y62210D01*
D02*
G37*
G36*
X40005Y63838D02*
X40064Y63801D01*
X40134Y63769D01*
X40215Y63741D01*
X40306Y63718D01*
X40409Y63700D01*
X40522Y63686D01*
X40780Y63671D01*
X40925Y63670D01*
X39985Y62729D01*
X39984Y62875D01*
X39969Y63133D01*
X39955Y63246D01*
X39937Y63349D01*
X39914Y63440D01*
X39886Y63521D01*
X39854Y63591D01*
X39817Y63650D01*
X39776Y63699D01*
X39956Y63879D01*
X40005Y63838D01*
D02*
G37*
G36*
X36806Y62565D02*
X36821Y62307D01*
X36835Y62194D01*
X36853Y62091D01*
X36876Y62000D01*
X36904Y61919D01*
X36936Y61849D01*
X36973Y61790D01*
X37014Y61741D01*
X36834Y61561D01*
X36785Y61602D01*
X36726Y61639D01*
X36656Y61671D01*
X36575Y61699D01*
X36484Y61722D01*
X36381Y61740D01*
X36268Y61754D01*
X36010Y61769D01*
X35864Y61770D01*
X36805Y62710D01*
X36806Y62565D01*
D02*
G37*
G36*
X29186D02*
X29201Y62307D01*
X29215Y62194D01*
X29233Y62091D01*
X29256Y62000D01*
X29284Y61919D01*
X29316Y61849D01*
X29353Y61790D01*
X29394Y61741D01*
X29214Y61561D01*
X29165Y61602D01*
X29106Y61639D01*
X29036Y61671D01*
X28955Y61699D01*
X28864Y61722D01*
X28761Y61740D01*
X28648Y61754D01*
X28390Y61769D01*
X28244Y61770D01*
X29185Y62710D01*
X29186Y62565D01*
D02*
G37*
G36*
X26646D02*
X26661Y62307D01*
X26675Y62194D01*
X26693Y62091D01*
X26716Y62000D01*
X26744Y61919D01*
X26776Y61849D01*
X26813Y61790D01*
X26854Y61741D01*
X26674Y61561D01*
X26625Y61602D01*
X26566Y61639D01*
X26496Y61671D01*
X26415Y61699D01*
X26324Y61722D01*
X26221Y61740D01*
X26108Y61754D01*
X25850Y61769D01*
X25705Y61770D01*
X26645Y62710D01*
X26646Y62565D01*
D02*
G37*
G36*
X21566D02*
X21581Y62307D01*
X21595Y62194D01*
X21613Y62091D01*
X21636Y62000D01*
X21664Y61919D01*
X21696Y61849D01*
X21733Y61790D01*
X21774Y61741D01*
X21594Y61561D01*
X21545Y61602D01*
X21486Y61639D01*
X21416Y61671D01*
X21335Y61699D01*
X21244Y61722D01*
X21141Y61740D01*
X21028Y61754D01*
X20770Y61769D01*
X20625Y61770D01*
X21565Y62710D01*
X21566Y62565D01*
D02*
G37*
G36*
X19026D02*
X19041Y62307D01*
X19055Y62194D01*
X19073Y62091D01*
X19096Y62000D01*
X19124Y61919D01*
X19156Y61849D01*
X19193Y61790D01*
X19234Y61741D01*
X19054Y61561D01*
X19005Y61602D01*
X18946Y61639D01*
X18876Y61671D01*
X18795Y61699D01*
X18704Y61722D01*
X18601Y61740D01*
X18488Y61754D01*
X18230Y61769D01*
X18084Y61770D01*
X19025Y62710D01*
X19026Y62565D01*
D02*
G37*
G36*
X16486D02*
X16501Y62307D01*
X16515Y62194D01*
X16533Y62091D01*
X16556Y62000D01*
X16584Y61919D01*
X16616Y61849D01*
X16653Y61790D01*
X16694Y61741D01*
X16514Y61561D01*
X16465Y61602D01*
X16406Y61639D01*
X16336Y61671D01*
X16255Y61699D01*
X16164Y61722D01*
X16061Y61740D01*
X15948Y61754D01*
X15690Y61769D01*
X15545Y61770D01*
X16485Y62710D01*
X16486Y62565D01*
D02*
G37*
G36*
X13946D02*
X13961Y62307D01*
X13975Y62194D01*
X13993Y62091D01*
X14016Y62000D01*
X14044Y61919D01*
X14076Y61849D01*
X14113Y61790D01*
X14154Y61741D01*
X13974Y61561D01*
X13925Y61602D01*
X13866Y61639D01*
X13796Y61671D01*
X13715Y61699D01*
X13624Y61722D01*
X13521Y61740D01*
X13408Y61754D01*
X13150Y61769D01*
X13005Y61770D01*
X13945Y62710D01*
X13946Y62565D01*
D02*
G37*
G36*
X45860Y61043D02*
X45863Y61014D01*
X45868Y60987D01*
X45874Y60963D01*
X45883Y60940D01*
X45894Y60919D01*
X45906Y60900D01*
X45921Y60883D01*
X45937Y60868D01*
X45956Y60855D01*
X45546Y60763D01*
X45557Y60782D01*
X45567Y60802D01*
X45576Y60823D01*
X45584Y60846D01*
X45590Y60870D01*
X45595Y60895D01*
X45599Y60922D01*
X45604Y60979D01*
X45605Y61009D01*
X45859Y61074D01*
X45860Y61043D01*
D02*
G37*
G36*
X55349Y57501D02*
X55362Y57421D01*
X55382Y57340D01*
X55411Y57260D01*
X55449Y57179D01*
X55494Y57098D01*
X55548Y57017D01*
X55611Y56936D01*
X55681Y56855D01*
X55760Y56773D01*
X54430D01*
X54509Y56855D01*
X54579Y56936D01*
X54642Y57017D01*
X54696Y57098D01*
X54741Y57179D01*
X54779Y57260D01*
X54808Y57340D01*
X54828Y57421D01*
X54841Y57501D01*
X54845Y57582D01*
X55345D01*
X55349Y57501D01*
D02*
G37*
G36*
X54424Y55423D02*
X54341Y55501D01*
X54259Y55571D01*
X54177Y55633D01*
X54096Y55687D01*
X54014Y55732D01*
X53933Y55769D01*
X53852Y55798D01*
X53772Y55819D01*
X53691Y55831D01*
X53675Y55832D01*
X53659Y55831D01*
X53578Y55818D01*
X53498Y55797D01*
X53417Y55768D01*
X53337Y55731D01*
X53256Y55685D01*
X53176Y55630D01*
X53096Y55568D01*
X53016Y55497D01*
X52935Y55417D01*
X52921Y56747D01*
X53004Y56669D01*
X53086Y56599D01*
X53168Y56537D01*
X53249Y56483D01*
X53331Y56438D01*
X53412Y56401D01*
X53493Y56372D01*
X53573Y56352D01*
X53654Y56339D01*
X53669Y56338D01*
X53686Y56339D01*
X53767Y56352D01*
X53847Y56373D01*
X53928Y56402D01*
X54008Y56439D01*
X54088Y56485D01*
X54169Y56540D01*
X54249Y56602D01*
X54329Y56673D01*
X54410Y56753D01*
X54424Y55423D01*
D02*
G37*
G36*
X42528Y55671D02*
X42530Y55642D01*
X42534Y55615D01*
X42540Y55589D01*
X42548Y55564D01*
X42557Y55541D01*
X42568Y55520D01*
X42580Y55500D01*
X42594Y55481D01*
X42610Y55464D01*
X42190D01*
X42206Y55481D01*
X42220Y55500D01*
X42232Y55520D01*
X42243Y55541D01*
X42252Y55564D01*
X42260Y55589D01*
X42266Y55615D01*
X42270Y55642D01*
X42272Y55671D01*
X42273Y55702D01*
X42527D01*
X42528Y55671D01*
D02*
G37*
G36*
X53267Y54662D02*
X53221Y54609D01*
X53184Y54547D01*
X53155Y54476D01*
X53134Y54398D01*
X53121Y54311D01*
X53117Y54216D01*
X53120Y54112D01*
X53131Y54000D01*
X53151Y53880D01*
X53179Y53751D01*
X52052Y54458D01*
X52212Y54494D01*
X52810Y54669D01*
X52889Y54702D01*
X52955Y54735D01*
X53007Y54768D01*
X53046Y54800D01*
X53267Y54662D01*
D02*
G37*
G36*
X22550Y53165D02*
X22768Y53291D01*
X23000Y53523D01*
X23083Y53667D01*
X23229Y53666D01*
X23385Y53396D01*
X23655Y53126D01*
X23985Y52935D01*
X24216Y52873D01*
X24257Y52832D01*
X33401D01*
X36322Y49911D01*
X36322Y43424D01*
X36080Y43181D01*
X35928Y42918D01*
X35781D01*
X35700Y43059D01*
X35468Y43291D01*
X35250Y43417D01*
Y42291D01*
X34150D01*
Y43417D01*
X33932Y43291D01*
X33700Y43059D01*
X33535Y42773D01*
X33496Y42626D01*
X33364D01*
X33325Y42773D01*
X33160Y43059D01*
X32928Y43291D01*
X32710Y43417D01*
Y42291D01*
X31610D01*
Y43417D01*
X31392Y43291D01*
X31160Y43059D01*
X30995Y42773D01*
X30956Y42626D01*
X30824D01*
X30785Y42773D01*
X30620Y43059D01*
X30388Y43291D01*
X30170Y43417D01*
Y42291D01*
X29070D01*
Y43417D01*
X28852Y43291D01*
X28702Y43141D01*
X28575Y43193D01*
Y43942D01*
X18288D01*
X18161Y44069D01*
Y43741D01*
X18010D01*
Y40841D01*
X18161D01*
Y39193D01*
X18109Y39103D01*
X18010Y38734D01*
Y38352D01*
X18109Y37983D01*
X18300Y37653D01*
X18570Y37383D01*
X18900Y37192D01*
X19269Y37093D01*
X19651D01*
X20020Y37192D01*
X20350Y37383D01*
X20620Y37653D01*
X20772Y37916D01*
X20919D01*
X21000Y37775D01*
X21232Y37543D01*
X21450Y37417D01*
Y38543D01*
X22550D01*
Y37417D01*
X22768Y37543D01*
X23000Y37775D01*
X23083Y37919D01*
X23229Y37918D01*
X23385Y37648D01*
X23495Y37537D01*
Y36957D01*
X36195D01*
X37338Y35814D01*
Y31369D01*
X36068Y30099D01*
Y27413D01*
X35928Y27170D01*
X35781D01*
X35700Y27311D01*
X35468Y27543D01*
X35250Y27669D01*
Y26543D01*
X34150D01*
Y27669D01*
X33932Y27543D01*
X33700Y27311D01*
X33535Y27025D01*
X33496Y26878D01*
X33364D01*
X33325Y27025D01*
X33160Y27311D01*
X32928Y27543D01*
X32710Y27669D01*
Y26543D01*
X31610D01*
Y27669D01*
X31392Y27543D01*
X31160Y27311D01*
X30995Y27025D01*
X30956Y26878D01*
X30824D01*
X30785Y27025D01*
X30620Y27311D01*
X30388Y27543D01*
X30170Y27669D01*
Y26543D01*
X29070D01*
Y27669D01*
X28852Y27543D01*
X28620Y27311D01*
X28539Y27170D01*
X28392D01*
X28240Y27433D01*
X27970Y27703D01*
X27640Y27894D01*
X27592Y27907D01*
X26924Y28575D01*
X17145D01*
Y26670D01*
X18010Y25805D01*
Y25093D01*
X18722D01*
X19708Y24107D01*
X19659Y24007D01*
X19644Y23991D01*
X19269D01*
X18900Y23892D01*
X18570Y23701D01*
X18300Y23431D01*
X18109Y23101D01*
X18010Y22732D01*
Y22350D01*
X18109Y21981D01*
X18300Y21651D01*
X18570Y21381D01*
X18900Y21190D01*
X19269Y21091D01*
X19651D01*
X20020Y21190D01*
X20350Y21381D01*
X20620Y21651D01*
X20772Y21914D01*
X20919D01*
X21000Y21773D01*
X21232Y21541D01*
X21450Y21415D01*
Y22541D01*
X22550D01*
Y21415D01*
X22768Y21541D01*
X23000Y21773D01*
X23083Y21917D01*
X23229Y21916D01*
X23241Y21895D01*
Y21590D01*
X23622Y21209D01*
X23943D01*
X23985Y21185D01*
X24354Y21086D01*
X24736D01*
X25105Y21185D01*
X25147Y21209D01*
X26487D01*
X26520Y21190D01*
X26889Y21091D01*
X27271D01*
X27640Y21190D01*
X27673Y21209D01*
X29027D01*
X29060Y21190D01*
X29429Y21091D01*
X29811D01*
X30180Y21190D01*
X30213Y21209D01*
X31567D01*
X31600Y21190D01*
X31969Y21091D01*
X32351D01*
X32571Y21150D01*
X35941Y17780D01*
Y16589D01*
X35814Y16537D01*
X35620Y16730D01*
X35290Y16921D01*
X34921Y17020D01*
X34539D01*
X34170Y16921D01*
X33840Y16730D01*
X33570Y16460D01*
X33527Y16387D01*
X33400D01*
X33355Y16465D01*
X33085Y16735D01*
X32755Y16926D01*
X32386Y17025D01*
X32004D01*
X31635Y16926D01*
X31305Y16735D01*
X31035Y16465D01*
X30989Y16385D01*
X30861D01*
X30815Y16465D01*
X30545Y16735D01*
X30215Y16926D01*
X29846Y17025D01*
X29464D01*
X29095Y16926D01*
X28765Y16735D01*
X28495Y16465D01*
X28448Y16385D01*
X28322D01*
X28275Y16465D01*
X28005Y16735D01*
X27675Y16926D01*
X27306Y17025D01*
X26924D01*
X26555Y16926D01*
X26225Y16735D01*
X25955Y16465D01*
X25909Y16385D01*
X25781D01*
X25735Y16465D01*
X25465Y16735D01*
X25135Y16926D01*
X24766Y17025D01*
X24384D01*
X24015Y16926D01*
X23685Y16735D01*
X23415Y16465D01*
X23224Y16135D01*
X23125Y15766D01*
Y15384D01*
X23224Y15015D01*
X23415Y14685D01*
X23685Y14415D01*
X24015Y14224D01*
X24384Y14125D01*
X24766D01*
X25135Y14224D01*
X25465Y14415D01*
X25735Y14685D01*
X25781Y14765D01*
X25909D01*
X25955Y14685D01*
X26225Y14415D01*
X26555Y14224D01*
X26924Y14125D01*
X27306D01*
X27675Y14224D01*
X28005Y14415D01*
X28275Y14685D01*
X28322Y14765D01*
X28448D01*
X28495Y14685D01*
X28765Y14415D01*
X29095Y14224D01*
X29464Y14125D01*
X29846D01*
X30215Y14224D01*
X30545Y14415D01*
X30815Y14685D01*
X30861Y14765D01*
X30989D01*
X31035Y14685D01*
X31305Y14415D01*
X31635Y14224D01*
X32004Y14125D01*
X32386D01*
X32755Y14224D01*
X33085Y14415D01*
X33355Y14685D01*
X33398Y14758D01*
X33525D01*
X33570Y14680D01*
X33840Y14410D01*
X34170Y14219D01*
X34539Y14120D01*
X34921D01*
X35290Y14219D01*
X35620Y14410D01*
X35814Y14603D01*
X35941Y14551D01*
Y11290D01*
X35889Y11236D01*
X35731Y11255D01*
X35700Y11309D01*
X35468Y11541D01*
X35250Y11667D01*
Y10541D01*
X34150D01*
Y11667D01*
X33932Y11541D01*
X33700Y11309D01*
X33535Y11023D01*
X33496Y10876D01*
X33364D01*
X33325Y11023D01*
X33160Y11309D01*
X32928Y11541D01*
X32710Y11667D01*
Y10541D01*
X31610D01*
Y11667D01*
X31392Y11541D01*
X31160Y11309D01*
X30995Y11023D01*
X30956Y10876D01*
X30824D01*
X30785Y11023D01*
X30620Y11309D01*
X30388Y11541D01*
X30170Y11667D01*
Y10541D01*
X29070D01*
Y11667D01*
X28852Y11541D01*
X28620Y11309D01*
X28539Y11168D01*
X28392D01*
X28321Y11292D01*
Y11557D01*
X27432Y12446D01*
X19050D01*
X15367Y16129D01*
Y50292D01*
X17925Y52850D01*
X19234D01*
X19269Y52841D01*
X19651D01*
X19686Y52850D01*
X20398D01*
X20590Y53371D01*
X20620Y53401D01*
X20772Y53664D01*
X20919D01*
X21000Y53523D01*
X21232Y53291D01*
X21450Y53165D01*
Y54291D01*
X22550D01*
Y53165D01*
D02*
G37*
G36*
X53583Y46658D02*
X53572Y46638D01*
X53562Y46617D01*
X53554Y46594D01*
X53547Y46570D01*
X53541Y46545D01*
X53537Y46518D01*
X53534Y46490D01*
X53531Y46431D01*
X53277Y46379D01*
X53276Y46410D01*
X53273Y46439D01*
X53268Y46465D01*
X53262Y46491D01*
X53253Y46514D01*
X53243Y46535D01*
X53230Y46554D01*
X53216Y46572D01*
X53200Y46588D01*
X53182Y46601D01*
X53595Y46677D01*
X53583Y46658D01*
D02*
G37*
G36*
X20393Y41683D02*
X20385Y41660D01*
Y41633D01*
X20393Y41603D01*
X20407Y41569D01*
X20428Y41531D01*
X20457Y41490D01*
X20493Y41445D01*
X20587Y41344D01*
X20407Y41164D01*
X20355Y41215D01*
X20261Y41294D01*
X20220Y41322D01*
X20182Y41344D01*
X20148Y41358D01*
X20118Y41366D01*
X20091D01*
X20067Y41358D01*
X20048Y41344D01*
X20407Y41703D01*
X20393Y41683D01*
D02*
G37*
G36*
X22951Y42136D02*
X22966Y41878D01*
X22980Y41765D01*
X22998Y41662D01*
X23021Y41571D01*
X23049Y41490D01*
X23081Y41420D01*
X23118Y41361D01*
X23159Y41312D01*
X22979Y41132D01*
X22930Y41173D01*
X22871Y41210D01*
X22801Y41242D01*
X22720Y41270D01*
X22629Y41293D01*
X22526Y41311D01*
X22413Y41325D01*
X22155Y41340D01*
X22010Y41341D01*
X22950Y42282D01*
X22951Y42136D01*
D02*
G37*
G36*
X20755Y39273D02*
X20689Y39202D01*
X20630Y39132D01*
X20578Y39061D01*
X20532Y38990D01*
X20494Y38918D01*
X20463Y38846D01*
X20439Y38773D01*
X20423Y38700D01*
X20413Y38626D01*
X20410Y38553D01*
X19469Y39493D01*
X19543Y39496D01*
X19617Y39506D01*
X19690Y39522D01*
X19763Y39546D01*
X19835Y39577D01*
X19907Y39615D01*
X19978Y39661D01*
X20049Y39713D01*
X20119Y39772D01*
X20190Y39838D01*
X20755Y39273D01*
D02*
G37*
G36*
X33848Y39675D02*
X33919Y39617D01*
X33990Y39568D01*
X34061Y39527D01*
X34131Y39496D01*
X34202Y39473D01*
X34273Y39459D01*
X34344Y39453D01*
X34415Y39456D01*
X34485Y39468D01*
X33770Y38347D01*
X33753Y38415D01*
X33731Y38484D01*
X33702Y38552D01*
X33669Y38621D01*
X33630Y38690D01*
X33585Y38759D01*
X33535Y38828D01*
X33418Y38966D01*
X33351Y39036D01*
X33777Y39741D01*
X33848Y39675D01*
D02*
G37*
G36*
X51140Y32763D02*
X51163Y32745D01*
X51185Y32728D01*
X51208Y32714D01*
X51230Y32702D01*
X51253Y32692D01*
X51276Y32684D01*
X51299Y32679D01*
X51322Y32676D01*
X51345Y32675D01*
X51048Y32378D01*
X51047Y32401D01*
X51044Y32424D01*
X51039Y32447D01*
X51031Y32470D01*
X51021Y32493D01*
X51009Y32515D01*
X50995Y32538D01*
X50978Y32560D01*
X50960Y32583D01*
X50939Y32605D01*
X51118Y32784D01*
X51140Y32763D01*
D02*
G37*
G36*
X50846Y30230D02*
X50854Y30208D01*
X50867Y30189D01*
X50885Y30173D01*
X50908Y30159D01*
X50936Y30147D01*
X50970Y30138D01*
X51008Y30132D01*
X51052Y30128D01*
X51101Y30127D01*
Y29873D01*
X51052Y29872D01*
X51008Y29868D01*
X50970Y29862D01*
X50936Y29853D01*
X50908Y29841D01*
X50885Y29827D01*
X50867Y29811D01*
X50854Y29792D01*
X50846Y29770D01*
X50844Y29746D01*
Y30254D01*
X50846Y30230D01*
D02*
G37*
G36*
X20393Y25935D02*
X20385Y25912D01*
Y25885D01*
X20393Y25855D01*
X20407Y25821D01*
X20428Y25783D01*
X20457Y25742D01*
X20493Y25697D01*
X20587Y25596D01*
X20407Y25416D01*
X20355Y25467D01*
X20261Y25546D01*
X20220Y25574D01*
X20182Y25596D01*
X20148Y25610D01*
X20118Y25618D01*
X20091D01*
X20067Y25610D01*
X20048Y25596D01*
X20407Y25955D01*
X20393Y25935D01*
D02*
G37*
G36*
X22951Y26388D02*
X22966Y26130D01*
X22980Y26017D01*
X22998Y25914D01*
X23021Y25823D01*
X23049Y25742D01*
X23081Y25672D01*
X23118Y25613D01*
X23159Y25564D01*
X22979Y25384D01*
X22930Y25425D01*
X22871Y25462D01*
X22801Y25494D01*
X22720Y25522D01*
X22629Y25545D01*
X22526Y25563D01*
X22413Y25577D01*
X22155Y25592D01*
X22010Y25593D01*
X22950Y26534D01*
X22951Y26388D01*
D02*
G37*
G36*
X34325Y23973D02*
X34687Y23662D01*
X34774Y23598D01*
X34945Y23487D01*
X35028Y23440D01*
X35110Y23398D01*
X33866Y22995D01*
X33902Y23071D01*
X33927Y23145D01*
X33942Y23219D01*
X33945Y23291D01*
X33939Y23362D01*
X33921Y23433D01*
X33893Y23502D01*
X33854Y23570D01*
X33804Y23638D01*
X33744Y23704D01*
X34231Y24065D01*
X34325Y23973D01*
D02*
G37*
G36*
X49305Y22801D02*
X49399Y22721D01*
X49441Y22692D01*
X49478Y22670D01*
X49512Y22656D01*
X49543Y22648D01*
X49570Y22648D01*
X49593Y22655D01*
X49612Y22669D01*
X49256Y22313D01*
X49270Y22332D01*
X49277Y22355D01*
X49277Y22382D01*
X49269Y22413D01*
X49255Y22447D01*
X49233Y22484D01*
X49204Y22526D01*
X49167Y22571D01*
X49073Y22672D01*
X49253Y22852D01*
X49305Y22801D01*
D02*
G37*
G36*
X44729Y20531D02*
X44731Y20502D01*
X44736Y20475D01*
X44742Y20450D01*
X44750Y20426D01*
X44760Y20403D01*
X44771Y20383D01*
X44785Y20364D01*
X44800Y20346D01*
X44817Y20331D01*
X44398Y20296D01*
X44413Y20315D01*
X44425Y20334D01*
X44437Y20355D01*
X44446Y20377D01*
X44455Y20401D01*
X44462Y20426D01*
X44467Y20452D01*
X44471Y20479D01*
X44473Y20509D01*
X44474Y20539D01*
X44728Y20562D01*
X44729Y20531D01*
D02*
G37*
G36*
X44027Y20518D02*
X44028Y20488D01*
X44033Y20431D01*
X44037Y20404D01*
X44043Y20379D01*
X44050Y20355D01*
X44058Y20332D01*
X44068Y20311D01*
X44078Y20290D01*
X44090Y20272D01*
X43678Y20349D01*
X43696Y20363D01*
X43712Y20379D01*
X43726Y20396D01*
X43739Y20416D01*
X43749Y20437D01*
X43758Y20460D01*
X43764Y20485D01*
X43769Y20512D01*
X43772Y20541D01*
X43773Y20571D01*
X44027Y20518D01*
D02*
G37*
G36*
X42430Y18977D02*
X42409Y18955D01*
X42372Y18911D01*
X42356Y18889D01*
X42342Y18868D01*
X42329Y18846D01*
X42319Y18825D01*
X42310Y18803D01*
X42302Y18782D01*
X42297Y18761D01*
X42073Y19116D01*
X42095Y19112D01*
X42117Y19111D01*
X42139Y19113D01*
X42162Y19117D01*
X42184Y19124D01*
X42206Y19134D01*
X42229Y19147D01*
X42251Y19163D01*
X42273Y19181D01*
X42296Y19202D01*
X42430Y18977D01*
D02*
G37*
G36*
X41466Y18959D02*
X41467Y18953D01*
X41469Y18947D01*
X41474Y18939D01*
X41481Y18929D01*
X41489Y18918D01*
X41512Y18893D01*
X41542Y18862D01*
X41359Y18685D01*
X41228Y18812D01*
X41467Y18963D01*
X41466Y18959D01*
D02*
G37*
G36*
X20393Y9934D02*
X20385Y9910D01*
Y9883D01*
X20393Y9853D01*
X20407Y9819D01*
X20428Y9781D01*
X20457Y9740D01*
X20493Y9695D01*
X20587Y9594D01*
X20407Y9414D01*
X20355Y9465D01*
X20261Y9544D01*
X20220Y9573D01*
X20182Y9594D01*
X20148Y9608D01*
X20118Y9616D01*
X20091D01*
X20067Y9608D01*
X20048Y9594D01*
X20407Y9953D01*
X20393Y9934D01*
D02*
G37*
G36*
X22951Y10386D02*
X22966Y10128D01*
X22980Y10015D01*
X22998Y9912D01*
X23021Y9821D01*
X23049Y9740D01*
X23081Y9670D01*
X23118Y9611D01*
X23159Y9562D01*
X22979Y9382D01*
X22930Y9423D01*
X22871Y9460D01*
X22801Y9492D01*
X22720Y9520D01*
X22629Y9543D01*
X22526Y9561D01*
X22413Y9575D01*
X22155Y9590D01*
X22010Y9591D01*
X22950Y10531D01*
X22951Y10386D01*
D02*
G37*
G36*
X56703Y6242D02*
X56682Y6220D01*
X56664Y6197D01*
X56648Y6175D01*
X56635Y6152D01*
X56625Y6130D01*
X56618Y6108D01*
X56614Y6086D01*
X56612Y6063D01*
X56613Y6041D01*
X56617Y6019D01*
X56262Y6243D01*
X56283Y6249D01*
X56304Y6256D01*
X56326Y6265D01*
X56347Y6276D01*
X56369Y6288D01*
X56391Y6302D01*
X56412Y6318D01*
X56456Y6355D01*
X56478Y6376D01*
X56703Y6242D01*
D02*
G37*
G36*
X52798Y5517D02*
X52760Y5474D01*
X52730Y5424D01*
X52708Y5370D01*
X52692Y5310D01*
X52684Y5244D01*
X52684Y5173D01*
X52691Y5097D01*
X52705Y5016D01*
X52727Y4929D01*
X52756Y4836D01*
X51803Y5350D01*
X51924Y5382D01*
X52315Y5511D01*
X52389Y5543D01*
X52510Y5608D01*
X52557Y5640D01*
X52594Y5673D01*
X52798Y5517D01*
D02*
G37*
%LPC*%
G36*
X50675Y119425D02*
Y118075D01*
X51432D01*
Y118625D01*
X51404Y118834D01*
X51324Y119028D01*
X51196Y119196D01*
X51028Y119324D01*
X50834Y119404D01*
X50675Y119425D01*
D02*
G37*
G36*
X49575Y119425D02*
X49416Y119404D01*
X49222Y119324D01*
X49054Y119196D01*
X48926Y119028D01*
X48846Y118834D01*
X48818Y118625D01*
Y118075D01*
X49575D01*
Y119425D01*
D02*
G37*
G36*
X36950Y119400D02*
Y118050D01*
X37707D01*
Y118600D01*
X37679Y118809D01*
X37599Y119003D01*
X37471Y119171D01*
X37303Y119299D01*
X37109Y119379D01*
X36950Y119400D01*
D02*
G37*
G36*
X35850Y119400D02*
X35691Y119379D01*
X35497Y119299D01*
X35329Y119171D01*
X35201Y119003D01*
X35121Y118809D01*
X35093Y118600D01*
Y118050D01*
X35850D01*
Y119400D01*
D02*
G37*
G36*
X23450Y119300D02*
Y117950D01*
X24207D01*
Y118500D01*
X24179Y118709D01*
X24099Y118903D01*
X23971Y119071D01*
X23803Y119199D01*
X23609Y119279D01*
X23450Y119300D01*
D02*
G37*
G36*
X22350Y119300D02*
X22191Y119279D01*
X21997Y119199D01*
X21829Y119071D01*
X21701Y118903D01*
X21621Y118709D01*
X21593Y118500D01*
Y117950D01*
X22350D01*
Y119300D01*
D02*
G37*
G36*
X60030Y116726D02*
Y116150D01*
X60606D01*
X60480Y116368D01*
X60248Y116600D01*
X60030Y116726D01*
D02*
G37*
G36*
X49575Y116975D02*
X48818D01*
Y116425D01*
X48846Y116216D01*
X48926Y116022D01*
X49054Y115854D01*
X49222Y115726D01*
X49416Y115646D01*
X49575Y115625D01*
Y116975D01*
D02*
G37*
G36*
X51432D02*
X50675D01*
Y115625D01*
X50834Y115646D01*
X51028Y115726D01*
X51196Y115854D01*
X51324Y116022D01*
X51404Y116216D01*
X51432Y116425D01*
Y116975D01*
D02*
G37*
G36*
X37707Y116950D02*
X36950D01*
Y115600D01*
X37109Y115621D01*
X37303Y115701D01*
X37471Y115829D01*
X37599Y115997D01*
X37679Y116191D01*
X37707Y116400D01*
Y116950D01*
D02*
G37*
G36*
X35850D02*
X35093D01*
Y116400D01*
X35121Y116191D01*
X35201Y115997D01*
X35329Y115829D01*
X35497Y115701D01*
X35691Y115621D01*
X35850Y115600D01*
Y116950D01*
D02*
G37*
G36*
X22350Y116850D02*
X21593D01*
Y116300D01*
X21621Y116091D01*
X21701Y115897D01*
X21829Y115729D01*
X21997Y115601D01*
X22191Y115521D01*
X22350Y115500D01*
Y116850D01*
D02*
G37*
G36*
X24207D02*
X23450D01*
Y115500D01*
X23609Y115521D01*
X23803Y115601D01*
X23971Y115729D01*
X24099Y115897D01*
X24179Y116091D01*
X24207Y116300D01*
Y116850D01*
D02*
G37*
G36*
X60606Y104890D02*
X60209D01*
X60240Y104436D01*
X60248Y104440D01*
X60480Y104672D01*
X60606Y104890D01*
D02*
G37*
G36*
X62745Y103115D02*
X62169D01*
X62295Y102898D01*
X62527Y102665D01*
X62745Y102539D01*
Y103115D01*
D02*
G37*
G36*
X64421D02*
X63845D01*
Y102539D01*
X64062Y102665D01*
X64295Y102898D01*
X64421Y103115D01*
D02*
G37*
G36*
X50675Y103025D02*
Y101675D01*
X51123D01*
Y101894D01*
X51131Y101818D01*
X51155Y101750D01*
X51195Y101690D01*
X51211Y101675D01*
X51432D01*
Y102055D01*
Y102225D01*
X51404Y102434D01*
X51324Y102628D01*
X51196Y102796D01*
X51028Y102924D01*
X50834Y103004D01*
X50675Y103025D01*
D02*
G37*
G36*
X36950Y103000D02*
Y101650D01*
X37707D01*
Y102200D01*
X37679Y102409D01*
X37599Y102603D01*
X37471Y102771D01*
X37303Y102899D01*
X37109Y102979D01*
X36950Y103000D01*
D02*
G37*
G36*
X35495Y102898D02*
X35329Y102771D01*
X35201Y102603D01*
X35121Y102409D01*
X35093Y102200D01*
Y101650D01*
X35850D01*
Y102522D01*
X35466Y102451D01*
X35472Y102468D01*
X35478Y102503D01*
X35483Y102555D01*
X35495Y102813D01*
X35495Y102898D01*
D02*
G37*
G36*
X60730Y102350D02*
X60030D01*
Y101650D01*
X60730D01*
Y102350D01*
D02*
G37*
G36*
X35850Y100550D02*
X35093D01*
Y100000D01*
X35121Y99791D01*
X35201Y99597D01*
X35329Y99429D01*
X35497Y99301D01*
X35691Y99221D01*
X35850Y99200D01*
Y100550D01*
D02*
G37*
G36*
X66845Y99381D02*
Y98805D01*
X67421D01*
X67295Y99023D01*
X67063Y99255D01*
X66845Y99381D01*
D02*
G37*
G36*
X37800Y98375D02*
X37208D01*
X37210Y98365D01*
X37350Y98123D01*
X37548Y97925D01*
X37790Y97785D01*
X37800Y97783D01*
Y98375D01*
D02*
G37*
G36*
X67421Y97705D02*
X66845D01*
Y97129D01*
X67063Y97255D01*
X67295Y97488D01*
X67421Y97705D01*
D02*
G37*
G36*
X67135Y92631D02*
Y92055D01*
X67711D01*
X67585Y92273D01*
X67353Y92505D01*
X67135Y92631D01*
D02*
G37*
G36*
X67711Y90955D02*
X67135D01*
Y90379D01*
X67353Y90505D01*
X67585Y90738D01*
X67711Y90955D01*
D02*
G37*
G36*
X67000Y84664D02*
Y84125D01*
X67539D01*
X67420Y84331D01*
X67206Y84545D01*
X67000Y84664D01*
D02*
G37*
G36*
X67539Y83125D02*
X67000D01*
Y82586D01*
X67206Y82705D01*
X67420Y82919D01*
X67539Y83125D01*
D02*
G37*
G36*
X63778Y66425D02*
X63422D01*
X63079Y66333D01*
X62771Y66155D01*
X62520Y65904D01*
X62414Y65720D01*
X62286D01*
X62180Y65904D01*
X61929Y66155D01*
X61621Y66333D01*
X61278Y66425D01*
X60922D01*
X60579Y66333D01*
X60271Y66155D01*
X60020Y65904D01*
X59842Y65596D01*
X59750Y65253D01*
Y64897D01*
X59842Y64554D01*
X60020Y64246D01*
X60271Y63995D01*
X60579Y63817D01*
X60922Y63725D01*
X61278D01*
X61621Y63817D01*
X61929Y63995D01*
X62180Y64246D01*
X62286Y64430D01*
X62414D01*
X62520Y64246D01*
X62771Y63995D01*
X63079Y63817D01*
X63422Y63725D01*
X63778D01*
X64121Y63817D01*
X64429Y63995D01*
X64680Y64246D01*
X64858Y64554D01*
X64888Y64665D01*
X65019D01*
X65028Y64631D01*
X65180Y64369D01*
X65394Y64155D01*
X65600Y64036D01*
Y65075D01*
Y66114D01*
X65394Y65995D01*
X65180Y65781D01*
X65028Y65519D01*
X65019Y65485D01*
X64888D01*
X64858Y65596D01*
X64680Y65904D01*
X64429Y66155D01*
X64121Y66333D01*
X63778Y66425D01*
D02*
G37*
G36*
X66600Y66114D02*
Y65575D01*
X67139D01*
X67020Y65781D01*
X66806Y65995D01*
X66600Y66114D01*
D02*
G37*
G36*
X67139Y64575D02*
X66600D01*
Y64036D01*
X66806Y64155D01*
X67020Y64369D01*
X67139Y64575D01*
D02*
G37*
G36*
X66775Y55489D02*
Y54950D01*
X67314D01*
X67195Y55156D01*
X66981Y55370D01*
X66775Y55489D01*
D02*
G37*
G36*
X67314Y53950D02*
X66775D01*
Y53411D01*
X66981Y53530D01*
X67195Y53744D01*
X67314Y53950D01*
D02*
G37*
G36*
X8186Y52975D02*
Y52343D01*
X8817D01*
X8811Y52368D01*
X8666Y52618D01*
X8461Y52823D01*
X8210Y52968D01*
X8186Y52975D01*
D02*
G37*
G36*
X8817Y51543D02*
X8186D01*
Y50911D01*
X8210Y50918D01*
X8461Y51063D01*
X8666Y51268D01*
X8811Y51518D01*
X8817Y51543D01*
D02*
G37*
G36*
X8186Y40529D02*
Y39897D01*
X8817D01*
X8811Y39922D01*
X8666Y40172D01*
X8461Y40377D01*
X8210Y40522D01*
X8186Y40529D01*
D02*
G37*
G36*
X8817Y39097D02*
X8186D01*
Y38465D01*
X8210Y38472D01*
X8461Y38617D01*
X8666Y38822D01*
X8811Y39072D01*
X8817Y39097D01*
D02*
G37*
G36*
X8186Y25543D02*
Y24911D01*
X8817D01*
X8811Y24936D01*
X8666Y25186D01*
X8461Y25391D01*
X8210Y25536D01*
X8186Y25543D01*
D02*
G37*
G36*
X8817Y24111D02*
X8186D01*
Y23479D01*
X8210Y23486D01*
X8461Y23631D01*
X8666Y23836D01*
X8811Y24086D01*
X8817Y24111D01*
D02*
G37*
G36*
X13050Y119300D02*
Y117950D01*
X13807D01*
Y118500D01*
X13779Y118709D01*
X13699Y118903D01*
X13571Y119071D01*
X13403Y119199D01*
X13209Y119279D01*
X13050Y119300D01*
D02*
G37*
G36*
X11950Y119300D02*
X11791Y119279D01*
X11597Y119199D01*
X11429Y119071D01*
X11301Y118903D01*
X11221Y118709D01*
X11193Y118500D01*
Y117950D01*
X11950D01*
Y119300D01*
D02*
G37*
G36*
Y116850D02*
X11193D01*
Y116300D01*
X11221Y116091D01*
X11301Y115897D01*
X11429Y115729D01*
X11597Y115601D01*
X11791Y115521D01*
X11950Y115500D01*
Y116850D01*
D02*
G37*
G36*
X13807D02*
X13050D01*
Y115500D01*
X13209Y115521D01*
X13403Y115601D01*
X13571Y115729D01*
X13699Y115897D01*
X13779Y116091D01*
X13807Y116300D01*
Y116850D01*
D02*
G37*
G36*
X6700Y111625D02*
X6000D01*
Y110925D01*
X6700D01*
Y111625D01*
D02*
G37*
G36*
X5200D02*
X4500D01*
Y110925D01*
X5200D01*
Y111625D01*
D02*
G37*
G36*
X6700Y110125D02*
X5600D01*
X4500D01*
Y109425D01*
X5311D01*
X5328Y109298D01*
X5098Y109236D01*
X4802Y109065D01*
X4560Y108823D01*
X4389Y108527D01*
X4300Y108196D01*
Y107854D01*
X4389Y107523D01*
X4560Y107227D01*
X4802Y106985D01*
X5098Y106814D01*
X5429Y106725D01*
X5771D01*
X6102Y106814D01*
X6398Y106985D01*
X6640Y107227D01*
X6811Y107523D01*
X6900Y107854D01*
Y108196D01*
X6811Y108527D01*
X6640Y108823D01*
X6398Y109065D01*
X6102Y109236D01*
X5872Y109298D01*
X5889Y109425D01*
X6700D01*
Y110125D01*
D02*
G37*
G36*
X4686Y52975D02*
Y52343D01*
X5317D01*
X5311Y52368D01*
X5166Y52618D01*
X4961Y52823D01*
X4710Y52968D01*
X4686Y52975D01*
D02*
G37*
G36*
X3885D02*
X3861Y52968D01*
X3610Y52823D01*
X3405Y52618D01*
X3260Y52368D01*
X3254Y52343D01*
X3885D01*
Y52975D01*
D02*
G37*
G36*
X5317Y51543D02*
X4686D01*
Y50911D01*
X4710Y50918D01*
X4961Y51063D01*
X5166Y51268D01*
X5311Y51518D01*
X5317Y51543D01*
D02*
G37*
G36*
X3885D02*
X3254D01*
X3260Y51518D01*
X3405Y51268D01*
X3610Y51063D01*
X3861Y50918D01*
X3885Y50911D01*
Y51543D01*
D02*
G37*
G36*
X4686Y40529D02*
Y39897D01*
X5317D01*
X5311Y39922D01*
X5166Y40172D01*
X4961Y40377D01*
X4710Y40522D01*
X4686Y40529D01*
D02*
G37*
G36*
X3885D02*
X3861Y40522D01*
X3610Y40377D01*
X3405Y40172D01*
X3260Y39922D01*
X3254Y39897D01*
X3885D01*
Y40529D01*
D02*
G37*
G36*
X5317Y39097D02*
X4686D01*
Y38465D01*
X4710Y38472D01*
X4961Y38617D01*
X5166Y38822D01*
X5311Y39072D01*
X5317Y39097D01*
D02*
G37*
G36*
X3885D02*
X3254D01*
X3260Y39072D01*
X3405Y38822D01*
X3610Y38617D01*
X3861Y38472D01*
X3885Y38465D01*
Y39097D01*
D02*
G37*
G36*
X4686Y25543D02*
Y24911D01*
X5317D01*
X5311Y24936D01*
X5166Y25186D01*
X4961Y25391D01*
X4710Y25536D01*
X4686Y25543D01*
D02*
G37*
G36*
X3885D02*
X3861Y25536D01*
X3610Y25391D01*
X3405Y25186D01*
X3260Y24936D01*
X3254Y24911D01*
X3885D01*
Y25543D01*
D02*
G37*
G36*
X5317Y24111D02*
X4686D01*
Y23479D01*
X4710Y23486D01*
X4961Y23631D01*
X5166Y23836D01*
X5311Y24086D01*
X5317Y24111D01*
D02*
G37*
G36*
X3885D02*
X3254D01*
X3260Y24086D01*
X3405Y23836D01*
X3610Y23631D01*
X3861Y23486D01*
X3885Y23479D01*
Y24111D01*
D02*
G37*
G36*
X44450Y99792D02*
Y99200D01*
X45042D01*
X45040Y99210D01*
X44900Y99452D01*
X44702Y99650D01*
X44460Y99790D01*
X44450Y99792D01*
D02*
G37*
G36*
X43650Y99792D02*
X43640Y99790D01*
X43398Y99650D01*
X43200Y99452D01*
X43060Y99210D01*
X43058Y99200D01*
X43650D01*
Y99792D01*
D02*
G37*
G36*
X45042Y98400D02*
X44450D01*
Y97808D01*
X44460Y97810D01*
X44702Y97950D01*
X44900Y98148D01*
X45040Y98390D01*
X45042Y98400D01*
D02*
G37*
G36*
X43650D02*
X43058D01*
X43060Y98390D01*
X43200Y98148D01*
X43398Y97950D01*
X43640Y97810D01*
X43650Y97808D01*
Y98400D01*
D02*
G37*
G36*
X50545Y96861D02*
X50328Y96735D01*
X50095Y96503D01*
X49969Y96285D01*
X50545D01*
Y96861D01*
D02*
G37*
%LPD*%
D10*
X59200Y89900D02*
X59650Y89450D01*
X59200Y89900D02*
Y96925D01*
X20835Y23916D02*
X33956D01*
X34451Y23421D01*
Y22790D02*
Y23421D01*
Y22790D02*
X34700Y22541D01*
X19460D02*
X20835Y23916D01*
D13*
X62850Y91669D02*
G03*
X62850Y91331I1190J-169D01*
G01*
X50072Y28552D02*
G03*
X50008Y28551I-22J-1052D01*
G01*
X50925Y4444D02*
G03*
X50925Y4706I-1425J131D01*
G01*
X50965Y3586D02*
G03*
X51014Y3538I1035J989D01*
G01*
X50546Y4463D02*
G03*
X50546Y4687I-1046J112D01*
G01*
X51184Y3911D02*
G03*
X51336Y3759I816J664D01*
G01*
X52504Y115750D02*
X54250D01*
X44192Y107438D02*
X52504Y115750D01*
X51846Y113060D02*
X54400D01*
X45845Y107059D02*
X51846Y113060D01*
X62850Y89950D02*
Y91331D01*
Y91669D02*
Y97350D01*
Y91669D02*
Y91669D01*
X58500Y97050D02*
X59700Y98250D01*
X58500Y89652D02*
Y97050D01*
X59700Y98250D02*
X61210D01*
X64040Y89940D02*
Y91500D01*
X58250Y56700D02*
Y84150D01*
X64040Y89940D01*
X57175Y84275D02*
X62850Y89950D01*
Y97350D02*
X63750Y98250D01*
X52255Y53530D02*
Y53830D01*
X53177Y54752D02*
X55452D01*
X52255Y53830D02*
X53177Y54752D01*
X61175Y91175D02*
X62049Y92049D01*
X61175Y89600D02*
Y91175D01*
X60200Y88625D02*
X61175Y89600D01*
X57175Y88625D02*
X60200D01*
X54325Y91475D02*
X57175Y88625D01*
X55452Y54752D02*
X57175Y56475D01*
Y84275D01*
X55100Y53550D02*
X58250Y56700D01*
X22340Y91475D02*
X54325D01*
X41521Y73504D02*
X48839D01*
X53275Y77940D01*
X41050Y73125D02*
X51000D01*
X27641Y87384D02*
Y87467D01*
X27584Y86591D02*
X41050Y73125D01*
X27641Y87384D02*
X41521Y73504D01*
X27317Y87791D02*
X27641Y87467D01*
X53404Y4254D02*
Y46796D01*
X53350Y46850D02*
X53404Y46796D01*
X51048Y49941D02*
X57125Y43864D01*
Y6844D02*
Y43864D01*
X51048Y49941D02*
Y56573D01*
X24566Y88981D02*
X51061Y62486D01*
X51048Y56573D02*
X51061Y56586D01*
Y62486D01*
X56325Y6044D02*
X57125Y6844D01*
X56325Y5950D02*
Y6044D01*
X52670Y3520D02*
X53404Y4254D01*
X52708Y5607D02*
Y32955D01*
X24409Y88602D02*
X50555Y62455D01*
Y35108D02*
X52708Y32955D01*
X50555Y35108D02*
Y62455D01*
X49625Y34098D02*
X51348Y32375D01*
X50250Y34500D02*
X52225Y32525D01*
X50249Y34500D02*
X50250D01*
X50100Y34649D02*
X50249Y34500D01*
X52225Y30994D02*
Y32525D01*
X51231Y30000D02*
X52225Y30994D01*
X50100Y34649D02*
Y62375D01*
X24252Y88223D02*
X50100Y62375D01*
X49625Y34098D02*
Y62194D01*
X50050Y30000D02*
X51231D01*
X23975Y87844D02*
X49625Y62194D01*
X52023Y4922D02*
X52708Y5607D01*
X48590Y61984D02*
X48619Y61928D01*
X46334Y63168D02*
X47861Y61614D01*
X52023Y4572D02*
Y4922D01*
X48240Y23685D02*
Y61771D01*
X49195Y28899D02*
X49225Y28862D01*
X48998Y29096D02*
Y62197D01*
X47203Y61736D02*
X47277Y61662D01*
X48950Y62263D02*
X48998Y62197D01*
X51579Y13889D02*
Y28096D01*
X47482Y20970D02*
Y28468D01*
X46115Y18790D02*
X47861Y20536D01*
X49347Y28684D02*
X49495Y28535D01*
X48998Y29096D02*
X49195Y28899D01*
X48240Y23685D02*
X49377Y22548D01*
X49225Y28862D02*
X49347Y28684D01*
X47861Y20536D02*
Y61614D01*
X48017Y62194D02*
X48240Y61771D01*
X50546Y13392D02*
X51200Y14046D01*
X51144Y28531D02*
X51579Y28096D01*
X49495Y28535D02*
X49606Y28535D01*
X48619Y26333D02*
X51164Y23788D01*
X51200Y23728D01*
Y14046D02*
Y23728D01*
X48619Y27957D02*
X48619Y61928D01*
X48619Y26333D02*
Y27957D01*
X47277Y61662D02*
X47482Y28468D01*
X45681Y19169D02*
X47482Y20970D01*
X48396Y62351D02*
X48590Y61984D01*
X50925Y13235D02*
X51579Y13889D01*
X50546Y4687D02*
Y13392D01*
X50925Y4706D02*
Y13235D01*
X50072Y28552D02*
X51144Y28531D01*
X22351Y88223D02*
X24252D01*
X20726Y87844D02*
X23975D01*
X24438Y88981D02*
X24566D01*
X17577Y91998D02*
X19113D01*
X20654Y91096D02*
X22323D01*
X16873Y92702D02*
X17577Y91998D01*
X18550Y93200D02*
X20654Y91096D01*
X25675Y89350D02*
Y90425D01*
X27234Y87791D02*
X27317D01*
X51000Y73125D02*
X53753Y75878D01*
X27584Y86591D02*
Y86744D01*
X25675Y89350D02*
X27234Y87791D01*
X27089Y87239D02*
X27584Y86744D01*
X22323Y91096D02*
X24438Y88981D01*
X16873Y92702D02*
Y94538D01*
X18075Y95740D01*
X19113Y91998D02*
X22508Y88602D01*
X24409D01*
X17420Y91619D02*
X18956D01*
X15535Y93200D02*
X15839D01*
X18956Y91619D02*
X22351Y88223D01*
X15839Y93200D02*
X17420Y91619D01*
X18075Y93200D02*
X18550D01*
X16949Y90482D02*
X17017D01*
X7653Y91047D02*
X16384D01*
X6532Y90668D02*
X16227D01*
X6218Y89910D02*
X15913D01*
X6375Y90289D02*
X16070D01*
X16227Y90668D02*
X16792Y90103D01*
X16070Y90289D02*
X16635Y89724D01*
X16541Y91426D02*
X17106Y90861D01*
X17263Y91240D02*
X17331D01*
X16384Y91047D02*
X16949Y90482D01*
X9974Y91426D02*
X16541D01*
X16792Y90103D02*
X16860D01*
X12320Y91805D02*
X16698D01*
X17263Y91240D01*
X16478Y89345D02*
X16546D01*
X15913Y89910D02*
X16478Y89345D01*
X17106Y90861D02*
X17174D01*
X16635Y89724D02*
X16703D01*
X33476Y41084D02*
X33479Y41081D01*
X37887Y40702D02*
X38821Y41636D01*
X21049Y40702D02*
X37887D01*
X37730Y41081D02*
X38442Y41793D01*
X33479Y41081D02*
X37730D01*
X19460Y42291D02*
X21049Y40702D01*
X23207Y41084D02*
X33476D01*
X22000Y42291D02*
X23207Y41084D01*
X38356Y24640D02*
X39850Y26134D01*
X21363Y24640D02*
X38356D01*
X19460Y26543D02*
X21363Y24640D01*
X22000Y26543D02*
X23524Y25019D01*
X37759D01*
X39350Y26610D01*
X39850Y26134D02*
Y56714D01*
X42097Y18824D02*
X42442Y19169D01*
X41452Y18595D02*
X41830Y18217D01*
X41654Y11484D02*
Y17857D01*
X41830Y18217D02*
X42729D01*
X40275Y18700D02*
X41275Y17700D01*
X40654Y18857D02*
X41654Y17857D01*
X42004Y18824D02*
X42097D01*
X41206Y19018D02*
Y19111D01*
Y19018D02*
X41452Y18772D01*
X40275Y18700D02*
Y57093D01*
X41275Y12065D02*
Y17700D01*
X40654Y18857D02*
Y57399D01*
X41452Y18595D02*
Y18772D01*
X42442Y19169D02*
X45681D01*
X38044Y7874D02*
X41654Y11484D01*
X37846Y8636D02*
X41275Y12065D01*
X51014Y3538D02*
X51430Y3141D01*
X50925Y4182D02*
Y4444D01*
X51336Y3759D02*
X51402Y3706D01*
X50999Y4108D02*
X51131Y3977D01*
X51430Y3141D02*
X51458Y3117D01*
X50546Y4025D02*
Y4463D01*
X51131Y3977D02*
X51184Y3911D01*
X50925Y4182D02*
X50999Y4108D01*
X51458Y3117D02*
X51600Y2975D01*
X50546Y4025D02*
X50965Y3586D01*
X51402Y3706D02*
X51587Y3520D01*
X42729Y18217D02*
X43302Y18790D01*
X46115D01*
X49377Y22548D02*
X50050Y21875D01*
X49377Y22548D02*
X49377D01*
X43900Y20156D02*
Y26153D01*
X43844Y20100D02*
X43900Y20156D01*
X20098Y86328D02*
X23174D01*
X48381Y62366D02*
X48396Y62351D01*
X23174Y86328D02*
X46334Y63168D01*
X48775Y62508D02*
X48950Y62263D01*
X47943Y62268D02*
X48017Y62194D01*
X48322Y62425D02*
X48381Y62366D01*
X42906Y19559D02*
X42961D01*
X42650Y19721D02*
X42744D01*
X42906Y19559D01*
X45419Y19548D02*
X46577Y20706D01*
X42972Y19548D02*
X45419D01*
X46577Y20706D02*
Y61290D01*
X42961Y19559D02*
X42972Y19548D01*
X41546Y29043D02*
X44601Y25988D01*
Y20124D02*
Y25988D01*
Y20124D02*
X44625Y20100D01*
X41167Y28886D02*
X43900Y26153D01*
X45197Y62670D02*
X46577Y61290D01*
X40432Y57621D02*
X40654Y57399D01*
X40432Y57621D02*
Y57621D01*
X45955Y62984D02*
X47203Y61736D01*
X23504Y86707D02*
X47943Y62268D01*
X23661Y87086D02*
X48322Y62425D01*
X48701Y62582D02*
X48775Y62508D01*
X49606Y28535D02*
X50008Y28551D01*
X23818Y87465D02*
X48701Y62582D01*
X8413Y69002D02*
X12640Y64775D01*
X33350D01*
X41546Y29043D02*
Y57654D01*
X41167Y28886D02*
Y57422D01*
X29133Y57242D02*
X40126D01*
X40275Y57093D01*
X31504Y57621D02*
X40432D01*
X40589Y58000D02*
X41093Y57496D01*
X41167Y57422D01*
X33795Y58000D02*
X40589D01*
X40800Y58400D02*
X41472Y57728D01*
X35800Y58400D02*
X40800D01*
X41472Y57728D02*
X41546Y57654D01*
X24436Y56863D02*
X39701D01*
X39850Y56714D01*
X38442Y41793D02*
Y55258D01*
X38207Y55493D02*
X38442Y55258D01*
X21735Y55493D02*
X38207D01*
X38672Y55872D02*
X38821Y55723D01*
X21892Y55872D02*
X38672D01*
X38821Y41636D02*
Y55723D01*
X21659Y56105D02*
X21892Y55872D01*
X39350Y26610D02*
Y56251D01*
X20045Y56105D02*
X21659D01*
X21502Y55726D02*
X21735Y55493D01*
X19400Y58900D02*
X21900Y56400D01*
X17624Y55726D02*
X21502D01*
X21900Y56400D02*
X39201D01*
X39350Y56251D01*
X59375Y98914D02*
Y98914D01*
X59984Y99523D01*
X58586Y98125D02*
X59375Y98914D01*
X55800Y98125D02*
X58586D01*
X59575Y100075D02*
X62650D01*
X62675Y100050D01*
X58450Y98950D02*
X59575Y100075D01*
X55750Y98950D02*
X58450D01*
X42400Y55250D02*
Y57575D01*
X41125Y58850D02*
X42400Y57575D01*
X14300Y59050D02*
X17624Y55726D01*
X21925Y59374D02*
X24436Y56863D01*
X16750Y59400D02*
X20045Y56105D01*
X17109Y98477D02*
X25311Y106680D01*
X4269Y98477D02*
X17109D01*
X4112Y98856D02*
X16952D01*
X25154Y107059D01*
X23017Y85949D02*
X45955Y63011D01*
X20699Y85191D02*
X41741Y64150D01*
X15261Y88394D02*
X40935Y62720D01*
X20542Y84812D02*
X41584Y63771D01*
X45955Y62984D02*
Y63011D01*
X17331Y91240D02*
X20726Y87844D01*
X5904Y89152D02*
X15575D01*
X16546Y89345D02*
X19941Y85949D01*
X17017Y90482D02*
X20412Y87086D01*
X14260Y88015D02*
X38373Y63902D01*
X16703Y89724D02*
X20098Y86328D01*
X17174Y90861D02*
X20569Y87465D01*
X15418Y88773D02*
X19379Y84812D01*
X12250Y86525D02*
X14200D01*
X37125Y63600D01*
X16860Y90103D02*
X20255Y86707D01*
X5747Y88773D02*
X15418D01*
X19941Y85949D02*
X23017D01*
X5590Y88394D02*
X10922D01*
X5433Y88015D02*
X14260D01*
X10922Y88394D02*
X15261D01*
X15575Y89152D02*
X19536Y85191D01*
X20569Y87465D02*
X23818D01*
X20255Y86707D02*
X23504D01*
X20412Y87086D02*
X23661D01*
X51587Y3520D02*
X52670D01*
X51600Y2975D02*
X53290D01*
X54523Y4208D02*
Y4572D01*
X53290Y2975D02*
X54523Y4208D01*
X45732Y60666D02*
Y61088D01*
Y60666D02*
X45798Y60600D01*
X45437Y61382D02*
X45732Y61088D01*
X38033Y61382D02*
X45437D01*
X45197Y62670D02*
Y62697D01*
X43745Y64150D02*
X45197Y62697D01*
X5375Y91825D02*
X6532Y90668D01*
X5375Y91825D02*
Y93200D01*
X41584Y63771D02*
X41584D01*
X41785Y63570D01*
X19379Y84812D02*
X20542D01*
X19536Y85191D02*
X20699D01*
X41785Y63570D02*
X41847Y63508D01*
Y63503D02*
Y63508D01*
X41741Y64150D02*
X43745D01*
X38373Y62742D02*
X38395Y62720D01*
X38373Y62742D02*
Y63902D01*
X37125Y62290D02*
Y63600D01*
X37975Y58850D02*
X41125D01*
X37125Y62290D02*
X38033Y61382D01*
X12012Y103175D02*
X20498D01*
X11248Y102411D02*
X12012Y103175D01*
X20498D02*
X24761Y107438D01*
X35855Y62720D02*
X37072Y61503D01*
Y59753D02*
Y61503D01*
Y59753D02*
X37975Y58850D01*
X33350Y64775D02*
X34650Y63475D01*
Y59550D02*
Y63475D01*
X11248Y100523D02*
Y102411D01*
X9960Y99235D02*
X11248Y100523D01*
X3955Y99235D02*
X9960D01*
X4406Y98079D02*
X12892D01*
X13650Y97321D01*
X25154Y107059D02*
X45845D01*
X24761Y107438D02*
X44192D01*
X2204Y96949D02*
X4112Y98856D01*
X2962Y96635D02*
X4406Y98079D01*
X13650Y97321D02*
X13650D01*
X31325Y64300D02*
X31991Y63634D01*
X7915Y67800D02*
X11415Y64300D01*
X31325D01*
X14300Y59050D02*
Y61415D01*
X16750Y59400D02*
Y61505D01*
X12995Y62720D02*
X14300Y61415D01*
X31991Y59804D02*
X33795Y58000D01*
X34650Y59550D02*
X35800Y58400D01*
X26975Y59400D02*
X29133Y57242D01*
X29575Y59550D02*
X31504Y57621D01*
X4720Y97321D02*
X11414D01*
X12995Y95740D01*
X3720Y96321D02*
X4720Y97321D01*
X2583Y96792D02*
X4269Y98477D01*
X2583Y91937D02*
X5747Y88773D01*
X2962Y92094D02*
X5904Y89152D01*
X2204Y91780D02*
X5590Y88394D01*
X10896Y96942D02*
X10964Y96874D01*
X3720Y92408D02*
Y96321D01*
X4877Y96942D02*
X10896D01*
X4099Y96164D02*
X4877Y96942D01*
X11021Y96874D02*
X11793Y96102D01*
X4099Y92565D02*
Y96164D01*
X10964Y96874D02*
X11021D01*
X2962Y92094D02*
Y96635D01*
X2583Y91937D02*
Y96792D01*
X11793Y95242D02*
Y96102D01*
Y95242D02*
X12048Y94987D01*
Y94147D02*
Y94987D01*
X13650Y97321D02*
X15231Y95740D01*
X1825Y97106D02*
X3955Y99235D01*
X2204Y91780D02*
Y96949D01*
X11669Y92456D02*
X12320Y91805D01*
X11669Y92456D02*
Y94526D01*
X9253Y92147D02*
Y94402D01*
Y92147D02*
X9974Y91426D01*
X6577Y92123D02*
X7653Y91047D01*
X6577Y92123D02*
Y94538D01*
X4099Y92565D02*
X6375Y90289D01*
X3720Y92408D02*
X6218Y89910D01*
X1825Y91623D02*
Y97106D01*
Y91623D02*
X5433Y88015D01*
X20615Y93200D02*
X22340Y91475D01*
X5375Y95740D02*
X6577Y94538D01*
X12048Y94147D02*
X12995Y93200D01*
X15231Y95740D02*
X15535D01*
X10455D02*
X11669Y94526D01*
X31991Y59804D02*
Y63634D01*
X42630Y62720D02*
X43475D01*
X41847Y63503D02*
X42630Y62720D01*
X7915Y95740D02*
X9253Y94402D01*
X25311Y106680D02*
X47498D01*
X6713Y69002D02*
X8413D01*
X5375Y70340D02*
X6713Y69002D01*
X21925Y59374D02*
Y61410D01*
X18075Y62720D02*
X19400Y61395D01*
Y58900D02*
Y61395D01*
X15535Y62720D02*
X16750Y61505D01*
X20615Y62720D02*
X21925Y61410D01*
X25695Y62720D02*
X26975Y61440D01*
Y59400D02*
Y61440D01*
X28235Y62720D02*
X29575Y61380D01*
Y59550D02*
Y61380D01*
X47498Y106680D02*
X51608Y110790D01*
X54420D01*
X22127Y7874D02*
X38044D01*
X23905Y8636D02*
X37846D01*
X19460Y10541D02*
X22127Y7874D01*
X22000Y10541D02*
X23905Y8636D01*
D30*
X64000Y83625D02*
D03*
X66500D02*
D03*
X61500D02*
D03*
X61100Y65075D02*
D03*
X66100D02*
D03*
X63600D02*
D03*
X61275Y54450D02*
D03*
X66275D02*
D03*
X63775D02*
D03*
D48*
X39275Y82535D02*
X41325Y80485D01*
X39275Y89300D02*
X40600Y90625D01*
X39275Y82535D02*
Y89300D01*
X40600Y90625D02*
X53775D01*
X54975Y89425D01*
Y70975D02*
Y89425D01*
Y70975D02*
X55095Y70855D01*
Y56095D02*
Y70855D01*
X52260Y56085D02*
X55085D01*
X52250Y56075D02*
X52260Y56085D01*
X55085D02*
X55095Y56095D01*
D49*
X53936Y98864D02*
X54075Y98725D01*
X53635Y95735D02*
Y96033D01*
Y93195D02*
Y95735D01*
X41325Y83020D02*
X53275D01*
X19460Y38543D02*
X20967Y40050D01*
X32902D01*
X34409Y38543D01*
X34700D01*
Y22541D02*
X34998D01*
X50700Y101150D02*
X50756Y101094D01*
X52431D01*
X53936Y99589D01*
Y98864D02*
Y99589D01*
X54075Y96473D02*
Y98725D01*
X53635Y96033D02*
X54075Y96473D01*
X51095Y93195D02*
Y95735D01*
D52*
X38200Y98775D02*
D03*
X28200D02*
D03*
X44050Y98800D02*
D03*
X54050D02*
D03*
D53*
X12500Y101000D02*
D03*
X22900D02*
D03*
Y117400D02*
D03*
X12500D02*
D03*
X26000Y117500D02*
D03*
X36400D02*
D03*
Y101100D02*
D03*
X26000D02*
D03*
X39725Y101125D02*
D03*
X50125D02*
D03*
Y117525D02*
D03*
X39725D02*
D03*
D54*
X55100Y51010D02*
D03*
X52255Y50990D02*
D03*
X63295Y111285D02*
D03*
X53275Y75400D02*
D03*
X59480Y102900D02*
D03*
D55*
X55100Y53550D02*
D03*
X55095Y56095D02*
D03*
X52255Y53530D02*
D03*
X52250Y56075D02*
D03*
X64040Y91500D02*
D03*
X66585Y91505D02*
D03*
X24575Y15575D02*
D03*
X27115D02*
D03*
X29655D02*
D03*
X34730Y15570D02*
D03*
X37275Y15575D02*
D03*
X32195D02*
D03*
X63300Y106200D02*
D03*
X63295Y108745D02*
D03*
Y103665D02*
D03*
X41325Y77940D02*
D03*
X53275D02*
D03*
X41325Y75400D02*
D03*
X53275Y88100D02*
D03*
Y85560D02*
D03*
X53280Y80485D02*
D03*
X53275Y83020D02*
D03*
X41330Y85560D02*
D03*
X41325Y83020D02*
D03*
Y80485D02*
D03*
Y88100D02*
D03*
X56175Y95735D02*
D03*
X51095Y93195D02*
D03*
Y95735D02*
D03*
X53635D02*
D03*
X56175Y93195D02*
D03*
X53635D02*
D03*
X5375Y93200D02*
D03*
X7915D02*
D03*
X10455D02*
D03*
X12995D02*
D03*
X15535D02*
D03*
X18075D02*
D03*
X20615D02*
D03*
X5375Y95740D02*
D03*
X7915D02*
D03*
X10455D02*
D03*
X12995D02*
D03*
X15535D02*
D03*
X20615D02*
D03*
X23155Y93200D02*
D03*
X25695D02*
D03*
X28235D02*
D03*
X23155Y95740D02*
D03*
X25695D02*
D03*
X28235D02*
D03*
X30775Y93200D02*
D03*
X33315D02*
D03*
X35855D02*
D03*
X30775Y95740D02*
D03*
X33315D02*
D03*
X35855D02*
D03*
X38395D02*
D03*
X40935D02*
D03*
X43475D02*
D03*
X40935Y93200D02*
D03*
X38395D02*
D03*
X18075Y95740D02*
D03*
X5375Y62720D02*
D03*
X7915D02*
D03*
X30789Y60193D02*
D03*
X7915Y70340D02*
D03*
Y65260D02*
D03*
X5375D02*
D03*
X7915Y67800D02*
D03*
X5375D02*
D03*
Y70340D02*
D03*
X25695Y62720D02*
D03*
X33315D02*
D03*
X30775D02*
D03*
X28235D02*
D03*
X35855D02*
D03*
X43475D02*
D03*
X40935D02*
D03*
X38395D02*
D03*
X25695Y60180D02*
D03*
X33315D02*
D03*
X28235D02*
D03*
X38395D02*
D03*
X35855D02*
D03*
X40935D02*
D03*
X43475D02*
D03*
X18075Y62720D02*
D03*
X20615D02*
D03*
X23155D02*
D03*
X7915Y60180D02*
D03*
X10455D02*
D03*
X12995D02*
D03*
X15535D02*
D03*
X23155D02*
D03*
X20615D02*
D03*
X18075D02*
D03*
X5375D02*
D03*
X10455Y62720D02*
D03*
X12995D02*
D03*
X15535D02*
D03*
X37240Y26543D02*
D03*
X34700D02*
D03*
X32160D02*
D03*
X29620D02*
D03*
X24545Y26538D02*
D03*
X22000Y26543D02*
D03*
X27080D02*
D03*
X37240Y38543D02*
D03*
X34700D02*
D03*
X32160D02*
D03*
X29620D02*
D03*
X24545Y38538D02*
D03*
X22000Y38543D02*
D03*
X19460D02*
D03*
X27080D02*
D03*
X66295Y98255D02*
D03*
X63750Y98250D02*
D03*
X27080Y54291D02*
D03*
X19460D02*
D03*
X22000D02*
D03*
X24545Y54286D02*
D03*
X29620Y54291D02*
D03*
X32160D02*
D03*
X34700D02*
D03*
X37240D02*
D03*
X27080Y42291D02*
D03*
X22000D02*
D03*
X24545Y42286D02*
D03*
X29620Y42291D02*
D03*
X32160D02*
D03*
X34700D02*
D03*
X37240D02*
D03*
Y10541D02*
D03*
X34700D02*
D03*
X32160D02*
D03*
X29620D02*
D03*
X24545Y10536D02*
D03*
X22000Y10541D02*
D03*
X27080D02*
D03*
X37240Y22541D02*
D03*
X34700D02*
D03*
X32160D02*
D03*
X29620D02*
D03*
X24545Y22536D02*
D03*
X22000Y22541D02*
D03*
X19460D02*
D03*
X27080D02*
D03*
X59480Y107980D02*
D03*
Y105440D02*
D03*
Y110520D02*
D03*
Y113060D02*
D03*
Y115600D02*
D03*
X56940Y107980D02*
D03*
Y105440D02*
D03*
Y102900D02*
D03*
Y110520D02*
D03*
Y113060D02*
D03*
Y115600D02*
D03*
X54400Y107980D02*
D03*
Y105440D02*
D03*
Y102900D02*
D03*
Y110520D02*
D03*
Y113060D02*
D03*
Y115600D02*
D03*
D56*
X50050Y30000D02*
D03*
Y21875D02*
D03*
X5587Y102787D02*
D03*
X14000Y34381D02*
D03*
Y18379D02*
D03*
X5600Y110525D02*
D03*
X14000Y50129D02*
D03*
D57*
X50050Y27500D02*
D03*
Y19375D02*
D03*
X59500Y4575D02*
D03*
X54500D02*
D03*
X52000D02*
D03*
X49500D02*
D03*
X57000D02*
D03*
X5587Y100287D02*
D03*
X14000Y26881D02*
D03*
Y29381D02*
D03*
Y31881D02*
D03*
Y15879D02*
D03*
Y13379D02*
D03*
Y10879D02*
D03*
X5600Y108025D02*
D03*
X4286Y39497D02*
D03*
X7786D02*
D03*
X4286Y51943D02*
D03*
X7786D02*
D03*
X4286Y24511D02*
D03*
X7786D02*
D03*
X14000Y47629D02*
D03*
Y45129D02*
D03*
Y42629D02*
D03*
D58*
X61500Y91500D02*
D03*
X39815Y15575D02*
D03*
X43475Y93200D02*
D03*
X19460Y26543D02*
D03*
X61210Y98250D02*
D03*
X19460Y42291D02*
D03*
Y10541D02*
D03*
D59*
X44202Y16152D02*
D03*
X44075Y39775D02*
D03*
D60*
X47000Y4575D02*
D03*
D61*
X4000Y77000D02*
D03*
X66000D02*
D03*
X4000Y116000D02*
D03*
X66000D02*
D03*
X4000Y4000D02*
D03*
X66000D02*
D03*
D62*
X59200Y96925D02*
D03*
X8725Y113925D02*
D03*
X7038Y111812D02*
D03*
X11825Y111350D02*
D03*
X59650Y89450D02*
D03*
X58500Y89652D02*
D03*
X53350Y46850D02*
D03*
X51348Y32375D02*
D03*
X27089Y87239D02*
D03*
X10000Y37147D02*
D03*
Y35000D02*
D03*
Y40000D02*
D03*
Y25000D02*
D03*
X7800Y20050D02*
D03*
X42004Y18824D02*
D03*
X41206Y19111D02*
D03*
X7500Y27500D02*
D03*
X10000Y30000D02*
D03*
Y32500D02*
D03*
X7500Y30000D02*
D03*
X43844Y20100D02*
D03*
X42650Y19721D02*
D03*
X44625Y20100D02*
D03*
X62675Y100050D02*
D03*
X59984Y99523D02*
D03*
X55750Y98950D02*
D03*
X55800Y98125D02*
D03*
X42400Y55250D02*
D03*
X12250Y86525D02*
D03*
X45798Y60600D02*
D03*
X56325Y5950D02*
D03*
X25675Y90425D02*
D03*
X8100Y110400D02*
D03*
X13775Y113925D02*
D03*
X10425Y113600D02*
D03*
X10500Y14000D02*
D03*
Y8750D02*
D03*
X14000Y5250D02*
D03*
X19250Y3250D02*
D03*
X30500D02*
D03*
X27250D02*
D03*
X23250D02*
D03*
X7500Y50000D02*
D03*
Y47500D02*
D03*
Y45000D02*
D03*
X10000D02*
D03*
Y47500D02*
D03*
Y50000D02*
D03*
Y27500D02*
D03*
Y22500D02*
D03*
Y20000D02*
D03*
D63*
X59500Y103170D02*
Y115870D01*
D64*
X23300Y102900D02*
X25250Y104850D01*
X23300Y101400D02*
Y102900D01*
X22900Y101000D02*
X23300Y101400D01*
X35749Y103750D02*
X36100Y103399D01*
Y101125D02*
Y103399D01*
M02*
